<?xml version="1.0" encoding="utf-8" standalone="no"?>
<!DOCTYPE svg PUBLIC "-//W3C//DTD SVG 1.1//EN"
  "http://www.w3.org/Graphics/SVG/1.1/DTD/svg11.dtd">
<!-- Created with matplotlib (https://matplotlib.org/) -->
<svg height="345.6pt" version="1.1" viewBox="0 0 460.8 345.6" width="460.8pt" xmlns="http://www.w3.org/2000/svg" xmlns:xlink="http://www.w3.org/1999/xlink">
 <metadata>
  <rdf:RDF xmlns:cc="http://creativecommons.org/ns#" xmlns:dc="http://purl.org/dc/elements/1.1/" xmlns:rdf="http://www.w3.org/1999/02/22-rdf-syntax-ns#">
   <cc:Work>
    <dc:type rdf:resource="http://purl.org/dc/dcmitype/StillImage"/>
    <dc:date>2020-11-17T19:43:18.490397</dc:date>
    <dc:format>image/svg+xml</dc:format>
    <dc:creator>
     <cc:Agent>
      <dc:title>Matplotlib v3.3.2, https://matplotlib.org/</dc:title>
     </cc:Agent>
    </dc:creator>
   </cc:Work>
  </rdf:RDF>
 </metadata>
 <defs>
  <style type="text/css">*{stroke-linecap:butt;stroke-linejoin:round;}</style>
 </defs>
 <g id="figure_1">
  <g id="patch_1">
   <path d="M 0 345.6 
L 460.8 345.6 
L 460.8 0 
L 0 0 
z
" style="fill:#ffffff;"/>
  </g>
  <g id="axes_1">
   <g id="patch_2">
    <path d="M 69.86 286.886956 
L 450 286.886956 
L 450 26.88 
L 69.86 26.88 
z
" style="fill:#ffffff;"/>
   </g>
   <g id="matplotlib.axis_1">
    <g id="xtick_1">
     <g id="line2d_1">
      <path clip-path="url(#p81fdbc594c)" d="M 87.139091 286.886956 
L 87.139091 26.88 
" style="fill:none;stroke:#b0b0b0;stroke-linecap:square;stroke-width:0.8;"/>
     </g>
     <g id="line2d_2">
      <defs>
       <path d="M 0 0 
L 0 3.5 
" id="m851892db7d" style="stroke:#000000;stroke-width:0.8;"/>
      </defs>
      <g>
       <use style="stroke:#000000;stroke-width:0.8;" x="87.139091" xlink:href="#m851892db7d" y="286.886956"/>
      </g>
     </g>
     <g id="text_1">
      <!-- 20170103 -->
      <g transform="translate(64.167676 318.435977)rotate(-20)scale(0.1 -0.1)">
       <defs>
        <path d="M 19.1875 8.296875 
L 53.609375 8.296875 
L 53.609375 0 
L 7.328125 0 
L 7.328125 8.296875 
Q 12.9375 14.109375 22.625 23.890625 
Q 32.328125 33.6875 34.8125 36.53125 
Q 39.546875 41.84375 41.421875 45.53125 
Q 43.3125 49.21875 43.3125 52.78125 
Q 43.3125 58.59375 39.234375 62.25 
Q 35.15625 65.921875 28.609375 65.921875 
Q 23.96875 65.921875 18.8125 64.3125 
Q 13.671875 62.703125 7.8125 59.421875 
L 7.8125 69.390625 
Q 13.765625 71.78125 18.9375 73 
Q 24.125 74.21875 28.421875 74.21875 
Q 39.75 74.21875 46.484375 68.546875 
Q 53.21875 62.890625 53.21875 53.421875 
Q 53.21875 48.921875 51.53125 44.890625 
Q 49.859375 40.875 45.40625 35.40625 
Q 44.1875 33.984375 37.640625 27.21875 
Q 31.109375 20.453125 19.1875 8.296875 
z
" id="DejaVuSans-50"/>
        <path d="M 31.78125 66.40625 
Q 24.171875 66.40625 20.328125 58.90625 
Q 16.5 51.421875 16.5 36.375 
Q 16.5 21.390625 20.328125 13.890625 
Q 24.171875 6.390625 31.78125 6.390625 
Q 39.453125 6.390625 43.28125 13.890625 
Q 47.125 21.390625 47.125 36.375 
Q 47.125 51.421875 43.28125 58.90625 
Q 39.453125 66.40625 31.78125 66.40625 
z
M 31.78125 74.21875 
Q 44.046875 74.21875 50.515625 64.515625 
Q 56.984375 54.828125 56.984375 36.375 
Q 56.984375 17.96875 50.515625 8.265625 
Q 44.046875 -1.421875 31.78125 -1.421875 
Q 19.53125 -1.421875 13.0625 8.265625 
Q 6.59375 17.96875 6.59375 36.375 
Q 6.59375 54.828125 13.0625 64.515625 
Q 19.53125 74.21875 31.78125 74.21875 
z
" id="DejaVuSans-48"/>
        <path d="M 12.40625 8.296875 
L 28.515625 8.296875 
L 28.515625 63.921875 
L 10.984375 60.40625 
L 10.984375 69.390625 
L 28.421875 72.90625 
L 38.28125 72.90625 
L 38.28125 8.296875 
L 54.390625 8.296875 
L 54.390625 0 
L 12.40625 0 
z
" id="DejaVuSans-49"/>
        <path d="M 8.203125 72.90625 
L 55.078125 72.90625 
L 55.078125 68.703125 
L 28.609375 0 
L 18.3125 0 
L 43.21875 64.59375 
L 8.203125 64.59375 
z
" id="DejaVuSans-55"/>
        <path d="M 40.578125 39.3125 
Q 47.65625 37.796875 51.625 33 
Q 55.609375 28.21875 55.609375 21.1875 
Q 55.609375 10.40625 48.1875 4.484375 
Q 40.765625 -1.421875 27.09375 -1.421875 
Q 22.515625 -1.421875 17.65625 -0.515625 
Q 12.796875 0.390625 7.625 2.203125 
L 7.625 11.71875 
Q 11.71875 9.328125 16.59375 8.109375 
Q 21.484375 6.890625 26.8125 6.890625 
Q 36.078125 6.890625 40.9375 10.546875 
Q 45.796875 14.203125 45.796875 21.1875 
Q 45.796875 27.640625 41.28125 31.265625 
Q 36.765625 34.90625 28.71875 34.90625 
L 20.21875 34.90625 
L 20.21875 43.015625 
L 29.109375 43.015625 
Q 36.375 43.015625 40.234375 45.921875 
Q 44.09375 48.828125 44.09375 54.296875 
Q 44.09375 59.90625 40.109375 62.90625 
Q 36.140625 65.921875 28.71875 65.921875 
Q 24.65625 65.921875 20.015625 65.03125 
Q 15.375 64.15625 9.8125 62.3125 
L 9.8125 71.09375 
Q 15.4375 72.65625 20.34375 73.4375 
Q 25.25 74.21875 29.59375 74.21875 
Q 40.828125 74.21875 47.359375 69.109375 
Q 53.90625 64.015625 53.90625 55.328125 
Q 53.90625 49.265625 50.4375 45.09375 
Q 46.96875 40.921875 40.578125 39.3125 
z
" id="DejaVuSans-51"/>
       </defs>
       <use xlink:href="#DejaVuSans-50"/>
       <use x="63.623047" xlink:href="#DejaVuSans-48"/>
       <use x="127.246094" xlink:href="#DejaVuSans-49"/>
       <use x="190.869141" xlink:href="#DejaVuSans-55"/>
       <use x="254.492188" xlink:href="#DejaVuSans-48"/>
       <use x="318.115234" xlink:href="#DejaVuSans-49"/>
       <use x="381.738281" xlink:href="#DejaVuSans-48"/>
       <use x="445.361328" xlink:href="#DejaVuSans-51"/>
      </g>
     </g>
    </g>
    <g id="xtick_2">
     <g id="line2d_3">
      <path clip-path="url(#p81fdbc594c)" d="M 133.09412 286.886956 
L 133.09412 26.88 
" style="fill:none;stroke:#b0b0b0;stroke-linecap:square;stroke-width:0.8;"/>
     </g>
     <g id="line2d_4">
      <g>
       <use style="stroke:#000000;stroke-width:0.8;" x="133.09412" xlink:href="#m851892db7d" y="286.886956"/>
      </g>
     </g>
     <g id="text_2">
      <!-- 20170526 -->
      <g transform="translate(110.122705 318.435977)rotate(-20)scale(0.1 -0.1)">
       <defs>
        <path d="M 10.796875 72.90625 
L 49.515625 72.90625 
L 49.515625 64.59375 
L 19.828125 64.59375 
L 19.828125 46.734375 
Q 21.96875 47.46875 24.109375 47.828125 
Q 26.265625 48.1875 28.421875 48.1875 
Q 40.625 48.1875 47.75 41.5 
Q 54.890625 34.8125 54.890625 23.390625 
Q 54.890625 11.625 47.5625 5.09375 
Q 40.234375 -1.421875 26.90625 -1.421875 
Q 22.3125 -1.421875 17.546875 -0.640625 
Q 12.796875 0.140625 7.71875 1.703125 
L 7.71875 11.625 
Q 12.109375 9.234375 16.796875 8.0625 
Q 21.484375 6.890625 26.703125 6.890625 
Q 35.15625 6.890625 40.078125 11.328125 
Q 45.015625 15.765625 45.015625 23.390625 
Q 45.015625 31 40.078125 35.4375 
Q 35.15625 39.890625 26.703125 39.890625 
Q 22.75 39.890625 18.8125 39.015625 
Q 14.890625 38.140625 10.796875 36.28125 
z
" id="DejaVuSans-53"/>
        <path d="M 33.015625 40.375 
Q 26.375 40.375 22.484375 35.828125 
Q 18.609375 31.296875 18.609375 23.390625 
Q 18.609375 15.53125 22.484375 10.953125 
Q 26.375 6.390625 33.015625 6.390625 
Q 39.65625 6.390625 43.53125 10.953125 
Q 47.40625 15.53125 47.40625 23.390625 
Q 47.40625 31.296875 43.53125 35.828125 
Q 39.65625 40.375 33.015625 40.375 
z
M 52.59375 71.296875 
L 52.59375 62.3125 
Q 48.875 64.0625 45.09375 64.984375 
Q 41.3125 65.921875 37.59375 65.921875 
Q 27.828125 65.921875 22.671875 59.328125 
Q 17.53125 52.734375 16.796875 39.40625 
Q 19.671875 43.65625 24.015625 45.921875 
Q 28.375 48.1875 33.59375 48.1875 
Q 44.578125 48.1875 50.953125 41.515625 
Q 57.328125 34.859375 57.328125 23.390625 
Q 57.328125 12.15625 50.6875 5.359375 
Q 44.046875 -1.421875 33.015625 -1.421875 
Q 20.359375 -1.421875 13.671875 8.265625 
Q 6.984375 17.96875 6.984375 36.375 
Q 6.984375 53.65625 15.1875 63.9375 
Q 23.390625 74.21875 37.203125 74.21875 
Q 40.921875 74.21875 44.703125 73.484375 
Q 48.484375 72.75 52.59375 71.296875 
z
" id="DejaVuSans-54"/>
       </defs>
       <use xlink:href="#DejaVuSans-50"/>
       <use x="63.623047" xlink:href="#DejaVuSans-48"/>
       <use x="127.246094" xlink:href="#DejaVuSans-49"/>
       <use x="190.869141" xlink:href="#DejaVuSans-55"/>
       <use x="254.492188" xlink:href="#DejaVuSans-48"/>
       <use x="318.115234" xlink:href="#DejaVuSans-53"/>
       <use x="381.738281" xlink:href="#DejaVuSans-50"/>
       <use x="445.361328" xlink:href="#DejaVuSans-54"/>
      </g>
     </g>
    </g>
    <g id="xtick_3">
     <g id="line2d_5">
      <path clip-path="url(#p81fdbc594c)" d="M 179.049149 286.886956 
L 179.049149 26.88 
" style="fill:none;stroke:#b0b0b0;stroke-linecap:square;stroke-width:0.8;"/>
     </g>
     <g id="line2d_6">
      <g>
       <use style="stroke:#000000;stroke-width:0.8;" x="179.049149" xlink:href="#m851892db7d" y="286.886956"/>
      </g>
     </g>
     <g id="text_3">
      <!-- 20171018 -->
      <g transform="translate(156.077734 318.435977)rotate(-20)scale(0.1 -0.1)">
       <defs>
        <path d="M 31.78125 34.625 
Q 24.75 34.625 20.71875 30.859375 
Q 16.703125 27.09375 16.703125 20.515625 
Q 16.703125 13.921875 20.71875 10.15625 
Q 24.75 6.390625 31.78125 6.390625 
Q 38.8125 6.390625 42.859375 10.171875 
Q 46.921875 13.96875 46.921875 20.515625 
Q 46.921875 27.09375 42.890625 30.859375 
Q 38.875 34.625 31.78125 34.625 
z
M 21.921875 38.8125 
Q 15.578125 40.375 12.03125 44.71875 
Q 8.5 49.078125 8.5 55.328125 
Q 8.5 64.0625 14.71875 69.140625 
Q 20.953125 74.21875 31.78125 74.21875 
Q 42.671875 74.21875 48.875 69.140625 
Q 55.078125 64.0625 55.078125 55.328125 
Q 55.078125 49.078125 51.53125 44.71875 
Q 48 40.375 41.703125 38.8125 
Q 48.828125 37.15625 52.796875 32.3125 
Q 56.78125 27.484375 56.78125 20.515625 
Q 56.78125 9.90625 50.3125 4.234375 
Q 43.84375 -1.421875 31.78125 -1.421875 
Q 19.734375 -1.421875 13.25 4.234375 
Q 6.78125 9.90625 6.78125 20.515625 
Q 6.78125 27.484375 10.78125 32.3125 
Q 14.796875 37.15625 21.921875 38.8125 
z
M 18.3125 54.390625 
Q 18.3125 48.734375 21.84375 45.5625 
Q 25.390625 42.390625 31.78125 42.390625 
Q 38.140625 42.390625 41.71875 45.5625 
Q 45.3125 48.734375 45.3125 54.390625 
Q 45.3125 60.0625 41.71875 63.234375 
Q 38.140625 66.40625 31.78125 66.40625 
Q 25.390625 66.40625 21.84375 63.234375 
Q 18.3125 60.0625 18.3125 54.390625 
z
" id="DejaVuSans-56"/>
       </defs>
       <use xlink:href="#DejaVuSans-50"/>
       <use x="63.623047" xlink:href="#DejaVuSans-48"/>
       <use x="127.246094" xlink:href="#DejaVuSans-49"/>
       <use x="190.869141" xlink:href="#DejaVuSans-55"/>
       <use x="254.492188" xlink:href="#DejaVuSans-49"/>
       <use x="318.115234" xlink:href="#DejaVuSans-48"/>
       <use x="381.738281" xlink:href="#DejaVuSans-49"/>
       <use x="445.361328" xlink:href="#DejaVuSans-56"/>
      </g>
     </g>
    </g>
    <g id="xtick_4">
     <g id="line2d_7">
      <path clip-path="url(#p81fdbc594c)" d="M 225.004178 286.886956 
L 225.004178 26.88 
" style="fill:none;stroke:#b0b0b0;stroke-linecap:square;stroke-width:0.8;"/>
     </g>
     <g id="line2d_8">
      <g>
       <use style="stroke:#000000;stroke-width:0.8;" x="225.004178" xlink:href="#m851892db7d" y="286.886956"/>
      </g>
     </g>
     <g id="text_4">
      <!-- 20180314 -->
      <g transform="translate(202.032763 318.435977)rotate(-20)scale(0.1 -0.1)">
       <defs>
        <path d="M 37.796875 64.3125 
L 12.890625 25.390625 
L 37.796875 25.390625 
z
M 35.203125 72.90625 
L 47.609375 72.90625 
L 47.609375 25.390625 
L 58.015625 25.390625 
L 58.015625 17.1875 
L 47.609375 17.1875 
L 47.609375 0 
L 37.796875 0 
L 37.796875 17.1875 
L 4.890625 17.1875 
L 4.890625 26.703125 
z
" id="DejaVuSans-52"/>
       </defs>
       <use xlink:href="#DejaVuSans-50"/>
       <use x="63.623047" xlink:href="#DejaVuSans-48"/>
       <use x="127.246094" xlink:href="#DejaVuSans-49"/>
       <use x="190.869141" xlink:href="#DejaVuSans-56"/>
       <use x="254.492188" xlink:href="#DejaVuSans-48"/>
       <use x="318.115234" xlink:href="#DejaVuSans-51"/>
       <use x="381.738281" xlink:href="#DejaVuSans-49"/>
       <use x="445.361328" xlink:href="#DejaVuSans-52"/>
      </g>
     </g>
    </g>
    <g id="xtick_5">
     <g id="line2d_9">
      <path clip-path="url(#p81fdbc594c)" d="M 270.959207 286.886956 
L 270.959207 26.88 
" style="fill:none;stroke:#b0b0b0;stroke-linecap:square;stroke-width:0.8;"/>
     </g>
     <g id="line2d_10">
      <g>
       <use style="stroke:#000000;stroke-width:0.8;" x="270.959207" xlink:href="#m851892db7d" y="286.886956"/>
      </g>
     </g>
     <g id="text_5">
      <!-- 20180806 -->
      <g transform="translate(247.987792 318.435977)rotate(-20)scale(0.1 -0.1)">
       <use xlink:href="#DejaVuSans-50"/>
       <use x="63.623047" xlink:href="#DejaVuSans-48"/>
       <use x="127.246094" xlink:href="#DejaVuSans-49"/>
       <use x="190.869141" xlink:href="#DejaVuSans-56"/>
       <use x="254.492188" xlink:href="#DejaVuSans-48"/>
       <use x="318.115234" xlink:href="#DejaVuSans-56"/>
       <use x="381.738281" xlink:href="#DejaVuSans-48"/>
       <use x="445.361328" xlink:href="#DejaVuSans-54"/>
      </g>
     </g>
    </g>
    <g id="xtick_6">
     <g id="line2d_11">
      <path clip-path="url(#p81fdbc594c)" d="M 316.914236 286.886956 
L 316.914236 26.88 
" style="fill:none;stroke:#b0b0b0;stroke-linecap:square;stroke-width:0.8;"/>
     </g>
     <g id="line2d_12">
      <g>
       <use style="stroke:#000000;stroke-width:0.8;" x="316.914236" xlink:href="#m851892db7d" y="286.886956"/>
      </g>
     </g>
     <g id="text_6">
      <!-- 20181228 -->
      <g transform="translate(293.942821 318.435977)rotate(-20)scale(0.1 -0.1)">
       <use xlink:href="#DejaVuSans-50"/>
       <use x="63.623047" xlink:href="#DejaVuSans-48"/>
       <use x="127.246094" xlink:href="#DejaVuSans-49"/>
       <use x="190.869141" xlink:href="#DejaVuSans-56"/>
       <use x="254.492188" xlink:href="#DejaVuSans-49"/>
       <use x="318.115234" xlink:href="#DejaVuSans-50"/>
       <use x="381.738281" xlink:href="#DejaVuSans-50"/>
       <use x="445.361328" xlink:href="#DejaVuSans-56"/>
      </g>
     </g>
    </g>
    <g id="xtick_7">
     <g id="line2d_13">
      <path clip-path="url(#p81fdbc594c)" d="M 362.869265 286.886956 
L 362.869265 26.88 
" style="fill:none;stroke:#b0b0b0;stroke-linecap:square;stroke-width:0.8;"/>
     </g>
     <g id="line2d_14">
      <g>
       <use style="stroke:#000000;stroke-width:0.8;" x="362.869265" xlink:href="#m851892db7d" y="286.886956"/>
      </g>
     </g>
     <g id="text_7">
      <!-- 20190523 -->
      <g transform="translate(339.89785 318.435977)rotate(-20)scale(0.1 -0.1)">
       <defs>
        <path d="M 10.984375 1.515625 
L 10.984375 10.5 
Q 14.703125 8.734375 18.5 7.8125 
Q 22.3125 6.890625 25.984375 6.890625 
Q 35.75 6.890625 40.890625 13.453125 
Q 46.046875 20.015625 46.78125 33.40625 
Q 43.953125 29.203125 39.59375 26.953125 
Q 35.25 24.703125 29.984375 24.703125 
Q 19.046875 24.703125 12.671875 31.3125 
Q 6.296875 37.9375 6.296875 49.421875 
Q 6.296875 60.640625 12.9375 67.421875 
Q 19.578125 74.21875 30.609375 74.21875 
Q 43.265625 74.21875 49.921875 64.515625 
Q 56.59375 54.828125 56.59375 36.375 
Q 56.59375 19.140625 48.40625 8.859375 
Q 40.234375 -1.421875 26.421875 -1.421875 
Q 22.703125 -1.421875 18.890625 -0.6875 
Q 15.09375 0.046875 10.984375 1.515625 
z
M 30.609375 32.421875 
Q 37.25 32.421875 41.125 36.953125 
Q 45.015625 41.5 45.015625 49.421875 
Q 45.015625 57.28125 41.125 61.84375 
Q 37.25 66.40625 30.609375 66.40625 
Q 23.96875 66.40625 20.09375 61.84375 
Q 16.21875 57.28125 16.21875 49.421875 
Q 16.21875 41.5 20.09375 36.953125 
Q 23.96875 32.421875 30.609375 32.421875 
z
" id="DejaVuSans-57"/>
       </defs>
       <use xlink:href="#DejaVuSans-50"/>
       <use x="63.623047" xlink:href="#DejaVuSans-48"/>
       <use x="127.246094" xlink:href="#DejaVuSans-49"/>
       <use x="190.869141" xlink:href="#DejaVuSans-57"/>
       <use x="254.492188" xlink:href="#DejaVuSans-48"/>
       <use x="318.115234" xlink:href="#DejaVuSans-53"/>
       <use x="381.738281" xlink:href="#DejaVuSans-50"/>
       <use x="445.361328" xlink:href="#DejaVuSans-51"/>
      </g>
     </g>
    </g>
    <g id="xtick_8">
     <g id="line2d_15">
      <path clip-path="url(#p81fdbc594c)" d="M 408.824294 286.886956 
L 408.824294 26.88 
" style="fill:none;stroke:#b0b0b0;stroke-linecap:square;stroke-width:0.8;"/>
     </g>
     <g id="line2d_16">
      <g>
       <use style="stroke:#000000;stroke-width:0.8;" x="408.824294" xlink:href="#m851892db7d" y="286.886956"/>
      </g>
     </g>
     <g id="text_8">
      <!-- 20191015 -->
      <g transform="translate(385.852879 318.435977)rotate(-20)scale(0.1 -0.1)">
       <use xlink:href="#DejaVuSans-50"/>
       <use x="63.623047" xlink:href="#DejaVuSans-48"/>
       <use x="127.246094" xlink:href="#DejaVuSans-49"/>
       <use x="190.869141" xlink:href="#DejaVuSans-57"/>
       <use x="254.492188" xlink:href="#DejaVuSans-49"/>
       <use x="318.115234" xlink:href="#DejaVuSans-48"/>
       <use x="381.738281" xlink:href="#DejaVuSans-49"/>
       <use x="445.361328" xlink:href="#DejaVuSans-53"/>
      </g>
     </g>
    </g>
    <g id="text_9">
     <!-- Date -->
     <g transform="translate(247.979219 331.988681)scale(0.1 -0.1)">
      <defs>
       <path d="M 19.671875 64.796875 
L 19.671875 8.109375 
L 31.59375 8.109375 
Q 46.6875 8.109375 53.6875 14.9375 
Q 60.6875 21.78125 60.6875 36.53125 
Q 60.6875 51.171875 53.6875 57.984375 
Q 46.6875 64.796875 31.59375 64.796875 
z
M 9.8125 72.90625 
L 30.078125 72.90625 
Q 51.265625 72.90625 61.171875 64.09375 
Q 71.09375 55.28125 71.09375 36.53125 
Q 71.09375 17.671875 61.125 8.828125 
Q 51.171875 0 30.078125 0 
L 9.8125 0 
z
" id="DejaVuSans-68"/>
       <path d="M 34.28125 27.484375 
Q 23.390625 27.484375 19.1875 25 
Q 14.984375 22.515625 14.984375 16.5 
Q 14.984375 11.71875 18.140625 8.90625 
Q 21.296875 6.109375 26.703125 6.109375 
Q 34.1875 6.109375 38.703125 11.40625 
Q 43.21875 16.703125 43.21875 25.484375 
L 43.21875 27.484375 
z
M 52.203125 31.203125 
L 52.203125 0 
L 43.21875 0 
L 43.21875 8.296875 
Q 40.140625 3.328125 35.546875 0.953125 
Q 30.953125 -1.421875 24.3125 -1.421875 
Q 15.921875 -1.421875 10.953125 3.296875 
Q 6 8.015625 6 15.921875 
Q 6 25.140625 12.171875 29.828125 
Q 18.359375 34.515625 30.609375 34.515625 
L 43.21875 34.515625 
L 43.21875 35.40625 
Q 43.21875 41.609375 39.140625 45 
Q 35.0625 48.390625 27.6875 48.390625 
Q 23 48.390625 18.546875 47.265625 
Q 14.109375 46.140625 10.015625 43.890625 
L 10.015625 52.203125 
Q 14.9375 54.109375 19.578125 55.046875 
Q 24.21875 56 28.609375 56 
Q 40.484375 56 46.34375 49.84375 
Q 52.203125 43.703125 52.203125 31.203125 
z
" id="DejaVuSans-97"/>
       <path d="M 18.3125 70.21875 
L 18.3125 54.6875 
L 36.8125 54.6875 
L 36.8125 47.703125 
L 18.3125 47.703125 
L 18.3125 18.015625 
Q 18.3125 11.328125 20.140625 9.421875 
Q 21.96875 7.515625 27.59375 7.515625 
L 36.8125 7.515625 
L 36.8125 0 
L 27.59375 0 
Q 17.1875 0 13.234375 3.875 
Q 9.28125 7.765625 9.28125 18.015625 
L 9.28125 47.703125 
L 2.6875 47.703125 
L 2.6875 54.6875 
L 9.28125 54.6875 
L 9.28125 70.21875 
z
" id="DejaVuSans-116"/>
       <path d="M 56.203125 29.59375 
L 56.203125 25.203125 
L 14.890625 25.203125 
Q 15.484375 15.921875 20.484375 11.0625 
Q 25.484375 6.203125 34.421875 6.203125 
Q 39.59375 6.203125 44.453125 7.46875 
Q 49.3125 8.734375 54.109375 11.28125 
L 54.109375 2.78125 
Q 49.265625 0.734375 44.1875 -0.34375 
Q 39.109375 -1.421875 33.890625 -1.421875 
Q 20.796875 -1.421875 13.15625 6.1875 
Q 5.515625 13.8125 5.515625 26.8125 
Q 5.515625 40.234375 12.765625 48.109375 
Q 20.015625 56 32.328125 56 
Q 43.359375 56 49.78125 48.890625 
Q 56.203125 41.796875 56.203125 29.59375 
z
M 47.21875 32.234375 
Q 47.125 39.59375 43.09375 43.984375 
Q 39.0625 48.390625 32.421875 48.390625 
Q 24.90625 48.390625 20.390625 44.140625 
Q 15.875 39.890625 15.1875 32.171875 
z
" id="DejaVuSans-101"/>
      </defs>
      <use xlink:href="#DejaVuSans-68"/>
      <use x="77.001953" xlink:href="#DejaVuSans-97"/>
      <use x="138.28125" xlink:href="#DejaVuSans-116"/>
      <use x="177.490234" xlink:href="#DejaVuSans-101"/>
     </g>
    </g>
   </g>
   <g id="matplotlib.axis_2">
    <g id="ytick_1">
     <g id="line2d_17">
      <path clip-path="url(#p81fdbc594c)" d="M 69.86 270.665808 
L 450 270.665808 
" style="fill:none;stroke:#b0b0b0;stroke-linecap:square;stroke-width:0.8;"/>
     </g>
     <g id="line2d_18">
      <defs>
       <path d="M 0 0 
L -3.5 0 
" id="mbc63ff7fee" style="stroke:#000000;stroke-width:0.8;"/>
      </defs>
      <g>
       <use style="stroke:#000000;stroke-width:0.8;" x="69.86" xlink:href="#mbc63ff7fee" y="270.665808"/>
      </g>
     </g>
     <g id="text_10">
      <!-- 100000 -->
      <g transform="translate(24.685 274.465027)scale(0.1 -0.1)">
       <use xlink:href="#DejaVuSans-49"/>
       <use x="63.623047" xlink:href="#DejaVuSans-48"/>
       <use x="127.246094" xlink:href="#DejaVuSans-48"/>
       <use x="190.869141" xlink:href="#DejaVuSans-48"/>
       <use x="254.492188" xlink:href="#DejaVuSans-48"/>
       <use x="318.115234" xlink:href="#DejaVuSans-48"/>
      </g>
     </g>
    </g>
    <g id="ytick_2">
     <g id="line2d_19">
      <path clip-path="url(#p81fdbc594c)" d="M 69.86 237.700906 
L 450 237.700906 
" style="fill:none;stroke:#b0b0b0;stroke-linecap:square;stroke-width:0.8;"/>
     </g>
     <g id="line2d_20">
      <g>
       <use style="stroke:#000000;stroke-width:0.8;" x="69.86" xlink:href="#mbc63ff7fee" y="237.700906"/>
      </g>
     </g>
     <g id="text_11">
      <!-- 110000 -->
      <g transform="translate(24.685 241.500125)scale(0.1 -0.1)">
       <use xlink:href="#DejaVuSans-49"/>
       <use x="63.623047" xlink:href="#DejaVuSans-49"/>
       <use x="127.246094" xlink:href="#DejaVuSans-48"/>
       <use x="190.869141" xlink:href="#DejaVuSans-48"/>
       <use x="254.492188" xlink:href="#DejaVuSans-48"/>
       <use x="318.115234" xlink:href="#DejaVuSans-48"/>
      </g>
     </g>
    </g>
    <g id="ytick_3">
     <g id="line2d_21">
      <path clip-path="url(#p81fdbc594c)" d="M 69.86 204.736004 
L 450 204.736004 
" style="fill:none;stroke:#b0b0b0;stroke-linecap:square;stroke-width:0.8;"/>
     </g>
     <g id="line2d_22">
      <g>
       <use style="stroke:#000000;stroke-width:0.8;" x="69.86" xlink:href="#mbc63ff7fee" y="204.736004"/>
      </g>
     </g>
     <g id="text_12">
      <!-- 120000 -->
      <g transform="translate(24.685 208.535223)scale(0.1 -0.1)">
       <use xlink:href="#DejaVuSans-49"/>
       <use x="63.623047" xlink:href="#DejaVuSans-50"/>
       <use x="127.246094" xlink:href="#DejaVuSans-48"/>
       <use x="190.869141" xlink:href="#DejaVuSans-48"/>
       <use x="254.492188" xlink:href="#DejaVuSans-48"/>
       <use x="318.115234" xlink:href="#DejaVuSans-48"/>
      </g>
     </g>
    </g>
    <g id="ytick_4">
     <g id="line2d_23">
      <path clip-path="url(#p81fdbc594c)" d="M 69.86 171.771102 
L 450 171.771102 
" style="fill:none;stroke:#b0b0b0;stroke-linecap:square;stroke-width:0.8;"/>
     </g>
     <g id="line2d_24">
      <g>
       <use style="stroke:#000000;stroke-width:0.8;" x="69.86" xlink:href="#mbc63ff7fee" y="171.771102"/>
      </g>
     </g>
     <g id="text_13">
      <!-- 130000 -->
      <g transform="translate(24.685 175.570321)scale(0.1 -0.1)">
       <use xlink:href="#DejaVuSans-49"/>
       <use x="63.623047" xlink:href="#DejaVuSans-51"/>
       <use x="127.246094" xlink:href="#DejaVuSans-48"/>
       <use x="190.869141" xlink:href="#DejaVuSans-48"/>
       <use x="254.492188" xlink:href="#DejaVuSans-48"/>
       <use x="318.115234" xlink:href="#DejaVuSans-48"/>
      </g>
     </g>
    </g>
    <g id="ytick_5">
     <g id="line2d_25">
      <path clip-path="url(#p81fdbc594c)" d="M 69.86 138.8062 
L 450 138.8062 
" style="fill:none;stroke:#b0b0b0;stroke-linecap:square;stroke-width:0.8;"/>
     </g>
     <g id="line2d_26">
      <g>
       <use style="stroke:#000000;stroke-width:0.8;" x="69.86" xlink:href="#mbc63ff7fee" y="138.8062"/>
      </g>
     </g>
     <g id="text_14">
      <!-- 140000 -->
      <g transform="translate(24.685 142.605419)scale(0.1 -0.1)">
       <use xlink:href="#DejaVuSans-49"/>
       <use x="63.623047" xlink:href="#DejaVuSans-52"/>
       <use x="127.246094" xlink:href="#DejaVuSans-48"/>
       <use x="190.869141" xlink:href="#DejaVuSans-48"/>
       <use x="254.492188" xlink:href="#DejaVuSans-48"/>
       <use x="318.115234" xlink:href="#DejaVuSans-48"/>
      </g>
     </g>
    </g>
    <g id="ytick_6">
     <g id="line2d_27">
      <path clip-path="url(#p81fdbc594c)" d="M 69.86 105.841298 
L 450 105.841298 
" style="fill:none;stroke:#b0b0b0;stroke-linecap:square;stroke-width:0.8;"/>
     </g>
     <g id="line2d_28">
      <g>
       <use style="stroke:#000000;stroke-width:0.8;" x="69.86" xlink:href="#mbc63ff7fee" y="105.841298"/>
      </g>
     </g>
     <g id="text_15">
      <!-- 150000 -->
      <g transform="translate(24.685 109.640517)scale(0.1 -0.1)">
       <use xlink:href="#DejaVuSans-49"/>
       <use x="63.623047" xlink:href="#DejaVuSans-53"/>
       <use x="127.246094" xlink:href="#DejaVuSans-48"/>
       <use x="190.869141" xlink:href="#DejaVuSans-48"/>
       <use x="254.492188" xlink:href="#DejaVuSans-48"/>
       <use x="318.115234" xlink:href="#DejaVuSans-48"/>
      </g>
     </g>
    </g>
    <g id="ytick_7">
     <g id="line2d_29">
      <path clip-path="url(#p81fdbc594c)" d="M 69.86 72.876396 
L 450 72.876396 
" style="fill:none;stroke:#b0b0b0;stroke-linecap:square;stroke-width:0.8;"/>
     </g>
     <g id="line2d_30">
      <g>
       <use style="stroke:#000000;stroke-width:0.8;" x="69.86" xlink:href="#mbc63ff7fee" y="72.876396"/>
      </g>
     </g>
     <g id="text_16">
      <!-- 160000 -->
      <g transform="translate(24.685 76.675615)scale(0.1 -0.1)">
       <use xlink:href="#DejaVuSans-49"/>
       <use x="63.623047" xlink:href="#DejaVuSans-54"/>
       <use x="127.246094" xlink:href="#DejaVuSans-48"/>
       <use x="190.869141" xlink:href="#DejaVuSans-48"/>
       <use x="254.492188" xlink:href="#DejaVuSans-48"/>
       <use x="318.115234" xlink:href="#DejaVuSans-48"/>
      </g>
     </g>
    </g>
    <g id="ytick_8">
     <g id="line2d_31">
      <path clip-path="url(#p81fdbc594c)" d="M 69.86 39.911494 
L 450 39.911494 
" style="fill:none;stroke:#b0b0b0;stroke-linecap:square;stroke-width:0.8;"/>
     </g>
     <g id="line2d_32">
      <g>
       <use style="stroke:#000000;stroke-width:0.8;" x="69.86" xlink:href="#mbc63ff7fee" y="39.911494"/>
      </g>
     </g>
     <g id="text_17">
      <!-- 170000 -->
      <g transform="translate(24.685 43.710713)scale(0.1 -0.1)">
       <use xlink:href="#DejaVuSans-49"/>
       <use x="63.623047" xlink:href="#DejaVuSans-55"/>
       <use x="127.246094" xlink:href="#DejaVuSans-48"/>
       <use x="190.869141" xlink:href="#DejaVuSans-48"/>
       <use x="254.492188" xlink:href="#DejaVuSans-48"/>
       <use x="318.115234" xlink:href="#DejaVuSans-48"/>
      </g>
     </g>
    </g>
    <g id="text_18">
     <!-- Portfolio Value -->
     <g transform="translate(18.605313 192.769415)rotate(-90)scale(0.1 -0.1)">
      <defs>
       <path d="M 19.671875 64.796875 
L 19.671875 37.40625 
L 32.078125 37.40625 
Q 38.96875 37.40625 42.71875 40.96875 
Q 46.484375 44.53125 46.484375 51.125 
Q 46.484375 57.671875 42.71875 61.234375 
Q 38.96875 64.796875 32.078125 64.796875 
z
M 9.8125 72.90625 
L 32.078125 72.90625 
Q 44.34375 72.90625 50.609375 67.359375 
Q 56.890625 61.8125 56.890625 51.125 
Q 56.890625 40.328125 50.609375 34.8125 
Q 44.34375 29.296875 32.078125 29.296875 
L 19.671875 29.296875 
L 19.671875 0 
L 9.8125 0 
z
" id="DejaVuSans-80"/>
       <path d="M 30.609375 48.390625 
Q 23.390625 48.390625 19.1875 42.75 
Q 14.984375 37.109375 14.984375 27.296875 
Q 14.984375 17.484375 19.15625 11.84375 
Q 23.34375 6.203125 30.609375 6.203125 
Q 37.796875 6.203125 41.984375 11.859375 
Q 46.1875 17.53125 46.1875 27.296875 
Q 46.1875 37.015625 41.984375 42.703125 
Q 37.796875 48.390625 30.609375 48.390625 
z
M 30.609375 56 
Q 42.328125 56 49.015625 48.375 
Q 55.71875 40.765625 55.71875 27.296875 
Q 55.71875 13.875 49.015625 6.21875 
Q 42.328125 -1.421875 30.609375 -1.421875 
Q 18.84375 -1.421875 12.171875 6.21875 
Q 5.515625 13.875 5.515625 27.296875 
Q 5.515625 40.765625 12.171875 48.375 
Q 18.84375 56 30.609375 56 
z
" id="DejaVuSans-111"/>
       <path d="M 41.109375 46.296875 
Q 39.59375 47.171875 37.8125 47.578125 
Q 36.03125 48 33.890625 48 
Q 26.265625 48 22.1875 43.046875 
Q 18.109375 38.09375 18.109375 28.8125 
L 18.109375 0 
L 9.078125 0 
L 9.078125 54.6875 
L 18.109375 54.6875 
L 18.109375 46.1875 
Q 20.953125 51.171875 25.484375 53.578125 
Q 30.03125 56 36.53125 56 
Q 37.453125 56 38.578125 55.875 
Q 39.703125 55.765625 41.0625 55.515625 
z
" id="DejaVuSans-114"/>
       <path d="M 37.109375 75.984375 
L 37.109375 68.5 
L 28.515625 68.5 
Q 23.6875 68.5 21.796875 66.546875 
Q 19.921875 64.59375 19.921875 59.515625 
L 19.921875 54.6875 
L 34.71875 54.6875 
L 34.71875 47.703125 
L 19.921875 47.703125 
L 19.921875 0 
L 10.890625 0 
L 10.890625 47.703125 
L 2.296875 47.703125 
L 2.296875 54.6875 
L 10.890625 54.6875 
L 10.890625 58.5 
Q 10.890625 67.625 15.140625 71.796875 
Q 19.390625 75.984375 28.609375 75.984375 
z
" id="DejaVuSans-102"/>
       <path d="M 9.421875 75.984375 
L 18.40625 75.984375 
L 18.40625 0 
L 9.421875 0 
z
" id="DejaVuSans-108"/>
       <path d="M 9.421875 54.6875 
L 18.40625 54.6875 
L 18.40625 0 
L 9.421875 0 
z
M 9.421875 75.984375 
L 18.40625 75.984375 
L 18.40625 64.59375 
L 9.421875 64.59375 
z
" id="DejaVuSans-105"/>
       <path id="DejaVuSans-32"/>
       <path d="M 28.609375 0 
L 0.78125 72.90625 
L 11.078125 72.90625 
L 34.1875 11.53125 
L 57.328125 72.90625 
L 67.578125 72.90625 
L 39.796875 0 
z
" id="DejaVuSans-86"/>
       <path d="M 8.5 21.578125 
L 8.5 54.6875 
L 17.484375 54.6875 
L 17.484375 21.921875 
Q 17.484375 14.15625 20.5 10.265625 
Q 23.53125 6.390625 29.59375 6.390625 
Q 36.859375 6.390625 41.078125 11.03125 
Q 45.3125 15.671875 45.3125 23.6875 
L 45.3125 54.6875 
L 54.296875 54.6875 
L 54.296875 0 
L 45.3125 0 
L 45.3125 8.40625 
Q 42.046875 3.421875 37.71875 1 
Q 33.40625 -1.421875 27.6875 -1.421875 
Q 18.265625 -1.421875 13.375 4.4375 
Q 8.5 10.296875 8.5 21.578125 
z
M 31.109375 56 
z
" id="DejaVuSans-117"/>
      </defs>
      <use xlink:href="#DejaVuSans-80"/>
      <use x="56.677734" xlink:href="#DejaVuSans-111"/>
      <use x="117.859375" xlink:href="#DejaVuSans-114"/>
      <use x="158.972656" xlink:href="#DejaVuSans-116"/>
      <use x="198.181641" xlink:href="#DejaVuSans-102"/>
      <use x="233.386719" xlink:href="#DejaVuSans-111"/>
      <use x="294.568359" xlink:href="#DejaVuSans-108"/>
      <use x="322.351562" xlink:href="#DejaVuSans-105"/>
      <use x="350.134766" xlink:href="#DejaVuSans-111"/>
      <use x="411.316406" xlink:href="#DejaVuSans-32"/>
      <use x="443.103516" xlink:href="#DejaVuSans-86"/>
      <use x="503.761719" xlink:href="#DejaVuSans-97"/>
      <use x="565.041016" xlink:href="#DejaVuSans-108"/>
      <use x="592.824219" xlink:href="#DejaVuSans-117"/>
      <use x="656.203125" xlink:href="#DejaVuSans-101"/>
     </g>
    </g>
   </g>
   <g id="line2d_33">
    <path clip-path="url(#p81fdbc594c)" d="M 87.139091 270.665808 
L 88.517742 270.684986 
L 88.977292 270.398992 
L 89.436842 270.772563 
L 89.896393 269.236903 
L 90.355943 269.368514 
L 90.815493 268.806111 
L 91.275044 270.194189 
L 91.734594 269.571944 
L 92.194144 271.426724 
L 92.653694 269.911003 
L 93.113245 263.425287 
L 93.572795 261.391008 
L 94.032345 257.833047 
L 94.491896 258.419406 
L 94.951446 263.185947 
L 95.410996 271.642108 
L 95.870546 273.09402 
L 96.330097 275.068458 
L 96.789647 273.863847 
L 97.708748 272.523631 
L 98.168298 269.488196 
L 98.627848 269.228917 
L 99.087398 269.157123 
L 100.006499 265.607123 
L 100.466049 265.180323 
L 100.9256 266.261284 
L 101.8447 262.579673 
L 102.763801 260.661084 
L 103.223351 260.804673 
L 103.682901 262.077086 
L 104.142452 261.335184 
L 104.602002 263.225849 
L 105.061552 258.51114 
L 105.521103 261.263389 
L 105.980653 261.570507 
L 106.440203 262.29247 
L 106.899753 260.744832 
L 107.359304 259.751636 
L 108.278404 256.652391 
L 108.737955 255.387939 
L 109.197505 254.857453 
L 109.657055 253.868225 
L 110.116605 253.226042 
L 110.576156 252.280709 
L 111.035706 254.059702 
L 111.495256 261.1477 
L 111.954807 261.283328 
L 112.414357 265.331898 
L 112.873907 267.130829 
L 113.333457 265.786622 
L 113.793008 264.941008 
L 114.252558 261.255404 
L 114.712108 261.410971 
L 115.171659 262.081079 
L 115.631209 258.51114 
L 117.00986 263.158047 
L 117.46941 264.354673 
L 117.92896 264.514208 
L 118.388511 265.240164 
L 118.848061 264.609935 
L 119.307611 265.120507 
L 119.767162 259.157316 
L 120.226712 259.612039 
L 120.686262 258.606866 
L 121.145812 257.182878 
L 121.605363 257.633609 
L 122.064913 249.664088 
L 122.524463 245.71122 
L 122.984014 245.591562 
L 123.443564 244.674154 
L 123.903114 231.479352 
L 124.362664 228.168692 
L 124.822215 226.465486 
L 125.281765 221.934269 
L 125.741315 219.433337 
L 126.200866 221.20432 
L 126.660416 217.849789 
L 127.579516 219.385449 
L 128.039067 218.966635 
L 128.498617 219.265792 
L 128.958167 217.638398 
L 129.417718 215.488454 
L 129.877268 224.439217 
L 130.336818 221.116579 
L 130.796368 219.461237 
L 131.255919 215.703838 
L 132.175019 210.303075 
L 132.63457 204.619102 
L 133.09412 204.056674 
L 133.55367 202.89995 
L 134.013221 206.521721 
L 134.472771 206.04309 
L 135.391871 199.824613 
L 135.851422 202.69652 
L 136.310972 200.773938 
L 136.770522 199.665053 
L 137.230073 213.290647 
L 137.689623 216.6053 
L 138.149173 213.139073 
L 138.608723 214.164185 
L 139.068274 217.255469 
L 139.527824 217.877713 
L 139.987374 211.256393 
L 140.446925 213.741378 
L 140.906475 209.912161 
L 141.366025 210.697958 
L 141.825575 206.920596 
L 142.285126 212.50485 
L 142.744676 222.077858 
L 143.204226 216.924396 
L 143.663777 226.174315 
L 144.123327 229.421166 
L 144.582877 233.49766 
L 145.042427 228.392061 
L 145.501978 230.214924 
L 146.421078 220.917141 
L 146.880629 219.907975 
L 147.340179 214.271889 
L 147.799729 213.797227 
L 148.259279 210.582293 
L 148.71883 210.961205 
L 149.17838 206.577569 
L 149.63793 204.256112 
L 150.097481 204.487466 
L 150.557031 203.829312 
L 151.016581 202.046351 
L 151.476132 213.725408 
L 151.935682 215.209237 
L 152.395232 220.314836 
L 152.854782 217.993378 
L 153.314333 223.110956 
L 154.233433 222.257357 
L 154.692984 225.185112 
L 155.152534 222.99529 
L 155.612084 223.011237 
L 156.071634 223.633481 
L 156.531185 225.272853 
L 156.990735 231.850303 
L 157.450285 229.257613 
L 157.909836 225.731569 
L 158.369386 226.070604 
L 158.828936 223.601564 
L 159.288486 230.226902 
L 159.748037 230.81723 
L 160.207587 232.935257 
L 160.667137 225.14521 
L 161.126688 224.275665 
L 162.045788 229.094085 
L 162.505338 230.039418 
L 163.424439 223.85685 
L 163.883989 219.225914 
L 164.34354 220.522259 
L 164.80309 224.714442 
L 165.26264 224.499034 
L 165.722191 221.359887 
L 166.181741 224.742366 
L 166.641291 223.992479 
L 167.560392 221.140511 
L 168.019942 225.252914 
L 168.939043 229.393242 
L 169.398593 226.557244 
L 169.858143 222.297259 
L 170.317693 222.293266 
L 170.777244 224.004432 
L 171.236794 227.586325 
L 171.696344 226.329882 
L 172.155895 217.367141 
L 172.615445 215.408674 
L 173.074995 211.854706 
L 173.534545 214.347677 
L 173.994096 212.508843 
L 174.453646 214.622877 
L 174.913196 207.279593 
L 175.372747 203.909092 
L 175.832297 204.439603 
L 176.291847 206.238535 
L 176.751397 199.118596 
L 177.210948 199.118596 
L 177.670498 198.233104 
L 179.049149 196.290583 
L 179.508699 200.63831 
L 179.96825 199.34995 
L 180.4278 207.139997 
L 181.3469 204.778637 
L 181.806451 204.794608 
L 182.266001 187.942102 
L 182.725551 188.15751 
L 183.185102 188.193395 
L 183.644652 184.380172 
L 184.104202 184.23259 
L 184.563752 181.432478 
L 185.023303 184.348231 
L 185.482853 180.475167 
L 185.942403 178.121793 
L 186.401954 182.337933 
L 187.321054 184.938607 
L 187.780604 184.763077 
L 188.240155 186.849187 
L 188.699705 182.038776 
L 189.159255 187.05661 
L 189.618806 187.547219 
L 190.078356 181.308803 
L 190.537906 180.662627 
L 190.997456 178.82781 
L 191.457007 172.649236 
L 191.916557 176.127417 
L 192.376107 186.46229 
L 192.835658 186.944913 
L 193.754758 196.637603 
L 194.214309 193.554305 
L 195.133409 183.5944 
L 195.592959 181.675786 
L 196.05251 180.642713 
L 196.51206 181.919094 
L 196.97161 180.874043 
L 197.431161 178.448898 
L 198.350261 167.431964 
L 199.269362 172.030959 
L 199.728912 173.111945 
L 200.188462 173.905703 
L 200.648013 175.106321 
L 201.107563 177.359977 
L 201.567113 179.055197 
L 202.026663 180.072299 
L 202.945764 164.867174 
L 203.405314 163.175947 
L 203.864865 157.380277 
L 204.324415 155.816717 
L 204.783965 156.383089 
L 205.243515 157.440118 
L 205.703066 156.678253 
L 206.162616 149.259181 
L 206.622166 149.239267 
L 207.081717 145.888704 
L 207.541267 147.137186 
L 208.000817 144.133643 
L 208.460368 135.892866 
L 208.919918 131.102369 
L 209.379468 133.048883 
L 209.839018 128.721095 
L 210.298569 126.559174 
L 210.758119 126.98999 
L 211.217669 130.623738 
L 211.67722 128.689203 
L 212.13677 128.940496 
L 213.05587 176.486414 
L 213.515421 167.695187 
L 213.974971 179.270556 
L 214.434521 198.296914 
L 214.894072 182.916282 
L 215.353622 179.60959 
L 215.813172 179.777136 
L 216.732273 164.931008 
L 217.191823 163.279658 
L 217.651373 160.052771 
L 218.110924 156.000184 
L 218.570474 157.535844 
L 219.489574 144.053888 
L 219.949125 154.500409 
L 220.408675 159.921111 
L 220.868225 172.888551 
L 221.787326 163.574822 
L 222.246876 161.125722 
L 223.165977 149.765761 
L 223.625527 137.217159 
L 224.085077 135.186849 
L 224.544628 145.565592 
L 225.004178 141.9837 
L 225.463728 141.297646 
L 225.923279 147.755414 
L 226.382829 161.45682 
L 226.842379 163.159976 
L 227.301929 163.877971 
L 227.76148 180.172018 
L 228.22103 190.782092 
L 228.68058 179.797099 
L 229.140131 198.604055 
L 229.599681 199.30608 
L 230.059231 186.558016 
L 230.518781 196.334454 
L 230.978332 193.921263 
L 231.437882 189.521681 
L 231.897432 188.352955 
L 232.356983 197.403437 
L 232.816533 193.358835 
L 233.276083 186.813302 
L 233.735633 191.376412 
L 234.195184 186.498175 
L 234.654734 186.996769 
L 235.114284 182.984109 
L 235.573835 169.717512 
L 236.033385 171.301035 
L 236.492935 165.692874 
L 236.952485 170.531233 
L 237.412036 171.931241 
L 237.871586 192.341708 
L 238.331136 192.202111 
L 238.790687 184.096938 
L 239.709787 193.961141 
L 240.169338 185.118082 
L 240.628888 190.98153 
L 241.088438 190.881811 
L 241.547988 181.02961 
L 242.007539 177.65514 
L 242.467089 178.00216 
L 242.926639 165.892311 
L 243.38619 159.302883 
L 243.84574 160.136519 
L 244.30529 158.852152 
L 244.76484 167.519705 
L 245.224391 167.830839 
L 245.683941 168.959639 
L 246.143491 173.594568 
L 246.603042 167.862732 
L 247.062592 171.332928 
L 247.522142 167.084945 
L 247.981692 167.288375 
L 248.441243 167.834832 
L 248.900793 174.22083 
L 249.360343 170.471392 
L 249.819894 161.48472 
L 250.279444 147.524084 
L 250.738994 140.328357 
L 251.198544 141.134093 
L 251.658095 142.757543 
L 252.117645 147.755414 
L 252.577195 148.437524 
L 253.496296 142.262941 
L 253.955846 143.842472 
L 254.415397 137.50833 
L 254.874947 137.843372 
L 255.334497 128.146738 
L 255.794047 130.097244 
L 256.253598 127.951293 
L 256.713148 133.786841 
L 257.172698 133.846633 
L 257.632249 145.816885 
L 258.091799 148.473409 
L 258.551349 154.727795 
L 259.010899 150.802827 
L 259.47045 149.841572 
L 259.93 144.688086 
L 260.38955 154.991018 
L 260.849101 145.015142 
L 261.768201 134.648377 
L 262.227751 134.704225 
L 262.687302 132.981105 
L 263.146852 121.094601 
L 263.606402 119.834142 
L 264.065953 122.989259 
L 264.525503 116.379917 
L 264.985053 116.447694 
L 265.444603 121.956186 
L 265.904154 122.442802 
L 266.363704 117.20956 
L 266.823254 98.402579 
L 267.282805 91.30662 
L 267.742355 87.493349 
L 268.201905 100.500667 
L 268.661456 109.614958 
L 269.121006 110.739814 
L 269.580556 108.438295 
L 270.040106 105.191444 
L 270.499657 106.376092 
L 270.959207 106.571537 
L 271.418757 99.324004 
L 271.878308 97.134183 
L 272.337858 95.885701 
L 272.797408 100.652241 
L 273.256958 102.195887 
L 273.716509 98.406571 
L 274.176059 108.745437 
L 275.09516 115.275024 
L 275.55471 112.841894 
L 276.01426 114.652755 
L 276.47381 112.92165 
L 276.933361 113.156973 
L 277.392911 106.93852 
L 277.852461 99.152466 
L 278.312012 103.304772 
L 278.771562 95.809889 
L 279.231112 99.882439 
L 280.150213 117.085885 
L 281.528864 130.535998 
L 281.988414 131.545115 
L 282.447964 125.589934 
L 282.907515 132.925257 
L 283.367065 128.721095 
L 283.826615 130.38043 
L 284.286165 137.620027 
L 285.205266 131.860242 
L 285.664816 124.959728 
L 286.124367 132.717834 
L 286.583917 129.750176 
L 287.043467 124.03431 
L 287.503017 123.966484 
L 287.962568 118.661472 
L 288.422118 118.773168 
L 288.881668 118.19477 
L 289.341219 118.549775 
L 289.800769 116.998144 
L 290.260319 130.74342 
L 290.719869 134.429024 
L 291.63897 143.467504 
L 292.09852 164.611888 
L 292.558071 165.178309 
L 293.017621 153.291805 
L 293.477171 160.511487 
L 293.936721 148.289942 
L 294.396272 150.479763 
L 294.855822 162.318355 
L 295.774923 156.949509 
L 296.234473 155.537475 
L 296.694023 178.588495 
L 297.153574 160.052771 
L 297.613124 167.966443 
L 298.072674 187.519319 
L 298.532224 181.62393 
L 298.991775 165.242143 
L 299.451325 167.076959 
L 300.370426 179.142937 
L 300.829976 173.622517 
L 301.289526 158.197991 
L 301.749076 163.626678 
L 302.208627 170.650866 
L 302.668177 181.683771 
L 303.127727 182.238214 
L 303.587278 179.601654 
L 304.046828 173.03214 
L 304.506378 174.141025 
L 304.965928 190.435072 
L 305.425479 189.226517 
L 305.885029 184.049075 
L 306.344579 189.366114 
L 306.80413 179.059189 
L 307.26368 180.519038 
L 307.72323 164.75947 
L 308.18278 163.646641 
L 308.642331 157.635563 
L 309.101881 154.959125 
L 309.561431 176.454522 
L 310.020982 170.228084 
L 310.480532 182.792656 
L 310.940082 180.16004 
L 311.399632 176.781578 
L 311.859183 171.963182 
L 312.318733 172.038945 
L 313.237834 191.141089 
L 313.697384 184.05706 
L 314.156934 187.228148 
L 314.616485 191.966764 
L 315.076035 204.86241 
L 315.535585 207.487016 
L 315.995135 182.286077 
L 316.454686 180.271737 
L 316.914236 182.75273 
L 317.373786 183.438832 
L 317.833337 179.561727 
L 318.292887 191.212908 
L 318.752437 170.232077 
L 319.211987 171.08962 
L 319.671538 167.320267 
L 320.590638 169.928927 
L 321.509739 180.82618 
L 321.969289 166.865544 
L 322.428839 165.668918 
L 323.34794 158.57291 
L 323.80749 170.008683 
L 324.267041 167.703172 
L 324.726591 167.866725 
L 325.186141 160.882414 
L 325.645691 169.518074 
L 326.105242 173.427023 
L 327.024342 151.157832 
L 327.483893 154.057663 
L 327.943443 144.963286 
L 328.402993 140.795059 
L 328.862544 152.354458 
L 329.322094 159.127353 
L 329.781644 160.535394 
L 330.241194 160.639106 
L 330.700745 150.483756 
L 331.160295 150.064917 
L 331.619845 149.83758 
L 332.079396 153.654795 
L 332.538946 150.910531 
L 332.998496 153.27189 
L 333.458046 159.80547 
L 333.917597 154.879321 
L 334.377147 154.572228 
L 334.836697 152.70547 
L 335.296248 152.354458 
L 335.755798 150.89456 
L 336.215348 142.131281 
L 336.674898 140.176783 
L 337.134449 133.88656 
L 337.593999 135.58178 
L 338.053549 141.20192 
L 338.5131 141.552932 
L 338.97265 129.869858 
L 339.4322 122.694095 
L 339.89175 121.972108 
L 340.351301 124.576775 
L 341.270401 126.164291 
L 341.729952 120.61597 
L 342.189502 111.054892 
L 342.649052 107.185821 
L 343.108603 118.545782 
L 343.568153 122.642239 
L 344.027703 125.649775 
L 344.487253 130.368452 
L 344.946804 132.657993 
L 345.406354 130.815191 
L 345.865904 122.004049 
L 347.244555 113.839083 
L 347.704105 117.030085 
L 348.163656 118.294489 
L 348.623206 120.524237 
L 349.542307 117.771987 
L 350.001857 112.53076 
L 350.461407 111.015014 
L 350.920957 108.869063 
L 351.380508 105.586327 
L 351.840058 105.05584 
L 352.299608 100.153647 
L 352.759159 93.440593 
L 353.218709 97.644706 
L 353.678259 94.736938 
L 354.137809 90.716244 
L 354.59736 83.225402 
L 355.05691 122.012034 
L 355.51646 132.239203 
L 355.976011 134.955518 
L 356.435561 125.765416 
L 356.895111 124.205848 
L 357.354662 130.029418 
L 357.814212 133.252313 
L 358.273762 134.373176 
L 358.733312 134.504787 
L 359.192863 146.889885 
L 359.652413 151.568685 
L 360.111963 133.244328 
L 360.571514 127.779755 
L 361.031064 134.050064 
L 361.490614 143.670934 
L 361.950164 139.769971 
L 362.409715 139.207543 
L 362.869265 143.399726 
L 363.328815 146.084149 
L 363.788366 145.705189 
L 364.247916 153.531169 
L 364.707466 152.944785 
L 365.167016 158.89203 
L 365.626567 185.919825 
L 366.086117 179.637539 
L 366.545667 183.566451 
L 367.005218 182.321962 
L 367.464768 174.101148 
L 367.924318 168.361326 
L 368.843419 169.821223 
L 369.302969 165.070605 
L 369.762519 166.949292 
L 370.22207 163.921842 
L 370.68162 159.394617 
L 371.14117 159.685788 
L 371.600721 156.219585 
L 372.060271 151.365255 
L 372.519821 154.823521 
L 372.979371 166.438768 
L 373.438922 169.334607 
L 373.898472 170.806434 
L 374.358022 168.345355 
L 374.817573 161.48472 
L 375.736673 152.31458 
L 376.196223 148.453445 
L 376.655774 154.787587 
L 377.115324 151.796023 
L 377.574874 145.166717 
L 378.034425 143.902313 
L 378.493975 143.399726 
L 378.953525 141.337523 
L 379.413075 140.160861 
L 379.872626 142.841291 
L 380.332176 142.641854 
L 380.791726 148.900184 
L 381.710827 142.318741 
L 382.170377 145.637411 
L 382.629927 147.149164 
L 383.089478 103.560058 
L 383.549028 104.908259 
L 384.008578 110.428679 
L 384.468129 114.337677 
L 384.927679 116.898425 
L 385.387229 123.065071 
L 385.846779 139.646296 
L 386.30633 133.13268 
L 386.76588 131.206081 
L 387.22543 119.128173 
L 388.144531 131.768509 
L 388.604081 122.901518 
L 389.063632 135.856981 
L 389.523182 133.834704 
L 389.982732 129.889821 
L 390.442282 121.421706 
L 390.901833 128.166653 
L 391.361383 124.955736 
L 391.820933 124.979643 
L 392.280484 140.112998 
L 392.740034 133.092753 
L 393.199584 133.236391 
L 393.659134 132.067665 
L 394.118685 123.894714 
L 394.578235 125.374526 
L 395.037785 133.742922 
L 395.497336 128.66924 
L 395.956886 116.734921 
L 396.416436 119.076318 
L 396.875986 119.495107 
L 397.335537 119.323618 
L 398.254637 107.64853 
L 398.714188 105.630198 
L 399.173738 108.98076 
L 399.633288 109.678792 
L 400.092838 108.573899 
L 400.552389 106.14077 
L 401.011939 109.694762 
L 401.471489 107.760227 
L 401.93104 114.285821 
L 402.39059 103.27288 
L 402.85014 104.728735 
L 403.309691 111.246393 
L 403.769241 113.164958 
L 404.228791 119.203936 
L 404.688341 130.404337 
L 405.147892 125.813279 
L 405.607442 117.22553 
L 406.066992 118.306467 
L 406.526543 125.534085 
L 406.986093 120.639878 
L 407.905193 115.330872 
L 408.364744 114.509166 
L 408.824294 104.748699 
L 409.283844 104.44555 
L 409.743395 100.536552 
L 410.202945 103.883122 
L 410.662495 103.934977 
L 411.122045 105.163545 
L 411.581596 98.610002 
L 412.041146 98.019674 
L 412.500696 95.949486 
L 412.960247 86.10527 
L 413.419797 97.401398 
L 413.879347 97.385476 
L 414.338897 98.1433 
L 414.798448 92.778447 
L 415.257998 85.853977 
L 415.717548 85.124053 
L 416.177099 85.295542 
L 416.636649 78.941485 
L 417.096199 78.119779 
L 417.55575 82.395711 
L 418.47485 83.233339 
L 418.9344 78.059938 
L 419.393951 68.331363 
L 419.853501 73.795984 
L 420.313051 76.68783 
L 420.772602 80.967754 
L 421.232152 81.653808 
L 421.691702 84.23452 
L 422.151252 79.459994 
L 422.610803 76.524278 
L 423.070353 76.871297 
L 423.529903 80.07827 
L 423.989454 86.153133 
L 424.449004 83.807745 
L 424.908554 74.154982 
L 425.368104 70.955994 
L 425.827655 65.997952 
L 426.287205 64.562011 
L 426.746755 64.601889 
L 427.206306 64.059424 
L 427.665856 62.368197 
L 428.125406 63.014373 
L 428.584956 57.497945 
L 429.044507 59.815385 
L 429.504057 61.004025 
L 429.963607 59.197157 
L 430.423158 61.279275 
L 430.882708 61.514598 
L 431.342258 63.987605 
L 431.801809 56.791927 
L 432.261359 59.915104 
L 432.720909 65.870334 
L 432.720909 65.870334 
" style="fill:none;stroke:#ff0000;stroke-linecap:square;stroke-width:1.5;"/>
   </g>
   <g id="line2d_34">
    <path clip-path="url(#p81fdbc594c)" d="M 87.139091 270.665808 
L 87.598641 266.84895 
L 88.058191 267.83302 
L 88.517742 264.749075 
L 88.977292 260.063447 
L 89.436842 259.775222 
L 89.896393 259.960511 
L 90.355943 259.235841 
L 90.815493 258.157079 
L 91.275044 258.568821 
L 91.734594 258.651174 
L 92.194144 258.980563 
L 92.653694 258.943495 
L 93.113245 257.905922 
L 93.572795 251.577447 
L 94.491896 246.607716 
L 94.951446 246.628298 
L 95.870546 262.892114 
L 96.330097 261.039274 
L 96.789647 264.744953 
L 97.249197 261.397487 
L 97.708748 262.307447 
L 98.627848 258.350585 
L 99.546949 257.354176 
L 100.006499 255.398401 
L 100.466049 254.546092 
L 100.9256 254.941373 
L 101.38515 255.069012 
L 101.8447 253.912018 
L 102.30425 251.161583 
L 102.763801 251.157462 
L 103.223351 249.889289 
L 104.142452 252.41327 
L 104.602002 251.425104 
L 105.521103 247.735885 
L 105.980653 250.770423 
L 106.440203 251.626854 
L 106.899753 251.462147 
L 107.359304 249.049344 
L 107.818854 248.814648 
L 108.278404 245.104847 
L 108.737955 245.874802 
L 109.197505 244.672522 
L 109.657055 242.947322 
L 110.576156 240.583925 
L 111.035706 242.313248 
L 111.495256 242.07443 
L 111.954807 250.548091 
L 112.414357 253.879071 
L 112.873907 253.627915 
L 113.333457 259.355237 
L 113.793008 254.579038 
L 114.252558 253.319108 
L 114.712108 249.518736 
L 115.171659 251.639193 
L 115.631209 250.848655 
L 116.090759 251.157462 
L 116.550309 248.394662 
L 117.46941 252.392688 
L 117.92896 253.817325 
L 118.388511 253.751432 
L 118.848061 255.085473 
L 119.307611 254.023196 
L 119.767162 253.883193 
L 120.226712 249.288161 
L 120.686262 247.291196 
L 121.145812 246.323612 
L 121.605363 245.961277 
L 122.064913 242.74145 
L 122.524463 237.051171 
L 122.984014 233.291962 
L 123.443564 233.86429 
L 123.903114 217.806345 
L 124.362664 219.803285 
L 124.822215 216.048198 
L 125.281765 214.903568 
L 125.741315 209.040363 
L 126.200866 206.392864 
L 126.660416 210.209697 
L 127.119966 204.494714 
L 128.039067 208.628621 
L 128.498617 205.927593 
L 128.958167 206.981652 
L 129.417718 203.580658 
L 129.877268 205.165855 
L 130.336818 211.959601 
L 130.796368 207.998643 
L 131.255919 206.277564 
L 131.715469 200.941377 
L 132.175019 198.759148 
L 132.63457 197.219236 
L 133.09412 191.866588 
L 133.55367 191.660717 
L 134.013221 190.133144 
L 134.472771 192.294791 
L 134.932321 193.270618 
L 135.391871 189.441421 
L 135.851422 187.209785 
L 136.310972 188.947325 
L 136.770522 186.830989 
L 137.230073 186.31219 
L 137.689623 205.56938 
L 138.149173 200.084971 
L 138.608723 198.660334 
L 139.068274 209.975001 
L 140.446925 198.738566 
L 140.906475 200.599649 
L 141.366025 198.096249 
L 141.825575 198.660334 
L 142.285126 192.690072 
L 142.744676 204.38356 
L 143.204226 208.888021 
L 143.663777 208.603918 
L 144.123327 211.634334 
L 145.042427 219.782703 
L 145.501978 219.453314 
L 145.961528 216.986982 
L 146.880629 208.945645 
L 147.799729 200.595527 
L 148.259279 199.277947 
L 148.71883 198.322702 
L 149.17838 199.541468 
L 149.63793 192.685951 
L 150.097481 189.807877 
L 150.557031 193.101815 
L 151.016581 191.001939 
L 151.476132 200.636691 
L 151.935682 199.780261 
L 152.395232 201.262548 
L 152.854782 209.987365 
L 153.314333 205.042338 
L 153.773883 210.061476 
L 154.692984 209.530337 
L 155.152534 211.650795 
L 155.612084 210.180872 
L 156.071634 211.510816 
L 156.531185 213.915377 
L 156.990735 215.335892 
L 157.450285 219.984452 
L 157.909836 213.660098 
L 158.369386 212.853075 
L 158.828936 212.762504 
L 159.288486 212.062537 
L 159.748037 218.638072 
L 160.207587 219.136264 
L 160.667137 218.64629 
L 161.126688 214.512408 
L 161.586238 211.749609 
L 162.045788 213.602449 
L 162.505338 216.620526 
L 162.964889 221.532607 
L 163.424439 215.060032 
L 164.34354 206.084057 
L 164.80309 210.452636 
L 165.26264 211.683741 
L 165.722191 211.527277 
L 166.181741 209.283277 
L 166.641291 210.312633 
L 167.100841 210.427932 
L 167.560392 211.012599 
L 168.019942 210.806728 
L 168.939043 215.331771 
L 169.398593 215.990573 
L 169.858143 214.211844 
L 170.317693 209.929715 
L 170.777244 212.136647 
L 171.696344 214.640047 
L 172.155895 212.149012 
L 172.615445 206.586371 
L 173.534545 198.598563 
L 173.994096 201.929568 
L 174.453646 200.200246 
L 174.913196 199.776164 
L 175.372747 196.807494 
L 175.832297 190.631361 
L 176.291847 190.507844 
L 176.751397 193.085354 
L 177.210948 186.99155 
L 177.670498 184.821685 
L 178.130048 184.607571 
L 178.589599 185.509288 
L 179.049149 184.022905 
L 179.508699 186.616875 
L 179.96825 185.669873 
L 180.4278 186.439829 
L 180.88735 194.13117 
L 181.3469 194.225863 
L 181.806451 189.202628 
L 182.266001 175.812765 
L 182.725551 176.566235 
L 184.104202 172.107085 
L 184.563752 170.970672 
L 185.023303 168.35612 
L 185.942403 167.964934 
L 186.401954 168.809026 
L 186.861504 170.509523 
L 188.240155 174.161674 
L 188.699705 172.617641 
L 189.159255 168.06787 
L 189.618806 173.749932 
L 190.078356 172.086478 
L 190.537906 167.507907 
L 190.997456 166.177988 
L 191.457007 164.456933 
L 191.916557 158.107851 
L 192.835658 172.127692 
L 193.295208 176.051557 
L 193.754758 177.126198 
L 194.214309 184.047608 
L 194.673859 181.770662 
L 195.592959 167.240264 
L 196.05251 167.528514 
L 196.51206 167.985542 
L 196.97161 167.129136 
L 197.431161 165.725081 
L 197.890711 162.311722 
L 198.350261 157.094981 
L 198.809811 154.389807 
L 199.269362 155.254455 
L 200.188462 159.750698 
L 200.648013 160.310661 
L 201.107563 161.150632 
L 201.567113 162.9417 
L 202.026663 165.725081 
L 202.486214 166.742072 
L 203.405314 148.596617 
L 204.324415 142.869269 
L 204.783965 139.805931 
L 205.243515 144.516238 
L 205.703066 142.329863 
L 206.162616 143.239847 
L 206.622166 130.801082 
L 207.081717 132.427493 
L 207.541267 131.196388 
L 208.000817 131.739866 
L 208.460368 129.355913 
L 208.919918 118.321202 
L 209.379468 112.408591 
L 209.839018 114.166738 
L 210.298569 111.358628 
L 210.758119 111.165121 
L 211.217669 115.397843 
L 211.67722 112.890297 
L 212.13677 116.110149 
L 212.59632 136.108444 
L 213.05587 147.147276 
L 213.515421 174.581659 
L 213.974971 153.58693 
L 214.434521 163.921648 
L 214.894072 177.916761 
L 215.353622 165.239203 
L 215.813172 167.985542 
L 216.272722 166.206838 
L 216.732273 154.212786 
L 217.191823 150.124164 
L 217.651373 150.379442 
L 218.110924 143.651589 
L 218.570474 139.505317 
L 219.030024 139.71531 
L 219.949125 129.40532 
L 220.408675 138.340105 
L 220.868225 143.470396 
L 221.327776 164.699847 
L 222.246876 146.533784 
L 222.706426 150.354764 
L 224.085077 120.614584 
L 224.544628 117.82301 
L 225.004178 128.540621 
L 225.463728 126.988395 
L 225.923279 124.608513 
L 226.382829 140.085888 
L 226.842379 148.05721 
L 227.301929 150.457699 
L 227.76148 155.629155 
L 228.22103 167.421457 
L 228.68058 167.738506 
L 229.140131 162.262315 
L 229.599681 187.786234 
L 230.059231 183.957012 
L 230.518781 177.200334 
L 230.978332 181.923004 
L 231.437882 189.301442 
L 231.897432 169.471925 
L 232.356983 179.061416 
L 232.816533 180.321346 
L 233.276083 176.113328 
L 233.735633 175.396901 
L 234.195184 175.615136 
L 234.654734 169.266054 
L 235.114284 169.817774 
L 236.033385 156.040897 
L 236.492935 160.154197 
L 236.952485 153.875129 
L 237.412036 154.406293 
L 238.331136 176.323321 
L 238.790687 174.894588 
L 239.250237 169.821896 
L 239.709787 174.400467 
L 240.169338 181.861258 
L 240.628888 174.573417 
L 241.088438 178.126754 
L 241.547988 180.498393 
L 242.007539 166.383859 
L 242.467089 161.965873 
L 242.926639 162.179987 
L 243.38619 149.457144 
L 244.30529 145.105051 
L 244.76484 148.674824 
L 245.224391 153.537523 
L 245.683941 155.032149 
L 246.143491 161.397667 
L 247.062592 151.598183 
L 247.522142 159.750698 
L 247.981692 152.792245 
L 248.441243 152.936345 
L 248.900793 157.280245 
L 249.360343 158.317843 
L 249.819894 154.809792 
L 250.738994 131.546359 
L 251.198544 124.892591 
L 251.658095 125.67079 
L 252.117645 129.042985 
L 252.577195 134.547976 
L 253.036746 133.83567 
L 253.496296 130.508761 
L 253.955846 125.87254 
L 254.415397 125.90139 
L 254.874947 122.726823 
L 255.334497 125.703762 
L 255.794047 118.531195 
L 256.253598 113.100289 
L 256.713148 112.190355 
L 258.091799 129.224127 
L 258.551349 132.575714 
L 259.010899 142.296941 
L 259.47045 134.095019 
L 259.93 141.0782 
L 260.38955 127.050116 
L 260.849101 137.269585 
L 261.768201 122.693902 
L 262.227751 118.580602 
L 262.687302 124.497335 
L 263.146852 116.575419 
L 263.606402 105.071317 
L 264.065953 104.655453 
L 264.525503 113.330889 
L 264.985053 102.712042 
L 265.444603 103.48612 
L 265.904154 106.537143 
L 266.363704 108.011162 
L 266.823254 76.99052 
L 267.282805 84.558344 
L 267.742355 78.563353 
L 268.201905 69.529754 
L 268.661456 87.67521 
L 269.121006 93.167887 
L 269.580556 90.120985 
L 270.040106 98.606985 
L 270.499657 87.621681 
L 270.959207 89.091629 
L 271.418757 84.8095 
L 271.878308 82.870211 
L 272.337858 80.395636 
L 272.797408 81.857291 
L 273.256958 85.143036 
L 273.716509 84.607751 
L 274.176059 87.992259 
L 274.635609 88.935165 
L 275.09516 97.149401 
L 275.55471 97.717608 
L 276.01426 96.745902 
L 276.47381 100.369253 
L 277.392911 95.518918 
L 277.852461 88.049909 
L 278.312012 83.207817 
L 278.771562 83.578395 
L 279.231112 80.119751 
L 279.690662 84.727172 
L 280.150213 96.951773 
L 281.069313 106.813029 
L 281.528864 117.752996 
L 281.988414 112.729762 
L 282.447964 118.123574 
L 282.907515 113.635574 
L 283.367065 114.582601 
L 283.826615 111.165121 
L 284.286165 115.377236 
L 284.745716 121.598654 
L 285.205266 119.004708 
L 286.124367 108.315847 
L 286.583917 122.936816 
L 287.043467 112.709154 
L 287.503017 108.822332 
L 287.962568 106.224215 
L 288.422118 104.540204 
L 288.881668 100.871567 
L 289.341219 103.477877 
L 289.800769 101.283309 
L 290.260319 104.15314 
L 290.719869 116.106027 
L 291.17942 122.693902 
L 291.63897 126.271918 
L 292.09852 132.411008 
L 292.558071 156.028533 
L 293.017621 139.31181 
L 293.477171 139.987074 
L 293.936721 141.848156 
L 294.396272 130.928746 
L 294.855822 135.046168 
L 295.315372 145.870885 
L 295.774923 142.247534 
L 296.234473 150.984691 
L 296.694023 141.2223 
L 297.613124 168.673169 
L 298.072674 148.823045 
L 298.532224 180.333686 
L 298.991775 160.491854 
L 299.451325 150.939406 
L 299.910875 151.927597 
L 300.829976 165.918588 
L 301.749076 144.392695 
L 302.208627 153.978065 
L 302.668177 158.461943 
L 303.127727 166.005038 
L 303.587278 163.86812 
L 304.046828 167.384414 
L 304.506378 161.714716 
L 304.965928 162.472308 
L 305.425479 185.571059 
L 305.885029 169.916588 
L 306.344579 174.779288 
L 306.80413 170.455995 
L 307.72323 164.913961 
L 308.18278 154.179814 
L 308.642331 149.197744 
L 309.101881 134.15679 
L 309.561431 142.049906 
L 310.020982 170.044253 
L 310.480532 158.832521 
L 310.940082 170.892466 
L 311.399632 161.010653 
L 311.859183 156.835582 
L 312.318733 157.416102 
L 313.237834 169.216647 
L 313.697384 174.573417 
L 314.156934 169.101347 
L 314.616485 177.867354 
L 315.076035 175.380415 
L 315.535585 195.028765 
L 315.995135 189.400256 
L 316.914236 164.073991 
L 317.373786 164.761619 
L 317.833337 177.373283 
L 318.292887 167.709656 
L 318.752437 171.048879 
L 319.211987 155.233899 
L 319.671538 153.162823 
L 320.131088 152.34346 
L 320.590638 157.716716 
L 321.050189 159.791862 
L 321.509739 166.610337 
L 321.969289 164.687483 
L 322.428839 151.515855 
L 322.88839 152.34346 
L 323.34794 143.861582 
L 323.80749 149.045402 
L 324.267041 152.808731 
L 324.726591 154.5998 
L 325.186141 149.774193 
L 325.645691 151.487055 
L 326.105242 155.205048 
L 326.564792 156.720282 
L 327.024342 142.358713 
L 327.483893 138.220684 
L 327.943443 139.57121 
L 328.402993 135.19851 
L 328.862544 127.111888 
L 329.322094 142.531662 
L 329.781644 149.506551 
L 330.700745 142.865147 
L 331.160295 133.794455 
L 331.619845 137.104878 
L 332.079396 131.216945 
L 332.538946 140.547037 
L 332.998496 135.507317 
L 333.917597 143.404554 
L 334.377147 138.368905 
L 334.836697 141.4817 
L 335.296248 141.629921 
L 335.755798 139.575331 
L 336.215348 134.634425 
L 336.674898 124.933756 
L 337.134449 124.340871 
L 337.593999 117.85181 
L 338.053549 122.488031 
L 338.5131 133.440363 
L 338.97265 125.98784 
L 339.89175 103.782562 
L 340.351301 106.627714 
L 340.810851 107.047699 
L 341.270401 110.469301 
L 341.729952 109.633452 
L 342.189502 105.647766 
L 342.649052 97.989372 
L 343.108603 94.345463 
L 343.568153 106.405358 
L 344.027703 104.087297 
L 344.946804 116.311898 
L 345.406354 114.384923 
L 345.865904 111.354507 
L 346.785005 100.99511 
L 347.244555 101.57563 
L 347.704105 98.277571 
L 348.623206 105.446016 
L 349.542307 102.5597 
L 350.001857 99.792804 
L 350.461407 96.30536 
L 351.380508 90.989755 
L 351.840058 87.695817 
L 352.299608 91.125611 
L 352.759159 82.903132 
L 353.218709 77.159349 
L 353.678259 77.27872 
L 354.137809 76.010572 
L 354.59736 73.074848 
L 355.05691 110.082237 
L 355.51646 107.253571 
L 355.976011 117.505961 
L 356.435561 115.525457 
L 356.895111 117.752996 
L 357.354662 112.066812 
L 357.814212 115.574864 
L 358.273762 121.623383 
L 358.733312 119.054115 
L 359.192863 128.771221 
L 359.652413 129.973526 
L 360.111963 138.113627 
L 360.571514 117.818889 
L 361.031064 116.176042 
L 361.490614 125.576097 
L 361.950164 124.966727 
L 362.409715 126.296646 
L 362.869265 128.429493 
L 363.328815 125.98784 
L 364.707466 139.101818 
L 365.167016 145.076201 
L 365.626567 161.014725 
L 366.086117 170.254245 
L 366.545667 165.926831 
L 367.005218 169.546061 
L 367.464768 166.223273 
L 368.383868 148.637781 
L 368.843419 155.653884 
L 369.762519 151.622912 
L 370.22207 151.886433 
L 370.68162 142.663398 
L 371.14117 144.417423 
L 371.600721 138.463648 
L 372.060271 143.338661 
L 372.519821 139.163589 
L 372.979371 141.189379 
L 373.438922 151.104112 
L 373.898472 152.854017 
L 374.358022 156.77381 
L 374.817573 146.970205 
L 375.277123 145.409736 
L 375.736673 139.781203 
L 376.196223 139.422989 
L 376.655774 136.746665 
L 377.115324 143.149276 
L 377.574874 134.090948 
L 378.034425 128.3924 
L 378.493975 129.722319 
L 378.953525 128.730057 
L 379.413075 128.157729 
L 379.872626 126.432503 
L 380.332176 130.105261 
L 380.791726 127.091331 
L 381.251277 132.79395 
L 381.710827 129.508255 
L 382.170377 133.967405 
L 382.629927 131.361095 
L 383.089478 94.695434 
L 383.549028 88.725173 
L 384.008578 95.107176 
L 384.468129 95.984189 
L 384.927679 98.965198 
L 385.387229 104.988989 
L 385.846779 117.353618 
L 386.76588 123.599715 
L 387.22543 111.811534 
L 387.684981 106.228337 
L 388.144531 114.459059 
L 388.604081 116.785412 
L 389.063632 116.077228 
L 389.523182 119.222894 
L 390.442282 109.588167 
L 390.901833 108.138826 
L 391.361383 107.94532 
L 391.820933 108.776996 
L 392.280484 112.330333 
L 392.740034 122.92038 
L 393.199584 113.223832 
L 393.659134 120.68872 
L 394.118685 111.815656 
L 394.578235 106.080115 
L 395.037785 113.697346 
L 395.497336 114.685537 
L 396.416436 102.460886 
L 396.875986 103.309099 
L 397.335537 107.834141 
L 397.795087 104.622532 
L 398.254637 96.560638 
L 398.714188 93.00318 
L 399.173738 93.690807 
L 399.633288 93.200808 
L 400.092838 93.773136 
L 400.552389 92.91673 
L 401.011939 92.373202 
L 401.471489 95.284248 
L 401.93104 89.754528 
L 402.39059 99.632219 
L 402.85014 88.873394 
L 403.309691 88.589316 
L 403.769241 97.742336 
L 404.228791 96.964138 
L 404.688341 107.665313 
L 405.147892 113.083854 
L 406.066992 103.34202 
L 406.526543 106.73065 
L 406.986093 105.676616 
L 407.445643 106.800664 
L 407.905193 96.330039 
L 408.364744 100.50511 
L 408.824294 97.371758 
L 409.283844 89.009251 
L 409.743395 85.060657 
L 410.202945 83.70606 
L 410.662495 86.172391 
L 411.581596 89.668078 
L 412.041146 81.886141 
L 412.500696 84.813622 
L 412.960247 75.343552 
L 413.419797 74.93181 
L 413.879347 83.516624 
L 414.798448 79.13156 
L 415.257998 74.886524 
L 415.717548 68.673349 
L 416.177099 69.130376 
L 416.636649 67.405151 
L 417.096199 64.424141 
L 417.55575 63.403029 
L 418.47485 67.858057 
L 418.9344 67.108708 
L 419.853501 51.734269 
L 420.313051 54.085301 
L 421.232152 65.358804 
L 421.691702 63.814771 
L 422.151252 66.589909 
L 422.610803 60.969618 
L 423.070353 58.700915 
L 423.529903 62.332509 
L 423.989454 63.995913 
L 424.449004 73.836561 
L 425.368104 53.932959 
L 426.287205 49.049702 
L 426.746755 48.605039 
L 427.206306 45.16283 
L 427.665856 47.258634 
L 428.125406 45.327537 
L 429.044507 39.353154 
L 429.963607 43.676447 
L 430.423158 39.069076 
L 430.882708 40.868387 
L 431.342258 44.376439 
L 431.801809 45.883379 
L 432.261359 38.698498 
L 432.720909 41.6589 
L 432.720909 41.6589 
" style="fill:none;stroke:#0000ff;stroke-linecap:square;stroke-width:1.5;"/>
   </g>
   <g id="patch_3">
    <path d="M 69.86 286.886956 
L 69.86 26.88 
" style="fill:none;stroke:#000000;stroke-linecap:square;stroke-linejoin:miter;stroke-width:0.8;"/>
   </g>
   <g id="patch_4">
    <path d="M 450 286.886956 
L 450 26.88 
" style="fill:none;stroke:#000000;stroke-linecap:square;stroke-linejoin:miter;stroke-width:0.8;"/>
   </g>
   <g id="patch_5">
    <path d="M 69.86 286.886956 
L 450 286.886956 
" style="fill:none;stroke:#000000;stroke-linecap:square;stroke-linejoin:miter;stroke-width:0.8;"/>
   </g>
   <g id="patch_6">
    <path d="M 69.86 26.88 
L 450 26.88 
" style="fill:none;stroke:#000000;stroke-linecap:square;stroke-linejoin:miter;stroke-width:0.8;"/>
   </g>
   <g id="text_19">
    <!-- Comparison between Buy-And-Hold and DQN portfolio  -->
    <g transform="translate(95.475625 20.88)scale(0.12 -0.12)">
     <defs>
      <path d="M 64.40625 67.28125 
L 64.40625 56.890625 
Q 59.421875 61.53125 53.78125 63.8125 
Q 48.140625 66.109375 41.796875 66.109375 
Q 29.296875 66.109375 22.65625 58.46875 
Q 16.015625 50.828125 16.015625 36.375 
Q 16.015625 21.96875 22.65625 14.328125 
Q 29.296875 6.6875 41.796875 6.6875 
Q 48.140625 6.6875 53.78125 8.984375 
Q 59.421875 11.28125 64.40625 15.921875 
L 64.40625 5.609375 
Q 59.234375 2.09375 53.4375 0.328125 
Q 47.65625 -1.421875 41.21875 -1.421875 
Q 24.65625 -1.421875 15.125 8.703125 
Q 5.609375 18.84375 5.609375 36.375 
Q 5.609375 53.953125 15.125 64.078125 
Q 24.65625 74.21875 41.21875 74.21875 
Q 47.75 74.21875 53.53125 72.484375 
Q 59.328125 70.75 64.40625 67.28125 
z
" id="DejaVuSans-67"/>
      <path d="M 52 44.1875 
Q 55.375 50.25 60.0625 53.125 
Q 64.75 56 71.09375 56 
Q 79.640625 56 84.28125 50.015625 
Q 88.921875 44.046875 88.921875 33.015625 
L 88.921875 0 
L 79.890625 0 
L 79.890625 32.71875 
Q 79.890625 40.578125 77.09375 44.375 
Q 74.3125 48.1875 68.609375 48.1875 
Q 61.625 48.1875 57.5625 43.546875 
Q 53.515625 38.921875 53.515625 30.90625 
L 53.515625 0 
L 44.484375 0 
L 44.484375 32.71875 
Q 44.484375 40.625 41.703125 44.40625 
Q 38.921875 48.1875 33.109375 48.1875 
Q 26.21875 48.1875 22.15625 43.53125 
Q 18.109375 38.875 18.109375 30.90625 
L 18.109375 0 
L 9.078125 0 
L 9.078125 54.6875 
L 18.109375 54.6875 
L 18.109375 46.1875 
Q 21.1875 51.21875 25.484375 53.609375 
Q 29.78125 56 35.6875 56 
Q 41.65625 56 45.828125 52.96875 
Q 50 49.953125 52 44.1875 
z
" id="DejaVuSans-109"/>
      <path d="M 18.109375 8.203125 
L 18.109375 -20.796875 
L 9.078125 -20.796875 
L 9.078125 54.6875 
L 18.109375 54.6875 
L 18.109375 46.390625 
Q 20.953125 51.265625 25.265625 53.625 
Q 29.59375 56 35.59375 56 
Q 45.5625 56 51.78125 48.09375 
Q 58.015625 40.1875 58.015625 27.296875 
Q 58.015625 14.40625 51.78125 6.484375 
Q 45.5625 -1.421875 35.59375 -1.421875 
Q 29.59375 -1.421875 25.265625 0.953125 
Q 20.953125 3.328125 18.109375 8.203125 
z
M 48.6875 27.296875 
Q 48.6875 37.203125 44.609375 42.84375 
Q 40.53125 48.484375 33.40625 48.484375 
Q 26.265625 48.484375 22.1875 42.84375 
Q 18.109375 37.203125 18.109375 27.296875 
Q 18.109375 17.390625 22.1875 11.75 
Q 26.265625 6.109375 33.40625 6.109375 
Q 40.53125 6.109375 44.609375 11.75 
Q 48.6875 17.390625 48.6875 27.296875 
z
" id="DejaVuSans-112"/>
      <path d="M 44.28125 53.078125 
L 44.28125 44.578125 
Q 40.484375 46.53125 36.375 47.5 
Q 32.28125 48.484375 27.875 48.484375 
Q 21.1875 48.484375 17.84375 46.4375 
Q 14.5 44.390625 14.5 40.28125 
Q 14.5 37.15625 16.890625 35.375 
Q 19.28125 33.59375 26.515625 31.984375 
L 29.59375 31.296875 
Q 39.15625 29.25 43.1875 25.515625 
Q 47.21875 21.78125 47.21875 15.09375 
Q 47.21875 7.46875 41.1875 3.015625 
Q 35.15625 -1.421875 24.609375 -1.421875 
Q 20.21875 -1.421875 15.453125 -0.5625 
Q 10.6875 0.296875 5.421875 2 
L 5.421875 11.28125 
Q 10.40625 8.6875 15.234375 7.390625 
Q 20.0625 6.109375 24.8125 6.109375 
Q 31.15625 6.109375 34.5625 8.28125 
Q 37.984375 10.453125 37.984375 14.40625 
Q 37.984375 18.0625 35.515625 20.015625 
Q 33.0625 21.96875 24.703125 23.78125 
L 21.578125 24.515625 
Q 13.234375 26.265625 9.515625 29.90625 
Q 5.8125 33.546875 5.8125 39.890625 
Q 5.8125 47.609375 11.28125 51.796875 
Q 16.75 56 26.8125 56 
Q 31.78125 56 36.171875 55.265625 
Q 40.578125 54.546875 44.28125 53.078125 
z
" id="DejaVuSans-115"/>
      <path d="M 54.890625 33.015625 
L 54.890625 0 
L 45.90625 0 
L 45.90625 32.71875 
Q 45.90625 40.484375 42.875 44.328125 
Q 39.84375 48.1875 33.796875 48.1875 
Q 26.515625 48.1875 22.3125 43.546875 
Q 18.109375 38.921875 18.109375 30.90625 
L 18.109375 0 
L 9.078125 0 
L 9.078125 54.6875 
L 18.109375 54.6875 
L 18.109375 46.1875 
Q 21.34375 51.125 25.703125 53.5625 
Q 30.078125 56 35.796875 56 
Q 45.21875 56 50.046875 50.171875 
Q 54.890625 44.34375 54.890625 33.015625 
z
" id="DejaVuSans-110"/>
      <path d="M 48.6875 27.296875 
Q 48.6875 37.203125 44.609375 42.84375 
Q 40.53125 48.484375 33.40625 48.484375 
Q 26.265625 48.484375 22.1875 42.84375 
Q 18.109375 37.203125 18.109375 27.296875 
Q 18.109375 17.390625 22.1875 11.75 
Q 26.265625 6.109375 33.40625 6.109375 
Q 40.53125 6.109375 44.609375 11.75 
Q 48.6875 17.390625 48.6875 27.296875 
z
M 18.109375 46.390625 
Q 20.953125 51.265625 25.265625 53.625 
Q 29.59375 56 35.59375 56 
Q 45.5625 56 51.78125 48.09375 
Q 58.015625 40.1875 58.015625 27.296875 
Q 58.015625 14.40625 51.78125 6.484375 
Q 45.5625 -1.421875 35.59375 -1.421875 
Q 29.59375 -1.421875 25.265625 0.953125 
Q 20.953125 3.328125 18.109375 8.203125 
L 18.109375 0 
L 9.078125 0 
L 9.078125 75.984375 
L 18.109375 75.984375 
z
" id="DejaVuSans-98"/>
      <path d="M 4.203125 54.6875 
L 13.1875 54.6875 
L 24.421875 12.015625 
L 35.59375 54.6875 
L 46.1875 54.6875 
L 57.421875 12.015625 
L 68.609375 54.6875 
L 77.59375 54.6875 
L 63.28125 0 
L 52.6875 0 
L 40.921875 44.828125 
L 29.109375 0 
L 18.5 0 
z
" id="DejaVuSans-119"/>
      <path d="M 19.671875 34.8125 
L 19.671875 8.109375 
L 35.5 8.109375 
Q 43.453125 8.109375 47.28125 11.40625 
Q 51.125 14.703125 51.125 21.484375 
Q 51.125 28.328125 47.28125 31.5625 
Q 43.453125 34.8125 35.5 34.8125 
z
M 19.671875 64.796875 
L 19.671875 42.828125 
L 34.28125 42.828125 
Q 41.5 42.828125 45.03125 45.53125 
Q 48.578125 48.25 48.578125 53.8125 
Q 48.578125 59.328125 45.03125 62.0625 
Q 41.5 64.796875 34.28125 64.796875 
z
M 9.8125 72.90625 
L 35.015625 72.90625 
Q 46.296875 72.90625 52.390625 68.21875 
Q 58.5 63.53125 58.5 54.890625 
Q 58.5 48.1875 55.375 44.234375 
Q 52.25 40.28125 46.1875 39.3125 
Q 53.46875 37.75 57.5 32.78125 
Q 61.53125 27.828125 61.53125 20.40625 
Q 61.53125 10.640625 54.890625 5.3125 
Q 48.25 0 35.984375 0 
L 9.8125 0 
z
" id="DejaVuSans-66"/>
      <path d="M 32.171875 -5.078125 
Q 28.375 -14.84375 24.75 -17.8125 
Q 21.140625 -20.796875 15.09375 -20.796875 
L 7.90625 -20.796875 
L 7.90625 -13.28125 
L 13.1875 -13.28125 
Q 16.890625 -13.28125 18.9375 -11.515625 
Q 21 -9.765625 23.484375 -3.21875 
L 25.09375 0.875 
L 2.984375 54.6875 
L 12.5 54.6875 
L 29.59375 11.921875 
L 46.6875 54.6875 
L 56.203125 54.6875 
z
" id="DejaVuSans-121"/>
      <path d="M 4.890625 31.390625 
L 31.203125 31.390625 
L 31.203125 23.390625 
L 4.890625 23.390625 
z
" id="DejaVuSans-45"/>
      <path d="M 34.1875 63.1875 
L 20.796875 26.90625 
L 47.609375 26.90625 
z
M 28.609375 72.90625 
L 39.796875 72.90625 
L 67.578125 0 
L 57.328125 0 
L 50.6875 18.703125 
L 17.828125 18.703125 
L 11.1875 0 
L 0.78125 0 
z
" id="DejaVuSans-65"/>
      <path d="M 45.40625 46.390625 
L 45.40625 75.984375 
L 54.390625 75.984375 
L 54.390625 0 
L 45.40625 0 
L 45.40625 8.203125 
Q 42.578125 3.328125 38.25 0.953125 
Q 33.9375 -1.421875 27.875 -1.421875 
Q 17.96875 -1.421875 11.734375 6.484375 
Q 5.515625 14.40625 5.515625 27.296875 
Q 5.515625 40.1875 11.734375 48.09375 
Q 17.96875 56 27.875 56 
Q 33.9375 56 38.25 53.625 
Q 42.578125 51.265625 45.40625 46.390625 
z
M 14.796875 27.296875 
Q 14.796875 17.390625 18.875 11.75 
Q 22.953125 6.109375 30.078125 6.109375 
Q 37.203125 6.109375 41.296875 11.75 
Q 45.40625 17.390625 45.40625 27.296875 
Q 45.40625 37.203125 41.296875 42.84375 
Q 37.203125 48.484375 30.078125 48.484375 
Q 22.953125 48.484375 18.875 42.84375 
Q 14.796875 37.203125 14.796875 27.296875 
z
" id="DejaVuSans-100"/>
      <path d="M 9.8125 72.90625 
L 19.671875 72.90625 
L 19.671875 43.015625 
L 55.515625 43.015625 
L 55.515625 72.90625 
L 65.375 72.90625 
L 65.375 0 
L 55.515625 0 
L 55.515625 34.71875 
L 19.671875 34.71875 
L 19.671875 0 
L 9.8125 0 
z
" id="DejaVuSans-72"/>
      <path d="M 39.40625 66.21875 
Q 28.65625 66.21875 22.328125 58.203125 
Q 16.015625 50.203125 16.015625 36.375 
Q 16.015625 22.609375 22.328125 14.59375 
Q 28.65625 6.59375 39.40625 6.59375 
Q 50.140625 6.59375 56.421875 14.59375 
Q 62.703125 22.609375 62.703125 36.375 
Q 62.703125 50.203125 56.421875 58.203125 
Q 50.140625 66.21875 39.40625 66.21875 
z
M 53.21875 1.3125 
L 66.21875 -12.890625 
L 54.296875 -12.890625 
L 43.5 -1.21875 
Q 41.890625 -1.3125 41.03125 -1.359375 
Q 40.1875 -1.421875 39.40625 -1.421875 
Q 24.03125 -1.421875 14.8125 8.859375 
Q 5.609375 19.140625 5.609375 36.375 
Q 5.609375 53.65625 14.8125 63.9375 
Q 24.03125 74.21875 39.40625 74.21875 
Q 54.734375 74.21875 63.90625 63.9375 
Q 73.09375 53.65625 73.09375 36.375 
Q 73.09375 23.6875 67.984375 14.640625 
Q 62.890625 5.609375 53.21875 1.3125 
z
" id="DejaVuSans-81"/>
      <path d="M 9.8125 72.90625 
L 23.09375 72.90625 
L 55.421875 11.921875 
L 55.421875 72.90625 
L 64.984375 72.90625 
L 64.984375 0 
L 51.703125 0 
L 19.390625 60.984375 
L 19.390625 0 
L 9.8125 0 
z
" id="DejaVuSans-78"/>
     </defs>
     <use xlink:href="#DejaVuSans-67"/>
     <use x="69.824219" xlink:href="#DejaVuSans-111"/>
     <use x="131.005859" xlink:href="#DejaVuSans-109"/>
     <use x="228.417969" xlink:href="#DejaVuSans-112"/>
     <use x="291.894531" xlink:href="#DejaVuSans-97"/>
     <use x="353.173828" xlink:href="#DejaVuSans-114"/>
     <use x="394.287109" xlink:href="#DejaVuSans-105"/>
     <use x="422.070312" xlink:href="#DejaVuSans-115"/>
     <use x="474.169922" xlink:href="#DejaVuSans-111"/>
     <use x="535.351562" xlink:href="#DejaVuSans-110"/>
     <use x="598.730469" xlink:href="#DejaVuSans-32"/>
     <use x="630.517578" xlink:href="#DejaVuSans-98"/>
     <use x="693.994141" xlink:href="#DejaVuSans-101"/>
     <use x="755.517578" xlink:href="#DejaVuSans-116"/>
     <use x="794.726562" xlink:href="#DejaVuSans-119"/>
     <use x="876.513672" xlink:href="#DejaVuSans-101"/>
     <use x="938.037109" xlink:href="#DejaVuSans-101"/>
     <use x="999.560547" xlink:href="#DejaVuSans-110"/>
     <use x="1062.939453" xlink:href="#DejaVuSans-32"/>
     <use x="1094.726562" xlink:href="#DejaVuSans-66"/>
     <use x="1163.330078" xlink:href="#DejaVuSans-117"/>
     <use x="1226.708984" xlink:href="#DejaVuSans-121"/>
     <use x="1284.138672" xlink:href="#DejaVuSans-45"/>
     <use x="1317.972656" xlink:href="#DejaVuSans-65"/>
     <use x="1386.380859" xlink:href="#DejaVuSans-110"/>
     <use x="1449.759766" xlink:href="#DejaVuSans-100"/>
     <use x="1513.236328" xlink:href="#DejaVuSans-45"/>
     <use x="1549.320312" xlink:href="#DejaVuSans-72"/>
     <use x="1624.515625" xlink:href="#DejaVuSans-111"/>
     <use x="1685.697266" xlink:href="#DejaVuSans-108"/>
     <use x="1713.480469" xlink:href="#DejaVuSans-100"/>
     <use x="1776.957031" xlink:href="#DejaVuSans-32"/>
     <use x="1808.744141" xlink:href="#DejaVuSans-97"/>
     <use x="1870.023438" xlink:href="#DejaVuSans-110"/>
     <use x="1933.402344" xlink:href="#DejaVuSans-100"/>
     <use x="1996.878906" xlink:href="#DejaVuSans-32"/>
     <use x="2028.666016" xlink:href="#DejaVuSans-68"/>
     <use x="2105.667969" xlink:href="#DejaVuSans-81"/>
     <use x="2184.378906" xlink:href="#DejaVuSans-78"/>
     <use x="2259.183594" xlink:href="#DejaVuSans-32"/>
     <use x="2290.970703" xlink:href="#DejaVuSans-112"/>
     <use x="2354.447266" xlink:href="#DejaVuSans-111"/>
     <use x="2415.628906" xlink:href="#DejaVuSans-114"/>
     <use x="2456.742188" xlink:href="#DejaVuSans-116"/>
     <use x="2495.951172" xlink:href="#DejaVuSans-102"/>
     <use x="2531.15625" xlink:href="#DejaVuSans-111"/>
     <use x="2592.337891" xlink:href="#DejaVuSans-108"/>
     <use x="2620.121094" xlink:href="#DejaVuSans-105"/>
     <use x="2647.904297" xlink:href="#DejaVuSans-111"/>
     <use x="2709.085938" xlink:href="#DejaVuSans-32"/>
    </g>
   </g>
   <g id="legend_1">
    <g id="patch_7">
     <path d="M 76.86 64.23625 
L 303.499063 64.23625 
Q 305.499063 64.23625 305.499063 62.23625 
L 305.499063 33.88 
Q 305.499063 31.88 303.499063 31.88 
L 76.86 31.88 
Q 74.86 31.88 74.86 33.88 
L 74.86 62.23625 
Q 74.86 64.23625 76.86 64.23625 
z
" style="fill:#ffffff;opacity:0.8;stroke:#cccccc;stroke-linejoin:miter;"/>
    </g>
    <g id="line2d_35">
     <path d="M 78.86 39.978437 
L 98.86 39.978437 
" style="fill:none;stroke:#ff0000;stroke-linecap:square;stroke-width:1.5;"/>
    </g>
    <g id="line2d_36"/>
    <g id="text_20">
     <!-- Reinforcement Learning Portfolio Value -->
     <g transform="translate(106.86 43.478437)scale(0.1 -0.1)">
      <defs>
       <path d="M 44.390625 34.1875 
Q 47.5625 33.109375 50.5625 29.59375 
Q 53.5625 26.078125 56.59375 19.921875 
L 66.609375 0 
L 56 0 
L 46.6875 18.703125 
Q 43.0625 26.03125 39.671875 28.421875 
Q 36.28125 30.8125 30.421875 30.8125 
L 19.671875 30.8125 
L 19.671875 0 
L 9.8125 0 
L 9.8125 72.90625 
L 32.078125 72.90625 
Q 44.578125 72.90625 50.734375 67.671875 
Q 56.890625 62.453125 56.890625 51.90625 
Q 56.890625 45.015625 53.6875 40.46875 
Q 50.484375 35.9375 44.390625 34.1875 
z
M 19.671875 64.796875 
L 19.671875 38.921875 
L 32.078125 38.921875 
Q 39.203125 38.921875 42.84375 42.21875 
Q 46.484375 45.515625 46.484375 51.90625 
Q 46.484375 58.296875 42.84375 61.546875 
Q 39.203125 64.796875 32.078125 64.796875 
z
" id="DejaVuSans-82"/>
       <path d="M 48.78125 52.59375 
L 48.78125 44.1875 
Q 44.96875 46.296875 41.140625 47.34375 
Q 37.3125 48.390625 33.40625 48.390625 
Q 24.65625 48.390625 19.8125 42.84375 
Q 14.984375 37.3125 14.984375 27.296875 
Q 14.984375 17.28125 19.8125 11.734375 
Q 24.65625 6.203125 33.40625 6.203125 
Q 37.3125 6.203125 41.140625 7.25 
Q 44.96875 8.296875 48.78125 10.40625 
L 48.78125 2.09375 
Q 45.015625 0.34375 40.984375 -0.53125 
Q 36.96875 -1.421875 32.421875 -1.421875 
Q 20.0625 -1.421875 12.78125 6.34375 
Q 5.515625 14.109375 5.515625 27.296875 
Q 5.515625 40.671875 12.859375 48.328125 
Q 20.21875 56 33.015625 56 
Q 37.15625 56 41.109375 55.140625 
Q 45.0625 54.296875 48.78125 52.59375 
z
" id="DejaVuSans-99"/>
       <path d="M 9.8125 72.90625 
L 19.671875 72.90625 
L 19.671875 8.296875 
L 55.171875 8.296875 
L 55.171875 0 
L 9.8125 0 
z
" id="DejaVuSans-76"/>
       <path d="M 45.40625 27.984375 
Q 45.40625 37.75 41.375 43.109375 
Q 37.359375 48.484375 30.078125 48.484375 
Q 22.859375 48.484375 18.828125 43.109375 
Q 14.796875 37.75 14.796875 27.984375 
Q 14.796875 18.265625 18.828125 12.890625 
Q 22.859375 7.515625 30.078125 7.515625 
Q 37.359375 7.515625 41.375 12.890625 
Q 45.40625 18.265625 45.40625 27.984375 
z
M 54.390625 6.78125 
Q 54.390625 -7.171875 48.1875 -13.984375 
Q 42 -20.796875 29.203125 -20.796875 
Q 24.46875 -20.796875 20.265625 -20.09375 
Q 16.0625 -19.390625 12.109375 -17.921875 
L 12.109375 -9.1875 
Q 16.0625 -11.328125 19.921875 -12.34375 
Q 23.78125 -13.375 27.78125 -13.375 
Q 36.625 -13.375 41.015625 -8.765625 
Q 45.40625 -4.15625 45.40625 5.171875 
L 45.40625 9.625 
Q 42.625 4.78125 38.28125 2.390625 
Q 33.9375 0 27.875 0 
Q 17.828125 0 11.671875 7.65625 
Q 5.515625 15.328125 5.515625 27.984375 
Q 5.515625 40.671875 11.671875 48.328125 
Q 17.828125 56 27.875 56 
Q 33.9375 56 38.28125 53.609375 
Q 42.625 51.21875 45.40625 46.390625 
L 45.40625 54.6875 
L 54.390625 54.6875 
z
" id="DejaVuSans-103"/>
      </defs>
      <use xlink:href="#DejaVuSans-82"/>
      <use x="64.982422" xlink:href="#DejaVuSans-101"/>
      <use x="126.505859" xlink:href="#DejaVuSans-105"/>
      <use x="154.289062" xlink:href="#DejaVuSans-110"/>
      <use x="217.667969" xlink:href="#DejaVuSans-102"/>
      <use x="252.873047" xlink:href="#DejaVuSans-111"/>
      <use x="314.054688" xlink:href="#DejaVuSans-114"/>
      <use x="352.917969" xlink:href="#DejaVuSans-99"/>
      <use x="407.898438" xlink:href="#DejaVuSans-101"/>
      <use x="469.421875" xlink:href="#DejaVuSans-109"/>
      <use x="566.833984" xlink:href="#DejaVuSans-101"/>
      <use x="628.357422" xlink:href="#DejaVuSans-110"/>
      <use x="691.736328" xlink:href="#DejaVuSans-116"/>
      <use x="730.945312" xlink:href="#DejaVuSans-32"/>
      <use x="762.732422" xlink:href="#DejaVuSans-76"/>
      <use x="816.695312" xlink:href="#DejaVuSans-101"/>
      <use x="878.21875" xlink:href="#DejaVuSans-97"/>
      <use x="939.498047" xlink:href="#DejaVuSans-114"/>
      <use x="978.861328" xlink:href="#DejaVuSans-110"/>
      <use x="1042.240234" xlink:href="#DejaVuSans-105"/>
      <use x="1070.023438" xlink:href="#DejaVuSans-110"/>
      <use x="1133.402344" xlink:href="#DejaVuSans-103"/>
      <use x="1196.878906" xlink:href="#DejaVuSans-32"/>
      <use x="1228.666016" xlink:href="#DejaVuSans-80"/>
      <use x="1285.34375" xlink:href="#DejaVuSans-111"/>
      <use x="1346.525391" xlink:href="#DejaVuSans-114"/>
      <use x="1387.638672" xlink:href="#DejaVuSans-116"/>
      <use x="1426.847656" xlink:href="#DejaVuSans-102"/>
      <use x="1462.052734" xlink:href="#DejaVuSans-111"/>
      <use x="1523.234375" xlink:href="#DejaVuSans-108"/>
      <use x="1551.017578" xlink:href="#DejaVuSans-105"/>
      <use x="1578.800781" xlink:href="#DejaVuSans-111"/>
      <use x="1639.982422" xlink:href="#DejaVuSans-32"/>
      <use x="1671.769531" xlink:href="#DejaVuSans-86"/>
      <use x="1732.427734" xlink:href="#DejaVuSans-97"/>
      <use x="1793.707031" xlink:href="#DejaVuSans-108"/>
      <use x="1821.490234" xlink:href="#DejaVuSans-117"/>
      <use x="1884.869141" xlink:href="#DejaVuSans-101"/>
     </g>
    </g>
    <g id="line2d_37">
     <path d="M 78.86 54.656563 
L 98.86 54.656563 
" style="fill:none;stroke:#0000ff;stroke-linecap:square;stroke-width:1.5;"/>
    </g>
    <g id="line2d_38"/>
    <g id="text_21">
     <!-- Buy and Hold Strategy Portfolio Value -->
     <g transform="translate(106.86 58.156563)scale(0.1 -0.1)">
      <defs>
       <path d="M 53.515625 70.515625 
L 53.515625 60.890625 
Q 47.90625 63.578125 42.921875 64.890625 
Q 37.9375 66.21875 33.296875 66.21875 
Q 25.25 66.21875 20.875 63.09375 
Q 16.5 59.96875 16.5 54.203125 
Q 16.5 49.359375 19.40625 46.890625 
Q 22.3125 44.4375 30.421875 42.921875 
L 36.375 41.703125 
Q 47.40625 39.59375 52.65625 34.296875 
Q 57.90625 29 57.90625 20.125 
Q 57.90625 9.515625 50.796875 4.046875 
Q 43.703125 -1.421875 29.984375 -1.421875 
Q 24.8125 -1.421875 18.96875 -0.25 
Q 13.140625 0.921875 6.890625 3.21875 
L 6.890625 13.375 
Q 12.890625 10.015625 18.65625 8.296875 
Q 24.421875 6.59375 29.984375 6.59375 
Q 38.421875 6.59375 43.015625 9.90625 
Q 47.609375 13.234375 47.609375 19.390625 
Q 47.609375 24.75 44.3125 27.78125 
Q 41.015625 30.8125 33.5 32.328125 
L 27.484375 33.5 
Q 16.453125 35.6875 11.515625 40.375 
Q 6.59375 45.0625 6.59375 53.421875 
Q 6.59375 63.09375 13.40625 68.65625 
Q 20.21875 74.21875 32.171875 74.21875 
Q 37.3125 74.21875 42.625 73.28125 
Q 47.953125 72.359375 53.515625 70.515625 
z
" id="DejaVuSans-83"/>
      </defs>
      <use xlink:href="#DejaVuSans-66"/>
      <use x="68.603516" xlink:href="#DejaVuSans-117"/>
      <use x="131.982422" xlink:href="#DejaVuSans-121"/>
      <use x="191.162109" xlink:href="#DejaVuSans-32"/>
      <use x="222.949219" xlink:href="#DejaVuSans-97"/>
      <use x="284.228516" xlink:href="#DejaVuSans-110"/>
      <use x="347.607422" xlink:href="#DejaVuSans-100"/>
      <use x="411.083984" xlink:href="#DejaVuSans-32"/>
      <use x="442.871094" xlink:href="#DejaVuSans-72"/>
      <use x="518.066406" xlink:href="#DejaVuSans-111"/>
      <use x="579.248047" xlink:href="#DejaVuSans-108"/>
      <use x="607.03125" xlink:href="#DejaVuSans-100"/>
      <use x="670.507812" xlink:href="#DejaVuSans-32"/>
      <use x="702.294922" xlink:href="#DejaVuSans-83"/>
      <use x="765.771484" xlink:href="#DejaVuSans-116"/>
      <use x="804.980469" xlink:href="#DejaVuSans-114"/>
      <use x="846.09375" xlink:href="#DejaVuSans-97"/>
      <use x="907.373047" xlink:href="#DejaVuSans-116"/>
      <use x="946.582031" xlink:href="#DejaVuSans-101"/>
      <use x="1008.105469" xlink:href="#DejaVuSans-103"/>
      <use x="1071.582031" xlink:href="#DejaVuSans-121"/>
      <use x="1130.761719" xlink:href="#DejaVuSans-32"/>
      <use x="1162.548828" xlink:href="#DejaVuSans-80"/>
      <use x="1219.226562" xlink:href="#DejaVuSans-111"/>
      <use x="1280.408203" xlink:href="#DejaVuSans-114"/>
      <use x="1321.521484" xlink:href="#DejaVuSans-116"/>
      <use x="1360.730469" xlink:href="#DejaVuSans-102"/>
      <use x="1395.935547" xlink:href="#DejaVuSans-111"/>
      <use x="1457.117188" xlink:href="#DejaVuSans-108"/>
      <use x="1484.900391" xlink:href="#DejaVuSans-105"/>
      <use x="1512.683594" xlink:href="#DejaVuSans-111"/>
      <use x="1573.865234" xlink:href="#DejaVuSans-32"/>
      <use x="1605.652344" xlink:href="#DejaVuSans-86"/>
      <use x="1666.310547" xlink:href="#DejaVuSans-97"/>
      <use x="1727.589844" xlink:href="#DejaVuSans-108"/>
      <use x="1755.373047" xlink:href="#DejaVuSans-117"/>
      <use x="1818.751953" xlink:href="#DejaVuSans-101"/>
     </g>
    </g>
   </g>
  </g>
 </g>
 <defs>
  <clipPath id="p81fdbc594c">
   <rect height="260.006956" width="380.14" x="69.86" y="26.88"/>
  </clipPath>
 </defs>
</svg>
