<?xml version="1.0" encoding="utf-8" standalone="no"?>
<!DOCTYPE svg PUBLIC "-//W3C//DTD SVG 1.1//EN"
  "http://www.w3.org/Graphics/SVG/1.1/DTD/svg11.dtd">
<!-- Created with matplotlib (https://matplotlib.org/) -->
<svg height="345.6pt" version="1.1" viewBox="0 0 460.8 345.6" width="460.8pt" xmlns="http://www.w3.org/2000/svg" xmlns:xlink="http://www.w3.org/1999/xlink">
 <metadata>
  <rdf:RDF xmlns:cc="http://creativecommons.org/ns#" xmlns:dc="http://purl.org/dc/elements/1.1/" xmlns:rdf="http://www.w3.org/1999/02/22-rdf-syntax-ns#">
   <cc:Work>
    <dc:type rdf:resource="http://purl.org/dc/dcmitype/StillImage"/>
    <dc:date>2020-11-17T21:04:31.380480</dc:date>
    <dc:format>image/svg+xml</dc:format>
    <dc:creator>
     <cc:Agent>
      <dc:title>Matplotlib v3.3.2, https://matplotlib.org/</dc:title>
     </cc:Agent>
    </dc:creator>
   </cc:Work>
  </rdf:RDF>
 </metadata>
 <defs>
  <style type="text/css">*{stroke-linecap:butt;stroke-linejoin:round;}</style>
 </defs>
 <g id="figure_1">
  <g id="patch_1">
   <path d="M 0 345.6 
L 460.8 345.6 
L 460.8 0 
L 0 0 
z
" style="fill:#ffffff;"/>
  </g>
  <g id="axes_1">
   <g id="patch_2">
    <path d="M 69.86 286.886956 
L 450 286.886956 
L 450 26.88 
L 69.86 26.88 
z
" style="fill:#ffffff;"/>
   </g>
   <g id="matplotlib.axis_1">
    <g id="xtick_1">
     <g id="line2d_1">
      <path clip-path="url(#p5713b546f1)" d="M 87.139091 286.886956 
L 87.139091 26.88 
" style="fill:none;stroke:#b0b0b0;stroke-linecap:square;stroke-width:0.8;"/>
     </g>
     <g id="line2d_2">
      <defs>
       <path d="M 0 0 
L 0 3.5 
" id="mc3bb9fc550" style="stroke:#000000;stroke-width:0.8;"/>
      </defs>
      <g>
       <use style="stroke:#000000;stroke-width:0.8;" x="87.139091" xlink:href="#mc3bb9fc550" y="286.886956"/>
      </g>
     </g>
     <g id="text_1">
      <!-- 20170103 -->
      <g transform="translate(64.167676 318.435977)rotate(-20)scale(0.1 -0.1)">
       <defs>
        <path d="M 19.1875 8.296875 
L 53.609375 8.296875 
L 53.609375 0 
L 7.328125 0 
L 7.328125 8.296875 
Q 12.9375 14.109375 22.625 23.890625 
Q 32.328125 33.6875 34.8125 36.53125 
Q 39.546875 41.84375 41.421875 45.53125 
Q 43.3125 49.21875 43.3125 52.78125 
Q 43.3125 58.59375 39.234375 62.25 
Q 35.15625 65.921875 28.609375 65.921875 
Q 23.96875 65.921875 18.8125 64.3125 
Q 13.671875 62.703125 7.8125 59.421875 
L 7.8125 69.390625 
Q 13.765625 71.78125 18.9375 73 
Q 24.125 74.21875 28.421875 74.21875 
Q 39.75 74.21875 46.484375 68.546875 
Q 53.21875 62.890625 53.21875 53.421875 
Q 53.21875 48.921875 51.53125 44.890625 
Q 49.859375 40.875 45.40625 35.40625 
Q 44.1875 33.984375 37.640625 27.21875 
Q 31.109375 20.453125 19.1875 8.296875 
z
" id="DejaVuSans-50"/>
        <path d="M 31.78125 66.40625 
Q 24.171875 66.40625 20.328125 58.90625 
Q 16.5 51.421875 16.5 36.375 
Q 16.5 21.390625 20.328125 13.890625 
Q 24.171875 6.390625 31.78125 6.390625 
Q 39.453125 6.390625 43.28125 13.890625 
Q 47.125 21.390625 47.125 36.375 
Q 47.125 51.421875 43.28125 58.90625 
Q 39.453125 66.40625 31.78125 66.40625 
z
M 31.78125 74.21875 
Q 44.046875 74.21875 50.515625 64.515625 
Q 56.984375 54.828125 56.984375 36.375 
Q 56.984375 17.96875 50.515625 8.265625 
Q 44.046875 -1.421875 31.78125 -1.421875 
Q 19.53125 -1.421875 13.0625 8.265625 
Q 6.59375 17.96875 6.59375 36.375 
Q 6.59375 54.828125 13.0625 64.515625 
Q 19.53125 74.21875 31.78125 74.21875 
z
" id="DejaVuSans-48"/>
        <path d="M 12.40625 8.296875 
L 28.515625 8.296875 
L 28.515625 63.921875 
L 10.984375 60.40625 
L 10.984375 69.390625 
L 28.421875 72.90625 
L 38.28125 72.90625 
L 38.28125 8.296875 
L 54.390625 8.296875 
L 54.390625 0 
L 12.40625 0 
z
" id="DejaVuSans-49"/>
        <path d="M 8.203125 72.90625 
L 55.078125 72.90625 
L 55.078125 68.703125 
L 28.609375 0 
L 18.3125 0 
L 43.21875 64.59375 
L 8.203125 64.59375 
z
" id="DejaVuSans-55"/>
        <path d="M 40.578125 39.3125 
Q 47.65625 37.796875 51.625 33 
Q 55.609375 28.21875 55.609375 21.1875 
Q 55.609375 10.40625 48.1875 4.484375 
Q 40.765625 -1.421875 27.09375 -1.421875 
Q 22.515625 -1.421875 17.65625 -0.515625 
Q 12.796875 0.390625 7.625 2.203125 
L 7.625 11.71875 
Q 11.71875 9.328125 16.59375 8.109375 
Q 21.484375 6.890625 26.8125 6.890625 
Q 36.078125 6.890625 40.9375 10.546875 
Q 45.796875 14.203125 45.796875 21.1875 
Q 45.796875 27.640625 41.28125 31.265625 
Q 36.765625 34.90625 28.71875 34.90625 
L 20.21875 34.90625 
L 20.21875 43.015625 
L 29.109375 43.015625 
Q 36.375 43.015625 40.234375 45.921875 
Q 44.09375 48.828125 44.09375 54.296875 
Q 44.09375 59.90625 40.109375 62.90625 
Q 36.140625 65.921875 28.71875 65.921875 
Q 24.65625 65.921875 20.015625 65.03125 
Q 15.375 64.15625 9.8125 62.3125 
L 9.8125 71.09375 
Q 15.4375 72.65625 20.34375 73.4375 
Q 25.25 74.21875 29.59375 74.21875 
Q 40.828125 74.21875 47.359375 69.109375 
Q 53.90625 64.015625 53.90625 55.328125 
Q 53.90625 49.265625 50.4375 45.09375 
Q 46.96875 40.921875 40.578125 39.3125 
z
" id="DejaVuSans-51"/>
       </defs>
       <use xlink:href="#DejaVuSans-50"/>
       <use x="63.623047" xlink:href="#DejaVuSans-48"/>
       <use x="127.246094" xlink:href="#DejaVuSans-49"/>
       <use x="190.869141" xlink:href="#DejaVuSans-55"/>
       <use x="254.492188" xlink:href="#DejaVuSans-48"/>
       <use x="318.115234" xlink:href="#DejaVuSans-49"/>
       <use x="381.738281" xlink:href="#DejaVuSans-48"/>
       <use x="445.361328" xlink:href="#DejaVuSans-51"/>
      </g>
     </g>
    </g>
    <g id="xtick_2">
     <g id="line2d_3">
      <path clip-path="url(#p5713b546f1)" d="M 133.09412 286.886956 
L 133.09412 26.88 
" style="fill:none;stroke:#b0b0b0;stroke-linecap:square;stroke-width:0.8;"/>
     </g>
     <g id="line2d_4">
      <g>
       <use style="stroke:#000000;stroke-width:0.8;" x="133.09412" xlink:href="#mc3bb9fc550" y="286.886956"/>
      </g>
     </g>
     <g id="text_2">
      <!-- 20170526 -->
      <g transform="translate(110.122705 318.435977)rotate(-20)scale(0.1 -0.1)">
       <defs>
        <path d="M 10.796875 72.90625 
L 49.515625 72.90625 
L 49.515625 64.59375 
L 19.828125 64.59375 
L 19.828125 46.734375 
Q 21.96875 47.46875 24.109375 47.828125 
Q 26.265625 48.1875 28.421875 48.1875 
Q 40.625 48.1875 47.75 41.5 
Q 54.890625 34.8125 54.890625 23.390625 
Q 54.890625 11.625 47.5625 5.09375 
Q 40.234375 -1.421875 26.90625 -1.421875 
Q 22.3125 -1.421875 17.546875 -0.640625 
Q 12.796875 0.140625 7.71875 1.703125 
L 7.71875 11.625 
Q 12.109375 9.234375 16.796875 8.0625 
Q 21.484375 6.890625 26.703125 6.890625 
Q 35.15625 6.890625 40.078125 11.328125 
Q 45.015625 15.765625 45.015625 23.390625 
Q 45.015625 31 40.078125 35.4375 
Q 35.15625 39.890625 26.703125 39.890625 
Q 22.75 39.890625 18.8125 39.015625 
Q 14.890625 38.140625 10.796875 36.28125 
z
" id="DejaVuSans-53"/>
        <path d="M 33.015625 40.375 
Q 26.375 40.375 22.484375 35.828125 
Q 18.609375 31.296875 18.609375 23.390625 
Q 18.609375 15.53125 22.484375 10.953125 
Q 26.375 6.390625 33.015625 6.390625 
Q 39.65625 6.390625 43.53125 10.953125 
Q 47.40625 15.53125 47.40625 23.390625 
Q 47.40625 31.296875 43.53125 35.828125 
Q 39.65625 40.375 33.015625 40.375 
z
M 52.59375 71.296875 
L 52.59375 62.3125 
Q 48.875 64.0625 45.09375 64.984375 
Q 41.3125 65.921875 37.59375 65.921875 
Q 27.828125 65.921875 22.671875 59.328125 
Q 17.53125 52.734375 16.796875 39.40625 
Q 19.671875 43.65625 24.015625 45.921875 
Q 28.375 48.1875 33.59375 48.1875 
Q 44.578125 48.1875 50.953125 41.515625 
Q 57.328125 34.859375 57.328125 23.390625 
Q 57.328125 12.15625 50.6875 5.359375 
Q 44.046875 -1.421875 33.015625 -1.421875 
Q 20.359375 -1.421875 13.671875 8.265625 
Q 6.984375 17.96875 6.984375 36.375 
Q 6.984375 53.65625 15.1875 63.9375 
Q 23.390625 74.21875 37.203125 74.21875 
Q 40.921875 74.21875 44.703125 73.484375 
Q 48.484375 72.75 52.59375 71.296875 
z
" id="DejaVuSans-54"/>
       </defs>
       <use xlink:href="#DejaVuSans-50"/>
       <use x="63.623047" xlink:href="#DejaVuSans-48"/>
       <use x="127.246094" xlink:href="#DejaVuSans-49"/>
       <use x="190.869141" xlink:href="#DejaVuSans-55"/>
       <use x="254.492188" xlink:href="#DejaVuSans-48"/>
       <use x="318.115234" xlink:href="#DejaVuSans-53"/>
       <use x="381.738281" xlink:href="#DejaVuSans-50"/>
       <use x="445.361328" xlink:href="#DejaVuSans-54"/>
      </g>
     </g>
    </g>
    <g id="xtick_3">
     <g id="line2d_5">
      <path clip-path="url(#p5713b546f1)" d="M 179.049149 286.886956 
L 179.049149 26.88 
" style="fill:none;stroke:#b0b0b0;stroke-linecap:square;stroke-width:0.8;"/>
     </g>
     <g id="line2d_6">
      <g>
       <use style="stroke:#000000;stroke-width:0.8;" x="179.049149" xlink:href="#mc3bb9fc550" y="286.886956"/>
      </g>
     </g>
     <g id="text_3">
      <!-- 20171018 -->
      <g transform="translate(156.077734 318.435977)rotate(-20)scale(0.1 -0.1)">
       <defs>
        <path d="M 31.78125 34.625 
Q 24.75 34.625 20.71875 30.859375 
Q 16.703125 27.09375 16.703125 20.515625 
Q 16.703125 13.921875 20.71875 10.15625 
Q 24.75 6.390625 31.78125 6.390625 
Q 38.8125 6.390625 42.859375 10.171875 
Q 46.921875 13.96875 46.921875 20.515625 
Q 46.921875 27.09375 42.890625 30.859375 
Q 38.875 34.625 31.78125 34.625 
z
M 21.921875 38.8125 
Q 15.578125 40.375 12.03125 44.71875 
Q 8.5 49.078125 8.5 55.328125 
Q 8.5 64.0625 14.71875 69.140625 
Q 20.953125 74.21875 31.78125 74.21875 
Q 42.671875 74.21875 48.875 69.140625 
Q 55.078125 64.0625 55.078125 55.328125 
Q 55.078125 49.078125 51.53125 44.71875 
Q 48 40.375 41.703125 38.8125 
Q 48.828125 37.15625 52.796875 32.3125 
Q 56.78125 27.484375 56.78125 20.515625 
Q 56.78125 9.90625 50.3125 4.234375 
Q 43.84375 -1.421875 31.78125 -1.421875 
Q 19.734375 -1.421875 13.25 4.234375 
Q 6.78125 9.90625 6.78125 20.515625 
Q 6.78125 27.484375 10.78125 32.3125 
Q 14.796875 37.15625 21.921875 38.8125 
z
M 18.3125 54.390625 
Q 18.3125 48.734375 21.84375 45.5625 
Q 25.390625 42.390625 31.78125 42.390625 
Q 38.140625 42.390625 41.71875 45.5625 
Q 45.3125 48.734375 45.3125 54.390625 
Q 45.3125 60.0625 41.71875 63.234375 
Q 38.140625 66.40625 31.78125 66.40625 
Q 25.390625 66.40625 21.84375 63.234375 
Q 18.3125 60.0625 18.3125 54.390625 
z
" id="DejaVuSans-56"/>
       </defs>
       <use xlink:href="#DejaVuSans-50"/>
       <use x="63.623047" xlink:href="#DejaVuSans-48"/>
       <use x="127.246094" xlink:href="#DejaVuSans-49"/>
       <use x="190.869141" xlink:href="#DejaVuSans-55"/>
       <use x="254.492188" xlink:href="#DejaVuSans-49"/>
       <use x="318.115234" xlink:href="#DejaVuSans-48"/>
       <use x="381.738281" xlink:href="#DejaVuSans-49"/>
       <use x="445.361328" xlink:href="#DejaVuSans-56"/>
      </g>
     </g>
    </g>
    <g id="xtick_4">
     <g id="line2d_7">
      <path clip-path="url(#p5713b546f1)" d="M 225.004178 286.886956 
L 225.004178 26.88 
" style="fill:none;stroke:#b0b0b0;stroke-linecap:square;stroke-width:0.8;"/>
     </g>
     <g id="line2d_8">
      <g>
       <use style="stroke:#000000;stroke-width:0.8;" x="225.004178" xlink:href="#mc3bb9fc550" y="286.886956"/>
      </g>
     </g>
     <g id="text_4">
      <!-- 20180314 -->
      <g transform="translate(202.032763 318.435977)rotate(-20)scale(0.1 -0.1)">
       <defs>
        <path d="M 37.796875 64.3125 
L 12.890625 25.390625 
L 37.796875 25.390625 
z
M 35.203125 72.90625 
L 47.609375 72.90625 
L 47.609375 25.390625 
L 58.015625 25.390625 
L 58.015625 17.1875 
L 47.609375 17.1875 
L 47.609375 0 
L 37.796875 0 
L 37.796875 17.1875 
L 4.890625 17.1875 
L 4.890625 26.703125 
z
" id="DejaVuSans-52"/>
       </defs>
       <use xlink:href="#DejaVuSans-50"/>
       <use x="63.623047" xlink:href="#DejaVuSans-48"/>
       <use x="127.246094" xlink:href="#DejaVuSans-49"/>
       <use x="190.869141" xlink:href="#DejaVuSans-56"/>
       <use x="254.492188" xlink:href="#DejaVuSans-48"/>
       <use x="318.115234" xlink:href="#DejaVuSans-51"/>
       <use x="381.738281" xlink:href="#DejaVuSans-49"/>
       <use x="445.361328" xlink:href="#DejaVuSans-52"/>
      </g>
     </g>
    </g>
    <g id="xtick_5">
     <g id="line2d_9">
      <path clip-path="url(#p5713b546f1)" d="M 270.959207 286.886956 
L 270.959207 26.88 
" style="fill:none;stroke:#b0b0b0;stroke-linecap:square;stroke-width:0.8;"/>
     </g>
     <g id="line2d_10">
      <g>
       <use style="stroke:#000000;stroke-width:0.8;" x="270.959207" xlink:href="#mc3bb9fc550" y="286.886956"/>
      </g>
     </g>
     <g id="text_5">
      <!-- 20180806 -->
      <g transform="translate(247.987792 318.435977)rotate(-20)scale(0.1 -0.1)">
       <use xlink:href="#DejaVuSans-50"/>
       <use x="63.623047" xlink:href="#DejaVuSans-48"/>
       <use x="127.246094" xlink:href="#DejaVuSans-49"/>
       <use x="190.869141" xlink:href="#DejaVuSans-56"/>
       <use x="254.492188" xlink:href="#DejaVuSans-48"/>
       <use x="318.115234" xlink:href="#DejaVuSans-56"/>
       <use x="381.738281" xlink:href="#DejaVuSans-48"/>
       <use x="445.361328" xlink:href="#DejaVuSans-54"/>
      </g>
     </g>
    </g>
    <g id="xtick_6">
     <g id="line2d_11">
      <path clip-path="url(#p5713b546f1)" d="M 316.914236 286.886956 
L 316.914236 26.88 
" style="fill:none;stroke:#b0b0b0;stroke-linecap:square;stroke-width:0.8;"/>
     </g>
     <g id="line2d_12">
      <g>
       <use style="stroke:#000000;stroke-width:0.8;" x="316.914236" xlink:href="#mc3bb9fc550" y="286.886956"/>
      </g>
     </g>
     <g id="text_6">
      <!-- 20181228 -->
      <g transform="translate(293.942821 318.435977)rotate(-20)scale(0.1 -0.1)">
       <use xlink:href="#DejaVuSans-50"/>
       <use x="63.623047" xlink:href="#DejaVuSans-48"/>
       <use x="127.246094" xlink:href="#DejaVuSans-49"/>
       <use x="190.869141" xlink:href="#DejaVuSans-56"/>
       <use x="254.492188" xlink:href="#DejaVuSans-49"/>
       <use x="318.115234" xlink:href="#DejaVuSans-50"/>
       <use x="381.738281" xlink:href="#DejaVuSans-50"/>
       <use x="445.361328" xlink:href="#DejaVuSans-56"/>
      </g>
     </g>
    </g>
    <g id="xtick_7">
     <g id="line2d_13">
      <path clip-path="url(#p5713b546f1)" d="M 362.869265 286.886956 
L 362.869265 26.88 
" style="fill:none;stroke:#b0b0b0;stroke-linecap:square;stroke-width:0.8;"/>
     </g>
     <g id="line2d_14">
      <g>
       <use style="stroke:#000000;stroke-width:0.8;" x="362.869265" xlink:href="#mc3bb9fc550" y="286.886956"/>
      </g>
     </g>
     <g id="text_7">
      <!-- 20190523 -->
      <g transform="translate(339.89785 318.435977)rotate(-20)scale(0.1 -0.1)">
       <defs>
        <path d="M 10.984375 1.515625 
L 10.984375 10.5 
Q 14.703125 8.734375 18.5 7.8125 
Q 22.3125 6.890625 25.984375 6.890625 
Q 35.75 6.890625 40.890625 13.453125 
Q 46.046875 20.015625 46.78125 33.40625 
Q 43.953125 29.203125 39.59375 26.953125 
Q 35.25 24.703125 29.984375 24.703125 
Q 19.046875 24.703125 12.671875 31.3125 
Q 6.296875 37.9375 6.296875 49.421875 
Q 6.296875 60.640625 12.9375 67.421875 
Q 19.578125 74.21875 30.609375 74.21875 
Q 43.265625 74.21875 49.921875 64.515625 
Q 56.59375 54.828125 56.59375 36.375 
Q 56.59375 19.140625 48.40625 8.859375 
Q 40.234375 -1.421875 26.421875 -1.421875 
Q 22.703125 -1.421875 18.890625 -0.6875 
Q 15.09375 0.046875 10.984375 1.515625 
z
M 30.609375 32.421875 
Q 37.25 32.421875 41.125 36.953125 
Q 45.015625 41.5 45.015625 49.421875 
Q 45.015625 57.28125 41.125 61.84375 
Q 37.25 66.40625 30.609375 66.40625 
Q 23.96875 66.40625 20.09375 61.84375 
Q 16.21875 57.28125 16.21875 49.421875 
Q 16.21875 41.5 20.09375 36.953125 
Q 23.96875 32.421875 30.609375 32.421875 
z
" id="DejaVuSans-57"/>
       </defs>
       <use xlink:href="#DejaVuSans-50"/>
       <use x="63.623047" xlink:href="#DejaVuSans-48"/>
       <use x="127.246094" xlink:href="#DejaVuSans-49"/>
       <use x="190.869141" xlink:href="#DejaVuSans-57"/>
       <use x="254.492188" xlink:href="#DejaVuSans-48"/>
       <use x="318.115234" xlink:href="#DejaVuSans-53"/>
       <use x="381.738281" xlink:href="#DejaVuSans-50"/>
       <use x="445.361328" xlink:href="#DejaVuSans-51"/>
      </g>
     </g>
    </g>
    <g id="xtick_8">
     <g id="line2d_15">
      <path clip-path="url(#p5713b546f1)" d="M 408.824294 286.886956 
L 408.824294 26.88 
" style="fill:none;stroke:#b0b0b0;stroke-linecap:square;stroke-width:0.8;"/>
     </g>
     <g id="line2d_16">
      <g>
       <use style="stroke:#000000;stroke-width:0.8;" x="408.824294" xlink:href="#mc3bb9fc550" y="286.886956"/>
      </g>
     </g>
     <g id="text_8">
      <!-- 20191015 -->
      <g transform="translate(385.852879 318.435977)rotate(-20)scale(0.1 -0.1)">
       <use xlink:href="#DejaVuSans-50"/>
       <use x="63.623047" xlink:href="#DejaVuSans-48"/>
       <use x="127.246094" xlink:href="#DejaVuSans-49"/>
       <use x="190.869141" xlink:href="#DejaVuSans-57"/>
       <use x="254.492188" xlink:href="#DejaVuSans-49"/>
       <use x="318.115234" xlink:href="#DejaVuSans-48"/>
       <use x="381.738281" xlink:href="#DejaVuSans-49"/>
       <use x="445.361328" xlink:href="#DejaVuSans-53"/>
      </g>
     </g>
    </g>
    <g id="text_9">
     <!-- Date -->
     <g transform="translate(247.979219 331.988681)scale(0.1 -0.1)">
      <defs>
       <path d="M 19.671875 64.796875 
L 19.671875 8.109375 
L 31.59375 8.109375 
Q 46.6875 8.109375 53.6875 14.9375 
Q 60.6875 21.78125 60.6875 36.53125 
Q 60.6875 51.171875 53.6875 57.984375 
Q 46.6875 64.796875 31.59375 64.796875 
z
M 9.8125 72.90625 
L 30.078125 72.90625 
Q 51.265625 72.90625 61.171875 64.09375 
Q 71.09375 55.28125 71.09375 36.53125 
Q 71.09375 17.671875 61.125 8.828125 
Q 51.171875 0 30.078125 0 
L 9.8125 0 
z
" id="DejaVuSans-68"/>
       <path d="M 34.28125 27.484375 
Q 23.390625 27.484375 19.1875 25 
Q 14.984375 22.515625 14.984375 16.5 
Q 14.984375 11.71875 18.140625 8.90625 
Q 21.296875 6.109375 26.703125 6.109375 
Q 34.1875 6.109375 38.703125 11.40625 
Q 43.21875 16.703125 43.21875 25.484375 
L 43.21875 27.484375 
z
M 52.203125 31.203125 
L 52.203125 0 
L 43.21875 0 
L 43.21875 8.296875 
Q 40.140625 3.328125 35.546875 0.953125 
Q 30.953125 -1.421875 24.3125 -1.421875 
Q 15.921875 -1.421875 10.953125 3.296875 
Q 6 8.015625 6 15.921875 
Q 6 25.140625 12.171875 29.828125 
Q 18.359375 34.515625 30.609375 34.515625 
L 43.21875 34.515625 
L 43.21875 35.40625 
Q 43.21875 41.609375 39.140625 45 
Q 35.0625 48.390625 27.6875 48.390625 
Q 23 48.390625 18.546875 47.265625 
Q 14.109375 46.140625 10.015625 43.890625 
L 10.015625 52.203125 
Q 14.9375 54.109375 19.578125 55.046875 
Q 24.21875 56 28.609375 56 
Q 40.484375 56 46.34375 49.84375 
Q 52.203125 43.703125 52.203125 31.203125 
z
" id="DejaVuSans-97"/>
       <path d="M 18.3125 70.21875 
L 18.3125 54.6875 
L 36.8125 54.6875 
L 36.8125 47.703125 
L 18.3125 47.703125 
L 18.3125 18.015625 
Q 18.3125 11.328125 20.140625 9.421875 
Q 21.96875 7.515625 27.59375 7.515625 
L 36.8125 7.515625 
L 36.8125 0 
L 27.59375 0 
Q 17.1875 0 13.234375 3.875 
Q 9.28125 7.765625 9.28125 18.015625 
L 9.28125 47.703125 
L 2.6875 47.703125 
L 2.6875 54.6875 
L 9.28125 54.6875 
L 9.28125 70.21875 
z
" id="DejaVuSans-116"/>
       <path d="M 56.203125 29.59375 
L 56.203125 25.203125 
L 14.890625 25.203125 
Q 15.484375 15.921875 20.484375 11.0625 
Q 25.484375 6.203125 34.421875 6.203125 
Q 39.59375 6.203125 44.453125 7.46875 
Q 49.3125 8.734375 54.109375 11.28125 
L 54.109375 2.78125 
Q 49.265625 0.734375 44.1875 -0.34375 
Q 39.109375 -1.421875 33.890625 -1.421875 
Q 20.796875 -1.421875 13.15625 6.1875 
Q 5.515625 13.8125 5.515625 26.8125 
Q 5.515625 40.234375 12.765625 48.109375 
Q 20.015625 56 32.328125 56 
Q 43.359375 56 49.78125 48.890625 
Q 56.203125 41.796875 56.203125 29.59375 
z
M 47.21875 32.234375 
Q 47.125 39.59375 43.09375 43.984375 
Q 39.0625 48.390625 32.421875 48.390625 
Q 24.90625 48.390625 20.390625 44.140625 
Q 15.875 39.890625 15.1875 32.171875 
z
" id="DejaVuSans-101"/>
      </defs>
      <use xlink:href="#DejaVuSans-68"/>
      <use x="77.001953" xlink:href="#DejaVuSans-97"/>
      <use x="138.28125" xlink:href="#DejaVuSans-116"/>
      <use x="177.490234" xlink:href="#DejaVuSans-101"/>
     </g>
    </g>
   </g>
   <g id="matplotlib.axis_2">
    <g id="ytick_1">
     <g id="line2d_17">
      <path clip-path="url(#p5713b546f1)" d="M 69.86 275.993078 
L 450 275.993078 
" style="fill:none;stroke:#b0b0b0;stroke-linecap:square;stroke-width:0.8;"/>
     </g>
     <g id="line2d_18">
      <defs>
       <path d="M 0 0 
L -3.5 0 
" id="m6362f7f16d" style="stroke:#000000;stroke-width:0.8;"/>
      </defs>
      <g>
       <use style="stroke:#000000;stroke-width:0.8;" x="69.86" xlink:href="#m6362f7f16d" y="275.993078"/>
      </g>
     </g>
     <g id="text_10">
      <!-- 60000 -->
      <g transform="translate(31.0475 279.792297)scale(0.1 -0.1)">
       <use xlink:href="#DejaVuSans-54"/>
       <use x="63.623047" xlink:href="#DejaVuSans-48"/>
       <use x="127.246094" xlink:href="#DejaVuSans-48"/>
       <use x="190.869141" xlink:href="#DejaVuSans-48"/>
       <use x="254.492188" xlink:href="#DejaVuSans-48"/>
      </g>
     </g>
    </g>
    <g id="ytick_2">
     <g id="line2d_19">
      <path clip-path="url(#p5713b546f1)" d="M 69.86 228.133923 
L 450 228.133923 
" style="fill:none;stroke:#b0b0b0;stroke-linecap:square;stroke-width:0.8;"/>
     </g>
     <g id="line2d_20">
      <g>
       <use style="stroke:#000000;stroke-width:0.8;" x="69.86" xlink:href="#m6362f7f16d" y="228.133923"/>
      </g>
     </g>
     <g id="text_11">
      <!-- 80000 -->
      <g transform="translate(31.0475 231.933142)scale(0.1 -0.1)">
       <use xlink:href="#DejaVuSans-56"/>
       <use x="63.623047" xlink:href="#DejaVuSans-48"/>
       <use x="127.246094" xlink:href="#DejaVuSans-48"/>
       <use x="190.869141" xlink:href="#DejaVuSans-48"/>
       <use x="254.492188" xlink:href="#DejaVuSans-48"/>
      </g>
     </g>
    </g>
    <g id="ytick_3">
     <g id="line2d_21">
      <path clip-path="url(#p5713b546f1)" d="M 69.86 180.274768 
L 450 180.274768 
" style="fill:none;stroke:#b0b0b0;stroke-linecap:square;stroke-width:0.8;"/>
     </g>
     <g id="line2d_22">
      <g>
       <use style="stroke:#000000;stroke-width:0.8;" x="69.86" xlink:href="#m6362f7f16d" y="180.274768"/>
      </g>
     </g>
     <g id="text_12">
      <!-- 100000 -->
      <g transform="translate(24.685 184.073986)scale(0.1 -0.1)">
       <use xlink:href="#DejaVuSans-49"/>
       <use x="63.623047" xlink:href="#DejaVuSans-48"/>
       <use x="127.246094" xlink:href="#DejaVuSans-48"/>
       <use x="190.869141" xlink:href="#DejaVuSans-48"/>
       <use x="254.492188" xlink:href="#DejaVuSans-48"/>
       <use x="318.115234" xlink:href="#DejaVuSans-48"/>
      </g>
     </g>
    </g>
    <g id="ytick_4">
     <g id="line2d_23">
      <path clip-path="url(#p5713b546f1)" d="M 69.86 132.415613 
L 450 132.415613 
" style="fill:none;stroke:#b0b0b0;stroke-linecap:square;stroke-width:0.8;"/>
     </g>
     <g id="line2d_24">
      <g>
       <use style="stroke:#000000;stroke-width:0.8;" x="69.86" xlink:href="#m6362f7f16d" y="132.415613"/>
      </g>
     </g>
     <g id="text_13">
      <!-- 120000 -->
      <g transform="translate(24.685 136.214831)scale(0.1 -0.1)">
       <use xlink:href="#DejaVuSans-49"/>
       <use x="63.623047" xlink:href="#DejaVuSans-50"/>
       <use x="127.246094" xlink:href="#DejaVuSans-48"/>
       <use x="190.869141" xlink:href="#DejaVuSans-48"/>
       <use x="254.492188" xlink:href="#DejaVuSans-48"/>
       <use x="318.115234" xlink:href="#DejaVuSans-48"/>
      </g>
     </g>
    </g>
    <g id="ytick_5">
     <g id="line2d_25">
      <path clip-path="url(#p5713b546f1)" d="M 69.86 84.556457 
L 450 84.556457 
" style="fill:none;stroke:#b0b0b0;stroke-linecap:square;stroke-width:0.8;"/>
     </g>
     <g id="line2d_26">
      <g>
       <use style="stroke:#000000;stroke-width:0.8;" x="69.86" xlink:href="#m6362f7f16d" y="84.556457"/>
      </g>
     </g>
     <g id="text_14">
      <!-- 140000 -->
      <g transform="translate(24.685 88.355676)scale(0.1 -0.1)">
       <use xlink:href="#DejaVuSans-49"/>
       <use x="63.623047" xlink:href="#DejaVuSans-52"/>
       <use x="127.246094" xlink:href="#DejaVuSans-48"/>
       <use x="190.869141" xlink:href="#DejaVuSans-48"/>
       <use x="254.492188" xlink:href="#DejaVuSans-48"/>
       <use x="318.115234" xlink:href="#DejaVuSans-48"/>
      </g>
     </g>
    </g>
    <g id="ytick_6">
     <g id="line2d_27">
      <path clip-path="url(#p5713b546f1)" d="M 69.86 36.697302 
L 450 36.697302 
" style="fill:none;stroke:#b0b0b0;stroke-linecap:square;stroke-width:0.8;"/>
     </g>
     <g id="line2d_28">
      <g>
       <use style="stroke:#000000;stroke-width:0.8;" x="69.86" xlink:href="#m6362f7f16d" y="36.697302"/>
      </g>
     </g>
     <g id="text_15">
      <!-- 160000 -->
      <g transform="translate(24.685 40.496521)scale(0.1 -0.1)">
       <use xlink:href="#DejaVuSans-49"/>
       <use x="63.623047" xlink:href="#DejaVuSans-54"/>
       <use x="127.246094" xlink:href="#DejaVuSans-48"/>
       <use x="190.869141" xlink:href="#DejaVuSans-48"/>
       <use x="254.492188" xlink:href="#DejaVuSans-48"/>
       <use x="318.115234" xlink:href="#DejaVuSans-48"/>
      </g>
     </g>
    </g>
    <g id="text_16">
     <!-- Price -->
     <g transform="translate(18.605313 169.081134)rotate(-90)scale(0.1 -0.1)">
      <defs>
       <path d="M 19.671875 64.796875 
L 19.671875 37.40625 
L 32.078125 37.40625 
Q 38.96875 37.40625 42.71875 40.96875 
Q 46.484375 44.53125 46.484375 51.125 
Q 46.484375 57.671875 42.71875 61.234375 
Q 38.96875 64.796875 32.078125 64.796875 
z
M 9.8125 72.90625 
L 32.078125 72.90625 
Q 44.34375 72.90625 50.609375 67.359375 
Q 56.890625 61.8125 56.890625 51.125 
Q 56.890625 40.328125 50.609375 34.8125 
Q 44.34375 29.296875 32.078125 29.296875 
L 19.671875 29.296875 
L 19.671875 0 
L 9.8125 0 
z
" id="DejaVuSans-80"/>
       <path d="M 41.109375 46.296875 
Q 39.59375 47.171875 37.8125 47.578125 
Q 36.03125 48 33.890625 48 
Q 26.265625 48 22.1875 43.046875 
Q 18.109375 38.09375 18.109375 28.8125 
L 18.109375 0 
L 9.078125 0 
L 9.078125 54.6875 
L 18.109375 54.6875 
L 18.109375 46.1875 
Q 20.953125 51.171875 25.484375 53.578125 
Q 30.03125 56 36.53125 56 
Q 37.453125 56 38.578125 55.875 
Q 39.703125 55.765625 41.0625 55.515625 
z
" id="DejaVuSans-114"/>
       <path d="M 9.421875 54.6875 
L 18.40625 54.6875 
L 18.40625 0 
L 9.421875 0 
z
M 9.421875 75.984375 
L 18.40625 75.984375 
L 18.40625 64.59375 
L 9.421875 64.59375 
z
" id="DejaVuSans-105"/>
       <path d="M 48.78125 52.59375 
L 48.78125 44.1875 
Q 44.96875 46.296875 41.140625 47.34375 
Q 37.3125 48.390625 33.40625 48.390625 
Q 24.65625 48.390625 19.8125 42.84375 
Q 14.984375 37.3125 14.984375 27.296875 
Q 14.984375 17.28125 19.8125 11.734375 
Q 24.65625 6.203125 33.40625 6.203125 
Q 37.3125 6.203125 41.140625 7.25 
Q 44.96875 8.296875 48.78125 10.40625 
L 48.78125 2.09375 
Q 45.015625 0.34375 40.984375 -0.53125 
Q 36.96875 -1.421875 32.421875 -1.421875 
Q 20.0625 -1.421875 12.78125 6.34375 
Q 5.515625 14.109375 5.515625 27.296875 
Q 5.515625 40.671875 12.859375 48.328125 
Q 20.21875 56 33.015625 56 
Q 37.15625 56 41.109375 55.140625 
Q 45.0625 54.296875 48.78125 52.59375 
z
" id="DejaVuSans-99"/>
      </defs>
      <use xlink:href="#DejaVuSans-80"/>
      <use x="58.552734" xlink:href="#DejaVuSans-114"/>
      <use x="99.666016" xlink:href="#DejaVuSans-105"/>
      <use x="127.449219" xlink:href="#DejaVuSans-99"/>
      <use x="182.429688" xlink:href="#DejaVuSans-101"/>
     </g>
    </g>
   </g>
   <g id="line2d_29">
    <path clip-path="url(#p5713b546f1)" d="M 87.139091 180.274768 
L 88.058191 180.287608 
L 88.517742 179.017154 
L 88.977292 178.612115 
L 89.436842 178.950881 
L 89.896393 177.836129 
L 90.355943 177.931667 
L 90.815493 177.523412 
L 91.275044 178.531033 
L 91.734594 178.079339 
L 92.194144 179.425744 
L 92.653694 178.325466 
L 93.113245 173.617414 
L 93.572795 172.140709 
L 94.032345 169.78114 
L 94.491896 170.075169 
L 94.951446 173.535253 
L 95.410996 179.673671 
L 95.870546 180.72763 
L 96.330097 182.160895 
L 96.789647 181.286455 
L 97.708748 180.313579 
L 98.168298 178.110123 
L 98.627848 177.92191 
L 99.087398 177.869794 
L 100.006499 175.29281 
L 100.466049 174.982992 
L 100.9256 175.767673 
L 101.8447 173.095152 
L 102.763801 171.702427 
L 103.223351 171.80666 
L 103.682901 172.730319 
L 104.142452 172.191764 
L 104.602002 173.564218 
L 105.061552 170.14176 
L 105.521103 172.139647 
L 105.980653 172.362587 
L 106.440203 172.886668 
L 106.899753 171.763221 
L 107.359304 171.042249 
L 108.278404 168.792474 
L 108.737955 167.874595 
L 109.197505 167.489509 
L 109.657055 166.771418 
L 110.116605 166.30525 
L 110.576156 165.619023 
L 111.035706 166.910413 
L 111.495256 172.276699 
L 111.954807 172.354299 
L 112.414357 175.293199 
L 112.873907 176.599063 
L 113.333457 175.841297 
L 113.793008 175.447823 
L 114.252558 172.772403 
L 114.712108 172.885331 
L 115.171659 173.37177 
L 115.631209 170.780313 
L 117.00986 174.153553 
L 117.46941 175.022196 
L 117.92896 175.138005 
L 118.388511 175.664984 
L 118.848061 175.207493 
L 119.307611 175.578123 
L 119.767162 171.249379 
L 120.226712 171.579468 
L 120.686262 170.849801 
L 121.145812 169.816113 
L 121.605363 170.143304 
L 122.064913 164.358143 
L 122.524463 161.488713 
L 122.984014 161.401852 
L 123.443564 160.735896 
L 123.903114 151.157647 
L 124.362664 148.996931 
L 124.822215 148.423131 
L 125.741315 146.174974 
L 126.200866 147.439301 
L 126.660416 145.04446 
L 127.579516 146.140787 
L 128.039067 145.84179 
L 128.498617 146.055362 
L 128.958167 144.893545 
L 129.417718 143.358674 
L 129.877268 149.748733 
L 130.336818 147.376661 
L 130.796368 146.443096 
L 132.175019 140.843367 
L 132.63457 136.785509 
L 133.09412 136.383985 
L 133.55367 135.558185 
L 134.013221 138.143812 
L 134.472771 137.802111 
L 135.391871 133.362664 
L 135.851422 135.412954 
L 136.310972 134.040399 
L 136.770522 133.248753 
L 137.230073 142.976231 
L 137.689623 145.592668 
L 138.149173 144.229152 
L 138.608723 144.465489 
L 139.068274 145.944364 
L 139.527824 146.388592 
L 139.987374 141.66155 
L 140.446925 143.435611 
L 140.906475 140.701886 
L 141.366025 141.262876 
L 141.825575 138.566171 
L 142.285126 142.552839 
L 142.744676 149.387126 
L 143.204226 145.708006 
L 143.663777 152.311637 
L 144.123327 154.629604 
L 144.582877 157.539863 
L 145.042427 153.894913 
L 145.501978 155.196277 
L 146.421078 148.558476 
L 146.880629 147.83802 
L 147.340179 143.81435 
L 147.799729 143.475482 
L 148.259279 141.180301 
L 148.71883 141.450811 
L 149.17838 138.32128 
L 149.63793 136.663963 
L 150.097481 136.82913 
L 150.557031 136.359266 
L 151.016581 135.086388 
L 151.476132 143.42421 
L 151.935682 144.483533 
L 152.395232 148.128483 
L 152.854782 146.471166 
L 153.314333 150.124667 
L 154.233433 149.515272 
L 154.692984 151.605433 
L 155.152534 150.042092 
L 155.612084 150.053477 
L 156.071634 150.497705 
L 156.531185 151.668072 
L 156.990735 156.363794 
L 157.450285 154.512842 
L 157.909836 151.995555 
L 158.369386 152.237596 
L 158.828936 150.474919 
L 159.288486 155.204828 
L 159.748037 155.626271 
L 160.207587 157.138356 
L 160.667137 151.576946 
L 161.126688 150.956167 
L 162.045788 154.396097 
L 162.505338 155.070981 
L 163.424439 150.657171 
L 163.883989 147.351088 
L 164.34354 148.276565 
L 164.80309 151.269416 
L 165.26264 151.115633 
L 165.722191 148.874558 
L 166.181741 151.289351 
L 166.641291 150.753997 
L 167.560392 148.717942 
L 168.019942 151.653838 
L 168.939043 154.609668 
L 169.398593 152.585015 
L 169.858143 149.543759 
L 170.317693 149.540909 
L 170.777244 150.762531 
L 171.236794 153.319688 
L 171.696344 152.422698 
L 172.155895 146.273657 
L 172.615445 145.371059 
L 173.074995 142.855159 
L 173.534545 144.619965 
L 173.994096 143.318231 
L 174.453646 144.814784 
L 174.913196 139.616378 
L 175.372747 137.230356 
L 175.832297 137.605912 
L 176.291847 138.879399 
L 176.751397 133.839101 
L 177.210948 133.839101 
L 177.670498 133.21225 
L 179.049149 131.837115 
L 179.508699 134.914927 
L 179.96825 134.00288 
L 180.4278 139.517555 
L 181.3469 137.845918 
L 181.806451 137.857224 
L 182.266001 125.927116 
L 182.725551 126.079606 
L 183.185102 126.10501 
L 183.644652 123.40558 
L 184.104202 123.301105 
L 184.563752 121.318869 
L 185.023303 123.382968 
L 185.482853 120.641176 
L 185.942403 118.975192 
L 186.401954 121.959852 
L 187.321054 123.800903 
L 187.780604 123.676643 
L 188.240155 125.153428 
L 188.699705 121.748075 
L 189.159255 125.300265 
L 189.618806 125.647573 
L 190.078356 121.231318 
L 190.537906 120.773881 
L 190.997456 119.474991 
L 191.457007 115.101098 
L 191.916557 117.839797 
L 192.376107 122.883635 
L 192.835658 123.00349 
L 193.295208 125.090784 
L 193.754758 128.881216 
L 194.214309 126.661514 
L 195.133409 119.491263 
L 195.592959 118.110031 
L 196.05251 117.36631 
L 196.51206 118.285192 
L 196.97161 117.532847 
L 197.431161 115.786958 
L 198.350261 107.85574 
L 198.809811 109.661252 
L 199.269362 110.852897 
L 200.648013 113.066885 
L 201.567113 115.909726 
L 202.026663 116.64195 
L 202.945764 105.695606 
L 203.405314 104.478071 
L 203.864865 100.305702 
L 204.324415 99.180077 
L 204.783965 99.587815 
L 205.243515 100.348782 
L 205.703066 99.800306 
L 206.162616 94.459232 
L 206.622166 94.444895 
L 207.081717 92.328947 
L 207.541267 92.937372 
L 208.000817 90.775087 
L 208.460368 84.842456 
L 208.919918 81.393723 
L 209.379468 82.79504 
L 209.839018 79.986767 
L 210.298569 78.979192 
L 210.758119 79.286757 
L 211.217669 81.880935 
L 211.67722 80.499846 
L 212.13677 80.679248 
L 213.05587 114.622861 
L 213.515421 108.346696 
L 213.974971 116.610494 
L 214.434521 130.193644 
L 214.894072 119.213223 
L 215.353622 116.852535 
L 215.813172 116.972147 
L 216.732273 106.373315 
L 217.191823 105.194396 
L 217.651373 102.890682 
L 218.110924 99.99749 
L 218.570474 101.093817 
L 219.489574 91.468883 
L 219.949125 98.926782 
L 220.408675 102.796688 
L 220.868225 112.054302 
L 221.787326 105.405117 
L 222.246876 103.656675 
L 223.165977 95.546659 
L 223.625527 86.588059 
L 224.085077 85.138595 
L 224.544628 92.548107 
L 225.004178 89.99095 
L 225.463728 89.501168 
L 225.923279 94.111448 
L 226.382829 103.893049 
L 226.842379 105.393856 
L 227.301929 105.745937 
L 227.76148 117.378456 
L 228.22103 124.953118 
L 228.68058 117.110797 
L 229.140131 130.537313 
L 229.599681 131.038497 
L 230.059231 121.937498 
L 230.518781 128.917017 
L 230.978332 127.19421 
L 231.437882 124.053295 
L 231.897432 123.218927 
L 232.356983 129.680177 
L 232.816533 126.792686 
L 233.276083 122.11975 
L 233.735633 125.37741 
L 234.195184 121.894777 
L 234.654734 122.250729 
L 235.114284 119.386042 
L 235.573835 109.914856 
L 236.033385 111.045353 
L 236.492935 107.041617 
L 236.952485 110.495782 
L 237.412036 111.495264 
L 237.871586 126.066547 
L 238.331136 125.966887 
L 238.790687 120.180504 
L 239.709787 127.22268 
L 240.169338 120.909512 
L 240.628888 125.095499 
L 241.088438 125.024308 
L 241.547988 117.990701 
L 242.007539 115.581626 
L 242.467089 115.829368 
L 242.926639 107.183998 
L 243.38619 102.479725 
L 243.84574 103.074868 
L 244.30529 102.157943 
L 244.76484 108.345815 
L 245.224391 108.567937 
L 245.683941 109.373801 
L 246.143491 112.682734 
L 246.603042 108.590706 
L 247.062592 111.068121 
L 247.522142 108.035434 
L 247.981692 108.180665 
L 248.441243 108.570788 
L 248.900793 113.12983 
L 249.360343 110.45306 
L 250.279444 98.085679 
L 250.738994 96.758961 
L 251.198544 96.776313 
L 251.658095 97.203487 
L 252.117645 99.794694 
L 252.577195 100.273476 
L 253.496296 95.939452 
L 253.955846 97.048147 
L 254.415397 92.602125 
L 254.874947 93.1387 
L 255.334497 88.734572 
L 255.794047 90.091957 
L 256.253598 88.598559 
L 256.713148 92.96365 
L 257.172698 93.007761 
L 257.632249 101.338032 
L 258.091799 103.186745 
L 258.551349 107.539263 
L 259.010899 104.807821 
L 259.47045 104.13887 
L 259.93 100.552484 
L 260.38955 107.722444 
L 260.849101 100.780088 
L 261.768201 93.565706 
L 262.227751 93.604571 
L 262.687302 92.405427 
L 263.146852 84.133437 
L 263.606402 83.569408 
L 264.065953 85.300123 
L 264.525503 83.970271 
L 264.985053 84.018153 
L 265.444603 87.818545 
L 265.904154 88.154269 
L 266.363704 84.858629 
L 266.823254 76.836469 
L 267.282805 75.69865 
L 268.201905 75.718437 
L 268.661456 78.143741 
L 269.121006 78.749926 
L 269.580556 77.148266 
L 270.040106 74.888736 
L 270.499657 75.713149 
L 270.959207 75.849162 
L 271.418757 70.805499 
L 271.878308 69.281571 
L 272.337858 68.741487 
L 272.797408 70.9046 
L 273.256958 71.978845 
L 273.716509 69.341805 
L 274.176059 76.536772 
L 275.09516 81.080806 
L 275.55471 79.387555 
L 276.01426 80.64776 
L 276.47381 79.443059 
L 276.933361 79.606823 
L 277.392911 75.279312 
L 277.852461 69.860884 
L 278.312012 72.750534 
L 278.771562 67.534737 
L 279.231112 70.368883 
L 279.690662 76.973597 
L 280.609763 84.369872 
L 281.069313 87.099113 
L 281.528864 88.875651 
L 281.988414 89.577911 
L 282.447964 85.433614 
L 282.907515 90.538371 
L 283.367065 87.612635 
L 283.826615 88.76739 
L 284.286165 93.80553 
L 285.205266 89.797212 
L 285.664816 84.995045 
L 286.124367 90.394023 
L 286.583917 88.635466 
L 287.043467 86.374048 
L 287.503017 86.379072 
L 287.962568 83.913099 
L 288.422118 83.990831 
L 288.881668 83.588315 
L 289.341219 83.835368 
L 289.800769 82.755566 
L 290.260319 92.321102 
L 290.719869 94.885967 
L 291.63897 101.175976 
L 292.09852 115.890659 
L 292.558071 116.284839 
L 293.017621 108.012849 
L 293.477171 113.03713 
L 293.936721 104.53198 
L 294.396272 106.055909 
L 294.855822 114.294556 
L 295.774923 110.558298 
L 296.234473 109.575643 
L 296.694023 125.617182 
L 297.153574 112.717903 
L 297.613124 118.225142 
L 298.072674 131.832271 
L 298.532224 127.729585 
L 298.991775 116.329262 
L 299.451325 117.606137 
L 300.370426 126.003026 
L 300.829976 122.161286 
L 301.289526 111.427135 
L 301.749076 115.205037 
L 302.208627 120.093271 
L 302.668177 127.771229 
L 303.127727 128.157074 
L 303.587278 126.322253 
L 304.046828 121.750434 
L 304.506378 122.522123 
L 304.965928 133.861386 
L 305.425479 133.020335 
L 305.885029 129.417278 
L 306.344579 133.117482 
L 306.80413 125.944745 
L 307.26368 126.960674 
L 307.72323 115.993363 
L 308.18278 115.218929 
L 308.642331 111.035733 
L 309.101881 109.173161 
L 309.561431 124.408355 
L 310.020982 121.622282 
L 310.480532 130.290771 
L 310.940082 128.474489 
L 311.399632 126.143637 
L 311.859183 122.819352 
L 312.318733 122.871622 
L 313.237834 136.050482 
L 313.697384 131.163102 
L 314.156934 133.350884 
L 314.616485 136.620128 
L 315.076035 145.51703 
L 315.535585 147.327785 
L 315.995135 129.941274 
L 316.454686 128.551551 
L 316.914236 130.263225 
L 317.373786 130.736578 
L 317.833337 128.061704 
L 318.292887 136.100031 
L 318.752437 121.625036 
L 319.211987 122.216668 
L 319.671538 119.616135 
L 320.590638 121.415889 
L 321.509739 128.934069 
L 321.969289 119.302414 
L 322.428839 118.476844 
L 323.34794 113.5812 
L 323.80749 121.470914 
L 324.267041 119.880307 
L 324.726591 119.993144 
L 325.186141 115.174562 
L 325.645691 121.132435 
L 326.105242 123.829278 
L 327.024342 108.465425 
L 327.483893 110.756898 
L 327.943443 107.016254 
L 328.402993 106.207998 
L 329.322094 115.987954 
L 329.781644 116.950936 
L 330.241194 117.021866 
L 330.700745 110.07646 
L 331.160295 109.79001 
L 331.619845 109.63453 
L 332.079396 112.245184 
L 332.538946 110.368338 
L 332.998496 111.98331 
L 333.458046 116.451729 
L 333.917597 113.082657 
L 334.377147 112.872631 
L 334.836697 111.595926 
L 335.296248 111.355863 
L 335.755798 110.357416 
L 336.215348 104.36407 
L 336.674898 103.027357 
L 337.134449 99.029357 
L 337.593999 99.788916 
L 338.053549 103.632619 
L 338.5131 103.872682 
L 338.97265 95.882441 
L 339.4322 90.974823 
L 339.89175 90.792793 
L 340.351301 92.243549 
L 340.810851 92.431826 
L 341.270401 93.046544 
L 341.729952 92.225404 
L 342.189502 92.243893 
L 342.649052 91.590394 
L 343.568153 91.684255 
L 344.027703 92.459998 
L 344.487253 94.851028 
L 344.946804 96.430616 
L 345.406354 95.159239 
L 345.865904 89.080298 
L 347.244555 83.447164 
L 347.704105 85.648685 
L 348.163656 86.521017 
L 348.623206 88.059354 
L 349.542307 86.160535 
L 350.001857 82.544532 
L 350.920957 81.156829 
L 351.380508 80.742784 
L 352.759159 80.761483 
L 353.218709 82.123174 
L 355.51646 82.141284 
L 355.976011 82.861268 
L 356.435561 77.967593 
L 356.895111 76.844842 
L 357.354662 81.037297 
L 357.814212 83.357496 
L 358.273762 84.164419 
L 358.733312 84.259167 
L 359.192863 93.175342 
L 359.652413 96.543664 
L 360.111963 83.351748 
L 360.571514 79.417739 
L 361.031064 83.931806 
L 361.490614 90.857982 
L 361.950164 88.049633 
L 362.409715 87.644735 
L 362.869265 90.662736 
L 363.328815 92.595283 
L 363.788366 92.322465 
L 364.247916 97.956478 
L 364.707466 97.534334 
L 365.167016 101.815824 
L 365.626567 121.273445 
L 366.086117 117.031603 
L 366.545667 119.148334 
L 367.005218 118.896481 
L 367.924318 110.8185 
L 368.843419 111.860738 
L 369.302969 108.469214 
L 369.762519 109.810431 
L 370.22207 107.649098 
L 370.68162 104.417056 
L 371.14117 104.624927 
L 372.060271 100.184399 
L 372.519821 102.632551 
L 372.979371 111.1379 
L 373.898472 113.533437 
L 374.358022 111.791208 
L 374.817573 106.934474 
L 375.736673 100.442814 
L 376.196223 97.709466 
L 376.655774 102.193488 
L 377.115324 100.36803 
L 377.574874 97.322457 
L 378.034425 96.42737 
L 378.493975 96.071582 
L 378.953525 94.611722 
L 379.413075 93.778747 
L 379.872626 95.676258 
L 380.332176 95.535074 
L 380.791726 99.965427 
L 381.710827 95.306338 
L 382.170377 97.655668 
L 382.629927 98.725857 
L 383.089478 68.20021 
L 383.549028 69.153536 
L 384.008578 70.503421 
L 384.468129 70.522661 
L 384.927679 71.217319 
L 385.387229 74.450083 
L 385.846779 86.387098 
L 386.30633 81.69787 
L 386.76588 80.31089 
L 387.22543 71.615865 
L 388.144531 80.715788 
L 388.604081 74.332339 
L 389.063632 83.659126 
L 389.523182 82.203266 
L 389.982732 79.363299 
L 390.442282 73.267006 
L 390.901833 78.12277 
L 391.361383 75.811194 
L 391.820933 75.828405 
L 392.280484 86.723082 
L 392.740034 81.973628 
L 393.199584 82.346111 
L 393.659134 82.09779 
L 394.118685 78.142514 
L 394.578235 79.198969 
L 395.037785 85.17327 
L 395.497336 81.551106 
L 395.956886 73.346213 
L 396.416436 74.459605 
L 396.875986 75.071948 
L 397.335537 75.009445 
L 397.795087 71.254529 
L 398.254637 68.478104 
L 398.714188 67.049301 
L 399.173738 69.741425 
L 399.633288 70.081976 
L 400.092838 69.299808 
L 400.552389 67.577364 
L 401.011939 70.093281 
L 401.471489 69.044812 
L 401.93104 72.376025 
L 402.39059 70.015858 
L 402.85014 71.01137 
L 403.309691 72.437493 
L 403.769241 73.352804 
L 404.688341 83.133136 
L 405.147892 79.855523 
L 405.607442 73.724624 
L 406.066992 74.496318 
L 406.526543 79.656204 
L 406.986093 76.162169 
L 407.905193 72.372005 
L 408.364744 71.785378 
L 408.824294 65.140237 
L 409.283844 65.016674 
L 409.743395 62.551714 
L 410.202945 64.13603 
L 410.662495 64.496557 
L 411.122045 65.394161 
L 411.581596 63.958413 
L 412.041146 64.005994 
L 412.500696 63.552656 
L 412.960247 59.222199 
L 413.419797 62.101182 
L 414.338897 62.120611 
L 414.798448 60.756285 
L 415.257998 57.198048 
L 415.717548 56.685704 
L 416.177099 56.806075 
L 416.636649 52.346075 
L 417.096199 51.769308 
L 417.55575 55.108189 
L 418.47485 55.610237 
L 418.9344 52.319328 
L 419.393951 47.90279 
L 419.853501 52.04885 
L 420.313051 53.691288 
L 420.772602 54.584379 
L 421.232152 54.919964 
L 421.691702 56.731401 
L 422.151252 53.380095 
L 422.610803 51.319476 
L 423.070353 51.563054 
L 423.529903 53.814072 
L 423.989454 58.078102 
L 424.449004 56.431841 
L 424.908554 49.999352 
L 425.368104 48.559845 
L 425.827655 45.457707 
L 426.287205 44.831377 
L 426.746755 45.208273 
L 427.206306 44.983977 
L 427.665856 43.807027 
L 428.125406 44.60689 
L 428.584956 42.478577 
L 429.044507 43.243398 
L 429.504057 43.263294 
L 430.423158 43.191412 
L 430.882708 43.600451 
L 431.801809 43.621969 
L 432.261359 44.466809 
L 432.720909 47.887647 
L 432.720909 47.887647 
" style="fill:none;stroke:#ff0000;stroke-linecap:square;stroke-width:1.5;"/>
   </g>
   <g id="line2d_30">
    <path clip-path="url(#p5713b546f1)" d="M 87.139091 180.274768 
L 89.436842 180.288999 
L 89.896393 179.861081 
L 90.355943 179.944026 
L 90.815493 179.539146 
L 91.275044 180.538439 
L 91.734594 180.090478 
L 92.194144 181.425756 
L 92.653694 180.33457 
L 93.113245 175.665428 
L 93.572795 174.200928 
L 94.032345 171.639511 
L 94.491896 172.061638 
L 94.951446 175.493125 
L 95.410996 181.580813 
L 95.870546 182.626061 
L 96.330097 184.047482 
L 96.789647 183.180268 
L 97.708748 182.215432 
L 98.168298 180.030187 
L 98.627848 179.843529 
L 99.087398 179.791843 
L 100.006499 177.236157 
L 100.466049 176.9289 
L 100.9256 177.707096 
L 101.8447 175.056661 
L 102.763801 173.675447 
L 103.223351 173.778818 
L 103.682901 174.694843 
L 104.142452 174.160739 
L 104.602002 175.521851 
L 105.061552 172.127678 
L 105.521103 174.109054 
L 105.980653 174.330151 
L 106.440203 174.849901 
L 106.899753 173.735738 
L 107.359304 173.020725 
L 108.278404 170.789543 
L 108.737955 169.87925 
L 109.197505 169.497346 
L 109.657055 168.78519 
L 110.116605 168.322875 
L 110.576156 167.642319 
L 111.035706 168.923036 
L 111.495256 174.025767 
L 111.954807 174.123408 
L 112.414357 177.03802 
L 112.873907 178.333091 
L 113.333457 177.365381 
L 113.793008 176.756614 
L 114.252558 174.103305 
L 114.712108 174.215299 
L 115.171659 174.697718 
L 115.631209 172.127678 
L 117.00986 175.473039 
L 117.46941 176.334504 
L 117.92896 176.449356 
L 118.388511 176.97198 
L 118.848061 176.51827 
L 119.307611 176.885837 
L 119.767162 172.592867 
L 120.226712 172.920228 
L 120.686262 172.196592 
L 121.145812 171.171447 
L 121.605363 171.495933 
L 122.064913 165.758583 
L 122.524463 162.912868 
L 122.984014 162.826725 
L 123.443564 162.166272 
L 123.903114 152.667182 
L 124.362664 150.2838 
L 124.822215 149.057643 
L 125.281765 145.795567 
L 125.741315 143.995117 
L 126.200866 145.270068 
L 126.660416 142.855103 
L 127.579516 143.960643 
L 128.039067 143.659133 
L 128.498617 143.8745 
L 128.958167 142.70292 
L 129.417718 141.155151 
L 129.877268 147.598908 
L 130.336818 145.206903 
L 130.796368 144.015203 
L 131.255919 141.310208 
L 132.175019 137.422137 
L 132.63457 133.330179 
L 133.09412 132.925281 
L 133.55367 132.092542 
L 134.013221 134.699896 
L 134.472771 134.355324 
L 135.391871 129.878571 
L 135.851422 131.94609 
L 136.310972 130.562001 
L 136.770522 129.763702 
L 137.230073 139.572924 
L 137.689623 141.959181 
L 138.149173 139.463804 
L 138.608723 140.201794 
L 139.068274 142.427245 
L 139.527824 142.875206 
L 139.987374 138.108441 
L 140.446925 139.897411 
L 140.906475 137.140713 
L 141.366025 137.706417 
L 141.825575 134.987051 
L 142.285126 139.00722 
L 142.744676 145.898938 
L 143.204226 142.188902 
L 143.663777 148.848025 
L 144.123327 151.185471 
L 144.582877 154.120185 
L 145.042427 150.444606 
L 145.501978 151.756906 
L 146.421078 145.063325 
L 146.880629 144.336815 
L 147.340179 140.279332 
L 147.799729 139.937617 
L 148.259279 137.623149 
L 148.71883 137.895932 
L 149.17838 134.740102 
L 149.63793 133.068858 
L 150.097481 133.235413 
L 150.557031 132.7616 
L 151.016581 131.478026 
L 151.476132 139.885913 
L 151.935682 140.954139 
L 152.395232 144.629719 
L 152.854782 142.958475 
L 153.314333 146.642677 
L 154.233433 146.028162 
L 154.692984 148.135887 
L 155.152534 146.559409 
L 155.612084 146.570889 
L 156.071634 147.01885 
L 156.531185 148.199052 
L 156.990735 152.934234 
L 157.450285 151.067727 
L 157.909836 148.529287 
L 158.369386 148.773362 
L 158.828936 146.995872 
L 159.288486 151.765529 
L 159.748037 152.190513 
L 160.207587 153.715305 
L 160.667137 148.107161 
L 161.126688 147.481165 
L 162.045788 150.950001 
L 162.505338 151.630557 
L 163.424439 147.179656 
L 163.883989 143.845791 
L 164.34354 144.779045 
L 164.80309 147.797046 
L 165.26264 147.641971 
L 165.722191 145.382063 
L 166.181741 147.817149 
L 166.641291 147.277296 
L 167.560392 145.224131 
L 168.019942 148.184698 
L 168.939043 151.165368 
L 169.398593 149.1237 
L 169.858143 146.056888 
L 170.317693 146.054013 
L 170.777244 147.285902 
L 171.236794 149.864547 
L 171.696344 148.96002 
L 172.155895 142.507639 
L 172.615445 141.097716 
L 173.074995 138.539174 
L 173.534545 140.333892 
L 173.994096 139.010094 
L 174.453646 140.532012 
L 174.913196 135.245497 
L 175.372747 132.819035 
L 175.832297 133.200956 
L 176.291847 134.496027 
L 176.751397 129.370301 
L 177.210948 129.370301 
L 177.670498 128.732826 
L 179.049149 127.334383 
L 179.508699 130.464361 
L 179.96825 129.536856 
L 180.4278 135.145 
L 181.3469 133.44503 
L 181.806451 133.456528 
L 182.266001 121.324214 
L 182.725551 121.479289 
L 183.185102 121.505124 
L 183.644652 118.759941 
L 184.104202 118.653695 
L 184.563752 116.637861 
L 185.023303 118.736946 
L 185.482853 115.948683 
L 185.942403 114.254461 
L 186.401954 117.289709 
L 187.321054 119.161965 
L 187.780604 119.035598 
L 188.240155 120.537413 
L 188.699705 117.074343 
L 189.159255 120.686739 
L 189.618806 121.039934 
L 190.078356 116.548827 
L 190.537906 116.083637 
L 190.997456 114.762731 
L 191.457007 110.314704 
L 191.916557 112.818687 
L 192.376107 120.258881 
L 192.835658 120.606327 
L 193.754758 127.584206 
L 194.214309 125.364504 
L 195.133409 118.194254 
L 195.592959 116.813022 
L 196.05251 116.0693 
L 196.51206 116.988182 
L 196.97161 116.235838 
L 197.431161 114.489948 
L 198.350261 106.55873 
L 199.269362 109.8696 
L 200.648013 112.083588 
L 201.567113 114.926429 
L 202.026663 115.658653 
L 202.945764 104.712309 
L 203.405314 103.494775 
L 203.864865 99.322405 
L 204.324415 98.19678 
L 204.783965 98.604518 
L 205.243515 99.365485 
L 205.703066 98.81701 
L 206.162616 93.475935 
L 206.622166 93.461598 
L 207.081717 91.04949 
L 207.541267 91.948286 
L 208.000817 89.786001 
L 208.460368 83.85337 
L 208.919918 80.404637 
L 209.379468 81.805954 
L 209.839018 78.69033 
L 210.298569 77.133938 
L 210.758119 77.444088 
L 211.217669 80.060065 
L 211.67722 78.667371 
L 212.13677 78.84828 
L 213.05587 113.077133 
L 213.515421 106.748227 
L 213.974971 115.081469 
L 214.434521 128.778763 
L 214.894072 117.706069 
L 215.353622 115.325544 
L 215.813172 115.446161 
L 216.732273 104.758263 
L 217.191823 103.569438 
L 217.651373 101.246364 
L 218.110924 98.32886 
L 218.570474 99.4344 
L 219.489574 89.728584 
L 219.949125 97.249155 
L 220.408675 101.151581 
L 220.868225 110.48699 
L 221.787326 103.78193 
L 222.246876 102.018794 
L 223.165977 93.840627 
L 223.625527 84.806744 
L 224.085077 83.3451 
L 224.544628 90.816877 
L 225.004178 88.238232 
L 225.463728 87.744334 
L 225.923279 92.393355 
L 226.382829 102.257155 
L 226.842379 103.483277 
L 227.301929 104.00017 
L 227.76148 115.730442 
L 228.22103 123.368756 
L 228.68058 115.460533 
L 229.140131 128.999878 
L 229.599681 129.505273 
L 230.059231 120.327795 
L 230.518781 127.365965 
L 230.978332 125.628682 
L 231.437882 122.461372 
L 231.897432 121.619992 
L 232.356983 128.135539 
L 232.816533 125.223783 
L 233.276083 120.511579 
L 233.735633 123.796614 
L 234.195184 120.284715 
L 234.654734 120.643659 
L 235.114284 117.754898 
L 235.573835 108.204123 
L 236.033385 109.344119 
L 236.492935 105.306739 
L 236.952485 108.78993 
L 237.412036 109.797811 
L 237.871586 124.491542 
L 238.331136 124.391045 
L 238.790687 118.556037 
L 239.709787 125.65739 
L 240.169338 119.29117 
L 240.628888 123.512334 
L 241.088438 123.440545 
L 241.547988 116.347832 
L 242.007539 113.918513 
L 242.467089 114.168336 
L 242.926639 105.450317 
L 243.38619 100.706511 
L 243.84574 101.306655 
L 244.30529 100.382025 
L 244.76484 106.621896 
L 245.224391 106.845885 
L 245.683941 107.658521 
L 246.143491 110.99526 
L 246.603042 106.868845 
L 247.062592 109.367079 
L 247.522142 106.308907 
L 247.981692 106.455359 
L 248.441243 106.84876 
L 248.900793 111.446113 
L 249.360343 108.74685 
L 249.819894 102.277241 
L 250.279444 92.226818 
L 250.738994 87.046532 
L 251.198544 87.62659 
L 251.658095 88.795331 
L 252.117645 92.393355 
L 252.577195 92.884414 
L 253.496296 88.439261 
L 253.955846 89.576384 
L 254.415397 85.016362 
L 254.874947 85.257562 
L 255.334497 78.276844 
L 255.794047 79.681036 
L 256.253598 78.136141 
L 256.713148 82.337219 
L 257.172698 82.380264 
L 257.632249 90.997786 
L 258.091799 92.910248 
L 258.551349 97.412853 
L 259.010899 94.587223 
L 259.47045 93.895205 
L 259.93 90.185151 
L 260.38955 97.60235 
L 260.849101 90.420602 
L 261.768201 83.260935 
L 262.227751 83.590854 
L 262.687302 83.480319 
L 263.146852 83.498429 
L 263.606402 83.198989 
L 264.065953 84.802717 
L 264.525503 80.203179 
L 264.985053 80.250347 
L 265.444603 84.083786 
L 265.904154 84.422429 
L 266.363704 80.78054 
L 266.823254 67.69249 
L 267.282805 62.75431 
L 267.742355 60.100599 
L 268.201905 69.15258 
L 268.661456 75.495347 
L 269.121006 76.27815 
L 269.580556 74.67649 
L 270.040106 72.41696 
L 270.499657 73.241374 
L 270.959207 73.377387 
L 271.418757 68.333723 
L 271.878308 66.809795 
L 272.337858 65.940958 
L 272.797408 69.591652 
L 273.256958 70.29577 
L 273.716509 67.658731 
L 274.176059 74.853697 
L 275.09516 79.397731 
L 275.55471 77.704481 
L 276.01426 78.964685 
L 276.47381 77.759984 
L 276.933361 77.923748 
L 277.392911 73.596237 
L 277.852461 68.17781 
L 278.312012 71.067459 
L 278.771562 65.851662 
L 279.231112 68.685808 
L 280.150213 80.657935 
L 281.528864 90.018063 
L 281.988414 90.720322 
L 282.447964 86.576026 
L 282.907515 91.680783 
L 283.367065 88.755046 
L 283.826615 89.909801 
L 284.286165 94.947941 
L 285.205266 90.939624 
L 285.664816 86.137457 
L 286.124367 91.536434 
L 286.583917 89.471198 
L 287.043467 85.493445 
L 287.503017 85.446243 
L 287.962568 81.754409 
L 288.422118 81.83214 
L 288.881668 81.429624 
L 289.341219 81.676677 
L 289.800769 80.596875 
L 290.260319 90.162412 
L 290.719869 92.727277 
L 291.63897 99.017285 
L 292.09852 113.731968 
L 292.558071 114.126148 
L 293.017621 105.854158 
L 293.477171 110.87844 
L 293.936721 102.373289 
L 294.396272 103.897218 
L 294.855822 112.135865 
L 295.774923 108.399608 
L 296.234473 107.416953 
L 296.694023 123.458491 
L 297.153574 110.559212 
L 297.613124 116.066452 
L 298.072674 129.673581 
L 298.532224 125.570894 
L 298.991775 114.170571 
L 299.451325 115.447447 
L 300.370426 123.844335 
L 300.829976 120.002595 
L 301.289526 109.268444 
L 301.749076 113.046346 
L 302.208627 117.93458 
L 302.668177 125.612538 
L 303.127727 125.998383 
L 303.587278 124.163563 
L 304.046828 119.591743 
L 304.506378 120.363432 
L 304.965928 131.702695 
L 305.425479 130.861644 
L 305.885029 127.258587 
L 306.344579 130.958792 
L 306.80413 123.786054 
L 307.26368 124.801984 
L 307.72323 113.834673 
L 308.18278 113.060239 
L 308.642331 108.877042 
L 309.101881 107.014471 
L 309.561431 121.973428 
L 310.020982 117.64036 
L 310.480532 126.384228 
L 310.940082 124.552152 
L 311.399632 122.201031 
L 311.859183 118.84784 
L 312.318733 118.900564 
L 313.237834 132.194023 
L 313.697384 127.264144 
L 314.156934 129.47095 
L 314.616485 132.768622 
L 315.076035 141.742888 
L 315.535585 143.56939 
L 315.995135 126.031692 
L 316.454686 124.629883 
L 316.914236 126.356442 
L 317.373786 126.833911 
L 317.833337 124.135777 
L 318.292887 132.244003 
L 318.752437 117.643138 
L 319.211987 118.239915 
L 319.671538 115.616768 
L 320.590638 117.432173 
L 321.509739 125.015728 
L 321.969289 115.300319 
L 322.428839 114.46757 
L 323.34794 109.529356 
L 323.80749 117.487676 
L 324.267041 115.883237 
L 324.726591 115.997056 
L 325.186141 111.136573 
L 325.645691 117.146254 
L 326.105242 119.866548 
L 327.024342 104.369096 
L 327.483893 106.38713 
L 327.943443 100.058222 
L 328.402993 97.157492 
L 328.862544 105.201845 
L 329.322094 109.915201 
L 329.781644 110.895077 
L 330.241194 110.967251 
L 330.700745 103.899996 
L 331.160295 103.608521 
L 331.619845 103.450313 
L 332.079396 106.106769 
L 332.538946 104.196995 
L 332.998496 105.8403 
L 333.458046 110.387112 
L 333.917597 106.958934 
L 334.377147 106.745223 
L 334.836697 105.446119 
L 335.296248 105.201845 
L 335.755798 104.185881 
L 336.215348 98.087389 
L 336.674898 96.727225 
L 337.134449 92.349768 
L 337.593999 93.529496 
L 338.053549 97.440632 
L 338.5131 97.684907 
L 338.97265 89.554487 
L 339.4322 84.56077 
L 339.89175 84.058328 
L 340.351301 85.870954 
L 341.270401 86.975729 
L 341.729952 83.114573 
L 342.189502 76.46088 
L 342.649052 73.768337 
L 343.108603 81.673899 
L 343.568153 84.524683 
L 344.027703 86.61767 
L 344.487253 89.901466 
L 344.946804 91.49479 
L 345.406354 90.212358 
L 345.865904 84.080556 
L 347.244555 78.398438 
L 347.704105 80.619103 
L 348.163656 81.49902 
L 348.623206 83.050734 
L 349.542307 81.135404 
L 350.001857 77.487958 
L 350.461407 76.433128 
L 350.920957 74.93973 
L 351.380508 72.655226 
L 351.840058 72.286053 
L 352.299608 68.874546 
L 352.759159 64.202835 
L 353.218709 67.128537 
L 353.678259 65.10498 
L 354.137809 62.30692 
L 354.59736 57.093935 
L 355.05691 84.086113 
L 355.51646 91.203348 
L 355.976011 93.093671 
L 356.435561 86.698146 
L 356.895111 85.61282 
L 357.354662 89.665527 
L 357.814212 91.908386 
L 358.273762 92.688411 
L 358.733312 92.780001 
L 359.192863 101.39897 
L 359.652413 104.655014 
L 360.111963 91.902829 
L 360.571514 88.099954 
L 361.031064 92.463552 
L 361.490614 99.158855 
L 361.950164 96.444118 
L 362.409715 96.052717 
L 362.869265 98.970118 
L 363.328815 100.838247 
L 363.788366 100.574522 
L 364.247916 106.020735 
L 364.707466 105.612662 
L 365.167016 109.751436 
L 365.626567 128.56047 
L 366.086117 124.188536 
L 366.545667 126.922723 
L 367.005218 126.056665 
L 367.464768 120.335681 
L 367.924318 116.341256 
L 368.843419 117.35722 
L 369.302969 114.051196 
L 369.762519 115.358601 
L 370.22207 113.251755 
L 370.68162 110.101193 
L 371.14117 110.303824 
L 371.600721 107.891643 
L 372.060271 104.513444 
L 372.519821 106.920102 
L 372.979371 115.00332 
L 373.438922 117.018576 
L 373.898472 118.042842 
L 374.358022 116.330142 
L 374.817573 111.555726 
L 375.736673 105.174093 
L 376.196223 102.487074 
L 376.655774 106.895095 
L 377.115324 104.813222 
L 377.574874 100.199792 
L 378.034425 99.319875 
L 378.493975 98.970118 
L 378.953525 97.535001 
L 379.413075 96.716144 
L 379.872626 98.581495 
L 380.332176 98.442703 
L 380.791726 102.797966 
L 381.710827 98.217845 
L 382.170377 100.527355 
L 382.629927 101.579406 
L 383.089478 71.245116 
L 383.549028 72.183349 
L 384.008578 76.025089 
L 384.468129 78.745417 
L 384.927679 80.527479 
L 385.387229 84.818937 
L 385.846779 96.358051 
L 386.30633 91.825132 
L 386.76588 90.484384 
L 387.22543 82.079193 
L 388.144531 90.875785 
L 388.604081 84.705118 
L 389.063632 93.721012 
L 389.523182 92.313681 
L 389.982732 89.56838 
L 390.442282 83.675296 
L 390.901833 88.369202 
L 391.361383 86.134678 
L 391.820933 86.151315 
L 392.280484 96.682836 
L 392.740034 91.797346 
L 393.199584 91.897306 
L 393.659134 91.083973 
L 394.118685 85.396298 
L 394.578235 86.42612 
L 395.037785 92.249808 
L 395.497336 88.718959 
L 395.956886 80.413694 
L 396.416436 82.043106 
L 396.875986 82.334548 
L 397.335537 82.215206 
L 398.254637 74.090343 
L 398.714188 72.685757 
L 399.173738 75.017461 
L 399.633288 75.503232 
L 400.092838 74.734321 
L 400.552389 73.041071 
L 401.011939 75.514346 
L 401.471489 74.168075 
L 401.93104 78.70933 
L 402.39059 71.045265 
L 402.85014 72.058416 
L 403.309691 76.594148 
L 403.769241 77.929305 
L 404.228791 82.131918 
L 404.688341 89.926439 
L 405.147892 86.731455 
L 405.607442 80.755116 
L 406.066992 81.507356 
L 406.526543 86.53716 
L 406.986093 83.13121 
L 407.905193 79.436596 
L 408.364744 78.864759 
L 408.824294 72.072309 
L 409.283844 71.861343 
L 409.743395 69.141015 
L 410.202945 71.469941 
L 410.662495 71.506028 
L 411.122045 72.361006 
L 411.581596 67.800301 
L 412.041146 67.389483 
L 412.500696 65.948809 
L 412.960247 59.098077 
L 413.419797 66.959216 
L 413.879347 66.948136 
L 414.338897 67.475516 
L 414.798448 63.742037 
L 415.257998 58.923199 
L 415.717548 58.415234 
L 416.177099 58.534575 
L 416.636649 54.112696 
L 417.096199 53.540858 
L 417.55575 56.516541 
L 418.47485 57.099459 
L 418.9344 53.499214 
L 419.393951 46.728958 
L 419.853501 50.531867 
L 420.313051 52.544344 
L 420.772602 55.522806 
L 421.232152 56.00024 
L 421.691702 57.796195 
L 422.151252 54.473533 
L 422.610803 52.430526 
L 423.070353 52.672022 
L 423.529903 54.903801 
L 423.989454 59.131386 
L 424.449004 57.499196 
L 424.908554 50.781698 
L 425.368104 48.555477 
L 425.827655 45.105104 
L 426.287205 44.105811 
L 426.746755 44.133563 
L 427.206306 43.756054 
L 427.665856 42.579104 
L 428.125406 43.028788 
L 428.584956 39.189826 
L 429.044507 40.802566 
L 429.504057 41.629758 
L 429.963607 40.372332 
L 430.423158 41.821308 
L 430.882708 41.985072 
L 431.342258 43.706074 
L 431.801809 38.698498 
L 432.261359 40.871961 
L 432.720909 45.016292 
L 432.720909 45.016292 
" style="fill:none;stroke:#008000;stroke-linecap:square;stroke-width:1.5;"/>
   </g>
   <g id="line2d_31">
    <path clip-path="url(#p5713b546f1)" d="M 87.139091 180.274768 
L 90.815493 180.2864 
L 91.275044 180.622754 
L 91.734594 180.343184 
L 92.194144 181.64508 
L 92.653694 180.581174 
L 93.113245 176.028761 
L 93.572795 174.600873 
L 94.032345 172.315796 
L 94.491896 172.80212 
L 94.951446 174.12634 
L 99.087398 174.13796 
L 99.546949 173.70262 
L 100.006499 172.947222 
L 100.466049 172.647645 
L 100.9256 173.406386 
L 101.8447 170.822213 
L 102.763801 169.475529 
L 103.223351 169.786779 
L 103.682901 170.591869 
L 105.521103 170.628419 
L 106.440203 170.640279 
L 107.359304 169.837283 
L 108.278404 167.661881 
L 108.737955 166.774344 
L 109.197505 166.401989 
L 109.657055 165.707636 
L 110.576156 165.245427 
L 111.035706 165.876305 
L 115.631209 165.888298 
L 116.090759 166.290333 
L 116.550309 166.985364 
L 117.46941 168.944376 
L 117.92896 169.063056 
L 118.388511 169.603101 
L 118.848061 169.342371 
L 119.307611 169.810517 
L 119.767162 168.376363 
L 120.686262 168.433367 
L 122.064913 168.445671 
L 122.524463 167.533256 
L 122.984014 167.48971 
L 123.443564 166.845769 
L 123.903114 157.584156 
L 124.362664 155.260358 
L 124.822215 154.296609 
L 125.281765 152.410823 
L 125.741315 152.06179 
L 128.498617 152.075161 
L 128.958167 151.707826 
L 129.417718 150.714933 
L 129.877268 156.943898 
L 130.336818 154.631626 
L 130.796368 153.47965 
L 131.255919 150.864822 
L 132.175019 147.348127 
L 132.63457 144.967754 
L 133.55367 145.078885 
L 135.851422 145.092837 
L 136.770522 144.151111 
L 137.230073 153.469872 
L 137.689623 155.736816 
L 138.149173 153.366208 
L 138.608723 154.30668 
L 139.068274 155.93505 
L 139.527824 156.28828 
L 142.285126 156.301888 
L 142.744676 158.554969 
L 143.204226 156.155863 
L 143.663777 162.482031 
L 144.123327 164.702604 
L 144.582877 167.490583 
L 145.042427 164.229342 
L 145.501978 165.278958 
L 145.961528 164.363493 
L 148.71883 164.377155 
L 149.63793 162.289708 
L 150.097481 162.439608 
L 150.557031 162.013176 
L 151.016581 160.857959 
L 151.476132 168.425058 
L 151.935682 169.386461 
L 152.395232 172.93005 
L 152.854782 172.206091 
L 153.314333 173.307014 
L 156.531185 173.320174 
L 156.990735 174.872037 
L 157.450285 173.669491 
L 157.909836 171.342588 
L 158.369386 171.566323 
L 158.828936 169.936957 
L 159.288486 174.309143 
L 159.748037 174.927767 
L 160.207587 176.057678 
L 160.667137 174.753001 
L 163.424439 174.766211 
L 163.883989 173.696077 
L 164.34354 174.312602 
L 164.80309 177.003653 
L 165.26264 176.865378 
L 165.722191 174.850293 
L 166.181741 177.021578 
L 167.560392 176.37264 
L 170.777244 176.385845 
L 171.236794 177.236983 
L 171.696344 176.659135 
L 172.155895 170.851993 
L 172.615445 169.583062 
L 173.074995 167.280373 
L 173.534545 169.134887 
L 173.994096 168.614111 
L 174.453646 169.17851 
L 177.210948 169.192588 
L 178.130048 168.732336 
L 179.049149 167.896783 
L 179.508699 170.583348 
L 179.96825 169.787239 
L 180.4278 174.600897 
L 180.88735 174.118259 
L 181.3469 173.908601 
L 181.806451 174.068169 
L 185.942403 174.082984 
L 186.401954 175.084106 
L 187.321054 176.442322 
L 187.780604 176.340176 
L 188.240155 177.554143 
L 188.699705 174.754828 
L 189.159255 177.674848 
L 189.618806 178.216232 
L 190.078356 176.305282 
L 191.457007 176.358368 
L 192.835658 176.372873 
L 193.295208 177.423143 
L 193.754758 179.894187 
L 194.214309 178.081431 
L 194.673859 175.260067 
L 195.133409 173.845369 
L 196.05251 173.748253 
L 198.350261 173.763443 
L 198.809811 174.27411 
L 199.269362 175.441623 
L 200.648013 177.194364 
L 201.107563 178.74099 
L 201.567113 179.571663 
L 202.026663 179.788954 
L 204.324415 179.804552 
L 204.783965 179.952644 
L 205.243515 180.452055 
L 205.703066 180.040698 
L 206.162616 176.034892 
L 206.622166 176.024139 
L 207.081717 174.215058 
L 207.541267 175.170095 
L 208.460368 174.02925 
L 212.13677 174.121136 
L 213.05587 197.597 
L 213.515421 193.008543 
L 214.434521 205.039296 
L 214.894072 204.268557 
L 218.110924 204.284148 
L 218.570474 204.658985 
L 219.489574 198.350205 
L 219.949125 203.238576 
L 220.408675 205.775153 
L 220.868225 211.843169 
L 221.787326 207.48488 
L 222.706426 205.567249 
L 225.004178 205.583332 
L 225.463728 205.438509 
L 225.923279 208.421631 
L 226.382829 214.750903 
L 226.842379 215.537665 
L 227.301929 215.869338 
L 227.76148 223.396262 
L 228.22103 228.297514 
L 228.68058 223.223071 
L 229.140131 231.910817 
L 229.599681 232.483705 
L 230.059231 229.827425 
L 231.897432 229.84188 
L 232.356983 231.973208 
L 232.816533 230.104832 
L 233.276083 227.081167 
L 233.735633 229.189065 
L 234.195184 226.935597 
L 234.654734 227.165919 
L 235.114284 225.312298 
L 235.573835 219.450822 
L 236.033385 220.070959 
L 238.331136 220.066933 
L 238.790687 216.274178 
L 239.709787 220.890058 
L 240.169338 216.752015 
L 240.628888 219.495771 
L 241.088438 219.449109 
L 241.547988 215.09877 
L 242.007539 214.571259 
L 245.224391 214.674418 
L 245.683941 215.202632 
L 246.143491 217.371512 
L 246.603042 214.689342 
L 247.062592 216.313194 
L 247.522142 214.325382 
L 247.981692 214.420576 
L 248.441243 214.944393 
L 248.900793 216.702679 
L 251.198544 216.718792 
L 251.658095 217.11263 
L 252.117645 219.301429 
L 252.577195 219.600156 
L 253.496296 216.896021 
L 253.955846 217.587771 
L 254.415397 214.813758 
L 254.874947 215.247189 
L 255.334497 213.524506 
L 257.632249 213.540454 
L 258.091799 214.17664 
L 258.551349 216.990768 
L 259.010899 215.224749 
L 259.47045 214.792238 
L 259.93 212.473454 
L 260.38955 217.109203 
L 260.849101 212.620611 
L 261.308651 210.431375 
L 261.768201 209.646858 
L 264.985053 209.694064 
L 265.444603 212.07344 
L 265.904154 212.283633 
L 266.363704 210.02315 
L 266.823254 201.899533 
L 267.282805 198.834455 
L 267.742355 197.187325 
L 268.201905 202.805795 
L 268.661456 207.046889 
L 269.121006 207.526396 
L 271.878308 207.544053 
L 272.337858 207.266015 
L 272.797408 209.267716 
L 273.256958 209.915967 
L 273.716509 208.32465 
L 274.176059 212.66644 
L 275.09516 215.40853 
L 275.55471 214.688944 
L 276.01426 215.265043 
L 279.231112 215.282603 
L 279.690662 217.408302 
L 280.150213 220.742456 
L 281.528864 226.229427 
L 281.988414 226.641097 
L 282.447964 224.211682 
L 282.907515 227.204125 
L 283.367065 225.781396 
L 283.826615 226.286714 
L 286.583917 226.303226 
L 287.043467 224.978306 
L 287.503017 224.950636 
L 287.962568 222.786457 
L 288.422118 222.832024 
L 288.881668 222.596066 
L 289.341219 222.74089 
L 289.800769 222.107903 
L 290.260319 227.715286 
L 290.719869 229.218828 
L 291.63897 232.906074 
L 292.09852 241.802027 
L 292.558071 242.101158 
L 293.477171 242.116591 
L 293.936721 239.268082 
L 294.396272 240.135145 
L 294.855822 244.822651 
L 295.774923 242.696849 
L 296.234473 242.137753 
L 296.694023 251.264835 
L 297.153574 243.92559 
L 297.613124 247.059019 
L 298.072674 254.801006 
L 298.532224 252.466719 
L 298.991775 245.980329 
L 299.451325 246.706827 
L 300.370426 251.745462 
L 300.829976 251.034391 
L 301.289526 251.049905 
L 301.749076 252.329492 
L 302.208627 254.984309 
L 302.668177 259.154234 
L 303.127727 259.363788 
L 303.587278 258.367291 
L 304.046828 255.88432 
L 304.506378 256.303427 
L 304.965928 262.461819 
L 305.425479 262.259885 
L 305.885029 261.673226 
L 309.101881 261.688854 
L 309.561431 266.726167 
L 310.020982 264.484925 
L 310.480532 269.007615 
L 310.940082 268.05999 
L 311.399632 266.843893 
L 311.859183 265.109484 
L 312.318733 265.402254 
L 312.778283 266.639316 
L 316.454686 266.654056 
L 316.914236 267.242426 
L 317.373786 267.489393 
L 317.833337 266.093806 
L 318.292887 270.287716 
L 318.752437 262.735545 
L 319.211987 263.044223 
L 319.671538 261.955848 
L 320.131088 262.286825 
L 323.34794 262.302326 
L 323.80749 264.985712 
L 324.267041 264.169661 
L 324.726591 264.227551 
L 325.186141 261.755409 
L 325.645691 264.812057 
L 326.105242 266.460294 
L 326.564792 265.262846 
L 330.241194 265.31006 
L 330.700745 261.776432 
L 331.160295 261.630694 
L 331.619845 261.830855 
L 332.079396 262.400864 
L 336.215348 262.416941 
L 336.674898 261.967097 
L 337.134449 259.816105 
L 337.593999 260.395799 
L 338.053549 262.317651 
L 338.5131 262.437682 
L 338.97265 258.734208 
L 339.4322 258.095979 
L 343.568153 258.112741 
L 344.027703 258.823679 
L 344.487253 260.408959 
L 344.946804 261.17815 
L 345.406354 260.559045 
L 345.865904 257.895387 
L 346.325455 257.758483 
L 354.137809 257.776365 
L 354.59736 256.029772 
L 355.05691 268.129714 
L 355.51646 271.320199 
L 355.976011 272.167585 
L 356.435561 269.594815 
L 358.733312 269.57157 
L 360.111963 269.58796 
L 360.571514 268.315359 
L 361.031064 270.309072 
L 361.490614 273.368133 
L 361.950164 272.127779 
L 362.409715 271.948949 
L 362.869265 273.2819 
L 363.328815 274.135441 
L 363.788366 274.296774 
L 364.247916 275.053502 
L 367.464768 275.068458 
L 367.924318 273.732112 
L 368.843419 274.222577 
L 369.302969 272.896385 
L 369.762519 273.103195 
L 370.68162 270.838475 
L 371.14117 270.98724 
L 374.358022 271.002398 
L 376.196223 264.948166 
L 376.655774 267.114176 
L 377.115324 266.091187 
L 377.574874 264.106404 
L 381.710827 264.116526 
L 382.170377 264.899954 
L 382.629927 265.407841 
L 383.089478 250.763701 
L 383.549028 251.216641 
L 384.008578 253.071274 
L 384.927679 255.54453 
L 385.387229 256.302417 
L 389.523182 256.318786 
L 389.982732 255.403839 
L 390.442282 252.457297 
L 390.901833 254.80425 
L 391.361383 253.686988 
L 391.820933 253.989984 
L 392.280484 255.853964 
L 396.416436 255.870851 
L 396.875986 255.97619 
L 397.335537 255.918577 
L 398.254637 252.301653 
L 399.173738 252.229487 
L 402.39059 252.246929 
L 402.85014 252.595137 
L 403.309691 254.784801 
L 403.769241 255.42936 
L 404.228791 257.756466 
L 404.688341 259.025749 
L 412.041146 259.043375 
L 412.500696 258.565364 
L 412.960247 255.435288 
L 413.419797 259.027015 
L 413.879347 259.021953 
L 414.338897 259.262911 
L 415.257998 255.674323 
L 416.636649 255.727669 
L 418.9344 255.745996 
L 419.393951 253.476012 
L 419.853501 255.180764 
L 420.313051 256.082909 
L 420.772602 257.418081 
L 421.232152 257.632104 
L 421.691702 258.437187 
L 422.151252 257.270619 
L 422.610803 257.149901 
L 426.746755 257.183334 
L 427.206306 257.020615 
L 427.665856 256.513309 
L 428.125406 256.707138 
L 428.584956 255.052413 
L 429.504057 256.438452 
L 431.801809 256.413831 
L 432.720909 256.413831 
L 432.720909 256.413831 
" style="fill:none;stroke:#0000ff;stroke-linecap:square;stroke-width:1.5;"/>
   </g>
   <g id="patch_3">
    <path d="M 69.86 286.886956 
L 69.86 26.88 
" style="fill:none;stroke:#000000;stroke-linecap:square;stroke-linejoin:miter;stroke-width:0.8;"/>
   </g>
   <g id="patch_4">
    <path d="M 450 286.886956 
L 450 26.88 
" style="fill:none;stroke:#000000;stroke-linecap:square;stroke-linejoin:miter;stroke-width:0.8;"/>
   </g>
   <g id="patch_5">
    <path d="M 69.86 286.886956 
L 450 286.886956 
" style="fill:none;stroke:#000000;stroke-linecap:square;stroke-linejoin:miter;stroke-width:0.8;"/>
   </g>
   <g id="patch_6">
    <path d="M 69.86 26.88 
L 450 26.88 
" style="fill:none;stroke:#000000;stroke-linecap:square;stroke-linejoin:miter;stroke-width:0.8;"/>
   </g>
   <g id="text_17">
    <!-- Portfolio Value by LSTM Steps -->
    <g transform="translate(171.004375 20.88)scale(0.12 -0.12)">
     <defs>
      <path d="M 30.609375 48.390625 
Q 23.390625 48.390625 19.1875 42.75 
Q 14.984375 37.109375 14.984375 27.296875 
Q 14.984375 17.484375 19.15625 11.84375 
Q 23.34375 6.203125 30.609375 6.203125 
Q 37.796875 6.203125 41.984375 11.859375 
Q 46.1875 17.53125 46.1875 27.296875 
Q 46.1875 37.015625 41.984375 42.703125 
Q 37.796875 48.390625 30.609375 48.390625 
z
M 30.609375 56 
Q 42.328125 56 49.015625 48.375 
Q 55.71875 40.765625 55.71875 27.296875 
Q 55.71875 13.875 49.015625 6.21875 
Q 42.328125 -1.421875 30.609375 -1.421875 
Q 18.84375 -1.421875 12.171875 6.21875 
Q 5.515625 13.875 5.515625 27.296875 
Q 5.515625 40.765625 12.171875 48.375 
Q 18.84375 56 30.609375 56 
z
" id="DejaVuSans-111"/>
      <path d="M 37.109375 75.984375 
L 37.109375 68.5 
L 28.515625 68.5 
Q 23.6875 68.5 21.796875 66.546875 
Q 19.921875 64.59375 19.921875 59.515625 
L 19.921875 54.6875 
L 34.71875 54.6875 
L 34.71875 47.703125 
L 19.921875 47.703125 
L 19.921875 0 
L 10.890625 0 
L 10.890625 47.703125 
L 2.296875 47.703125 
L 2.296875 54.6875 
L 10.890625 54.6875 
L 10.890625 58.5 
Q 10.890625 67.625 15.140625 71.796875 
Q 19.390625 75.984375 28.609375 75.984375 
z
" id="DejaVuSans-102"/>
      <path d="M 9.421875 75.984375 
L 18.40625 75.984375 
L 18.40625 0 
L 9.421875 0 
z
" id="DejaVuSans-108"/>
      <path id="DejaVuSans-32"/>
      <path d="M 28.609375 0 
L 0.78125 72.90625 
L 11.078125 72.90625 
L 34.1875 11.53125 
L 57.328125 72.90625 
L 67.578125 72.90625 
L 39.796875 0 
z
" id="DejaVuSans-86"/>
      <path d="M 8.5 21.578125 
L 8.5 54.6875 
L 17.484375 54.6875 
L 17.484375 21.921875 
Q 17.484375 14.15625 20.5 10.265625 
Q 23.53125 6.390625 29.59375 6.390625 
Q 36.859375 6.390625 41.078125 11.03125 
Q 45.3125 15.671875 45.3125 23.6875 
L 45.3125 54.6875 
L 54.296875 54.6875 
L 54.296875 0 
L 45.3125 0 
L 45.3125 8.40625 
Q 42.046875 3.421875 37.71875 1 
Q 33.40625 -1.421875 27.6875 -1.421875 
Q 18.265625 -1.421875 13.375 4.4375 
Q 8.5 10.296875 8.5 21.578125 
z
M 31.109375 56 
z
" id="DejaVuSans-117"/>
      <path d="M 48.6875 27.296875 
Q 48.6875 37.203125 44.609375 42.84375 
Q 40.53125 48.484375 33.40625 48.484375 
Q 26.265625 48.484375 22.1875 42.84375 
Q 18.109375 37.203125 18.109375 27.296875 
Q 18.109375 17.390625 22.1875 11.75 
Q 26.265625 6.109375 33.40625 6.109375 
Q 40.53125 6.109375 44.609375 11.75 
Q 48.6875 17.390625 48.6875 27.296875 
z
M 18.109375 46.390625 
Q 20.953125 51.265625 25.265625 53.625 
Q 29.59375 56 35.59375 56 
Q 45.5625 56 51.78125 48.09375 
Q 58.015625 40.1875 58.015625 27.296875 
Q 58.015625 14.40625 51.78125 6.484375 
Q 45.5625 -1.421875 35.59375 -1.421875 
Q 29.59375 -1.421875 25.265625 0.953125 
Q 20.953125 3.328125 18.109375 8.203125 
L 18.109375 0 
L 9.078125 0 
L 9.078125 75.984375 
L 18.109375 75.984375 
z
" id="DejaVuSans-98"/>
      <path d="M 32.171875 -5.078125 
Q 28.375 -14.84375 24.75 -17.8125 
Q 21.140625 -20.796875 15.09375 -20.796875 
L 7.90625 -20.796875 
L 7.90625 -13.28125 
L 13.1875 -13.28125 
Q 16.890625 -13.28125 18.9375 -11.515625 
Q 21 -9.765625 23.484375 -3.21875 
L 25.09375 0.875 
L 2.984375 54.6875 
L 12.5 54.6875 
L 29.59375 11.921875 
L 46.6875 54.6875 
L 56.203125 54.6875 
z
" id="DejaVuSans-121"/>
      <path d="M 9.8125 72.90625 
L 19.671875 72.90625 
L 19.671875 8.296875 
L 55.171875 8.296875 
L 55.171875 0 
L 9.8125 0 
z
" id="DejaVuSans-76"/>
      <path d="M 53.515625 70.515625 
L 53.515625 60.890625 
Q 47.90625 63.578125 42.921875 64.890625 
Q 37.9375 66.21875 33.296875 66.21875 
Q 25.25 66.21875 20.875 63.09375 
Q 16.5 59.96875 16.5 54.203125 
Q 16.5 49.359375 19.40625 46.890625 
Q 22.3125 44.4375 30.421875 42.921875 
L 36.375 41.703125 
Q 47.40625 39.59375 52.65625 34.296875 
Q 57.90625 29 57.90625 20.125 
Q 57.90625 9.515625 50.796875 4.046875 
Q 43.703125 -1.421875 29.984375 -1.421875 
Q 24.8125 -1.421875 18.96875 -0.25 
Q 13.140625 0.921875 6.890625 3.21875 
L 6.890625 13.375 
Q 12.890625 10.015625 18.65625 8.296875 
Q 24.421875 6.59375 29.984375 6.59375 
Q 38.421875 6.59375 43.015625 9.90625 
Q 47.609375 13.234375 47.609375 19.390625 
Q 47.609375 24.75 44.3125 27.78125 
Q 41.015625 30.8125 33.5 32.328125 
L 27.484375 33.5 
Q 16.453125 35.6875 11.515625 40.375 
Q 6.59375 45.0625 6.59375 53.421875 
Q 6.59375 63.09375 13.40625 68.65625 
Q 20.21875 74.21875 32.171875 74.21875 
Q 37.3125 74.21875 42.625 73.28125 
Q 47.953125 72.359375 53.515625 70.515625 
z
" id="DejaVuSans-83"/>
      <path d="M -0.296875 72.90625 
L 61.375 72.90625 
L 61.375 64.59375 
L 35.5 64.59375 
L 35.5 0 
L 25.59375 0 
L 25.59375 64.59375 
L -0.296875 64.59375 
z
" id="DejaVuSans-84"/>
      <path d="M 9.8125 72.90625 
L 24.515625 72.90625 
L 43.109375 23.296875 
L 61.8125 72.90625 
L 76.515625 72.90625 
L 76.515625 0 
L 66.890625 0 
L 66.890625 64.015625 
L 48.09375 14.015625 
L 38.1875 14.015625 
L 19.390625 64.015625 
L 19.390625 0 
L 9.8125 0 
z
" id="DejaVuSans-77"/>
      <path d="M 18.109375 8.203125 
L 18.109375 -20.796875 
L 9.078125 -20.796875 
L 9.078125 54.6875 
L 18.109375 54.6875 
L 18.109375 46.390625 
Q 20.953125 51.265625 25.265625 53.625 
Q 29.59375 56 35.59375 56 
Q 45.5625 56 51.78125 48.09375 
Q 58.015625 40.1875 58.015625 27.296875 
Q 58.015625 14.40625 51.78125 6.484375 
Q 45.5625 -1.421875 35.59375 -1.421875 
Q 29.59375 -1.421875 25.265625 0.953125 
Q 20.953125 3.328125 18.109375 8.203125 
z
M 48.6875 27.296875 
Q 48.6875 37.203125 44.609375 42.84375 
Q 40.53125 48.484375 33.40625 48.484375 
Q 26.265625 48.484375 22.1875 42.84375 
Q 18.109375 37.203125 18.109375 27.296875 
Q 18.109375 17.390625 22.1875 11.75 
Q 26.265625 6.109375 33.40625 6.109375 
Q 40.53125 6.109375 44.609375 11.75 
Q 48.6875 17.390625 48.6875 27.296875 
z
" id="DejaVuSans-112"/>
      <path d="M 44.28125 53.078125 
L 44.28125 44.578125 
Q 40.484375 46.53125 36.375 47.5 
Q 32.28125 48.484375 27.875 48.484375 
Q 21.1875 48.484375 17.84375 46.4375 
Q 14.5 44.390625 14.5 40.28125 
Q 14.5 37.15625 16.890625 35.375 
Q 19.28125 33.59375 26.515625 31.984375 
L 29.59375 31.296875 
Q 39.15625 29.25 43.1875 25.515625 
Q 47.21875 21.78125 47.21875 15.09375 
Q 47.21875 7.46875 41.1875 3.015625 
Q 35.15625 -1.421875 24.609375 -1.421875 
Q 20.21875 -1.421875 15.453125 -0.5625 
Q 10.6875 0.296875 5.421875 2 
L 5.421875 11.28125 
Q 10.40625 8.6875 15.234375 7.390625 
Q 20.0625 6.109375 24.8125 6.109375 
Q 31.15625 6.109375 34.5625 8.28125 
Q 37.984375 10.453125 37.984375 14.40625 
Q 37.984375 18.0625 35.515625 20.015625 
Q 33.0625 21.96875 24.703125 23.78125 
L 21.578125 24.515625 
Q 13.234375 26.265625 9.515625 29.90625 
Q 5.8125 33.546875 5.8125 39.890625 
Q 5.8125 47.609375 11.28125 51.796875 
Q 16.75 56 26.8125 56 
Q 31.78125 56 36.171875 55.265625 
Q 40.578125 54.546875 44.28125 53.078125 
z
" id="DejaVuSans-115"/>
     </defs>
     <use xlink:href="#DejaVuSans-80"/>
     <use x="56.677734" xlink:href="#DejaVuSans-111"/>
     <use x="117.859375" xlink:href="#DejaVuSans-114"/>
     <use x="158.972656" xlink:href="#DejaVuSans-116"/>
     <use x="198.181641" xlink:href="#DejaVuSans-102"/>
     <use x="233.386719" xlink:href="#DejaVuSans-111"/>
     <use x="294.568359" xlink:href="#DejaVuSans-108"/>
     <use x="322.351562" xlink:href="#DejaVuSans-105"/>
     <use x="350.134766" xlink:href="#DejaVuSans-111"/>
     <use x="411.316406" xlink:href="#DejaVuSans-32"/>
     <use x="443.103516" xlink:href="#DejaVuSans-86"/>
     <use x="503.761719" xlink:href="#DejaVuSans-97"/>
     <use x="565.041016" xlink:href="#DejaVuSans-108"/>
     <use x="592.824219" xlink:href="#DejaVuSans-117"/>
     <use x="656.203125" xlink:href="#DejaVuSans-101"/>
     <use x="717.726562" xlink:href="#DejaVuSans-32"/>
     <use x="749.513672" xlink:href="#DejaVuSans-98"/>
     <use x="812.990234" xlink:href="#DejaVuSans-121"/>
     <use x="872.169922" xlink:href="#DejaVuSans-32"/>
     <use x="903.957031" xlink:href="#DejaVuSans-76"/>
     <use x="959.669922" xlink:href="#DejaVuSans-83"/>
     <use x="1023.146484" xlink:href="#DejaVuSans-84"/>
     <use x="1084.230469" xlink:href="#DejaVuSans-77"/>
     <use x="1170.509766" xlink:href="#DejaVuSans-32"/>
     <use x="1202.296875" xlink:href="#DejaVuSans-83"/>
     <use x="1265.773438" xlink:href="#DejaVuSans-116"/>
     <use x="1304.982422" xlink:href="#DejaVuSans-101"/>
     <use x="1366.505859" xlink:href="#DejaVuSans-112"/>
     <use x="1429.982422" xlink:href="#DejaVuSans-115"/>
    </g>
   </g>
   <g id="legend_1">
    <g id="patch_7">
     <path d="M 76.86 78.914375 
L 200.264688 78.914375 
Q 202.264688 78.914375 202.264688 76.914375 
L 202.264688 33.88 
Q 202.264688 31.88 200.264688 31.88 
L 76.86 31.88 
Q 74.86 31.88 74.86 33.88 
L 74.86 76.914375 
Q 74.86 78.914375 76.86 78.914375 
z
" style="fill:#ffffff;opacity:0.8;stroke:#cccccc;stroke-linejoin:miter;"/>
    </g>
    <g id="line2d_32">
     <path d="M 78.86 39.978437 
L 98.86 39.978437 
" style="fill:none;stroke:#ff0000;stroke-linecap:square;stroke-width:1.5;"/>
    </g>
    <g id="line2d_33"/>
    <g id="text_18">
     <!-- number of steps 3 -->
     <g transform="translate(106.86 43.478437)scale(0.1 -0.1)">
      <defs>
       <path d="M 54.890625 33.015625 
L 54.890625 0 
L 45.90625 0 
L 45.90625 32.71875 
Q 45.90625 40.484375 42.875 44.328125 
Q 39.84375 48.1875 33.796875 48.1875 
Q 26.515625 48.1875 22.3125 43.546875 
Q 18.109375 38.921875 18.109375 30.90625 
L 18.109375 0 
L 9.078125 0 
L 9.078125 54.6875 
L 18.109375 54.6875 
L 18.109375 46.1875 
Q 21.34375 51.125 25.703125 53.5625 
Q 30.078125 56 35.796875 56 
Q 45.21875 56 50.046875 50.171875 
Q 54.890625 44.34375 54.890625 33.015625 
z
" id="DejaVuSans-110"/>
       <path d="M 52 44.1875 
Q 55.375 50.25 60.0625 53.125 
Q 64.75 56 71.09375 56 
Q 79.640625 56 84.28125 50.015625 
Q 88.921875 44.046875 88.921875 33.015625 
L 88.921875 0 
L 79.890625 0 
L 79.890625 32.71875 
Q 79.890625 40.578125 77.09375 44.375 
Q 74.3125 48.1875 68.609375 48.1875 
Q 61.625 48.1875 57.5625 43.546875 
Q 53.515625 38.921875 53.515625 30.90625 
L 53.515625 0 
L 44.484375 0 
L 44.484375 32.71875 
Q 44.484375 40.625 41.703125 44.40625 
Q 38.921875 48.1875 33.109375 48.1875 
Q 26.21875 48.1875 22.15625 43.53125 
Q 18.109375 38.875 18.109375 30.90625 
L 18.109375 0 
L 9.078125 0 
L 9.078125 54.6875 
L 18.109375 54.6875 
L 18.109375 46.1875 
Q 21.1875 51.21875 25.484375 53.609375 
Q 29.78125 56 35.6875 56 
Q 41.65625 56 45.828125 52.96875 
Q 50 49.953125 52 44.1875 
z
" id="DejaVuSans-109"/>
      </defs>
      <use xlink:href="#DejaVuSans-110"/>
      <use x="63.378906" xlink:href="#DejaVuSans-117"/>
      <use x="126.757812" xlink:href="#DejaVuSans-109"/>
      <use x="224.169922" xlink:href="#DejaVuSans-98"/>
      <use x="287.646484" xlink:href="#DejaVuSans-101"/>
      <use x="349.169922" xlink:href="#DejaVuSans-114"/>
      <use x="390.283203" xlink:href="#DejaVuSans-32"/>
      <use x="422.070312" xlink:href="#DejaVuSans-111"/>
      <use x="483.251953" xlink:href="#DejaVuSans-102"/>
      <use x="518.457031" xlink:href="#DejaVuSans-32"/>
      <use x="550.244141" xlink:href="#DejaVuSans-115"/>
      <use x="602.34375" xlink:href="#DejaVuSans-116"/>
      <use x="641.552734" xlink:href="#DejaVuSans-101"/>
      <use x="703.076172" xlink:href="#DejaVuSans-112"/>
      <use x="766.552734" xlink:href="#DejaVuSans-115"/>
      <use x="818.652344" xlink:href="#DejaVuSans-32"/>
      <use x="850.439453" xlink:href="#DejaVuSans-51"/>
     </g>
    </g>
    <g id="line2d_34">
     <path d="M 78.86 54.656563 
L 98.86 54.656563 
" style="fill:none;stroke:#008000;stroke-linecap:square;stroke-width:1.5;"/>
    </g>
    <g id="line2d_35"/>
    <g id="text_19">
     <!-- number of steps 6 -->
     <g transform="translate(106.86 58.156563)scale(0.1 -0.1)">
      <use xlink:href="#DejaVuSans-110"/>
      <use x="63.378906" xlink:href="#DejaVuSans-117"/>
      <use x="126.757812" xlink:href="#DejaVuSans-109"/>
      <use x="224.169922" xlink:href="#DejaVuSans-98"/>
      <use x="287.646484" xlink:href="#DejaVuSans-101"/>
      <use x="349.169922" xlink:href="#DejaVuSans-114"/>
      <use x="390.283203" xlink:href="#DejaVuSans-32"/>
      <use x="422.070312" xlink:href="#DejaVuSans-111"/>
      <use x="483.251953" xlink:href="#DejaVuSans-102"/>
      <use x="518.457031" xlink:href="#DejaVuSans-32"/>
      <use x="550.244141" xlink:href="#DejaVuSans-115"/>
      <use x="602.34375" xlink:href="#DejaVuSans-116"/>
      <use x="641.552734" xlink:href="#DejaVuSans-101"/>
      <use x="703.076172" xlink:href="#DejaVuSans-112"/>
      <use x="766.552734" xlink:href="#DejaVuSans-115"/>
      <use x="818.652344" xlink:href="#DejaVuSans-32"/>
      <use x="850.439453" xlink:href="#DejaVuSans-54"/>
     </g>
    </g>
    <g id="line2d_36">
     <path d="M 78.86 69.334687 
L 98.86 69.334687 
" style="fill:none;stroke:#0000ff;stroke-linecap:square;stroke-width:1.5;"/>
    </g>
    <g id="line2d_37"/>
    <g id="text_20">
     <!-- number of steps 9 -->
     <g transform="translate(106.86 72.834687)scale(0.1 -0.1)">
      <use xlink:href="#DejaVuSans-110"/>
      <use x="63.378906" xlink:href="#DejaVuSans-117"/>
      <use x="126.757812" xlink:href="#DejaVuSans-109"/>
      <use x="224.169922" xlink:href="#DejaVuSans-98"/>
      <use x="287.646484" xlink:href="#DejaVuSans-101"/>
      <use x="349.169922" xlink:href="#DejaVuSans-114"/>
      <use x="390.283203" xlink:href="#DejaVuSans-32"/>
      <use x="422.070312" xlink:href="#DejaVuSans-111"/>
      <use x="483.251953" xlink:href="#DejaVuSans-102"/>
      <use x="518.457031" xlink:href="#DejaVuSans-32"/>
      <use x="550.244141" xlink:href="#DejaVuSans-115"/>
      <use x="602.34375" xlink:href="#DejaVuSans-116"/>
      <use x="641.552734" xlink:href="#DejaVuSans-101"/>
      <use x="703.076172" xlink:href="#DejaVuSans-112"/>
      <use x="766.552734" xlink:href="#DejaVuSans-115"/>
      <use x="818.652344" xlink:href="#DejaVuSans-32"/>
      <use x="850.439453" xlink:href="#DejaVuSans-57"/>
     </g>
    </g>
   </g>
  </g>
 </g>
 <defs>
  <clipPath id="p5713b546f1">
   <rect height="260.006956" width="380.14" x="69.86" y="26.88"/>
  </clipPath>
 </defs>
</svg>
