<?xml version="1.0" encoding="utf-8" standalone="no"?>
<!DOCTYPE svg PUBLIC "-//W3C//DTD SVG 1.1//EN"
  "http://www.w3.org/Graphics/SVG/1.1/DTD/svg11.dtd">
<!-- Created with matplotlib (https://matplotlib.org/) -->
<svg height="345.6pt" version="1.1" viewBox="0 0 460.8 345.6" width="460.8pt" xmlns="http://www.w3.org/2000/svg" xmlns:xlink="http://www.w3.org/1999/xlink">
 <metadata>
  <rdf:RDF xmlns:cc="http://creativecommons.org/ns#" xmlns:dc="http://purl.org/dc/elements/1.1/" xmlns:rdf="http://www.w3.org/1999/02/22-rdf-syntax-ns#">
   <cc:Work>
    <dc:type rdf:resource="http://purl.org/dc/dcmitype/StillImage"/>
    <dc:date>2020-11-17T18:28:20.783777</dc:date>
    <dc:format>image/svg+xml</dc:format>
    <dc:creator>
     <cc:Agent>
      <dc:title>Matplotlib v3.3.2, https://matplotlib.org/</dc:title>
     </cc:Agent>
    </dc:creator>
   </cc:Work>
  </rdf:RDF>
 </metadata>
 <defs>
  <style type="text/css">*{stroke-linecap:butt;stroke-linejoin:round;}</style>
 </defs>
 <g id="figure_1">
  <g id="patch_1">
   <path d="M 0 345.6 
L 460.8 345.6 
L 460.8 0 
L 0 0 
z
" style="fill:#ffffff;"/>
  </g>
  <g id="axes_1">
   <g id="patch_2">
    <path d="M 69.86 286.886956 
L 450 286.886956 
L 450 26.88 
L 69.86 26.88 
z
" style="fill:#ffffff;"/>
   </g>
   <g id="matplotlib.axis_1">
    <g id="xtick_1">
     <g id="line2d_1">
      <path clip-path="url(#pe8007f35f9)" d="M 87.139091 286.886956 
L 87.139091 26.88 
" style="fill:none;stroke:#b0b0b0;stroke-linecap:square;stroke-width:0.8;"/>
     </g>
     <g id="line2d_2">
      <defs>
       <path d="M 0 0 
L 0 3.5 
" id="m05820b4c71" style="stroke:#000000;stroke-width:0.8;"/>
      </defs>
      <g>
       <use style="stroke:#000000;stroke-width:0.8;" x="87.139091" xlink:href="#m05820b4c71" y="286.886956"/>
      </g>
     </g>
     <g id="text_1">
      <!-- 20170103 -->
      <g transform="translate(64.167676 318.435977)rotate(-20)scale(0.1 -0.1)">
       <defs>
        <path d="M 19.1875 8.296875 
L 53.609375 8.296875 
L 53.609375 0 
L 7.328125 0 
L 7.328125 8.296875 
Q 12.9375 14.109375 22.625 23.890625 
Q 32.328125 33.6875 34.8125 36.53125 
Q 39.546875 41.84375 41.421875 45.53125 
Q 43.3125 49.21875 43.3125 52.78125 
Q 43.3125 58.59375 39.234375 62.25 
Q 35.15625 65.921875 28.609375 65.921875 
Q 23.96875 65.921875 18.8125 64.3125 
Q 13.671875 62.703125 7.8125 59.421875 
L 7.8125 69.390625 
Q 13.765625 71.78125 18.9375 73 
Q 24.125 74.21875 28.421875 74.21875 
Q 39.75 74.21875 46.484375 68.546875 
Q 53.21875 62.890625 53.21875 53.421875 
Q 53.21875 48.921875 51.53125 44.890625 
Q 49.859375 40.875 45.40625 35.40625 
Q 44.1875 33.984375 37.640625 27.21875 
Q 31.109375 20.453125 19.1875 8.296875 
z
" id="DejaVuSans-50"/>
        <path d="M 31.78125 66.40625 
Q 24.171875 66.40625 20.328125 58.90625 
Q 16.5 51.421875 16.5 36.375 
Q 16.5 21.390625 20.328125 13.890625 
Q 24.171875 6.390625 31.78125 6.390625 
Q 39.453125 6.390625 43.28125 13.890625 
Q 47.125 21.390625 47.125 36.375 
Q 47.125 51.421875 43.28125 58.90625 
Q 39.453125 66.40625 31.78125 66.40625 
z
M 31.78125 74.21875 
Q 44.046875 74.21875 50.515625 64.515625 
Q 56.984375 54.828125 56.984375 36.375 
Q 56.984375 17.96875 50.515625 8.265625 
Q 44.046875 -1.421875 31.78125 -1.421875 
Q 19.53125 -1.421875 13.0625 8.265625 
Q 6.59375 17.96875 6.59375 36.375 
Q 6.59375 54.828125 13.0625 64.515625 
Q 19.53125 74.21875 31.78125 74.21875 
z
" id="DejaVuSans-48"/>
        <path d="M 12.40625 8.296875 
L 28.515625 8.296875 
L 28.515625 63.921875 
L 10.984375 60.40625 
L 10.984375 69.390625 
L 28.421875 72.90625 
L 38.28125 72.90625 
L 38.28125 8.296875 
L 54.390625 8.296875 
L 54.390625 0 
L 12.40625 0 
z
" id="DejaVuSans-49"/>
        <path d="M 8.203125 72.90625 
L 55.078125 72.90625 
L 55.078125 68.703125 
L 28.609375 0 
L 18.3125 0 
L 43.21875 64.59375 
L 8.203125 64.59375 
z
" id="DejaVuSans-55"/>
        <path d="M 40.578125 39.3125 
Q 47.65625 37.796875 51.625 33 
Q 55.609375 28.21875 55.609375 21.1875 
Q 55.609375 10.40625 48.1875 4.484375 
Q 40.765625 -1.421875 27.09375 -1.421875 
Q 22.515625 -1.421875 17.65625 -0.515625 
Q 12.796875 0.390625 7.625 2.203125 
L 7.625 11.71875 
Q 11.71875 9.328125 16.59375 8.109375 
Q 21.484375 6.890625 26.8125 6.890625 
Q 36.078125 6.890625 40.9375 10.546875 
Q 45.796875 14.203125 45.796875 21.1875 
Q 45.796875 27.640625 41.28125 31.265625 
Q 36.765625 34.90625 28.71875 34.90625 
L 20.21875 34.90625 
L 20.21875 43.015625 
L 29.109375 43.015625 
Q 36.375 43.015625 40.234375 45.921875 
Q 44.09375 48.828125 44.09375 54.296875 
Q 44.09375 59.90625 40.109375 62.90625 
Q 36.140625 65.921875 28.71875 65.921875 
Q 24.65625 65.921875 20.015625 65.03125 
Q 15.375 64.15625 9.8125 62.3125 
L 9.8125 71.09375 
Q 15.4375 72.65625 20.34375 73.4375 
Q 25.25 74.21875 29.59375 74.21875 
Q 40.828125 74.21875 47.359375 69.109375 
Q 53.90625 64.015625 53.90625 55.328125 
Q 53.90625 49.265625 50.4375 45.09375 
Q 46.96875 40.921875 40.578125 39.3125 
z
" id="DejaVuSans-51"/>
       </defs>
       <use xlink:href="#DejaVuSans-50"/>
       <use x="63.623047" xlink:href="#DejaVuSans-48"/>
       <use x="127.246094" xlink:href="#DejaVuSans-49"/>
       <use x="190.869141" xlink:href="#DejaVuSans-55"/>
       <use x="254.492188" xlink:href="#DejaVuSans-48"/>
       <use x="318.115234" xlink:href="#DejaVuSans-49"/>
       <use x="381.738281" xlink:href="#DejaVuSans-48"/>
       <use x="445.361328" xlink:href="#DejaVuSans-51"/>
      </g>
     </g>
    </g>
    <g id="xtick_2">
     <g id="line2d_3">
      <path clip-path="url(#pe8007f35f9)" d="M 133.09412 286.886956 
L 133.09412 26.88 
" style="fill:none;stroke:#b0b0b0;stroke-linecap:square;stroke-width:0.8;"/>
     </g>
     <g id="line2d_4">
      <g>
       <use style="stroke:#000000;stroke-width:0.8;" x="133.09412" xlink:href="#m05820b4c71" y="286.886956"/>
      </g>
     </g>
     <g id="text_2">
      <!-- 20170526 -->
      <g transform="translate(110.122705 318.435977)rotate(-20)scale(0.1 -0.1)">
       <defs>
        <path d="M 10.796875 72.90625 
L 49.515625 72.90625 
L 49.515625 64.59375 
L 19.828125 64.59375 
L 19.828125 46.734375 
Q 21.96875 47.46875 24.109375 47.828125 
Q 26.265625 48.1875 28.421875 48.1875 
Q 40.625 48.1875 47.75 41.5 
Q 54.890625 34.8125 54.890625 23.390625 
Q 54.890625 11.625 47.5625 5.09375 
Q 40.234375 -1.421875 26.90625 -1.421875 
Q 22.3125 -1.421875 17.546875 -0.640625 
Q 12.796875 0.140625 7.71875 1.703125 
L 7.71875 11.625 
Q 12.109375 9.234375 16.796875 8.0625 
Q 21.484375 6.890625 26.703125 6.890625 
Q 35.15625 6.890625 40.078125 11.328125 
Q 45.015625 15.765625 45.015625 23.390625 
Q 45.015625 31 40.078125 35.4375 
Q 35.15625 39.890625 26.703125 39.890625 
Q 22.75 39.890625 18.8125 39.015625 
Q 14.890625 38.140625 10.796875 36.28125 
z
" id="DejaVuSans-53"/>
        <path d="M 33.015625 40.375 
Q 26.375 40.375 22.484375 35.828125 
Q 18.609375 31.296875 18.609375 23.390625 
Q 18.609375 15.53125 22.484375 10.953125 
Q 26.375 6.390625 33.015625 6.390625 
Q 39.65625 6.390625 43.53125 10.953125 
Q 47.40625 15.53125 47.40625 23.390625 
Q 47.40625 31.296875 43.53125 35.828125 
Q 39.65625 40.375 33.015625 40.375 
z
M 52.59375 71.296875 
L 52.59375 62.3125 
Q 48.875 64.0625 45.09375 64.984375 
Q 41.3125 65.921875 37.59375 65.921875 
Q 27.828125 65.921875 22.671875 59.328125 
Q 17.53125 52.734375 16.796875 39.40625 
Q 19.671875 43.65625 24.015625 45.921875 
Q 28.375 48.1875 33.59375 48.1875 
Q 44.578125 48.1875 50.953125 41.515625 
Q 57.328125 34.859375 57.328125 23.390625 
Q 57.328125 12.15625 50.6875 5.359375 
Q 44.046875 -1.421875 33.015625 -1.421875 
Q 20.359375 -1.421875 13.671875 8.265625 
Q 6.984375 17.96875 6.984375 36.375 
Q 6.984375 53.65625 15.1875 63.9375 
Q 23.390625 74.21875 37.203125 74.21875 
Q 40.921875 74.21875 44.703125 73.484375 
Q 48.484375 72.75 52.59375 71.296875 
z
" id="DejaVuSans-54"/>
       </defs>
       <use xlink:href="#DejaVuSans-50"/>
       <use x="63.623047" xlink:href="#DejaVuSans-48"/>
       <use x="127.246094" xlink:href="#DejaVuSans-49"/>
       <use x="190.869141" xlink:href="#DejaVuSans-55"/>
       <use x="254.492188" xlink:href="#DejaVuSans-48"/>
       <use x="318.115234" xlink:href="#DejaVuSans-53"/>
       <use x="381.738281" xlink:href="#DejaVuSans-50"/>
       <use x="445.361328" xlink:href="#DejaVuSans-54"/>
      </g>
     </g>
    </g>
    <g id="xtick_3">
     <g id="line2d_5">
      <path clip-path="url(#pe8007f35f9)" d="M 179.049149 286.886956 
L 179.049149 26.88 
" style="fill:none;stroke:#b0b0b0;stroke-linecap:square;stroke-width:0.8;"/>
     </g>
     <g id="line2d_6">
      <g>
       <use style="stroke:#000000;stroke-width:0.8;" x="179.049149" xlink:href="#m05820b4c71" y="286.886956"/>
      </g>
     </g>
     <g id="text_3">
      <!-- 20171018 -->
      <g transform="translate(156.077734 318.435977)rotate(-20)scale(0.1 -0.1)">
       <defs>
        <path d="M 31.78125 34.625 
Q 24.75 34.625 20.71875 30.859375 
Q 16.703125 27.09375 16.703125 20.515625 
Q 16.703125 13.921875 20.71875 10.15625 
Q 24.75 6.390625 31.78125 6.390625 
Q 38.8125 6.390625 42.859375 10.171875 
Q 46.921875 13.96875 46.921875 20.515625 
Q 46.921875 27.09375 42.890625 30.859375 
Q 38.875 34.625 31.78125 34.625 
z
M 21.921875 38.8125 
Q 15.578125 40.375 12.03125 44.71875 
Q 8.5 49.078125 8.5 55.328125 
Q 8.5 64.0625 14.71875 69.140625 
Q 20.953125 74.21875 31.78125 74.21875 
Q 42.671875 74.21875 48.875 69.140625 
Q 55.078125 64.0625 55.078125 55.328125 
Q 55.078125 49.078125 51.53125 44.71875 
Q 48 40.375 41.703125 38.8125 
Q 48.828125 37.15625 52.796875 32.3125 
Q 56.78125 27.484375 56.78125 20.515625 
Q 56.78125 9.90625 50.3125 4.234375 
Q 43.84375 -1.421875 31.78125 -1.421875 
Q 19.734375 -1.421875 13.25 4.234375 
Q 6.78125 9.90625 6.78125 20.515625 
Q 6.78125 27.484375 10.78125 32.3125 
Q 14.796875 37.15625 21.921875 38.8125 
z
M 18.3125 54.390625 
Q 18.3125 48.734375 21.84375 45.5625 
Q 25.390625 42.390625 31.78125 42.390625 
Q 38.140625 42.390625 41.71875 45.5625 
Q 45.3125 48.734375 45.3125 54.390625 
Q 45.3125 60.0625 41.71875 63.234375 
Q 38.140625 66.40625 31.78125 66.40625 
Q 25.390625 66.40625 21.84375 63.234375 
Q 18.3125 60.0625 18.3125 54.390625 
z
" id="DejaVuSans-56"/>
       </defs>
       <use xlink:href="#DejaVuSans-50"/>
       <use x="63.623047" xlink:href="#DejaVuSans-48"/>
       <use x="127.246094" xlink:href="#DejaVuSans-49"/>
       <use x="190.869141" xlink:href="#DejaVuSans-55"/>
       <use x="254.492188" xlink:href="#DejaVuSans-49"/>
       <use x="318.115234" xlink:href="#DejaVuSans-48"/>
       <use x="381.738281" xlink:href="#DejaVuSans-49"/>
       <use x="445.361328" xlink:href="#DejaVuSans-56"/>
      </g>
     </g>
    </g>
    <g id="xtick_4">
     <g id="line2d_7">
      <path clip-path="url(#pe8007f35f9)" d="M 225.004178 286.886956 
L 225.004178 26.88 
" style="fill:none;stroke:#b0b0b0;stroke-linecap:square;stroke-width:0.8;"/>
     </g>
     <g id="line2d_8">
      <g>
       <use style="stroke:#000000;stroke-width:0.8;" x="225.004178" xlink:href="#m05820b4c71" y="286.886956"/>
      </g>
     </g>
     <g id="text_4">
      <!-- 20180314 -->
      <g transform="translate(202.032763 318.435977)rotate(-20)scale(0.1 -0.1)">
       <defs>
        <path d="M 37.796875 64.3125 
L 12.890625 25.390625 
L 37.796875 25.390625 
z
M 35.203125 72.90625 
L 47.609375 72.90625 
L 47.609375 25.390625 
L 58.015625 25.390625 
L 58.015625 17.1875 
L 47.609375 17.1875 
L 47.609375 0 
L 37.796875 0 
L 37.796875 17.1875 
L 4.890625 17.1875 
L 4.890625 26.703125 
z
" id="DejaVuSans-52"/>
       </defs>
       <use xlink:href="#DejaVuSans-50"/>
       <use x="63.623047" xlink:href="#DejaVuSans-48"/>
       <use x="127.246094" xlink:href="#DejaVuSans-49"/>
       <use x="190.869141" xlink:href="#DejaVuSans-56"/>
       <use x="254.492188" xlink:href="#DejaVuSans-48"/>
       <use x="318.115234" xlink:href="#DejaVuSans-51"/>
       <use x="381.738281" xlink:href="#DejaVuSans-49"/>
       <use x="445.361328" xlink:href="#DejaVuSans-52"/>
      </g>
     </g>
    </g>
    <g id="xtick_5">
     <g id="line2d_9">
      <path clip-path="url(#pe8007f35f9)" d="M 270.959207 286.886956 
L 270.959207 26.88 
" style="fill:none;stroke:#b0b0b0;stroke-linecap:square;stroke-width:0.8;"/>
     </g>
     <g id="line2d_10">
      <g>
       <use style="stroke:#000000;stroke-width:0.8;" x="270.959207" xlink:href="#m05820b4c71" y="286.886956"/>
      </g>
     </g>
     <g id="text_5">
      <!-- 20180806 -->
      <g transform="translate(247.987792 318.435977)rotate(-20)scale(0.1 -0.1)">
       <use xlink:href="#DejaVuSans-50"/>
       <use x="63.623047" xlink:href="#DejaVuSans-48"/>
       <use x="127.246094" xlink:href="#DejaVuSans-49"/>
       <use x="190.869141" xlink:href="#DejaVuSans-56"/>
       <use x="254.492188" xlink:href="#DejaVuSans-48"/>
       <use x="318.115234" xlink:href="#DejaVuSans-56"/>
       <use x="381.738281" xlink:href="#DejaVuSans-48"/>
       <use x="445.361328" xlink:href="#DejaVuSans-54"/>
      </g>
     </g>
    </g>
    <g id="xtick_6">
     <g id="line2d_11">
      <path clip-path="url(#pe8007f35f9)" d="M 316.914236 286.886956 
L 316.914236 26.88 
" style="fill:none;stroke:#b0b0b0;stroke-linecap:square;stroke-width:0.8;"/>
     </g>
     <g id="line2d_12">
      <g>
       <use style="stroke:#000000;stroke-width:0.8;" x="316.914236" xlink:href="#m05820b4c71" y="286.886956"/>
      </g>
     </g>
     <g id="text_6">
      <!-- 20181228 -->
      <g transform="translate(293.942821 318.435977)rotate(-20)scale(0.1 -0.1)">
       <use xlink:href="#DejaVuSans-50"/>
       <use x="63.623047" xlink:href="#DejaVuSans-48"/>
       <use x="127.246094" xlink:href="#DejaVuSans-49"/>
       <use x="190.869141" xlink:href="#DejaVuSans-56"/>
       <use x="254.492188" xlink:href="#DejaVuSans-49"/>
       <use x="318.115234" xlink:href="#DejaVuSans-50"/>
       <use x="381.738281" xlink:href="#DejaVuSans-50"/>
       <use x="445.361328" xlink:href="#DejaVuSans-56"/>
      </g>
     </g>
    </g>
    <g id="xtick_7">
     <g id="line2d_13">
      <path clip-path="url(#pe8007f35f9)" d="M 362.869265 286.886956 
L 362.869265 26.88 
" style="fill:none;stroke:#b0b0b0;stroke-linecap:square;stroke-width:0.8;"/>
     </g>
     <g id="line2d_14">
      <g>
       <use style="stroke:#000000;stroke-width:0.8;" x="362.869265" xlink:href="#m05820b4c71" y="286.886956"/>
      </g>
     </g>
     <g id="text_7">
      <!-- 20190523 -->
      <g transform="translate(339.89785 318.435977)rotate(-20)scale(0.1 -0.1)">
       <defs>
        <path d="M 10.984375 1.515625 
L 10.984375 10.5 
Q 14.703125 8.734375 18.5 7.8125 
Q 22.3125 6.890625 25.984375 6.890625 
Q 35.75 6.890625 40.890625 13.453125 
Q 46.046875 20.015625 46.78125 33.40625 
Q 43.953125 29.203125 39.59375 26.953125 
Q 35.25 24.703125 29.984375 24.703125 
Q 19.046875 24.703125 12.671875 31.3125 
Q 6.296875 37.9375 6.296875 49.421875 
Q 6.296875 60.640625 12.9375 67.421875 
Q 19.578125 74.21875 30.609375 74.21875 
Q 43.265625 74.21875 49.921875 64.515625 
Q 56.59375 54.828125 56.59375 36.375 
Q 56.59375 19.140625 48.40625 8.859375 
Q 40.234375 -1.421875 26.421875 -1.421875 
Q 22.703125 -1.421875 18.890625 -0.6875 
Q 15.09375 0.046875 10.984375 1.515625 
z
M 30.609375 32.421875 
Q 37.25 32.421875 41.125 36.953125 
Q 45.015625 41.5 45.015625 49.421875 
Q 45.015625 57.28125 41.125 61.84375 
Q 37.25 66.40625 30.609375 66.40625 
Q 23.96875 66.40625 20.09375 61.84375 
Q 16.21875 57.28125 16.21875 49.421875 
Q 16.21875 41.5 20.09375 36.953125 
Q 23.96875 32.421875 30.609375 32.421875 
z
" id="DejaVuSans-57"/>
       </defs>
       <use xlink:href="#DejaVuSans-50"/>
       <use x="63.623047" xlink:href="#DejaVuSans-48"/>
       <use x="127.246094" xlink:href="#DejaVuSans-49"/>
       <use x="190.869141" xlink:href="#DejaVuSans-57"/>
       <use x="254.492188" xlink:href="#DejaVuSans-48"/>
       <use x="318.115234" xlink:href="#DejaVuSans-53"/>
       <use x="381.738281" xlink:href="#DejaVuSans-50"/>
       <use x="445.361328" xlink:href="#DejaVuSans-51"/>
      </g>
     </g>
    </g>
    <g id="xtick_8">
     <g id="line2d_15">
      <path clip-path="url(#pe8007f35f9)" d="M 408.824294 286.886956 
L 408.824294 26.88 
" style="fill:none;stroke:#b0b0b0;stroke-linecap:square;stroke-width:0.8;"/>
     </g>
     <g id="line2d_16">
      <g>
       <use style="stroke:#000000;stroke-width:0.8;" x="408.824294" xlink:href="#m05820b4c71" y="286.886956"/>
      </g>
     </g>
     <g id="text_8">
      <!-- 20191015 -->
      <g transform="translate(385.852879 318.435977)rotate(-20)scale(0.1 -0.1)">
       <use xlink:href="#DejaVuSans-50"/>
       <use x="63.623047" xlink:href="#DejaVuSans-48"/>
       <use x="127.246094" xlink:href="#DejaVuSans-49"/>
       <use x="190.869141" xlink:href="#DejaVuSans-57"/>
       <use x="254.492188" xlink:href="#DejaVuSans-49"/>
       <use x="318.115234" xlink:href="#DejaVuSans-48"/>
       <use x="381.738281" xlink:href="#DejaVuSans-49"/>
       <use x="445.361328" xlink:href="#DejaVuSans-53"/>
      </g>
     </g>
    </g>
    <g id="text_9">
     <!-- Date -->
     <g transform="translate(247.979219 331.988681)scale(0.1 -0.1)">
      <defs>
       <path d="M 19.671875 64.796875 
L 19.671875 8.109375 
L 31.59375 8.109375 
Q 46.6875 8.109375 53.6875 14.9375 
Q 60.6875 21.78125 60.6875 36.53125 
Q 60.6875 51.171875 53.6875 57.984375 
Q 46.6875 64.796875 31.59375 64.796875 
z
M 9.8125 72.90625 
L 30.078125 72.90625 
Q 51.265625 72.90625 61.171875 64.09375 
Q 71.09375 55.28125 71.09375 36.53125 
Q 71.09375 17.671875 61.125 8.828125 
Q 51.171875 0 30.078125 0 
L 9.8125 0 
z
" id="DejaVuSans-68"/>
       <path d="M 34.28125 27.484375 
Q 23.390625 27.484375 19.1875 25 
Q 14.984375 22.515625 14.984375 16.5 
Q 14.984375 11.71875 18.140625 8.90625 
Q 21.296875 6.109375 26.703125 6.109375 
Q 34.1875 6.109375 38.703125 11.40625 
Q 43.21875 16.703125 43.21875 25.484375 
L 43.21875 27.484375 
z
M 52.203125 31.203125 
L 52.203125 0 
L 43.21875 0 
L 43.21875 8.296875 
Q 40.140625 3.328125 35.546875 0.953125 
Q 30.953125 -1.421875 24.3125 -1.421875 
Q 15.921875 -1.421875 10.953125 3.296875 
Q 6 8.015625 6 15.921875 
Q 6 25.140625 12.171875 29.828125 
Q 18.359375 34.515625 30.609375 34.515625 
L 43.21875 34.515625 
L 43.21875 35.40625 
Q 43.21875 41.609375 39.140625 45 
Q 35.0625 48.390625 27.6875 48.390625 
Q 23 48.390625 18.546875 47.265625 
Q 14.109375 46.140625 10.015625 43.890625 
L 10.015625 52.203125 
Q 14.9375 54.109375 19.578125 55.046875 
Q 24.21875 56 28.609375 56 
Q 40.484375 56 46.34375 49.84375 
Q 52.203125 43.703125 52.203125 31.203125 
z
" id="DejaVuSans-97"/>
       <path d="M 18.3125 70.21875 
L 18.3125 54.6875 
L 36.8125 54.6875 
L 36.8125 47.703125 
L 18.3125 47.703125 
L 18.3125 18.015625 
Q 18.3125 11.328125 20.140625 9.421875 
Q 21.96875 7.515625 27.59375 7.515625 
L 36.8125 7.515625 
L 36.8125 0 
L 27.59375 0 
Q 17.1875 0 13.234375 3.875 
Q 9.28125 7.765625 9.28125 18.015625 
L 9.28125 47.703125 
L 2.6875 47.703125 
L 2.6875 54.6875 
L 9.28125 54.6875 
L 9.28125 70.21875 
z
" id="DejaVuSans-116"/>
       <path d="M 56.203125 29.59375 
L 56.203125 25.203125 
L 14.890625 25.203125 
Q 15.484375 15.921875 20.484375 11.0625 
Q 25.484375 6.203125 34.421875 6.203125 
Q 39.59375 6.203125 44.453125 7.46875 
Q 49.3125 8.734375 54.109375 11.28125 
L 54.109375 2.78125 
Q 49.265625 0.734375 44.1875 -0.34375 
Q 39.109375 -1.421875 33.890625 -1.421875 
Q 20.796875 -1.421875 13.15625 6.1875 
Q 5.515625 13.8125 5.515625 26.8125 
Q 5.515625 40.234375 12.765625 48.109375 
Q 20.015625 56 32.328125 56 
Q 43.359375 56 49.78125 48.890625 
Q 56.203125 41.796875 56.203125 29.59375 
z
M 47.21875 32.234375 
Q 47.125 39.59375 43.09375 43.984375 
Q 39.0625 48.390625 32.421875 48.390625 
Q 24.90625 48.390625 20.390625 44.140625 
Q 15.875 39.890625 15.1875 32.171875 
z
" id="DejaVuSans-101"/>
      </defs>
      <use xlink:href="#DejaVuSans-68"/>
      <use x="77.001953" xlink:href="#DejaVuSans-97"/>
      <use x="138.28125" xlink:href="#DejaVuSans-116"/>
      <use x="177.490234" xlink:href="#DejaVuSans-101"/>
     </g>
    </g>
   </g>
   <g id="matplotlib.axis_2">
    <g id="ytick_1">
     <g id="line2d_17">
      <path clip-path="url(#pe8007f35f9)" d="M 69.86 277.438141 
L 450 277.438141 
" style="fill:none;stroke:#b0b0b0;stroke-linecap:square;stroke-width:0.8;"/>
     </g>
     <g id="line2d_18">
      <defs>
       <path d="M 0 0 
L -3.5 0 
" id="m4154a14b9f" style="stroke:#000000;stroke-width:0.8;"/>
      </defs>
      <g>
       <use style="stroke:#000000;stroke-width:0.8;" x="69.86" xlink:href="#m4154a14b9f" y="277.438141"/>
      </g>
     </g>
     <g id="text_10">
      <!-- 90000 -->
      <g transform="translate(31.0475 281.237359)scale(0.1 -0.1)">
       <use xlink:href="#DejaVuSans-57"/>
       <use x="63.623047" xlink:href="#DejaVuSans-48"/>
       <use x="127.246094" xlink:href="#DejaVuSans-48"/>
       <use x="190.869141" xlink:href="#DejaVuSans-48"/>
       <use x="254.492188" xlink:href="#DejaVuSans-48"/>
      </g>
     </g>
    </g>
    <g id="ytick_2">
     <g id="line2d_19">
      <path clip-path="url(#pe8007f35f9)" d="M 69.86 245.926223 
L 450 245.926223 
" style="fill:none;stroke:#b0b0b0;stroke-linecap:square;stroke-width:0.8;"/>
     </g>
     <g id="line2d_20">
      <g>
       <use style="stroke:#000000;stroke-width:0.8;" x="69.86" xlink:href="#m4154a14b9f" y="245.926223"/>
      </g>
     </g>
     <g id="text_11">
      <!-- 100000 -->
      <g transform="translate(24.685 249.725442)scale(0.1 -0.1)">
       <use xlink:href="#DejaVuSans-49"/>
       <use x="63.623047" xlink:href="#DejaVuSans-48"/>
       <use x="127.246094" xlink:href="#DejaVuSans-48"/>
       <use x="190.869141" xlink:href="#DejaVuSans-48"/>
       <use x="254.492188" xlink:href="#DejaVuSans-48"/>
       <use x="318.115234" xlink:href="#DejaVuSans-48"/>
      </g>
     </g>
    </g>
    <g id="ytick_3">
     <g id="line2d_21">
      <path clip-path="url(#pe8007f35f9)" d="M 69.86 214.414306 
L 450 214.414306 
" style="fill:none;stroke:#b0b0b0;stroke-linecap:square;stroke-width:0.8;"/>
     </g>
     <g id="line2d_22">
      <g>
       <use style="stroke:#000000;stroke-width:0.8;" x="69.86" xlink:href="#m4154a14b9f" y="214.414306"/>
      </g>
     </g>
     <g id="text_12">
      <!-- 110000 -->
      <g transform="translate(24.685 218.213525)scale(0.1 -0.1)">
       <use xlink:href="#DejaVuSans-49"/>
       <use x="63.623047" xlink:href="#DejaVuSans-49"/>
       <use x="127.246094" xlink:href="#DejaVuSans-48"/>
       <use x="190.869141" xlink:href="#DejaVuSans-48"/>
       <use x="254.492188" xlink:href="#DejaVuSans-48"/>
       <use x="318.115234" xlink:href="#DejaVuSans-48"/>
      </g>
     </g>
    </g>
    <g id="ytick_4">
     <g id="line2d_23">
      <path clip-path="url(#pe8007f35f9)" d="M 69.86 182.902389 
L 450 182.902389 
" style="fill:none;stroke:#b0b0b0;stroke-linecap:square;stroke-width:0.8;"/>
     </g>
     <g id="line2d_24">
      <g>
       <use style="stroke:#000000;stroke-width:0.8;" x="69.86" xlink:href="#m4154a14b9f" y="182.902389"/>
      </g>
     </g>
     <g id="text_13">
      <!-- 120000 -->
      <g transform="translate(24.685 186.701608)scale(0.1 -0.1)">
       <use xlink:href="#DejaVuSans-49"/>
       <use x="63.623047" xlink:href="#DejaVuSans-50"/>
       <use x="127.246094" xlink:href="#DejaVuSans-48"/>
       <use x="190.869141" xlink:href="#DejaVuSans-48"/>
       <use x="254.492188" xlink:href="#DejaVuSans-48"/>
       <use x="318.115234" xlink:href="#DejaVuSans-48"/>
      </g>
     </g>
    </g>
    <g id="ytick_5">
     <g id="line2d_25">
      <path clip-path="url(#pe8007f35f9)" d="M 69.86 151.390472 
L 450 151.390472 
" style="fill:none;stroke:#b0b0b0;stroke-linecap:square;stroke-width:0.8;"/>
     </g>
     <g id="line2d_26">
      <g>
       <use style="stroke:#000000;stroke-width:0.8;" x="69.86" xlink:href="#m4154a14b9f" y="151.390472"/>
      </g>
     </g>
     <g id="text_14">
      <!-- 130000 -->
      <g transform="translate(24.685 155.18969)scale(0.1 -0.1)">
       <use xlink:href="#DejaVuSans-49"/>
       <use x="63.623047" xlink:href="#DejaVuSans-51"/>
       <use x="127.246094" xlink:href="#DejaVuSans-48"/>
       <use x="190.869141" xlink:href="#DejaVuSans-48"/>
       <use x="254.492188" xlink:href="#DejaVuSans-48"/>
       <use x="318.115234" xlink:href="#DejaVuSans-48"/>
      </g>
     </g>
    </g>
    <g id="ytick_6">
     <g id="line2d_27">
      <path clip-path="url(#pe8007f35f9)" d="M 69.86 119.878554 
L 450 119.878554 
" style="fill:none;stroke:#b0b0b0;stroke-linecap:square;stroke-width:0.8;"/>
     </g>
     <g id="line2d_28">
      <g>
       <use style="stroke:#000000;stroke-width:0.8;" x="69.86" xlink:href="#m4154a14b9f" y="119.878554"/>
      </g>
     </g>
     <g id="text_15">
      <!-- 140000 -->
      <g transform="translate(24.685 123.677773)scale(0.1 -0.1)">
       <use xlink:href="#DejaVuSans-49"/>
       <use x="63.623047" xlink:href="#DejaVuSans-52"/>
       <use x="127.246094" xlink:href="#DejaVuSans-48"/>
       <use x="190.869141" xlink:href="#DejaVuSans-48"/>
       <use x="254.492188" xlink:href="#DejaVuSans-48"/>
       <use x="318.115234" xlink:href="#DejaVuSans-48"/>
      </g>
     </g>
    </g>
    <g id="ytick_7">
     <g id="line2d_29">
      <path clip-path="url(#pe8007f35f9)" d="M 69.86 88.366637 
L 450 88.366637 
" style="fill:none;stroke:#b0b0b0;stroke-linecap:square;stroke-width:0.8;"/>
     </g>
     <g id="line2d_30">
      <g>
       <use style="stroke:#000000;stroke-width:0.8;" x="69.86" xlink:href="#m4154a14b9f" y="88.366637"/>
      </g>
     </g>
     <g id="text_16">
      <!-- 150000 -->
      <g transform="translate(24.685 92.165856)scale(0.1 -0.1)">
       <use xlink:href="#DejaVuSans-49"/>
       <use x="63.623047" xlink:href="#DejaVuSans-53"/>
       <use x="127.246094" xlink:href="#DejaVuSans-48"/>
       <use x="190.869141" xlink:href="#DejaVuSans-48"/>
       <use x="254.492188" xlink:href="#DejaVuSans-48"/>
       <use x="318.115234" xlink:href="#DejaVuSans-48"/>
      </g>
     </g>
    </g>
    <g id="ytick_8">
     <g id="line2d_31">
      <path clip-path="url(#pe8007f35f9)" d="M 69.86 56.85472 
L 450 56.85472 
" style="fill:none;stroke:#b0b0b0;stroke-linecap:square;stroke-width:0.8;"/>
     </g>
     <g id="line2d_32">
      <g>
       <use style="stroke:#000000;stroke-width:0.8;" x="69.86" xlink:href="#m4154a14b9f" y="56.85472"/>
      </g>
     </g>
     <g id="text_17">
      <!-- 160000 -->
      <g transform="translate(24.685 60.653939)scale(0.1 -0.1)">
       <use xlink:href="#DejaVuSans-49"/>
       <use x="63.623047" xlink:href="#DejaVuSans-54"/>
       <use x="127.246094" xlink:href="#DejaVuSans-48"/>
       <use x="190.869141" xlink:href="#DejaVuSans-48"/>
       <use x="254.492188" xlink:href="#DejaVuSans-48"/>
       <use x="318.115234" xlink:href="#DejaVuSans-48"/>
      </g>
     </g>
    </g>
    <g id="text_18">
     <!-- Price -->
     <g transform="translate(18.605313 169.081134)rotate(-90)scale(0.1 -0.1)">
      <defs>
       <path d="M 19.671875 64.796875 
L 19.671875 37.40625 
L 32.078125 37.40625 
Q 38.96875 37.40625 42.71875 40.96875 
Q 46.484375 44.53125 46.484375 51.125 
Q 46.484375 57.671875 42.71875 61.234375 
Q 38.96875 64.796875 32.078125 64.796875 
z
M 9.8125 72.90625 
L 32.078125 72.90625 
Q 44.34375 72.90625 50.609375 67.359375 
Q 56.890625 61.8125 56.890625 51.125 
Q 56.890625 40.328125 50.609375 34.8125 
Q 44.34375 29.296875 32.078125 29.296875 
L 19.671875 29.296875 
L 19.671875 0 
L 9.8125 0 
z
" id="DejaVuSans-80"/>
       <path d="M 41.109375 46.296875 
Q 39.59375 47.171875 37.8125 47.578125 
Q 36.03125 48 33.890625 48 
Q 26.265625 48 22.1875 43.046875 
Q 18.109375 38.09375 18.109375 28.8125 
L 18.109375 0 
L 9.078125 0 
L 9.078125 54.6875 
L 18.109375 54.6875 
L 18.109375 46.1875 
Q 20.953125 51.171875 25.484375 53.578125 
Q 30.03125 56 36.53125 56 
Q 37.453125 56 38.578125 55.875 
Q 39.703125 55.765625 41.0625 55.515625 
z
" id="DejaVuSans-114"/>
       <path d="M 9.421875 54.6875 
L 18.40625 54.6875 
L 18.40625 0 
L 9.421875 0 
z
M 9.421875 75.984375 
L 18.40625 75.984375 
L 18.40625 64.59375 
L 9.421875 64.59375 
z
" id="DejaVuSans-105"/>
       <path d="M 48.78125 52.59375 
L 48.78125 44.1875 
Q 44.96875 46.296875 41.140625 47.34375 
Q 37.3125 48.390625 33.40625 48.390625 
Q 24.65625 48.390625 19.8125 42.84375 
Q 14.984375 37.3125 14.984375 27.296875 
Q 14.984375 17.28125 19.8125 11.734375 
Q 24.65625 6.203125 33.40625 6.203125 
Q 37.3125 6.203125 41.140625 7.25 
Q 44.96875 8.296875 48.78125 10.40625 
L 48.78125 2.09375 
Q 45.015625 0.34375 40.984375 -0.53125 
Q 36.96875 -1.421875 32.421875 -1.421875 
Q 20.0625 -1.421875 12.78125 6.34375 
Q 5.515625 14.109375 5.515625 27.296875 
Q 5.515625 40.671875 12.859375 48.328125 
Q 20.21875 56 33.015625 56 
Q 37.15625 56 41.109375 55.140625 
Q 45.0625 54.296875 48.78125 52.59375 
z
" id="DejaVuSans-99"/>
      </defs>
      <use xlink:href="#DejaVuSans-80"/>
      <use x="58.552734" xlink:href="#DejaVuSans-114"/>
      <use x="99.666016" xlink:href="#DejaVuSans-105"/>
      <use x="127.449219" xlink:href="#DejaVuSans-99"/>
      <use x="182.429688" xlink:href="#DejaVuSans-101"/>
     </g>
    </g>
   </g>
   <g id="line2d_33">
    <path clip-path="url(#pe8007f35f9)" d="M 87.139091 245.926223 
L 88.977292 245.973142 
L 89.436842 246.415563 
L 89.896393 244.959722 
L 90.355943 245.084492 
L 90.815493 245.383988 
L 91.275044 245.431314 
L 91.734594 244.836496 
L 92.194144 246.609523 
L 92.653694 245.16061 
L 93.113245 238.960763 
L 93.572795 237.016148 
L 94.032345 233.615011 
L 94.491896 234.175525 
L 94.951446 238.731972 
L 95.410996 246.815414 
L 95.870546 248.20333 
L 96.330097 250.090741 
L 96.789647 248.939225 
L 97.708748 247.658083 
L 98.168298 244.756439 
L 98.627848 245.347124 
L 100.9256 245.394222 
L 101.8447 241.933055 
L 102.763801 240.129345 
L 103.223351 240.264337 
L 103.682901 241.460562 
L 104.142452 240.763082 
L 104.602002 242.54054 
L 105.061552 238.108134 
L 105.521103 240.695587 
L 105.980653 240.984315 
L 106.440203 241.663049 
L 106.899753 240.208079 
L 107.359304 240.122639 
L 107.818854 240.170486 
L 108.737955 237.664284 
L 109.197505 237.169752 
L 109.657055 236.247572 
L 110.116605 235.648914 
L 110.576156 234.767654 
L 111.035706 236.426071 
L 111.495256 243.033664 
L 111.954807 243.160099 
L 112.414357 246.934268 
L 112.873907 248.611273 
L 113.333457 247.358172 
L 113.793008 246.569872 
L 114.252558 243.134068 
L 114.712108 243.279091 
L 115.171659 243.903781 
L 115.631209 240.575803 
L 117.00986 244.907755 
L 117.46941 246.023277 
L 117.92896 246.171999 
L 118.388511 246.848752 
L 118.848061 247.090393 
L 119.767162 247.137281 
L 120.226712 247.554 
L 120.686262 246.632836 
L 121.145812 245.327862 
L 121.605363 245.740922 
L 122.064913 238.437475 
L 122.524463 234.814979 
L 122.984014 234.705322 
L 123.443564 233.864588 
L 123.903114 221.772577 
L 124.362664 218.738614 
L 124.822215 217.177759 
L 125.281765 213.02525 
L 125.741315 210.73334 
L 126.200866 213.276822 
L 128.498617 213.328742 
L 128.958167 212.771382 
L 130.336818 212.823499 
L 130.796368 211.306506 
L 131.255919 207.863142 
L 131.715469 205.494461 
L 132.175019 203.86075 
L 134.472771 203.914004 
L 135.391871 198.313508 
L 135.851422 200.90001 
L 136.310972 200.121894 
L 137.689623 200.175994 
L 138.149173 196.917315 
L 138.608723 197.881046 
L 139.068274 200.787233 
L 139.527824 201.372219 
L 139.987374 195.147364 
L 140.446925 198.446469 
L 142.744676 198.500694 
L 143.204226 193.574379 
L 143.663777 202.416593 
L 144.123327 205.520333 
L 144.582877 209.417149 
L 145.042427 204.536588 
L 145.501978 206.279105 
L 146.421078 197.391138 
L 146.880629 196.426453 
L 147.340179 191.038787 
L 147.799729 191.564001 
L 150.097481 191.619341 
L 150.557031 191.005795 
L 151.016581 189.343678 
L 151.476132 200.23116 
L 151.935682 201.614419 
L 152.395232 206.373974 
L 152.854782 204.209859 
L 153.314333 208.980581 
L 153.773883 208.586431 
L 154.233433 209.11862 
L 156.071634 209.171283 
L 156.531185 210.699542 
L 156.990735 216.831191 
L 157.450285 214.414227 
L 157.909836 211.127168 
L 158.369386 211.443224 
L 158.828936 209.141529 
L 159.288486 216.231915 
L 160.207587 216.283277 
L 160.667137 209.021219 
L 161.126688 208.210609 
L 162.045788 212.70245 
L 162.505338 213.583711 
L 162.964889 211.672354 
L 163.424439 211.72454 
L 163.883989 207.444061 
L 164.34354 208.642302 
L 164.80309 212.517231 
L 165.26264 212.318125 
L 165.722191 209.416541 
L 166.181741 212.543042 
L 166.641291 211.849904 
L 167.560392 209.213766 
L 168.019942 213.014953 
L 168.939043 216.841951 
L 169.398593 214.220575 
L 169.858143 210.282974 
L 170.317693 210.279284 
L 170.777244 211.860953 
L 171.236794 215.171777 
L 171.696344 214.010419 
L 172.155895 205.725956 
L 172.615445 203.915701 
L 173.074995 200.630688 
L 173.534545 202.934997 
L 173.994096 201.235321 
L 174.453646 203.189371 
L 174.913196 196.401808 
L 175.372747 194.257191 
L 175.832297 194.312069 
L 176.291847 195.974862 
L 176.751397 189.393742 
L 177.210948 189.393742 
L 177.670498 188.575262 
L 178.589599 187.421263 
L 179.049149 187.769221 
L 180.4278 187.825122 
L 181.3469 185.586499 
L 181.806451 185.60164 
L 182.266001 169.625074 
L 182.725551 169.829286 
L 183.185102 169.863306 
L 183.644652 166.248283 
L 184.104202 166.108372 
L 184.563752 164.505974 
L 186.861504 164.565199 
L 187.321054 165.680749 
L 187.780604 165.514342 
L 188.240155 167.492023 
L 188.699705 163.982292 
L 189.618806 164.041468 
L 190.078356 158.078021 
L 190.537906 157.460327 
L 190.997456 155.706383 
L 191.457007 149.800139 
L 191.916557 153.125013 
L 192.376107 163.004359 
L 192.835658 163.46571 
L 193.754758 172.731178 
L 194.214309 169.783781 
L 195.133409 160.262876 
L 195.592959 158.428829 
L 196.05251 157.44129 
L 196.51206 158.661413 
L 196.97161 157.662424 
L 197.431161 155.344172 
L 198.350261 144.812828 
L 198.809811 146.837476 
L 199.269362 150.293871 
L 201.567113 150.355264 
L 202.026663 151.343607 
L 202.945764 136.568427 
L 203.405314 134.925021 
L 203.864865 129.293231 
L 204.324415 127.773883 
L 204.783965 128.32424 
L 205.243515 129.35138 
L 205.703066 128.611058 
L 206.162616 122.563096 
L 206.622166 122.628835 
L 207.081717 119.373014 
L 207.541267 120.586193 
L 208.000817 117.66758 
L 208.460368 109.659821 
L 208.919918 106.212863 
L 210.758119 106.280722 
L 211.217669 109.754307 
L 211.67722 107.905039 
L 212.13677 108.145257 
L 213.05587 153.595507 
L 213.515421 145.191768 
L 213.974971 156.256933 
L 214.434521 174.444671 
L 214.894072 160.799149 
L 215.813172 160.858942 
L 216.272722 154.915562 
L 217.191823 154.976147 
L 217.651373 153.071699 
L 218.570474 153.132555 
L 219.030024 147.57619 
L 219.949125 147.637992 
L 220.408675 153.727029 
L 220.868225 153.787801 
L 221.327776 148.974048 
L 221.787326 146.055207 
L 222.246876 146.117131 
L 223.165977 136.559668 
L 224.085077 136.623046 
L 224.544628 146.052364 
L 225.004178 143.901444 
L 226.842379 143.9636 
L 227.301929 144.644275 
L 227.76148 160.091408 
L 228.22103 170.150003 
L 228.68058 159.735976 
L 229.140131 177.565405 
L 229.599681 178.23094 
L 230.059231 166.145481 
L 230.518781 175.41377 
L 230.978332 173.126009 
L 231.437882 168.955104 
L 231.897432 167.847125 
L 232.356983 176.427191 
L 232.816533 172.592815 
L 233.276083 166.387498 
L 233.735633 170.713432 
L 234.195184 166.088751 
L 234.654734 166.561429 
L 235.114284 162.757335 
L 235.573835 150.180295 
L 236.033385 151.681511 
L 236.492935 146.364845 
L 236.952485 150.951721 
L 237.412036 152.278961 
L 237.871586 171.628555 
L 238.331136 171.496214 
L 238.790687 163.812322 
L 239.709787 173.163815 
L 240.169338 164.780391 
L 240.628888 170.339074 
L 241.088438 170.244539 
L 241.547988 160.904425 
L 242.007539 157.70535 
L 242.467089 158.034332 
L 242.926639 146.553916 
L 243.38619 140.306986 
L 243.84574 141.097292 
L 244.30529 139.879683 
L 244.76484 148.096723 
L 245.224391 148.391686 
L 245.683941 149.461814 
L 246.143491 153.855834 
L 246.603042 148.42192 
L 247.062592 151.711746 
L 247.522142 147.68456 
L 247.981692 147.877417 
L 248.441243 149.481804 
L 248.900793 149.543397 
L 249.360343 145.9296 
L 249.819894 137.268035 
L 250.279444 123.812446 
L 250.738994 116.877036 
L 251.198544 117.653623 
L 251.658095 119.218342 
L 252.117645 124.035407 
L 252.577195 124.692841 
L 253.496296 118.741634 
L 253.955846 120.264022 
L 254.415397 114.159028 
L 254.874947 114.481949 
L 255.334497 105.136106 
L 255.794047 107.016049 
L 256.253598 104.947731 
L 256.713148 110.572169 
L 257.172698 110.629798 
L 257.632249 122.167008 
L 258.091799 124.727428 
L 258.551349 130.755552 
L 259.010899 126.972576 
L 259.47045 126.046096 
L 259.93 121.079045 
L 260.38955 131.009252 
L 260.849101 121.394269 
L 261.768201 111.402537 
L 262.227751 111.456365 
L 262.687302 109.795582 
L 263.146852 98.339091 
L 263.606402 97.12423 
L 264.065953 100.165206 
L 264.525503 93.794967 
L 264.985053 93.860292 
L 265.444603 99.169506 
L 265.904154 99.638518 
L 266.363704 94.594596 
L 266.823254 76.467987 
L 267.282805 69.628735 
L 267.742355 65.953415 
L 268.201905 79.766593 
L 270.499657 79.838579 
L 270.959207 81.299747 
L 273.716509 81.37111 
L 274.176059 91.172593 
L 275.09516 97.362793 
L 275.55471 95.05613 
L 276.01426 96.772867 
L 276.47381 95.13174 
L 276.933361 95.354831 
L 277.392911 89.459595 
L 277.852461 82.078236 
L 278.312012 86.014717 
L 278.771562 78.909395 
L 279.231112 82.770267 
L 280.150213 99.07953 
L 281.528864 111.830548 
L 281.988414 112.787215 
L 282.447964 107.141565 
L 282.907515 114.095621 
L 283.367065 110.109979 
L 283.826615 111.683066 
L 284.286165 118.546371 
L 285.205266 113.085962 
L 285.664816 106.544116 
L 286.124367 113.898979 
L 286.583917 111.085571 
L 287.043467 105.666798 
L 287.503017 105.602497 
L 287.962568 101.783093 
L 288.422118 101.85156 
L 288.881668 101.303225 
L 289.341219 101.639778 
L 289.800769 100.168796 
L 290.260319 113.199636 
L 290.719869 116.693673 
L 291.63897 125.262361 
L 292.09852 145.307725 
L 292.558071 145.844705 
L 293.017621 134.576025 
L 293.477171 141.42045 
L 293.936721 129.834143 
L 294.396272 131.910144 
L 294.855822 143.133403 
L 295.774923 138.043613 
L 296.234473 136.704972 
L 296.694023 158.557871 
L 297.153574 140.985577 
L 297.613124 148.487921 
L 298.072674 167.024498 
L 298.532224 161.435534 
L 298.991775 145.905221 
L 299.451325 147.644669 
L 300.370426 159.083495 
L 300.829976 153.850009 
L 301.289526 139.227202 
L 301.749076 144.373723 
L 302.208627 151.032816 
L 302.668177 161.492264 
L 303.127727 162.017889 
L 303.587278 159.518369 
L 304.046828 153.290319 
L 304.506378 154.341567 
L 304.965928 169.7887 
L 305.425479 168.642962 
L 305.885029 163.734627 
L 306.344579 168.775302 
L 306.80413 159.0041 
L 307.26368 160.38807 
L 307.72323 145.447636 
L 308.18278 144.392649 
L 308.642331 138.694008 
L 309.101881 136.156683 
L 309.561431 156.534815 
L 310.020982 150.632008 
L 310.480532 162.543513 
L 310.940082 160.047732 
L 311.399632 156.844872 
L 311.859183 152.276921 
L 312.318733 152.348746 
L 313.237834 170.45802 
L 313.697384 163.742197 
L 314.156934 166.748461 
L 314.616485 171.240779 
L 315.076035 183.466149 
L 315.535585 185.954336 
L 315.995135 162.063264 
L 316.454686 160.153623 
L 316.914236 162.505662 
L 317.373786 163.156103 
L 317.833337 159.480518 
L 318.292887 170.526106 
L 318.752437 150.635793 
L 319.211987 151.448764 
L 319.671538 147.875331 
L 320.590638 150.348401 
L 321.509739 161.732944 
L 322.428839 161.792682 
L 322.88839 158.279865 
L 323.34794 156.362358 
L 324.267041 156.422842 
L 324.726591 156.57531 
L 325.186141 150.064377 
L 325.645691 159.178805 
L 326.564792 159.239009 
L 327.024342 150.131106 
L 327.483893 150.192441 
L 327.943443 141.858151 
L 328.402993 138.038294 
L 328.862544 148.631585 
L 329.322094 154.838418 
L 329.781644 156.128778 
L 330.241194 156.223822 
L 330.700745 146.917232 
L 331.160295 147.626677 
L 332.079396 147.688596 
L 332.538946 145.152011 
L 332.998496 148.429515 
L 334.836697 148.491036 
L 335.755798 147.92274 
L 336.674898 147.984348 
L 337.134449 142.368929 
L 337.593999 143.882289 
L 338.053549 148.89951 
L 338.5131 149.212866 
L 338.97265 138.783132 
L 339.4322 132.377172 
L 339.89175 131.732638 
L 340.351301 134.057882 
L 341.270401 135.475092 
L 341.729952 130.521985 
L 342.189502 121.986603 
L 342.649052 118.532599 
L 343.108603 128.673883 
L 343.568153 132.33088 
L 344.027703 135.015772 
L 344.487253 139.228238 
L 344.946804 141.27216 
L 345.406354 139.627051 
L 345.865904 131.761153 
L 347.244555 124.47211 
L 347.704105 128.463941 
L 355.51646 128.528275 
L 355.976011 131.017567 
L 356.435561 122.595552 
L 356.895111 121.16633 
L 357.354662 126.503179 
L 357.814212 129.456712 
L 358.273762 130.483896 
L 358.733312 130.604507 
L 359.192863 141.954488 
L 359.652413 146.242244 
L 360.111963 129.449394 
L 360.571514 124.441538 
L 361.031064 130.187788 
L 361.490614 139.004569 
L 361.950164 135.429639 
L 362.409715 136.033862 
L 363.328815 136.097369 
L 363.788366 136.86699 
L 364.707466 136.930598 
L 365.167016 142.568724 
L 365.626567 168.191698 
L 366.086117 162.235945 
L 366.545667 165.960645 
L 367.005218 164.78084 
L 367.464768 156.987318 
L 367.924318 151.545835 
L 368.843419 152.929851 
L 369.302969 148.426155 
L 369.762519 150.207194 
L 370.22207 147.337101 
L 370.68162 143.045188 
L 371.14117 143.321225 
L 371.600721 140.035184 
L 372.060271 135.433167 
L 372.519821 138.711683 
L 372.979371 149.723206 
L 373.438922 152.468528 
L 373.898472 153.863853 
L 374.358022 151.530694 
L 374.817573 145.026653 
L 375.736673 136.333149 
L 376.196223 132.672705 
L 376.655774 138.677617 
L 377.115324 135.841545 
L 377.574874 129.55681 
L 378.034425 128.358126 
L 378.493975 127.881662 
L 378.953525 125.926646 
L 379.413075 124.811143 
L 379.872626 127.352253 
L 380.332176 127.163181 
L 380.791726 133.096223 
L 381.710827 126.856863 
L 382.170377 130.003039 
L 382.629927 131.436216 
L 383.089478 90.112737 
L 383.549028 91.390862 
L 384.008578 96.624348 
L 384.468129 100.330168 
L 384.927679 102.757817 
L 385.387229 109.802746 
L 385.846779 109.869883 
L 386.30633 103.540448 
L 386.76588 101.668326 
L 387.22543 89.931937 
L 388.144531 102.21485 
L 388.604081 94.827784 
L 389.523182 94.897426 
L 389.982732 90.970594 
L 390.442282 82.541227 
L 390.901833 89.25531 
L 391.361383 87.312846 
L 392.740034 87.383705 
L 393.199584 87.528956 
L 393.659134 86.347111 
L 394.118685 78.082421 
L 394.578235 79.578844 
L 395.037785 88.041172 
L 395.497336 82.91054 
L 395.956886 70.842263 
L 396.416436 73.20994 
L 396.875986 73.633431 
L 397.335537 73.460017 
L 398.254637 61.65388 
L 398.714188 59.612893 
L 399.173738 63.001064 
L 399.633288 63.706931 
L 400.092838 62.589637 
L 400.552389 60.129196 
L 401.011939 63.723081 
L 401.471489 61.766831 
L 401.93104 68.365672 
L 402.39059 57.229115 
L 402.85014 58.701312 
L 403.309691 65.292128 
L 403.769241 67.232228 
L 404.228791 73.338992 
L 404.688341 84.665113 
L 405.147892 80.022522 
L 405.607442 71.338379 
L 406.066992 72.431448 
L 406.526543 79.740194 
L 406.986093 74.791051 
L 407.445643 73.232153 
L 408.364744 73.305256 
L 408.824294 64.829778 
L 409.283844 64.903808 
L 409.743395 61.012697 
L 410.202945 64.343954 
L 410.662495 64.395573 
L 411.122045 65.618518 
L 411.581596 59.094963 
L 412.041146 58.507336 
L 412.500696 56.446621 
L 412.960247 46.64745 
L 413.419797 57.891889 
L 413.879347 57.87604 
L 414.338897 58.630397 
L 414.798448 53.290091 
L 415.257998 46.397306 
L 415.717548 45.670722 
L 416.177099 45.841426 
L 416.636649 39.516445 
L 417.096199 38.698498 
L 417.55575 42.954864 
L 418.47485 43.78866 
L 418.9344 40.016396 
L 419.393951 40.093927 
L 419.853501 45.404029 
L 420.313051 48.214104 
L 420.772602 53.710189 
L 422.610803 53.785905 
L 423.070353 54.120371 
L 423.529903 57.211327 
L 423.989454 64.379488 
L 424.908554 64.453676 
L 425.368104 61.446235 
L 425.827655 56.785066 
L 426.287205 55.435105 
L 426.746755 55.472595 
L 427.206306 54.962612 
L 427.665856 53.37265 
L 428.125406 53.980135 
L 428.584956 48.794015 
L 429.044507 50.972693 
L 429.504057 52.090161 
L 429.963607 50.391483 
L 430.423158 52.34893 
L 430.882708 52.570162 
L 431.342258 54.895093 
L 431.801809 48.130272 
L 432.261359 51.066441 
L 432.720909 57.996397 
L 432.720909 57.996397 
" style="fill:none;stroke:#ff0000;stroke-linecap:square;stroke-width:1.5;"/>
   </g>
   <g id="line2d_34">
    <path clip-path="url(#pe8007f35f9)" d="M 87.139091 245.926223 
L 91.275044 245.973158 
L 91.734594 245.383256 
L 92.194144 247.14163 
L 92.653694 245.704691 
L 93.113245 239.556082 
L 93.572795 237.627539 
L 94.032345 234.25451 
L 94.491896 234.810392 
L 94.951446 239.329183 
L 95.410996 248.171362 
L 100.006499 248.218156 
L 100.466049 247.820283 
L 100.9256 248.82798 
L 101.8447 245.395898 
L 102.763801 243.607346 
L 103.223351 243.741203 
L 103.682901 244.927375 
L 104.142452 244.235757 
L 104.602002 245.998278 
L 105.061552 241.603119 
L 105.521103 244.168829 
L 105.980653 244.45513 
L 106.440203 245.128161 
L 106.899753 243.685418 
L 107.359304 242.759538 
L 108.278404 239.870352 
L 108.737955 238.691601 
L 109.197505 238.197069 
L 109.657055 237.274889 
L 110.116605 236.676231 
L 110.576156 235.79497 
L 111.035706 237.453388 
L 111.495256 244.06098 
L 111.954807 244.187416 
L 112.414357 248.788957 
L 117.00986 248.835694 
L 117.46941 249.941762 
L 117.92896 250.089225 
L 118.388511 250.760242 
L 118.848061 250.177706 
L 119.307611 250.64964 
L 119.767162 245.137728 
L 120.226712 245.55804 
L 120.686262 244.628935 
L 121.145812 243.312711 
L 121.605363 243.729332 
L 122.064913 236.362924 
L 122.524463 232.709199 
L 122.984014 232.598597 
L 123.443564 231.750616 
L 123.903114 219.554363 
L 124.362664 217.405636 
L 129.417718 217.457158 
L 129.877268 225.447699 
L 130.336818 222.481508 
L 130.796368 221.003747 
L 131.255919 217.649436 
L 132.175019 212.828057 
L 132.63457 207.753851 
L 133.09412 208.189033 
L 134.472771 208.24182 
L 135.391871 202.690451 
L 135.851422 206.194756 
L 142.285126 206.247597 
L 142.744676 214.944887 
L 143.204226 210.262852 
L 143.663777 218.666609 
L 144.123327 221.616444 
L 144.582877 225.320029 
L 145.042427 221.576753 
L 148.259279 221.627547 
L 148.71883 221.95683 
L 149.17838 218.147357 
L 149.63793 216.129962 
L 150.097481 216.331014 
L 150.557031 215.759064 
L 151.016581 214.209633 
L 151.476132 224.358981 
L 151.935682 225.648459 
L 152.395232 230.960282 
L 156.531185 231.009606 
L 156.990735 236.777512 
L 157.450285 234.503927 
L 157.909836 231.411864 
L 158.369386 231.70917 
L 158.828936 229.544017 
L 159.288486 235.353917 
L 159.748037 235.871588 
L 160.207587 237.728931 
L 160.667137 230.897673 
L 161.126688 230.13515 
L 162.045788 234.360526 
L 162.505338 235.189508 
L 163.424439 229.767883 
L 163.883989 225.706916 
L 164.34354 226.843708 
L 164.80309 230.519923 
L 165.26264 230.331027 
L 165.722191 227.578242 
L 166.181741 230.544411 
L 166.641291 229.886818 
L 167.560392 227.385866 
L 168.019942 230.992121 
L 168.939043 234.622863 
L 169.398593 232.135916 
L 169.858143 228.400244 
L 170.317693 228.396742 
L 170.777244 230.77163 
L 176.291847 230.821123 
L 176.751397 224.858741 
L 177.210948 224.858741 
L 177.670498 224.117212 
L 179.049149 222.490506 
L 179.508699 226.13138 
L 179.96825 225.052482 
L 180.4278 231.576026 
L 181.3469 229.598575 
L 181.806451 229.611949 
L 182.266001 215.499317 
L 182.725551 216.594199 
L 186.861504 216.645528 
L 187.321054 217.612338 
L 187.780604 217.468119 
L 188.240155 219.182108 
L 188.699705 215.229778 
L 189.159255 219.352531 
L 189.618806 219.755625 
L 190.078356 214.630018 
L 190.537906 214.099107 
L 190.997456 212.591585 
L 191.457007 207.515144 
L 191.916557 210.372887 
L 192.376107 218.864226 
L 192.835658 219.260759 
L 193.754758 227.224467 
L 194.214309 225.576657 
L 198.350261 225.626922 
L 198.809811 227.266719 
L 199.269362 230.066114 
L 202.026663 230.115408 
L 202.945764 218.22319 
L 203.405314 216.900449 
L 203.864865 212.367545 
L 204.324415 211.144655 
L 204.783965 211.587625 
L 205.243515 212.414348 
L 205.703066 211.818478 
L 206.162616 206.015881 
L 206.622166 206.935073 
L 207.081717 206.987839 
L 207.541267 207.954437 
L 208.000817 205.629037 
L 208.460368 199.248872 
L 208.919918 196.502515 
L 219.489574 196.557116 
L 219.949125 204.892598 
L 220.408675 209.217881 
L 220.868225 219.564854 
L 221.787326 212.133249 
L 222.246876 210.179064 
L 223.165977 202.067268 
L 225.004178 202.121031 
L 225.463728 201.584455 
L 225.923279 206.635198 
L 226.382829 217.351329 
L 226.842379 219.589314 
L 234.654734 219.640245 
L 235.114284 216.343363 
L 235.573835 205.443261 
L 236.033385 206.744316 
L 236.492935 202.136538 
L 236.952485 206.111831 
L 237.412036 207.262105 
L 237.871586 224.031754 
L 238.331136 223.917058 
L 238.790687 218.163767 
L 242.467089 218.214805 
L 242.926639 208.456451 
L 243.38619 203.146561 
L 243.84574 203.818321 
L 244.30529 202.783353 
L 244.76484 209.767837 
L 245.224391 210.018556 
L 245.683941 210.928164 
L 246.143491 214.663081 
L 246.603042 210.044255 
L 247.062592 212.840607 
L 247.522142 209.417499 
L 247.981692 209.581427 
L 248.441243 210.021773 
L 248.900793 215.167735 
L 249.360343 212.146365 
L 249.819894 204.904728 
L 250.279444 193.654973 
L 250.738994 187.856516 
L 251.198544 188.505794 
L 251.658095 190.790936 
L 254.415397 190.84632 
L 254.874947 191.113656 
L 255.334497 183.376524 
L 255.794047 184.93287 
L 256.253598 183.220574 
L 256.713148 187.876871 
L 257.172698 187.924581 
L 257.632249 198.436765 
L 260.849101 198.490711 
L 261.768201 190.300767 
L 262.227751 190.344888 
L 262.687302 188.983591 
L 263.146852 179.593024 
L 263.606402 178.597236 
L 264.065953 181.08984 
L 264.525503 175.868332 
L 264.985053 175.921878 
L 265.444603 180.273692 
L 265.904154 180.658128 
L 266.363704 177.535031 
L 271.878308 177.592266 
L 272.337858 176.645395 
L 272.797408 180.260427 
L 273.256958 181.431157 
L 273.716509 178.55727 
L 274.176059 186.398456 
L 275.09516 191.350616 
L 275.55471 189.505285 
L 276.01426 190.878676 
L 276.47381 189.565773 
L 276.933361 189.744246 
L 277.392911 185.028057 
L 277.852461 179.12297 
L 278.312012 182.272155 
L 278.771562 176.587898 
L 279.231112 179.676595 
L 280.150213 192.724006 
L 281.528864 203.86885 
L 285.205266 203.922135 
L 285.664816 198.688658 
L 286.124367 204.572549 
L 286.583917 202.321822 
L 287.043467 198.943902 
L 290.719869 198.997999 
L 291.63897 205.99576 
L 292.09852 222.366141 
L 292.558071 223.697297 
L 297.153574 223.747375 
L 297.613124 229.749251 
L 298.072674 245.408018 
L 303.127727 245.455076 
L 303.587278 243.47629 
L 304.046828 238.54575 
L 304.506378 239.377988 
L 304.965928 251.606968 
L 305.425479 250.699925 
L 305.885029 246.81416 
L 306.344579 250.804695 
L 306.80413 243.06916 
L 307.26368 244.164803 
L 307.72323 232.33696 
L 308.18278 231.501761 
L 308.642331 226.990337 
L 309.101881 224.981621 
L 309.561431 241.114309 
L 310.020982 236.441254 
L 310.480532 245.871195 
L 310.940082 244.73087 
L 313.237834 244.777896 
L 313.697384 239.349272 
L 314.156934 241.779336 
L 314.616485 245.410626 
L 315.076035 255.2928 
L 315.535585 258.101681 
L 319.671538 258.146828 
L 320.590638 259.960412 
L 321.509739 267.536367 
L 321.969289 257.830696 
L 322.428839 256.998781 
L 323.34794 252.065517 
L 323.80749 260.01586 
L 324.267041 258.413029 
L 324.726591 258.526734 
L 325.186141 253.671123 
L 325.645691 259.67478 
L 326.105242 262.392348 
L 327.024342 246.910429 
L 327.483893 248.926441 
L 327.943443 242.603876 
L 328.402993 239.706054 
L 328.862544 247.742343 
L 329.322094 252.450975 
L 329.781644 254.239962 
L 332.538946 254.285755 
L 332.998496 255.890101 
L 333.458046 260.329123 
L 333.917597 256.982216 
L 334.377147 256.773572 
L 334.836697 255.505266 
L 335.296248 255.266782 
L 335.755798 254.274904 
L 336.215348 248.320987 
L 336.674898 246.993069 
L 337.134449 242.719387 
L 337.593999 243.871148 
L 338.053549 247.689563 
L 338.5131 247.928047 
L 338.97265 239.990374 
L 339.4322 235.115041 
L 339.89175 234.624511 
L 340.351301 236.394165 
L 341.270401 237.47275 
L 341.729952 233.703129 
L 342.189502 227.207174 
L 342.649052 224.578463 
L 343.108603 232.296609 
L 343.568153 235.07981 
L 344.027703 237.123179 
L 344.487253 240.329127 
L 344.946804 241.884678 
L 345.406354 240.632648 
L 345.865904 234.646212 
L 347.244555 229.098799 
L 347.704105 231.266819 
L 348.163656 232.125876 
L 348.623206 233.640804 
L 349.542307 231.77088 
L 350.001857 228.209903 
L 350.461407 227.180081 
L 350.920957 225.722086 
L 351.380508 223.491741 
L 351.840058 223.131319 
L 352.299608 219.800688 
L 352.759159 215.239728 
L 353.218709 218.096072 
L 353.678259 216.120486 
L 354.137809 213.38876 
L 354.59736 208.299358 
L 355.05691 234.651638 
L 355.51646 242.442773 
L 360.111963 242.490366 
L 360.571514 238.777646 
L 361.031064 243.037797 
L 361.490614 249.574375 
L 361.950164 246.923996 
L 362.409715 247.371955 
L 363.328815 247.418778 
L 363.788366 247.158312 
L 364.247916 252.537239 
L 364.707466 252.134208 
L 365.167016 256.221849 
L 365.626567 274.798505 
L 366.086117 270.480584 
L 366.545667 273.180991 
L 367.005218 272.325633 
L 367.464768 267.451508 
L 370.68162 267.495392 
L 371.14117 267.688618 
L 371.600721 265.388389 
L 372.060271 262.166977 
L 372.519821 264.461939 
L 372.979371 272.170005 
L 373.438922 274.09173 
L 373.898472 275.068458 
L 374.358022 273.435247 
L 374.817573 269.654019 
L 375.277123 269.697668 
L 376.196223 264.448364 
L 376.655774 268.601762 
L 377.115324 266.640145 
L 377.574874 262.293203 
L 378.034425 261.464114 
L 378.493975 261.13456 
L 378.953525 259.78234 
L 379.413075 259.010784 
L 379.872626 260.768385 
L 380.332176 260.63761 
L 380.791726 264.741297 
L 381.710827 260.42574 
L 382.170377 262.601845 
L 382.629927 263.593126 
L 383.089478 235.011053 
L 383.549028 235.895089 
L 384.008578 240.36605 
L 388.604081 240.414132 
L 389.063632 249.113937 
L 389.523182 247.755945 
L 389.982732 245.106892 
L 390.442282 239.420414 
L 390.901833 243.949756 
L 391.361383 241.793573 
L 391.820933 241.809627 
L 392.280484 251.971922 
L 392.740034 247.257713 
L 393.199584 247.354168 
L 393.659134 246.569349 
L 394.118685 241.081079 
L 394.578235 242.074797 
L 395.037785 247.694312 
L 395.497336 244.287251 
L 395.956886 236.273161 
L 396.416436 237.845447 
L 396.875986 238.126671 
L 397.335537 238.011514 
L 398.254637 230.171501 
L 398.714188 228.816158 
L 399.173738 231.066115 
L 399.633288 231.534855 
L 400.092838 230.792901 
L 400.552389 229.159015 
L 401.011939 232.418527 
L 401.471489 232.46755 
L 401.93104 236.79804 
L 402.39059 229.489674 
L 402.85014 230.455804 
L 403.309691 234.781027 
L 403.769241 236.054217 
L 404.228791 240.061781 
L 404.688341 248.320806 
L 405.607442 248.36717 
L 406.066992 249.876143 
L 406.526543 249.922272 
L 406.986093 246.751727 
L 407.905193 243.31247 
L 408.364744 242.780155 
L 408.824294 236.45717 
L 409.283844 236.260786 
L 409.743395 233.728475 
L 410.202945 235.896436 
L 410.662495 235.930029 
L 411.122045 236.725914 
L 411.581596 232.480426 
L 412.041146 232.098002 
L 412.500696 230.756902 
L 412.960247 224.379663 
L 413.419797 231.697473 
L 413.879347 232.550428 
L 418.9344 232.599314 
L 419.393951 226.527562 
L 419.853501 229.938115 
L 420.313051 231.74296 
L 420.772602 235.272966 
L 421.232152 235.321515 
L 421.691702 236.932176 
L 422.151252 233.952322 
L 422.610803 232.120097 
L 423.070353 232.336677 
L 423.529903 234.338198 
L 423.989454 238.129612 
L 424.449004 236.66582 
L 424.908554 230.641383 
L 425.368104 228.644847 
L 425.827655 225.550457 
L 426.287205 224.654265 
L 426.746755 224.679153 
L 427.206306 224.340592 
L 427.665856 223.285072 
L 428.125406 224.576893 
L 429.504057 224.626736 
L 429.963607 224.396836 
L 430.882708 224.594161 
L 431.342258 227.024526 
L 432.720909 227.024526 
L 432.720909 227.024526 
" style="fill:none;stroke:#008000;stroke-linecap:square;stroke-width:1.5;"/>
   </g>
   <g id="line2d_35">
    <path clip-path="url(#pe8007f35f9)" d="M 87.139091 245.926223 
L 432.720909 245.926223 
L 432.720909 245.926223 
" style="fill:none;stroke:#0000ff;stroke-linecap:square;stroke-width:1.5;"/>
   </g>
   <g id="line2d_36">
    <path clip-path="url(#pe8007f35f9)" d="M 87.139091 245.926223 
L 127.579516 245.973162 
L 128.039067 245.629056 
L 128.498617 245.874849 
L 128.958167 244.537749 
L 129.417718 242.771313 
L 129.877268 250.125439 
L 130.336818 247.395493 
L 130.796368 246.03543 
L 131.255919 242.948276 
L 132.175019 238.510901 
L 132.63457 233.840835 
L 133.09412 233.378733 
L 133.55367 232.428346 
L 134.013221 235.404065 
L 134.472771 235.010812 
L 135.391871 229.901587 
L 135.851422 232.261203 
L 136.310972 230.681572 
L 136.770522 229.77049 
L 137.230073 240.965551 
L 137.689623 243.688936 
L 138.149173 240.841014 
L 138.608723 241.683267 
L 139.068274 244.223127 
L 139.527824 244.734376 
L 139.987374 239.294166 
L 140.446925 241.33588 
L 140.906475 238.189718 
L 141.366025 238.835345 
L 141.825575 235.731789 
L 142.285126 240.319924 
L 142.744676 248.185299 
L 143.204226 243.951111 
L 143.663777 251.55103 
L 144.123327 254.218707 
L 144.582877 257.568037 
L 145.042427 253.373174 
L 145.501978 254.870875 
L 146.421078 247.231631 
L 146.880629 246.402479 
L 147.340179 241.771759 
L 147.799729 241.381766 
L 148.259279 238.740312 
L 148.71883 239.051634 
L 149.17838 235.449951 
L 149.63793 233.542595 
L 150.097481 233.732681 
L 150.557031 233.191928 
L 151.016581 231.727012 
L 151.476132 241.322758 
L 151.935682 242.541902 
L 152.395232 246.736764 
L 152.854782 244.829409 
L 153.314333 249.034112 
L 154.233433 248.332778 
L 154.692984 250.738281 
L 155.152534 249.760468 
L 185.023303 249.806796 
L 185.482853 246.930589 
L 185.942403 245.182931 
L 186.401954 248.313912 
L 187.321054 250.245221 
L 187.780604 250.114869 
L 188.240155 251.664052 
L 188.699705 248.091753 
L 189.159255 252.631222 
L 213.05587 252.677421 
L 213.515421 246.287802 
L 213.974971 254.700985 
L 214.434521 268.529678 
L 214.894072 257.350763 
L 215.353622 254.947401 
L 215.813172 255.069176 
L 216.732273 244.278748 
L 217.191823 243.078518 
L 217.651373 240.733158 
L 218.110924 237.787667 
L 218.570474 238.903812 
L 219.489574 229.104887 
L 219.949125 236.697604 
L 220.408675 240.637466 
L 220.868225 250.062431 
L 221.787326 243.293048 
L 222.246876 241.512998 
L 223.165977 233.256378 
L 223.625527 224.135832 
L 224.085077 222.660166 
L 224.544628 230.203621 
L 225.004178 227.600238 
L 225.463728 227.101602 
L 225.923279 232.666752 
L 231.437882 232.715911 
L 231.897432 231.783361 
L 232.356983 239.004917 
L 232.816533 235.777651 
L 233.276083 230.554843 
L 233.735633 234.195837 
L 234.195184 230.303396 
L 234.654734 230.701234 
L 235.114284 227.499455 
L 235.573835 217.824129 
L 270.499657 217.875046 
L 270.959207 218.009379 
L 271.418757 213.028028 
L 271.878308 211.522927 
L 272.337858 210.664825 
L 272.797408 213.940948 
L 273.256958 215.001921 
L 273.716509 213.311509 
L 299.910875 213.363169 
L 300.370426 218.428776 
L 300.829976 213.980312 
L 301.289526 201.550927 
L 301.749076 205.925469 
L 302.208627 211.585698 
L 302.668177 220.47623 
L 303.127727 220.92301 
L 303.587278 218.798418 
L 304.046828 213.504576 
L 304.506378 214.398137 
L 304.965928 227.5282 
L 305.885029 227.432026 
L 357.354662 227.481618 
L 357.814212 229.747691 
L 358.273762 230.535789 
L 358.733312 230.628327 
L 359.192863 239.336502 
L 359.652413 242.626246 
L 360.111963 229.742076 
L 360.571514 225.899842 
L 361.031064 230.308603 
L 361.490614 237.073202 
L 361.950164 234.330368 
L 362.409715 233.934915 
L 362.869265 236.882511 
L 363.328815 238.769975 
L 363.788366 238.503521 
L 364.247916 244.006102 
L 364.707466 243.593805 
L 365.167016 248.597775 
L 387.684981 248.644419 
L 388.144531 252.410729 
L 388.604081 246.596502 
L 389.063632 255.091606 
L 389.523182 253.765567 
L 389.982732 251.99616 
L 417.55575 252.042185 
L 418.47485 252.538492 
L 418.9344 249.473177 
L 419.393951 243.708856 
L 419.853501 246.946723 
L 420.313051 248.660184 
L 420.772602 251.196101 
L 421.232152 251.602597 
L 421.691702 253.131706 
L 422.151252 250.302731 
L 422.610803 248.563276 
L 423.070353 248.768891 
L 423.529903 250.669068 
L 423.989454 254.268513 
L 424.449004 252.878836 
L 424.908554 247.159434 
L 425.368104 245.263988 
L 425.827655 242.326277 
L 426.287205 241.475461 
L 426.746755 241.499089 
L 427.206306 241.177671 
L 427.665856 240.175594 
L 428.125406 240.558463 
L 428.584956 237.2899 
L 429.044507 238.663016 
L 429.504057 239.367303 
L 429.963607 238.296708 
L 430.423158 239.530392 
L 430.882708 239.669824 
L 431.342258 241.135117 
L 431.801809 236.871574 
L 432.261359 238.722101 
L 432.720909 242.250661 
L 432.720909 242.250661 
" style="fill:none;stroke:#000000;stroke-linecap:square;stroke-width:1.5;"/>
   </g>
   <g id="patch_3">
    <path d="M 69.86 286.886956 
L 69.86 26.88 
" style="fill:none;stroke:#000000;stroke-linecap:square;stroke-linejoin:miter;stroke-width:0.8;"/>
   </g>
   <g id="patch_4">
    <path d="M 450 286.886956 
L 450 26.88 
" style="fill:none;stroke:#000000;stroke-linecap:square;stroke-linejoin:miter;stroke-width:0.8;"/>
   </g>
   <g id="patch_5">
    <path d="M 69.86 286.886956 
L 450 286.886956 
" style="fill:none;stroke:#000000;stroke-linecap:square;stroke-linejoin:miter;stroke-width:0.8;"/>
   </g>
   <g id="patch_6">
    <path d="M 69.86 26.88 
L 450 26.88 
" style="fill:none;stroke:#000000;stroke-linecap:square;stroke-linejoin:miter;stroke-width:0.8;"/>
   </g>
   <g id="text_19">
    <!-- Portfolio Value by LSTM Steps -->
    <g transform="translate(171.004375 20.88)scale(0.12 -0.12)">
     <defs>
      <path d="M 30.609375 48.390625 
Q 23.390625 48.390625 19.1875 42.75 
Q 14.984375 37.109375 14.984375 27.296875 
Q 14.984375 17.484375 19.15625 11.84375 
Q 23.34375 6.203125 30.609375 6.203125 
Q 37.796875 6.203125 41.984375 11.859375 
Q 46.1875 17.53125 46.1875 27.296875 
Q 46.1875 37.015625 41.984375 42.703125 
Q 37.796875 48.390625 30.609375 48.390625 
z
M 30.609375 56 
Q 42.328125 56 49.015625 48.375 
Q 55.71875 40.765625 55.71875 27.296875 
Q 55.71875 13.875 49.015625 6.21875 
Q 42.328125 -1.421875 30.609375 -1.421875 
Q 18.84375 -1.421875 12.171875 6.21875 
Q 5.515625 13.875 5.515625 27.296875 
Q 5.515625 40.765625 12.171875 48.375 
Q 18.84375 56 30.609375 56 
z
" id="DejaVuSans-111"/>
      <path d="M 37.109375 75.984375 
L 37.109375 68.5 
L 28.515625 68.5 
Q 23.6875 68.5 21.796875 66.546875 
Q 19.921875 64.59375 19.921875 59.515625 
L 19.921875 54.6875 
L 34.71875 54.6875 
L 34.71875 47.703125 
L 19.921875 47.703125 
L 19.921875 0 
L 10.890625 0 
L 10.890625 47.703125 
L 2.296875 47.703125 
L 2.296875 54.6875 
L 10.890625 54.6875 
L 10.890625 58.5 
Q 10.890625 67.625 15.140625 71.796875 
Q 19.390625 75.984375 28.609375 75.984375 
z
" id="DejaVuSans-102"/>
      <path d="M 9.421875 75.984375 
L 18.40625 75.984375 
L 18.40625 0 
L 9.421875 0 
z
" id="DejaVuSans-108"/>
      <path id="DejaVuSans-32"/>
      <path d="M 28.609375 0 
L 0.78125 72.90625 
L 11.078125 72.90625 
L 34.1875 11.53125 
L 57.328125 72.90625 
L 67.578125 72.90625 
L 39.796875 0 
z
" id="DejaVuSans-86"/>
      <path d="M 8.5 21.578125 
L 8.5 54.6875 
L 17.484375 54.6875 
L 17.484375 21.921875 
Q 17.484375 14.15625 20.5 10.265625 
Q 23.53125 6.390625 29.59375 6.390625 
Q 36.859375 6.390625 41.078125 11.03125 
Q 45.3125 15.671875 45.3125 23.6875 
L 45.3125 54.6875 
L 54.296875 54.6875 
L 54.296875 0 
L 45.3125 0 
L 45.3125 8.40625 
Q 42.046875 3.421875 37.71875 1 
Q 33.40625 -1.421875 27.6875 -1.421875 
Q 18.265625 -1.421875 13.375 4.4375 
Q 8.5 10.296875 8.5 21.578125 
z
M 31.109375 56 
z
" id="DejaVuSans-117"/>
      <path d="M 48.6875 27.296875 
Q 48.6875 37.203125 44.609375 42.84375 
Q 40.53125 48.484375 33.40625 48.484375 
Q 26.265625 48.484375 22.1875 42.84375 
Q 18.109375 37.203125 18.109375 27.296875 
Q 18.109375 17.390625 22.1875 11.75 
Q 26.265625 6.109375 33.40625 6.109375 
Q 40.53125 6.109375 44.609375 11.75 
Q 48.6875 17.390625 48.6875 27.296875 
z
M 18.109375 46.390625 
Q 20.953125 51.265625 25.265625 53.625 
Q 29.59375 56 35.59375 56 
Q 45.5625 56 51.78125 48.09375 
Q 58.015625 40.1875 58.015625 27.296875 
Q 58.015625 14.40625 51.78125 6.484375 
Q 45.5625 -1.421875 35.59375 -1.421875 
Q 29.59375 -1.421875 25.265625 0.953125 
Q 20.953125 3.328125 18.109375 8.203125 
L 18.109375 0 
L 9.078125 0 
L 9.078125 75.984375 
L 18.109375 75.984375 
z
" id="DejaVuSans-98"/>
      <path d="M 32.171875 -5.078125 
Q 28.375 -14.84375 24.75 -17.8125 
Q 21.140625 -20.796875 15.09375 -20.796875 
L 7.90625 -20.796875 
L 7.90625 -13.28125 
L 13.1875 -13.28125 
Q 16.890625 -13.28125 18.9375 -11.515625 
Q 21 -9.765625 23.484375 -3.21875 
L 25.09375 0.875 
L 2.984375 54.6875 
L 12.5 54.6875 
L 29.59375 11.921875 
L 46.6875 54.6875 
L 56.203125 54.6875 
z
" id="DejaVuSans-121"/>
      <path d="M 9.8125 72.90625 
L 19.671875 72.90625 
L 19.671875 8.296875 
L 55.171875 8.296875 
L 55.171875 0 
L 9.8125 0 
z
" id="DejaVuSans-76"/>
      <path d="M 53.515625 70.515625 
L 53.515625 60.890625 
Q 47.90625 63.578125 42.921875 64.890625 
Q 37.9375 66.21875 33.296875 66.21875 
Q 25.25 66.21875 20.875 63.09375 
Q 16.5 59.96875 16.5 54.203125 
Q 16.5 49.359375 19.40625 46.890625 
Q 22.3125 44.4375 30.421875 42.921875 
L 36.375 41.703125 
Q 47.40625 39.59375 52.65625 34.296875 
Q 57.90625 29 57.90625 20.125 
Q 57.90625 9.515625 50.796875 4.046875 
Q 43.703125 -1.421875 29.984375 -1.421875 
Q 24.8125 -1.421875 18.96875 -0.25 
Q 13.140625 0.921875 6.890625 3.21875 
L 6.890625 13.375 
Q 12.890625 10.015625 18.65625 8.296875 
Q 24.421875 6.59375 29.984375 6.59375 
Q 38.421875 6.59375 43.015625 9.90625 
Q 47.609375 13.234375 47.609375 19.390625 
Q 47.609375 24.75 44.3125 27.78125 
Q 41.015625 30.8125 33.5 32.328125 
L 27.484375 33.5 
Q 16.453125 35.6875 11.515625 40.375 
Q 6.59375 45.0625 6.59375 53.421875 
Q 6.59375 63.09375 13.40625 68.65625 
Q 20.21875 74.21875 32.171875 74.21875 
Q 37.3125 74.21875 42.625 73.28125 
Q 47.953125 72.359375 53.515625 70.515625 
z
" id="DejaVuSans-83"/>
      <path d="M -0.296875 72.90625 
L 61.375 72.90625 
L 61.375 64.59375 
L 35.5 64.59375 
L 35.5 0 
L 25.59375 0 
L 25.59375 64.59375 
L -0.296875 64.59375 
z
" id="DejaVuSans-84"/>
      <path d="M 9.8125 72.90625 
L 24.515625 72.90625 
L 43.109375 23.296875 
L 61.8125 72.90625 
L 76.515625 72.90625 
L 76.515625 0 
L 66.890625 0 
L 66.890625 64.015625 
L 48.09375 14.015625 
L 38.1875 14.015625 
L 19.390625 64.015625 
L 19.390625 0 
L 9.8125 0 
z
" id="DejaVuSans-77"/>
      <path d="M 18.109375 8.203125 
L 18.109375 -20.796875 
L 9.078125 -20.796875 
L 9.078125 54.6875 
L 18.109375 54.6875 
L 18.109375 46.390625 
Q 20.953125 51.265625 25.265625 53.625 
Q 29.59375 56 35.59375 56 
Q 45.5625 56 51.78125 48.09375 
Q 58.015625 40.1875 58.015625 27.296875 
Q 58.015625 14.40625 51.78125 6.484375 
Q 45.5625 -1.421875 35.59375 -1.421875 
Q 29.59375 -1.421875 25.265625 0.953125 
Q 20.953125 3.328125 18.109375 8.203125 
z
M 48.6875 27.296875 
Q 48.6875 37.203125 44.609375 42.84375 
Q 40.53125 48.484375 33.40625 48.484375 
Q 26.265625 48.484375 22.1875 42.84375 
Q 18.109375 37.203125 18.109375 27.296875 
Q 18.109375 17.390625 22.1875 11.75 
Q 26.265625 6.109375 33.40625 6.109375 
Q 40.53125 6.109375 44.609375 11.75 
Q 48.6875 17.390625 48.6875 27.296875 
z
" id="DejaVuSans-112"/>
      <path d="M 44.28125 53.078125 
L 44.28125 44.578125 
Q 40.484375 46.53125 36.375 47.5 
Q 32.28125 48.484375 27.875 48.484375 
Q 21.1875 48.484375 17.84375 46.4375 
Q 14.5 44.390625 14.5 40.28125 
Q 14.5 37.15625 16.890625 35.375 
Q 19.28125 33.59375 26.515625 31.984375 
L 29.59375 31.296875 
Q 39.15625 29.25 43.1875 25.515625 
Q 47.21875 21.78125 47.21875 15.09375 
Q 47.21875 7.46875 41.1875 3.015625 
Q 35.15625 -1.421875 24.609375 -1.421875 
Q 20.21875 -1.421875 15.453125 -0.5625 
Q 10.6875 0.296875 5.421875 2 
L 5.421875 11.28125 
Q 10.40625 8.6875 15.234375 7.390625 
Q 20.0625 6.109375 24.8125 6.109375 
Q 31.15625 6.109375 34.5625 8.28125 
Q 37.984375 10.453125 37.984375 14.40625 
Q 37.984375 18.0625 35.515625 20.015625 
Q 33.0625 21.96875 24.703125 23.78125 
L 21.578125 24.515625 
Q 13.234375 26.265625 9.515625 29.90625 
Q 5.8125 33.546875 5.8125 39.890625 
Q 5.8125 47.609375 11.28125 51.796875 
Q 16.75 56 26.8125 56 
Q 31.78125 56 36.171875 55.265625 
Q 40.578125 54.546875 44.28125 53.078125 
z
" id="DejaVuSans-115"/>
     </defs>
     <use xlink:href="#DejaVuSans-80"/>
     <use x="56.677734" xlink:href="#DejaVuSans-111"/>
     <use x="117.859375" xlink:href="#DejaVuSans-114"/>
     <use x="158.972656" xlink:href="#DejaVuSans-116"/>
     <use x="198.181641" xlink:href="#DejaVuSans-102"/>
     <use x="233.386719" xlink:href="#DejaVuSans-111"/>
     <use x="294.568359" xlink:href="#DejaVuSans-108"/>
     <use x="322.351562" xlink:href="#DejaVuSans-105"/>
     <use x="350.134766" xlink:href="#DejaVuSans-111"/>
     <use x="411.316406" xlink:href="#DejaVuSans-32"/>
     <use x="443.103516" xlink:href="#DejaVuSans-86"/>
     <use x="503.761719" xlink:href="#DejaVuSans-97"/>
     <use x="565.041016" xlink:href="#DejaVuSans-108"/>
     <use x="592.824219" xlink:href="#DejaVuSans-117"/>
     <use x="656.203125" xlink:href="#DejaVuSans-101"/>
     <use x="717.726562" xlink:href="#DejaVuSans-32"/>
     <use x="749.513672" xlink:href="#DejaVuSans-98"/>
     <use x="812.990234" xlink:href="#DejaVuSans-121"/>
     <use x="872.169922" xlink:href="#DejaVuSans-32"/>
     <use x="903.957031" xlink:href="#DejaVuSans-76"/>
     <use x="959.669922" xlink:href="#DejaVuSans-83"/>
     <use x="1023.146484" xlink:href="#DejaVuSans-84"/>
     <use x="1084.230469" xlink:href="#DejaVuSans-77"/>
     <use x="1170.509766" xlink:href="#DejaVuSans-32"/>
     <use x="1202.296875" xlink:href="#DejaVuSans-83"/>
     <use x="1265.773438" xlink:href="#DejaVuSans-116"/>
     <use x="1304.982422" xlink:href="#DejaVuSans-101"/>
     <use x="1366.505859" xlink:href="#DejaVuSans-112"/>
     <use x="1429.982422" xlink:href="#DejaVuSans-115"/>
    </g>
   </g>
   <g id="legend_1">
    <g id="patch_7">
     <path d="M 76.86 93.5925 
L 206.627188 93.5925 
Q 208.627188 93.5925 208.627188 91.5925 
L 208.627188 33.88 
Q 208.627188 31.88 206.627188 31.88 
L 76.86 31.88 
Q 74.86 31.88 74.86 33.88 
L 74.86 91.5925 
Q 74.86 93.5925 76.86 93.5925 
z
" style="fill:#ffffff;opacity:0.8;stroke:#cccccc;stroke-linejoin:miter;"/>
    </g>
    <g id="line2d_37">
     <path d="M 78.86 39.978438 
L 98.86 39.978438 
" style="fill:none;stroke:#ff0000;stroke-linecap:square;stroke-width:1.5;"/>
    </g>
    <g id="line2d_38"/>
    <g id="text_20">
     <!-- number of steps 5 -->
     <g transform="translate(106.86 43.478438)scale(0.1 -0.1)">
      <defs>
       <path d="M 54.890625 33.015625 
L 54.890625 0 
L 45.90625 0 
L 45.90625 32.71875 
Q 45.90625 40.484375 42.875 44.328125 
Q 39.84375 48.1875 33.796875 48.1875 
Q 26.515625 48.1875 22.3125 43.546875 
Q 18.109375 38.921875 18.109375 30.90625 
L 18.109375 0 
L 9.078125 0 
L 9.078125 54.6875 
L 18.109375 54.6875 
L 18.109375 46.1875 
Q 21.34375 51.125 25.703125 53.5625 
Q 30.078125 56 35.796875 56 
Q 45.21875 56 50.046875 50.171875 
Q 54.890625 44.34375 54.890625 33.015625 
z
" id="DejaVuSans-110"/>
       <path d="M 52 44.1875 
Q 55.375 50.25 60.0625 53.125 
Q 64.75 56 71.09375 56 
Q 79.640625 56 84.28125 50.015625 
Q 88.921875 44.046875 88.921875 33.015625 
L 88.921875 0 
L 79.890625 0 
L 79.890625 32.71875 
Q 79.890625 40.578125 77.09375 44.375 
Q 74.3125 48.1875 68.609375 48.1875 
Q 61.625 48.1875 57.5625 43.546875 
Q 53.515625 38.921875 53.515625 30.90625 
L 53.515625 0 
L 44.484375 0 
L 44.484375 32.71875 
Q 44.484375 40.625 41.703125 44.40625 
Q 38.921875 48.1875 33.109375 48.1875 
Q 26.21875 48.1875 22.15625 43.53125 
Q 18.109375 38.875 18.109375 30.90625 
L 18.109375 0 
L 9.078125 0 
L 9.078125 54.6875 
L 18.109375 54.6875 
L 18.109375 46.1875 
Q 21.1875 51.21875 25.484375 53.609375 
Q 29.78125 56 35.6875 56 
Q 41.65625 56 45.828125 52.96875 
Q 50 49.953125 52 44.1875 
z
" id="DejaVuSans-109"/>
      </defs>
      <use xlink:href="#DejaVuSans-110"/>
      <use x="63.378906" xlink:href="#DejaVuSans-117"/>
      <use x="126.757812" xlink:href="#DejaVuSans-109"/>
      <use x="224.169922" xlink:href="#DejaVuSans-98"/>
      <use x="287.646484" xlink:href="#DejaVuSans-101"/>
      <use x="349.169922" xlink:href="#DejaVuSans-114"/>
      <use x="390.283203" xlink:href="#DejaVuSans-32"/>
      <use x="422.070312" xlink:href="#DejaVuSans-111"/>
      <use x="483.251953" xlink:href="#DejaVuSans-102"/>
      <use x="518.457031" xlink:href="#DejaVuSans-32"/>
      <use x="550.244141" xlink:href="#DejaVuSans-115"/>
      <use x="602.34375" xlink:href="#DejaVuSans-116"/>
      <use x="641.552734" xlink:href="#DejaVuSans-101"/>
      <use x="703.076172" xlink:href="#DejaVuSans-112"/>
      <use x="766.552734" xlink:href="#DejaVuSans-115"/>
      <use x="818.652344" xlink:href="#DejaVuSans-32"/>
      <use x="850.439453" xlink:href="#DejaVuSans-53"/>
     </g>
    </g>
    <g id="line2d_39">
     <path d="M 78.86 54.656563 
L 98.86 54.656563 
" style="fill:none;stroke:#008000;stroke-linecap:square;stroke-width:1.5;"/>
    </g>
    <g id="line2d_40"/>
    <g id="text_21">
     <!-- number of steps 10 -->
     <g transform="translate(106.86 58.156563)scale(0.1 -0.1)">
      <use xlink:href="#DejaVuSans-110"/>
      <use x="63.378906" xlink:href="#DejaVuSans-117"/>
      <use x="126.757812" xlink:href="#DejaVuSans-109"/>
      <use x="224.169922" xlink:href="#DejaVuSans-98"/>
      <use x="287.646484" xlink:href="#DejaVuSans-101"/>
      <use x="349.169922" xlink:href="#DejaVuSans-114"/>
      <use x="390.283203" xlink:href="#DejaVuSans-32"/>
      <use x="422.070312" xlink:href="#DejaVuSans-111"/>
      <use x="483.251953" xlink:href="#DejaVuSans-102"/>
      <use x="518.457031" xlink:href="#DejaVuSans-32"/>
      <use x="550.244141" xlink:href="#DejaVuSans-115"/>
      <use x="602.34375" xlink:href="#DejaVuSans-116"/>
      <use x="641.552734" xlink:href="#DejaVuSans-101"/>
      <use x="703.076172" xlink:href="#DejaVuSans-112"/>
      <use x="766.552734" xlink:href="#DejaVuSans-115"/>
      <use x="818.652344" xlink:href="#DejaVuSans-32"/>
      <use x="850.439453" xlink:href="#DejaVuSans-49"/>
      <use x="914.0625" xlink:href="#DejaVuSans-48"/>
     </g>
    </g>
    <g id="line2d_41">
     <path d="M 78.86 69.334688 
L 98.86 69.334688 
" style="fill:none;stroke:#0000ff;stroke-linecap:square;stroke-width:1.5;"/>
    </g>
    <g id="line2d_42"/>
    <g id="text_22">
     <!-- number of steps 15 -->
     <g transform="translate(106.86 72.834688)scale(0.1 -0.1)">
      <use xlink:href="#DejaVuSans-110"/>
      <use x="63.378906" xlink:href="#DejaVuSans-117"/>
      <use x="126.757812" xlink:href="#DejaVuSans-109"/>
      <use x="224.169922" xlink:href="#DejaVuSans-98"/>
      <use x="287.646484" xlink:href="#DejaVuSans-101"/>
      <use x="349.169922" xlink:href="#DejaVuSans-114"/>
      <use x="390.283203" xlink:href="#DejaVuSans-32"/>
      <use x="422.070312" xlink:href="#DejaVuSans-111"/>
      <use x="483.251953" xlink:href="#DejaVuSans-102"/>
      <use x="518.457031" xlink:href="#DejaVuSans-32"/>
      <use x="550.244141" xlink:href="#DejaVuSans-115"/>
      <use x="602.34375" xlink:href="#DejaVuSans-116"/>
      <use x="641.552734" xlink:href="#DejaVuSans-101"/>
      <use x="703.076172" xlink:href="#DejaVuSans-112"/>
      <use x="766.552734" xlink:href="#DejaVuSans-115"/>
      <use x="818.652344" xlink:href="#DejaVuSans-32"/>
      <use x="850.439453" xlink:href="#DejaVuSans-49"/>
      <use x="914.0625" xlink:href="#DejaVuSans-53"/>
     </g>
    </g>
    <g id="line2d_43">
     <path d="M 78.86 84.012813 
L 98.86 84.012813 
" style="fill:none;stroke:#000000;stroke-linecap:square;stroke-width:1.5;"/>
    </g>
    <g id="line2d_44"/>
    <g id="text_23">
     <!-- number of steps 20 -->
     <g transform="translate(106.86 87.512813)scale(0.1 -0.1)">
      <use xlink:href="#DejaVuSans-110"/>
      <use x="63.378906" xlink:href="#DejaVuSans-117"/>
      <use x="126.757812" xlink:href="#DejaVuSans-109"/>
      <use x="224.169922" xlink:href="#DejaVuSans-98"/>
      <use x="287.646484" xlink:href="#DejaVuSans-101"/>
      <use x="349.169922" xlink:href="#DejaVuSans-114"/>
      <use x="390.283203" xlink:href="#DejaVuSans-32"/>
      <use x="422.070312" xlink:href="#DejaVuSans-111"/>
      <use x="483.251953" xlink:href="#DejaVuSans-102"/>
      <use x="518.457031" xlink:href="#DejaVuSans-32"/>
      <use x="550.244141" xlink:href="#DejaVuSans-115"/>
      <use x="602.34375" xlink:href="#DejaVuSans-116"/>
      <use x="641.552734" xlink:href="#DejaVuSans-101"/>
      <use x="703.076172" xlink:href="#DejaVuSans-112"/>
      <use x="766.552734" xlink:href="#DejaVuSans-115"/>
      <use x="818.652344" xlink:href="#DejaVuSans-32"/>
      <use x="850.439453" xlink:href="#DejaVuSans-50"/>
      <use x="914.0625" xlink:href="#DejaVuSans-48"/>
     </g>
    </g>
   </g>
  </g>
 </g>
 <defs>
  <clipPath id="pe8007f35f9">
   <rect height="260.006956" width="380.14" x="69.86" y="26.88"/>
  </clipPath>
 </defs>
</svg>
