<?xml version="1.0" encoding="utf-8" standalone="no"?>
<!DOCTYPE svg PUBLIC "-//W3C//DTD SVG 1.1//EN"
  "http://www.w3.org/Graphics/SVG/1.1/DTD/svg11.dtd">
<!-- Created with matplotlib (https://matplotlib.org/) -->
<svg height="345.6pt" version="1.1" viewBox="0 0 460.8 345.6" width="460.8pt" xmlns="http://www.w3.org/2000/svg" xmlns:xlink="http://www.w3.org/1999/xlink">
 <metadata>
  <rdf:RDF xmlns:cc="http://creativecommons.org/ns#" xmlns:dc="http://purl.org/dc/elements/1.1/" xmlns:rdf="http://www.w3.org/1999/02/22-rdf-syntax-ns#">
   <cc:Work>
    <dc:type rdf:resource="http://purl.org/dc/dcmitype/StillImage"/>
    <dc:date>2020-11-17T05:52:54.736889</dc:date>
    <dc:format>image/svg+xml</dc:format>
    <dc:creator>
     <cc:Agent>
      <dc:title>Matplotlib v3.3.2, https://matplotlib.org/</dc:title>
     </cc:Agent>
    </dc:creator>
   </cc:Work>
  </rdf:RDF>
 </metadata>
 <defs>
  <style type="text/css">*{stroke-linecap:butt;stroke-linejoin:round;}</style>
 </defs>
 <g id="figure_1">
  <g id="patch_1">
   <path d="M 0 345.6 
L 460.8 345.6 
L 460.8 0 
L 0 0 
z
" style="fill:#ffffff;"/>
  </g>
  <g id="axes_1">
   <g id="patch_2">
    <path d="M 69.86 286.886956 
L 450 286.886956 
L 450 26.88 
L 69.86 26.88 
z
" style="fill:#ffffff;"/>
   </g>
   <g id="matplotlib.axis_1">
    <g id="xtick_1">
     <g id="line2d_1">
      <path clip-path="url(#pc3019b2f4e)" d="M 87.139091 286.886956 
L 87.139091 26.88 
" style="fill:none;stroke:#b0b0b0;stroke-linecap:square;stroke-width:0.8;"/>
     </g>
     <g id="line2d_2">
      <defs>
       <path d="M 0 0 
L 0 3.5 
" id="m15c236e094" style="stroke:#000000;stroke-width:0.8;"/>
      </defs>
      <g>
       <use style="stroke:#000000;stroke-width:0.8;" x="87.139091" xlink:href="#m15c236e094" y="286.886956"/>
      </g>
     </g>
     <g id="text_1">
      <!-- 20161228 -->
      <g transform="translate(64.167676 318.435977)rotate(-20)scale(0.1 -0.1)">
       <defs>
        <path d="M 19.1875 8.296875 
L 53.609375 8.296875 
L 53.609375 0 
L 7.328125 0 
L 7.328125 8.296875 
Q 12.9375 14.109375 22.625 23.890625 
Q 32.328125 33.6875 34.8125 36.53125 
Q 39.546875 41.84375 41.421875 45.53125 
Q 43.3125 49.21875 43.3125 52.78125 
Q 43.3125 58.59375 39.234375 62.25 
Q 35.15625 65.921875 28.609375 65.921875 
Q 23.96875 65.921875 18.8125 64.3125 
Q 13.671875 62.703125 7.8125 59.421875 
L 7.8125 69.390625 
Q 13.765625 71.78125 18.9375 73 
Q 24.125 74.21875 28.421875 74.21875 
Q 39.75 74.21875 46.484375 68.546875 
Q 53.21875 62.890625 53.21875 53.421875 
Q 53.21875 48.921875 51.53125 44.890625 
Q 49.859375 40.875 45.40625 35.40625 
Q 44.1875 33.984375 37.640625 27.21875 
Q 31.109375 20.453125 19.1875 8.296875 
z
" id="DejaVuSans-50"/>
        <path d="M 31.78125 66.40625 
Q 24.171875 66.40625 20.328125 58.90625 
Q 16.5 51.421875 16.5 36.375 
Q 16.5 21.390625 20.328125 13.890625 
Q 24.171875 6.390625 31.78125 6.390625 
Q 39.453125 6.390625 43.28125 13.890625 
Q 47.125 21.390625 47.125 36.375 
Q 47.125 51.421875 43.28125 58.90625 
Q 39.453125 66.40625 31.78125 66.40625 
z
M 31.78125 74.21875 
Q 44.046875 74.21875 50.515625 64.515625 
Q 56.984375 54.828125 56.984375 36.375 
Q 56.984375 17.96875 50.515625 8.265625 
Q 44.046875 -1.421875 31.78125 -1.421875 
Q 19.53125 -1.421875 13.0625 8.265625 
Q 6.59375 17.96875 6.59375 36.375 
Q 6.59375 54.828125 13.0625 64.515625 
Q 19.53125 74.21875 31.78125 74.21875 
z
" id="DejaVuSans-48"/>
        <path d="M 12.40625 8.296875 
L 28.515625 8.296875 
L 28.515625 63.921875 
L 10.984375 60.40625 
L 10.984375 69.390625 
L 28.421875 72.90625 
L 38.28125 72.90625 
L 38.28125 8.296875 
L 54.390625 8.296875 
L 54.390625 0 
L 12.40625 0 
z
" id="DejaVuSans-49"/>
        <path d="M 33.015625 40.375 
Q 26.375 40.375 22.484375 35.828125 
Q 18.609375 31.296875 18.609375 23.390625 
Q 18.609375 15.53125 22.484375 10.953125 
Q 26.375 6.390625 33.015625 6.390625 
Q 39.65625 6.390625 43.53125 10.953125 
Q 47.40625 15.53125 47.40625 23.390625 
Q 47.40625 31.296875 43.53125 35.828125 
Q 39.65625 40.375 33.015625 40.375 
z
M 52.59375 71.296875 
L 52.59375 62.3125 
Q 48.875 64.0625 45.09375 64.984375 
Q 41.3125 65.921875 37.59375 65.921875 
Q 27.828125 65.921875 22.671875 59.328125 
Q 17.53125 52.734375 16.796875 39.40625 
Q 19.671875 43.65625 24.015625 45.921875 
Q 28.375 48.1875 33.59375 48.1875 
Q 44.578125 48.1875 50.953125 41.515625 
Q 57.328125 34.859375 57.328125 23.390625 
Q 57.328125 12.15625 50.6875 5.359375 
Q 44.046875 -1.421875 33.015625 -1.421875 
Q 20.359375 -1.421875 13.671875 8.265625 
Q 6.984375 17.96875 6.984375 36.375 
Q 6.984375 53.65625 15.1875 63.9375 
Q 23.390625 74.21875 37.203125 74.21875 
Q 40.921875 74.21875 44.703125 73.484375 
Q 48.484375 72.75 52.59375 71.296875 
z
" id="DejaVuSans-54"/>
        <path d="M 31.78125 34.625 
Q 24.75 34.625 20.71875 30.859375 
Q 16.703125 27.09375 16.703125 20.515625 
Q 16.703125 13.921875 20.71875 10.15625 
Q 24.75 6.390625 31.78125 6.390625 
Q 38.8125 6.390625 42.859375 10.171875 
Q 46.921875 13.96875 46.921875 20.515625 
Q 46.921875 27.09375 42.890625 30.859375 
Q 38.875 34.625 31.78125 34.625 
z
M 21.921875 38.8125 
Q 15.578125 40.375 12.03125 44.71875 
Q 8.5 49.078125 8.5 55.328125 
Q 8.5 64.0625 14.71875 69.140625 
Q 20.953125 74.21875 31.78125 74.21875 
Q 42.671875 74.21875 48.875 69.140625 
Q 55.078125 64.0625 55.078125 55.328125 
Q 55.078125 49.078125 51.53125 44.71875 
Q 48 40.375 41.703125 38.8125 
Q 48.828125 37.15625 52.796875 32.3125 
Q 56.78125 27.484375 56.78125 20.515625 
Q 56.78125 9.90625 50.3125 4.234375 
Q 43.84375 -1.421875 31.78125 -1.421875 
Q 19.734375 -1.421875 13.25 4.234375 
Q 6.78125 9.90625 6.78125 20.515625 
Q 6.78125 27.484375 10.78125 32.3125 
Q 14.796875 37.15625 21.921875 38.8125 
z
M 18.3125 54.390625 
Q 18.3125 48.734375 21.84375 45.5625 
Q 25.390625 42.390625 31.78125 42.390625 
Q 38.140625 42.390625 41.71875 45.5625 
Q 45.3125 48.734375 45.3125 54.390625 
Q 45.3125 60.0625 41.71875 63.234375 
Q 38.140625 66.40625 31.78125 66.40625 
Q 25.390625 66.40625 21.84375 63.234375 
Q 18.3125 60.0625 18.3125 54.390625 
z
" id="DejaVuSans-56"/>
       </defs>
       <use xlink:href="#DejaVuSans-50"/>
       <use x="63.623047" xlink:href="#DejaVuSans-48"/>
       <use x="127.246094" xlink:href="#DejaVuSans-49"/>
       <use x="190.869141" xlink:href="#DejaVuSans-54"/>
       <use x="254.492188" xlink:href="#DejaVuSans-49"/>
       <use x="318.115234" xlink:href="#DejaVuSans-50"/>
       <use x="381.738281" xlink:href="#DejaVuSans-50"/>
       <use x="445.361328" xlink:href="#DejaVuSans-56"/>
      </g>
     </g>
    </g>
    <g id="xtick_2">
     <g id="line2d_3">
      <path clip-path="url(#pc3019b2f4e)" d="M 132.911517 286.886956 
L 132.911517 26.88 
" style="fill:none;stroke:#b0b0b0;stroke-linecap:square;stroke-width:0.8;"/>
     </g>
     <g id="line2d_4">
      <g>
       <use style="stroke:#000000;stroke-width:0.8;" x="132.911517" xlink:href="#m15c236e094" y="286.886956"/>
      </g>
     </g>
     <g id="text_2">
      <!-- 20170523 -->
      <g transform="translate(109.940102 318.435977)rotate(-20)scale(0.1 -0.1)">
       <defs>
        <path d="M 8.203125 72.90625 
L 55.078125 72.90625 
L 55.078125 68.703125 
L 28.609375 0 
L 18.3125 0 
L 43.21875 64.59375 
L 8.203125 64.59375 
z
" id="DejaVuSans-55"/>
        <path d="M 10.796875 72.90625 
L 49.515625 72.90625 
L 49.515625 64.59375 
L 19.828125 64.59375 
L 19.828125 46.734375 
Q 21.96875 47.46875 24.109375 47.828125 
Q 26.265625 48.1875 28.421875 48.1875 
Q 40.625 48.1875 47.75 41.5 
Q 54.890625 34.8125 54.890625 23.390625 
Q 54.890625 11.625 47.5625 5.09375 
Q 40.234375 -1.421875 26.90625 -1.421875 
Q 22.3125 -1.421875 17.546875 -0.640625 
Q 12.796875 0.140625 7.71875 1.703125 
L 7.71875 11.625 
Q 12.109375 9.234375 16.796875 8.0625 
Q 21.484375 6.890625 26.703125 6.890625 
Q 35.15625 6.890625 40.078125 11.328125 
Q 45.015625 15.765625 45.015625 23.390625 
Q 45.015625 31 40.078125 35.4375 
Q 35.15625 39.890625 26.703125 39.890625 
Q 22.75 39.890625 18.8125 39.015625 
Q 14.890625 38.140625 10.796875 36.28125 
z
" id="DejaVuSans-53"/>
        <path d="M 40.578125 39.3125 
Q 47.65625 37.796875 51.625 33 
Q 55.609375 28.21875 55.609375 21.1875 
Q 55.609375 10.40625 48.1875 4.484375 
Q 40.765625 -1.421875 27.09375 -1.421875 
Q 22.515625 -1.421875 17.65625 -0.515625 
Q 12.796875 0.390625 7.625 2.203125 
L 7.625 11.71875 
Q 11.71875 9.328125 16.59375 8.109375 
Q 21.484375 6.890625 26.8125 6.890625 
Q 36.078125 6.890625 40.9375 10.546875 
Q 45.796875 14.203125 45.796875 21.1875 
Q 45.796875 27.640625 41.28125 31.265625 
Q 36.765625 34.90625 28.71875 34.90625 
L 20.21875 34.90625 
L 20.21875 43.015625 
L 29.109375 43.015625 
Q 36.375 43.015625 40.234375 45.921875 
Q 44.09375 48.828125 44.09375 54.296875 
Q 44.09375 59.90625 40.109375 62.90625 
Q 36.140625 65.921875 28.71875 65.921875 
Q 24.65625 65.921875 20.015625 65.03125 
Q 15.375 64.15625 9.8125 62.3125 
L 9.8125 71.09375 
Q 15.4375 72.65625 20.34375 73.4375 
Q 25.25 74.21875 29.59375 74.21875 
Q 40.828125 74.21875 47.359375 69.109375 
Q 53.90625 64.015625 53.90625 55.328125 
Q 53.90625 49.265625 50.4375 45.09375 
Q 46.96875 40.921875 40.578125 39.3125 
z
" id="DejaVuSans-51"/>
       </defs>
       <use xlink:href="#DejaVuSans-50"/>
       <use x="63.623047" xlink:href="#DejaVuSans-48"/>
       <use x="127.246094" xlink:href="#DejaVuSans-49"/>
       <use x="190.869141" xlink:href="#DejaVuSans-55"/>
       <use x="254.492188" xlink:href="#DejaVuSans-48"/>
       <use x="318.115234" xlink:href="#DejaVuSans-53"/>
       <use x="381.738281" xlink:href="#DejaVuSans-50"/>
       <use x="445.361328" xlink:href="#DejaVuSans-51"/>
      </g>
     </g>
    </g>
    <g id="xtick_3">
     <g id="line2d_5">
      <path clip-path="url(#pc3019b2f4e)" d="M 178.683943 286.886956 
L 178.683943 26.88 
" style="fill:none;stroke:#b0b0b0;stroke-linecap:square;stroke-width:0.8;"/>
     </g>
     <g id="line2d_6">
      <g>
       <use style="stroke:#000000;stroke-width:0.8;" x="178.683943" xlink:href="#m15c236e094" y="286.886956"/>
      </g>
     </g>
     <g id="text_3">
      <!-- 20171013 -->
      <g transform="translate(155.712528 318.435977)rotate(-20)scale(0.1 -0.1)">
       <use xlink:href="#DejaVuSans-50"/>
       <use x="63.623047" xlink:href="#DejaVuSans-48"/>
       <use x="127.246094" xlink:href="#DejaVuSans-49"/>
       <use x="190.869141" xlink:href="#DejaVuSans-55"/>
       <use x="254.492188" xlink:href="#DejaVuSans-49"/>
       <use x="318.115234" xlink:href="#DejaVuSans-48"/>
       <use x="381.738281" xlink:href="#DejaVuSans-49"/>
       <use x="445.361328" xlink:href="#DejaVuSans-51"/>
      </g>
     </g>
    </g>
    <g id="xtick_4">
     <g id="line2d_7">
      <path clip-path="url(#pc3019b2f4e)" d="M 224.45637 286.886956 
L 224.45637 26.88 
" style="fill:none;stroke:#b0b0b0;stroke-linecap:square;stroke-width:0.8;"/>
     </g>
     <g id="line2d_8">
      <g>
       <use style="stroke:#000000;stroke-width:0.8;" x="224.45637" xlink:href="#m15c236e094" y="286.886956"/>
      </g>
     </g>
     <g id="text_4">
      <!-- 20180309 -->
      <g transform="translate(201.484954 318.435977)rotate(-20)scale(0.1 -0.1)">
       <defs>
        <path d="M 10.984375 1.515625 
L 10.984375 10.5 
Q 14.703125 8.734375 18.5 7.8125 
Q 22.3125 6.890625 25.984375 6.890625 
Q 35.75 6.890625 40.890625 13.453125 
Q 46.046875 20.015625 46.78125 33.40625 
Q 43.953125 29.203125 39.59375 26.953125 
Q 35.25 24.703125 29.984375 24.703125 
Q 19.046875 24.703125 12.671875 31.3125 
Q 6.296875 37.9375 6.296875 49.421875 
Q 6.296875 60.640625 12.9375 67.421875 
Q 19.578125 74.21875 30.609375 74.21875 
Q 43.265625 74.21875 49.921875 64.515625 
Q 56.59375 54.828125 56.59375 36.375 
Q 56.59375 19.140625 48.40625 8.859375 
Q 40.234375 -1.421875 26.421875 -1.421875 
Q 22.703125 -1.421875 18.890625 -0.6875 
Q 15.09375 0.046875 10.984375 1.515625 
z
M 30.609375 32.421875 
Q 37.25 32.421875 41.125 36.953125 
Q 45.015625 41.5 45.015625 49.421875 
Q 45.015625 57.28125 41.125 61.84375 
Q 37.25 66.40625 30.609375 66.40625 
Q 23.96875 66.40625 20.09375 61.84375 
Q 16.21875 57.28125 16.21875 49.421875 
Q 16.21875 41.5 20.09375 36.953125 
Q 23.96875 32.421875 30.609375 32.421875 
z
" id="DejaVuSans-57"/>
       </defs>
       <use xlink:href="#DejaVuSans-50"/>
       <use x="63.623047" xlink:href="#DejaVuSans-48"/>
       <use x="127.246094" xlink:href="#DejaVuSans-49"/>
       <use x="190.869141" xlink:href="#DejaVuSans-56"/>
       <use x="254.492188" xlink:href="#DejaVuSans-48"/>
       <use x="318.115234" xlink:href="#DejaVuSans-51"/>
       <use x="381.738281" xlink:href="#DejaVuSans-48"/>
       <use x="445.361328" xlink:href="#DejaVuSans-57"/>
      </g>
     </g>
    </g>
    <g id="xtick_5">
     <g id="line2d_9">
      <path clip-path="url(#pc3019b2f4e)" d="M 270.228796 286.886956 
L 270.228796 26.88 
" style="fill:none;stroke:#b0b0b0;stroke-linecap:square;stroke-width:0.8;"/>
     </g>
     <g id="line2d_10">
      <g>
       <use style="stroke:#000000;stroke-width:0.8;" x="270.228796" xlink:href="#m15c236e094" y="286.886956"/>
      </g>
     </g>
     <g id="text_5">
      <!-- 20180801 -->
      <g transform="translate(247.257381 318.435977)rotate(-20)scale(0.1 -0.1)">
       <use xlink:href="#DejaVuSans-50"/>
       <use x="63.623047" xlink:href="#DejaVuSans-48"/>
       <use x="127.246094" xlink:href="#DejaVuSans-49"/>
       <use x="190.869141" xlink:href="#DejaVuSans-56"/>
       <use x="254.492188" xlink:href="#DejaVuSans-48"/>
       <use x="318.115234" xlink:href="#DejaVuSans-56"/>
       <use x="381.738281" xlink:href="#DejaVuSans-48"/>
       <use x="445.361328" xlink:href="#DejaVuSans-49"/>
      </g>
     </g>
    </g>
    <g id="xtick_6">
     <g id="line2d_11">
      <path clip-path="url(#pc3019b2f4e)" d="M 316.001222 286.886956 
L 316.001222 26.88 
" style="fill:none;stroke:#b0b0b0;stroke-linecap:square;stroke-width:0.8;"/>
     </g>
     <g id="line2d_12">
      <g>
       <use style="stroke:#000000;stroke-width:0.8;" x="316.001222" xlink:href="#m15c236e094" y="286.886956"/>
      </g>
     </g>
     <g id="text_6">
      <!-- 20181224 -->
      <g transform="translate(293.029807 318.435977)rotate(-20)scale(0.1 -0.1)">
       <defs>
        <path d="M 37.796875 64.3125 
L 12.890625 25.390625 
L 37.796875 25.390625 
z
M 35.203125 72.90625 
L 47.609375 72.90625 
L 47.609375 25.390625 
L 58.015625 25.390625 
L 58.015625 17.1875 
L 47.609375 17.1875 
L 47.609375 0 
L 37.796875 0 
L 37.796875 17.1875 
L 4.890625 17.1875 
L 4.890625 26.703125 
z
" id="DejaVuSans-52"/>
       </defs>
       <use xlink:href="#DejaVuSans-50"/>
       <use x="63.623047" xlink:href="#DejaVuSans-48"/>
       <use x="127.246094" xlink:href="#DejaVuSans-49"/>
       <use x="190.869141" xlink:href="#DejaVuSans-56"/>
       <use x="254.492188" xlink:href="#DejaVuSans-49"/>
       <use x="318.115234" xlink:href="#DejaVuSans-50"/>
       <use x="381.738281" xlink:href="#DejaVuSans-50"/>
       <use x="445.361328" xlink:href="#DejaVuSans-52"/>
      </g>
     </g>
    </g>
    <g id="xtick_7">
     <g id="line2d_13">
      <path clip-path="url(#pc3019b2f4e)" d="M 361.773648 286.886956 
L 361.773648 26.88 
" style="fill:none;stroke:#b0b0b0;stroke-linecap:square;stroke-width:0.8;"/>
     </g>
     <g id="line2d_14">
      <g>
       <use style="stroke:#000000;stroke-width:0.8;" x="361.773648" xlink:href="#m15c236e094" y="286.886956"/>
      </g>
     </g>
     <g id="text_7">
      <!-- 20190520 -->
      <g transform="translate(338.802233 318.435977)rotate(-20)scale(0.1 -0.1)">
       <use xlink:href="#DejaVuSans-50"/>
       <use x="63.623047" xlink:href="#DejaVuSans-48"/>
       <use x="127.246094" xlink:href="#DejaVuSans-49"/>
       <use x="190.869141" xlink:href="#DejaVuSans-57"/>
       <use x="254.492188" xlink:href="#DejaVuSans-48"/>
       <use x="318.115234" xlink:href="#DejaVuSans-53"/>
       <use x="381.738281" xlink:href="#DejaVuSans-50"/>
       <use x="445.361328" xlink:href="#DejaVuSans-48"/>
      </g>
     </g>
    </g>
    <g id="xtick_8">
     <g id="line2d_15">
      <path clip-path="url(#pc3019b2f4e)" d="M 407.546075 286.886956 
L 407.546075 26.88 
" style="fill:none;stroke:#b0b0b0;stroke-linecap:square;stroke-width:0.8;"/>
     </g>
     <g id="line2d_16">
      <g>
       <use style="stroke:#000000;stroke-width:0.8;" x="407.546075" xlink:href="#m15c236e094" y="286.886956"/>
      </g>
     </g>
     <g id="text_8">
      <!-- 20191010 -->
      <g transform="translate(384.574659 318.435977)rotate(-20)scale(0.1 -0.1)">
       <use xlink:href="#DejaVuSans-50"/>
       <use x="63.623047" xlink:href="#DejaVuSans-48"/>
       <use x="127.246094" xlink:href="#DejaVuSans-49"/>
       <use x="190.869141" xlink:href="#DejaVuSans-57"/>
       <use x="254.492188" xlink:href="#DejaVuSans-49"/>
       <use x="318.115234" xlink:href="#DejaVuSans-48"/>
       <use x="381.738281" xlink:href="#DejaVuSans-49"/>
       <use x="445.361328" xlink:href="#DejaVuSans-48"/>
      </g>
     </g>
    </g>
    <g id="text_9">
     <!-- Date -->
     <g transform="translate(247.979219 331.988681)scale(0.1 -0.1)">
      <defs>
       <path d="M 19.671875 64.796875 
L 19.671875 8.109375 
L 31.59375 8.109375 
Q 46.6875 8.109375 53.6875 14.9375 
Q 60.6875 21.78125 60.6875 36.53125 
Q 60.6875 51.171875 53.6875 57.984375 
Q 46.6875 64.796875 31.59375 64.796875 
z
M 9.8125 72.90625 
L 30.078125 72.90625 
Q 51.265625 72.90625 61.171875 64.09375 
Q 71.09375 55.28125 71.09375 36.53125 
Q 71.09375 17.671875 61.125 8.828125 
Q 51.171875 0 30.078125 0 
L 9.8125 0 
z
" id="DejaVuSans-68"/>
       <path d="M 34.28125 27.484375 
Q 23.390625 27.484375 19.1875 25 
Q 14.984375 22.515625 14.984375 16.5 
Q 14.984375 11.71875 18.140625 8.90625 
Q 21.296875 6.109375 26.703125 6.109375 
Q 34.1875 6.109375 38.703125 11.40625 
Q 43.21875 16.703125 43.21875 25.484375 
L 43.21875 27.484375 
z
M 52.203125 31.203125 
L 52.203125 0 
L 43.21875 0 
L 43.21875 8.296875 
Q 40.140625 3.328125 35.546875 0.953125 
Q 30.953125 -1.421875 24.3125 -1.421875 
Q 15.921875 -1.421875 10.953125 3.296875 
Q 6 8.015625 6 15.921875 
Q 6 25.140625 12.171875 29.828125 
Q 18.359375 34.515625 30.609375 34.515625 
L 43.21875 34.515625 
L 43.21875 35.40625 
Q 43.21875 41.609375 39.140625 45 
Q 35.0625 48.390625 27.6875 48.390625 
Q 23 48.390625 18.546875 47.265625 
Q 14.109375 46.140625 10.015625 43.890625 
L 10.015625 52.203125 
Q 14.9375 54.109375 19.578125 55.046875 
Q 24.21875 56 28.609375 56 
Q 40.484375 56 46.34375 49.84375 
Q 52.203125 43.703125 52.203125 31.203125 
z
" id="DejaVuSans-97"/>
       <path d="M 18.3125 70.21875 
L 18.3125 54.6875 
L 36.8125 54.6875 
L 36.8125 47.703125 
L 18.3125 47.703125 
L 18.3125 18.015625 
Q 18.3125 11.328125 20.140625 9.421875 
Q 21.96875 7.515625 27.59375 7.515625 
L 36.8125 7.515625 
L 36.8125 0 
L 27.59375 0 
Q 17.1875 0 13.234375 3.875 
Q 9.28125 7.765625 9.28125 18.015625 
L 9.28125 47.703125 
L 2.6875 47.703125 
L 2.6875 54.6875 
L 9.28125 54.6875 
L 9.28125 70.21875 
z
" id="DejaVuSans-116"/>
       <path d="M 56.203125 29.59375 
L 56.203125 25.203125 
L 14.890625 25.203125 
Q 15.484375 15.921875 20.484375 11.0625 
Q 25.484375 6.203125 34.421875 6.203125 
Q 39.59375 6.203125 44.453125 7.46875 
Q 49.3125 8.734375 54.109375 11.28125 
L 54.109375 2.78125 
Q 49.265625 0.734375 44.1875 -0.34375 
Q 39.109375 -1.421875 33.890625 -1.421875 
Q 20.796875 -1.421875 13.15625 6.1875 
Q 5.515625 13.8125 5.515625 26.8125 
Q 5.515625 40.234375 12.765625 48.109375 
Q 20.015625 56 32.328125 56 
Q 43.359375 56 49.78125 48.890625 
Q 56.203125 41.796875 56.203125 29.59375 
z
M 47.21875 32.234375 
Q 47.125 39.59375 43.09375 43.984375 
Q 39.0625 48.390625 32.421875 48.390625 
Q 24.90625 48.390625 20.390625 44.140625 
Q 15.875 39.890625 15.1875 32.171875 
z
" id="DejaVuSans-101"/>
      </defs>
      <use xlink:href="#DejaVuSans-68"/>
      <use x="77.001953" xlink:href="#DejaVuSans-97"/>
      <use x="138.28125" xlink:href="#DejaVuSans-116"/>
      <use x="177.490234" xlink:href="#DejaVuSans-101"/>
     </g>
    </g>
   </g>
   <g id="matplotlib.axis_2">
    <g id="ytick_1">
     <g id="line2d_17">
      <path clip-path="url(#pc3019b2f4e)" d="M 69.86 269.774673 
L 450 269.774673 
" style="fill:none;stroke:#b0b0b0;stroke-linecap:square;stroke-width:0.8;"/>
     </g>
     <g id="line2d_18">
      <defs>
       <path d="M 0 0 
L -3.5 0 
" id="m361075ae0e" style="stroke:#000000;stroke-width:0.8;"/>
      </defs>
      <g>
       <use style="stroke:#000000;stroke-width:0.8;" x="69.86" xlink:href="#m361075ae0e" y="269.774673"/>
      </g>
     </g>
     <g id="text_10">
      <!-- 100000 -->
      <g transform="translate(24.685 273.573892)scale(0.1 -0.1)">
       <use xlink:href="#DejaVuSans-49"/>
       <use x="63.623047" xlink:href="#DejaVuSans-48"/>
       <use x="127.246094" xlink:href="#DejaVuSans-48"/>
       <use x="190.869141" xlink:href="#DejaVuSans-48"/>
       <use x="254.492188" xlink:href="#DejaVuSans-48"/>
       <use x="318.115234" xlink:href="#DejaVuSans-48"/>
      </g>
     </g>
    </g>
    <g id="ytick_2">
     <g id="line2d_19">
      <path clip-path="url(#pc3019b2f4e)" d="M 69.86 235.899088 
L 450 235.899088 
" style="fill:none;stroke:#b0b0b0;stroke-linecap:square;stroke-width:0.8;"/>
     </g>
     <g id="line2d_20">
      <g>
       <use style="stroke:#000000;stroke-width:0.8;" x="69.86" xlink:href="#m361075ae0e" y="235.899088"/>
      </g>
     </g>
     <g id="text_11">
      <!-- 110000 -->
      <g transform="translate(24.685 239.698306)scale(0.1 -0.1)">
       <use xlink:href="#DejaVuSans-49"/>
       <use x="63.623047" xlink:href="#DejaVuSans-49"/>
       <use x="127.246094" xlink:href="#DejaVuSans-48"/>
       <use x="190.869141" xlink:href="#DejaVuSans-48"/>
       <use x="254.492188" xlink:href="#DejaVuSans-48"/>
       <use x="318.115234" xlink:href="#DejaVuSans-48"/>
      </g>
     </g>
    </g>
    <g id="ytick_3">
     <g id="line2d_21">
      <path clip-path="url(#pc3019b2f4e)" d="M 69.86 202.023503 
L 450 202.023503 
" style="fill:none;stroke:#b0b0b0;stroke-linecap:square;stroke-width:0.8;"/>
     </g>
     <g id="line2d_22">
      <g>
       <use style="stroke:#000000;stroke-width:0.8;" x="69.86" xlink:href="#m361075ae0e" y="202.023503"/>
      </g>
     </g>
     <g id="text_12">
      <!-- 120000 -->
      <g transform="translate(24.685 205.822721)scale(0.1 -0.1)">
       <use xlink:href="#DejaVuSans-49"/>
       <use x="63.623047" xlink:href="#DejaVuSans-50"/>
       <use x="127.246094" xlink:href="#DejaVuSans-48"/>
       <use x="190.869141" xlink:href="#DejaVuSans-48"/>
       <use x="254.492188" xlink:href="#DejaVuSans-48"/>
       <use x="318.115234" xlink:href="#DejaVuSans-48"/>
      </g>
     </g>
    </g>
    <g id="ytick_4">
     <g id="line2d_23">
      <path clip-path="url(#pc3019b2f4e)" d="M 69.86 168.147917 
L 450 168.147917 
" style="fill:none;stroke:#b0b0b0;stroke-linecap:square;stroke-width:0.8;"/>
     </g>
     <g id="line2d_24">
      <g>
       <use style="stroke:#000000;stroke-width:0.8;" x="69.86" xlink:href="#m361075ae0e" y="168.147917"/>
      </g>
     </g>
     <g id="text_13">
      <!-- 130000 -->
      <g transform="translate(24.685 171.947136)scale(0.1 -0.1)">
       <use xlink:href="#DejaVuSans-49"/>
       <use x="63.623047" xlink:href="#DejaVuSans-51"/>
       <use x="127.246094" xlink:href="#DejaVuSans-48"/>
       <use x="190.869141" xlink:href="#DejaVuSans-48"/>
       <use x="254.492188" xlink:href="#DejaVuSans-48"/>
       <use x="318.115234" xlink:href="#DejaVuSans-48"/>
      </g>
     </g>
    </g>
    <g id="ytick_5">
     <g id="line2d_25">
      <path clip-path="url(#pc3019b2f4e)" d="M 69.86 134.272332 
L 450 134.272332 
" style="fill:none;stroke:#b0b0b0;stroke-linecap:square;stroke-width:0.8;"/>
     </g>
     <g id="line2d_26">
      <g>
       <use style="stroke:#000000;stroke-width:0.8;" x="69.86" xlink:href="#m361075ae0e" y="134.272332"/>
      </g>
     </g>
     <g id="text_14">
      <!-- 140000 -->
      <g transform="translate(24.685 138.071551)scale(0.1 -0.1)">
       <use xlink:href="#DejaVuSans-49"/>
       <use x="63.623047" xlink:href="#DejaVuSans-52"/>
       <use x="127.246094" xlink:href="#DejaVuSans-48"/>
       <use x="190.869141" xlink:href="#DejaVuSans-48"/>
       <use x="254.492188" xlink:href="#DejaVuSans-48"/>
       <use x="318.115234" xlink:href="#DejaVuSans-48"/>
      </g>
     </g>
    </g>
    <g id="ytick_6">
     <g id="line2d_27">
      <path clip-path="url(#pc3019b2f4e)" d="M 69.86 100.396747 
L 450 100.396747 
" style="fill:none;stroke:#b0b0b0;stroke-linecap:square;stroke-width:0.8;"/>
     </g>
     <g id="line2d_28">
      <g>
       <use style="stroke:#000000;stroke-width:0.8;" x="69.86" xlink:href="#m361075ae0e" y="100.396747"/>
      </g>
     </g>
     <g id="text_15">
      <!-- 150000 -->
      <g transform="translate(24.685 104.195966)scale(0.1 -0.1)">
       <use xlink:href="#DejaVuSans-49"/>
       <use x="63.623047" xlink:href="#DejaVuSans-53"/>
       <use x="127.246094" xlink:href="#DejaVuSans-48"/>
       <use x="190.869141" xlink:href="#DejaVuSans-48"/>
       <use x="254.492188" xlink:href="#DejaVuSans-48"/>
       <use x="318.115234" xlink:href="#DejaVuSans-48"/>
      </g>
     </g>
    </g>
    <g id="ytick_7">
     <g id="line2d_29">
      <path clip-path="url(#pc3019b2f4e)" d="M 69.86 66.521162 
L 450 66.521162 
" style="fill:none;stroke:#b0b0b0;stroke-linecap:square;stroke-width:0.8;"/>
     </g>
     <g id="line2d_30">
      <g>
       <use style="stroke:#000000;stroke-width:0.8;" x="69.86" xlink:href="#m361075ae0e" y="66.521162"/>
      </g>
     </g>
     <g id="text_16">
      <!-- 160000 -->
      <g transform="translate(24.685 70.320381)scale(0.1 -0.1)">
       <use xlink:href="#DejaVuSans-49"/>
       <use x="63.623047" xlink:href="#DejaVuSans-54"/>
       <use x="127.246094" xlink:href="#DejaVuSans-48"/>
       <use x="190.869141" xlink:href="#DejaVuSans-48"/>
       <use x="254.492188" xlink:href="#DejaVuSans-48"/>
       <use x="318.115234" xlink:href="#DejaVuSans-48"/>
      </g>
     </g>
    </g>
    <g id="ytick_8">
     <g id="line2d_31">
      <path clip-path="url(#pc3019b2f4e)" d="M 69.86 32.645577 
L 450 32.645577 
" style="fill:none;stroke:#b0b0b0;stroke-linecap:square;stroke-width:0.8;"/>
     </g>
     <g id="line2d_32">
      <g>
       <use style="stroke:#000000;stroke-width:0.8;" x="69.86" xlink:href="#m361075ae0e" y="32.645577"/>
      </g>
     </g>
     <g id="text_17">
      <!-- 170000 -->
      <g transform="translate(24.685 36.444795)scale(0.1 -0.1)">
       <use xlink:href="#DejaVuSans-49"/>
       <use x="63.623047" xlink:href="#DejaVuSans-55"/>
       <use x="127.246094" xlink:href="#DejaVuSans-48"/>
       <use x="190.869141" xlink:href="#DejaVuSans-48"/>
       <use x="254.492188" xlink:href="#DejaVuSans-48"/>
       <use x="318.115234" xlink:href="#DejaVuSans-48"/>
      </g>
     </g>
    </g>
    <g id="text_18">
     <!-- Portfolio Value -->
     <g transform="translate(18.605313 192.769415)rotate(-90)scale(0.1 -0.1)">
      <defs>
       <path d="M 19.671875 64.796875 
L 19.671875 37.40625 
L 32.078125 37.40625 
Q 38.96875 37.40625 42.71875 40.96875 
Q 46.484375 44.53125 46.484375 51.125 
Q 46.484375 57.671875 42.71875 61.234375 
Q 38.96875 64.796875 32.078125 64.796875 
z
M 9.8125 72.90625 
L 32.078125 72.90625 
Q 44.34375 72.90625 50.609375 67.359375 
Q 56.890625 61.8125 56.890625 51.125 
Q 56.890625 40.328125 50.609375 34.8125 
Q 44.34375 29.296875 32.078125 29.296875 
L 19.671875 29.296875 
L 19.671875 0 
L 9.8125 0 
z
" id="DejaVuSans-80"/>
       <path d="M 30.609375 48.390625 
Q 23.390625 48.390625 19.1875 42.75 
Q 14.984375 37.109375 14.984375 27.296875 
Q 14.984375 17.484375 19.15625 11.84375 
Q 23.34375 6.203125 30.609375 6.203125 
Q 37.796875 6.203125 41.984375 11.859375 
Q 46.1875 17.53125 46.1875 27.296875 
Q 46.1875 37.015625 41.984375 42.703125 
Q 37.796875 48.390625 30.609375 48.390625 
z
M 30.609375 56 
Q 42.328125 56 49.015625 48.375 
Q 55.71875 40.765625 55.71875 27.296875 
Q 55.71875 13.875 49.015625 6.21875 
Q 42.328125 -1.421875 30.609375 -1.421875 
Q 18.84375 -1.421875 12.171875 6.21875 
Q 5.515625 13.875 5.515625 27.296875 
Q 5.515625 40.765625 12.171875 48.375 
Q 18.84375 56 30.609375 56 
z
" id="DejaVuSans-111"/>
       <path d="M 41.109375 46.296875 
Q 39.59375 47.171875 37.8125 47.578125 
Q 36.03125 48 33.890625 48 
Q 26.265625 48 22.1875 43.046875 
Q 18.109375 38.09375 18.109375 28.8125 
L 18.109375 0 
L 9.078125 0 
L 9.078125 54.6875 
L 18.109375 54.6875 
L 18.109375 46.1875 
Q 20.953125 51.171875 25.484375 53.578125 
Q 30.03125 56 36.53125 56 
Q 37.453125 56 38.578125 55.875 
Q 39.703125 55.765625 41.0625 55.515625 
z
" id="DejaVuSans-114"/>
       <path d="M 37.109375 75.984375 
L 37.109375 68.5 
L 28.515625 68.5 
Q 23.6875 68.5 21.796875 66.546875 
Q 19.921875 64.59375 19.921875 59.515625 
L 19.921875 54.6875 
L 34.71875 54.6875 
L 34.71875 47.703125 
L 19.921875 47.703125 
L 19.921875 0 
L 10.890625 0 
L 10.890625 47.703125 
L 2.296875 47.703125 
L 2.296875 54.6875 
L 10.890625 54.6875 
L 10.890625 58.5 
Q 10.890625 67.625 15.140625 71.796875 
Q 19.390625 75.984375 28.609375 75.984375 
z
" id="DejaVuSans-102"/>
       <path d="M 9.421875 75.984375 
L 18.40625 75.984375 
L 18.40625 0 
L 9.421875 0 
z
" id="DejaVuSans-108"/>
       <path d="M 9.421875 54.6875 
L 18.40625 54.6875 
L 18.40625 0 
L 9.421875 0 
z
M 9.421875 75.984375 
L 18.40625 75.984375 
L 18.40625 64.59375 
L 9.421875 64.59375 
z
" id="DejaVuSans-105"/>
       <path id="DejaVuSans-32"/>
       <path d="M 28.609375 0 
L 0.78125 72.90625 
L 11.078125 72.90625 
L 34.1875 11.53125 
L 57.328125 72.90625 
L 67.578125 72.90625 
L 39.796875 0 
z
" id="DejaVuSans-86"/>
       <path d="M 8.5 21.578125 
L 8.5 54.6875 
L 17.484375 54.6875 
L 17.484375 21.921875 
Q 17.484375 14.15625 20.5 10.265625 
Q 23.53125 6.390625 29.59375 6.390625 
Q 36.859375 6.390625 41.078125 11.03125 
Q 45.3125 15.671875 45.3125 23.6875 
L 45.3125 54.6875 
L 54.296875 54.6875 
L 54.296875 0 
L 45.3125 0 
L 45.3125 8.40625 
Q 42.046875 3.421875 37.71875 1 
Q 33.40625 -1.421875 27.6875 -1.421875 
Q 18.265625 -1.421875 13.375 4.4375 
Q 8.5 10.296875 8.5 21.578125 
z
M 31.109375 56 
z
" id="DejaVuSans-117"/>
      </defs>
      <use xlink:href="#DejaVuSans-80"/>
      <use x="56.677734" xlink:href="#DejaVuSans-111"/>
      <use x="117.859375" xlink:href="#DejaVuSans-114"/>
      <use x="158.972656" xlink:href="#DejaVuSans-116"/>
      <use x="198.181641" xlink:href="#DejaVuSans-102"/>
      <use x="233.386719" xlink:href="#DejaVuSans-111"/>
      <use x="294.568359" xlink:href="#DejaVuSans-108"/>
      <use x="322.351562" xlink:href="#DejaVuSans-105"/>
      <use x="350.134766" xlink:href="#DejaVuSans-111"/>
      <use x="411.316406" xlink:href="#DejaVuSans-32"/>
      <use x="443.103516" xlink:href="#DejaVuSans-86"/>
      <use x="503.761719" xlink:href="#DejaVuSans-97"/>
      <use x="565.041016" xlink:href="#DejaVuSans-108"/>
      <use x="592.824219" xlink:href="#DejaVuSans-117"/>
      <use x="656.203125" xlink:href="#DejaVuSans-101"/>
     </g>
    </g>
   </g>
   <g id="line2d_33">
    <path clip-path="url(#pc3019b2f4e)" d="M 87.139091 269.774673 
L 88.969988 269.825159 
L 89.427712 267.637643 
L 89.885436 262.558438 
L 90.343161 261.737611 
L 90.800885 262.225108 
L 91.258609 260.620939 
L 91.716334 260.758422 
L 92.174058 260.170929 
L 92.631782 261.620931 
L 93.089506 260.970928 
L 93.547231 262.908452 
L 94.004955 261.325112 
L 94.462679 254.550059 
L 94.920403 252.425028 
L 95.378128 248.708342 
L 95.835852 249.320859 
L 96.293576 254.300042 
L 96.7513 263.133444 
L 97.209025 264.650128 
L 97.666749 266.712648 
L 98.124473 265.454298 
L 99.039922 264.054294 
L 99.497646 260.883443 
L 99.95537 260.612598 
L 100.413095 260.5376 
L 101.328543 256.82923 
L 101.786267 256.38339 
L 102.243992 257.512574 
L 103.15944 253.666721 
L 104.074889 251.662541 
L 104.532613 251.812536 
L 104.990337 253.141713 
L 105.448061 252.366714 
L 105.905786 254.341724 
L 106.36351 249.416685 
L 106.821234 252.291716 
L 107.278958 252.612535 
L 107.736683 253.366706 
L 108.194407 251.750025 
L 108.652131 250.712522 
L 109.56758 247.475016 
L 110.025304 246.154154 
L 110.483028 245.600002 
L 110.940753 244.566644 
L 111.398477 243.895812 
L 111.856201 242.908307 
L 112.313925 244.766663 
L 112.77165 252.170866 
L 113.229374 252.312545 
L 113.687098 256.541727 
L 114.144822 258.420911 
L 114.602547 257.016736 
L 115.060271 256.133399 
L 115.517995 252.283375 
L 115.975719 252.445882 
L 116.433444 253.145884 
L 116.891168 249.416685 
L 118.264341 254.270897 
L 118.722065 255.520906 
L 119.179789 255.687559 
L 119.637514 256.445901 
L 120.095238 255.787556 
L 120.552962 256.320905 
L 121.010686 250.091688 
L 121.468411 250.566698 
L 121.926135 249.516682 
L 122.383859 248.029168 
L 122.841583 248.500007 
L 123.299308 240.174954 
L 123.757032 236.045743 
L 124.214756 235.920748 
L 124.67248 234.962412 
L 125.130205 221.178972 
L 125.587929 217.720618 
L 126.045653 215.94143 
L 126.503377 211.208069 
L 126.961102 208.595567 
L 127.418826 210.445556 
L 127.87655 206.941375 
L 128.791999 208.545543 
L 129.249723 208.108045 
L 129.707447 208.420548 
L 130.165172 206.720553 
L 130.622896 204.474698 
L 131.08062 213.824767 
L 131.538344 210.353901 
L 131.996069 208.624712 
L 132.453793 204.69969 
L 133.369241 199.057992 
L 133.826966 193.120448 
L 134.28469 192.53293 
L 134.742414 191.324603 
L 135.200138 195.107946 
L 135.657863 194.607962 
L 136.573311 188.112071 
L 137.031036 191.112097 
L 137.48876 189.103746 
L 137.946484 187.945393 
L 138.404208 202.178844 
L 138.861933 205.641368 
L 139.319657 202.020507 
L 139.777381 203.091351 
L 140.235105 206.320541 
L 140.69283 206.970545 
L 141.150554 200.053838 
L 141.608278 202.649682 
L 142.066002 198.649638 
L 142.523727 199.470491 
L 142.981451 195.524615 
L 143.439175 201.357991 
L 143.896899 211.358064 
L 144.354624 205.974698 
L 144.812348 215.63727 
L 145.270072 219.028967 
L 145.727797 223.287319 
L 146.185521 217.953952 
L 146.643245 219.858136 
L 147.558694 210.145566 
L 148.016418 209.09138 
L 148.474142 203.20386 
L 148.931866 202.708022 
L 149.389591 199.349666 
L 149.847315 199.745481 
L 150.305039 195.166285 
L 150.762763 192.741265 
L 151.220488 192.98294 
L 151.678212 192.295425 
L 152.135936 190.432924 
L 152.59366 202.632999 
L 153.051385 204.183024 
L 153.509109 209.516391 
L 153.966833 207.09137 
L 154.424557 212.43725 
L 155.340006 211.54557 
L 155.79773 214.603937 
L 156.255455 212.316424 
L 156.713179 212.333082 
L 157.170903 212.983086 
L 157.628627 214.695592 
L 158.086352 221.566471 
L 158.544076 218.858118 
L 159.0018 215.174772 
L 159.459524 215.528932 
L 159.917249 212.949745 
L 160.374973 219.870648 
L 160.832697 220.487311 
L 161.290421 222.699826 
L 161.748146 214.562255 
L 162.20587 213.653918 
L 163.121318 218.687295 
L 163.579043 219.6748 
L 164.494491 213.21642 
L 164.952216 208.378891 
L 165.40994 209.733067 
L 165.867664 214.11227 
L 166.325388 213.887252 
L 166.783113 210.608063 
L 167.240837 214.14144 
L 167.698561 213.358099 
L 168.61401 210.3789 
L 169.071734 214.674764 
L 169.987182 218.999797 
L 170.444907 216.037282 
L 170.902631 211.587252 
L 171.360355 211.583082 
L 171.818079 213.370586 
L 172.275804 217.112271 
L 172.733528 215.799777 
L 173.191252 206.437196 
L 173.648977 204.391359 
L 174.106701 200.678843 
L 174.564425 203.283028 
L 175.022149 201.362162 
L 175.479874 203.570506 
L 175.937598 195.899628 
L 176.395322 192.378764 
L 176.853046 192.932942 
L 177.310771 194.812126 
L 177.768495 187.374557 
L 178.226219 187.374557 
L 178.683943 186.449563 
L 180.057116 184.420383 
L 180.51484 188.962068 
L 180.972565 187.616233 
L 181.430289 195.753804 
L 182.345738 193.287101 
L 182.803462 193.303784 
L 183.261186 175.699464 
L 183.71891 175.924482 
L 184.176635 175.961968 
L 184.634359 171.978632 
L 185.092083 171.824466 
L 185.549807 168.899437 
L 186.007532 171.945266 
L 186.465256 167.899419 
L 186.92298 165.441058 
L 187.380704 169.845285 
L 188.296153 172.56198 
L 188.753877 172.378619 
L 189.211601 174.557793 
L 189.669326 169.532783 
L 190.12705 174.774469 
L 190.584774 175.286965 
L 191.042498 168.770245 
L 191.500223 168.095242 
L 191.957947 166.178572 
L 192.415671 159.724362 
L 192.873396 163.35771 
L 193.33112 174.153636 
L 193.788844 174.65779 
L 194.704293 184.782884 
L 195.162017 181.562035 
L 196.077465 171.157805 
L 196.53519 169.153599 
L 196.992914 168.074439 
L 197.450638 169.407762 
L 197.908362 168.316089 
L 198.366087 165.782756 
L 199.281535 154.274341 
L 200.196984 159.078504 
L 200.654708 160.207713 
L 201.112432 161.036882 
L 201.570157 162.291062 
L 202.027881 164.645256 
L 202.485605 166.416102 
L 202.943329 167.478579 
L 203.858778 151.595132 
L 204.316502 149.828457 
L 204.774226 143.774234 
L 205.231951 142.140921 
L 205.689675 142.73256 
L 206.147399 143.836744 
L 206.605123 143.040891 
L 207.062848 135.290845 
L 207.520572 135.270042 
L 207.978296 131.770006 
L 208.43602 133.074184 
L 208.893745 129.936649 
L 209.351469 121.328239 
L 209.809193 116.324032 
L 210.266918 118.357382 
L 210.724642 113.836526 
L 211.182366 111.578158 
L 211.64009 112.028194 
L 212.097815 115.824049 
L 212.555539 113.803211 
L 213.013263 114.065715 
L 213.928712 163.732722 
L 214.386436 154.549306 
L 214.84416 166.641069 
L 215.301884 186.516218 
L 215.759609 170.449436 
L 216.217333 166.995228 
L 216.675057 167.170247 
L 217.590506 151.661814 
L 218.04823 149.936795 
L 218.505954 146.565951 
L 218.963679 142.332573 
L 219.421403 143.936741 
L 220.336851 129.853336 
L 220.794576 140.765891 
L 221.2523 146.428418 
L 221.710024 159.974354 
L 222.625473 150.245126 
L 223.083197 147.686768 
L 223.998645 135.820024 
L 224.45637 122.711611 
L 224.914094 120.590726 
L 225.371818 131.432479 
L 225.829542 127.690794 
L 226.287267 126.974134 
L 226.744991 133.719992 
L 227.202715 148.032637 
L 227.660439 149.811774 
L 228.118164 150.561799 
L 228.575888 167.582746 
L 229.033612 178.66615 
L 229.491337 167.191101 
L 229.949061 186.837062 
L 230.406785 187.570405 
L 230.864509 174.253632 
L 231.322234 184.466211 
L 231.779958 181.945364 
L 232.237682 177.349511 
L 232.695406 176.128646 
L 233.153131 185.582882 
L 233.610855 181.357846 
L 234.068579 174.520307 
L 234.526303 179.286984 
L 234.984028 174.191122 
L 235.441752 174.711959 
L 235.899476 170.520288 
L 236.3572 156.66185 
L 236.814925 158.316016 
L 237.272649 152.457667 
L 237.730373 157.511872 
L 238.188098 158.974336 
L 238.645822 180.295343 
L 239.103546 180.149519 
L 239.56127 171.682762 
L 240.476719 181.987021 
L 240.934443 172.749461 
L 241.392167 178.874485 
L 241.849892 178.770318 
L 242.307616 168.478596 
L 242.76534 164.953587 
L 243.223064 165.316088 
L 243.680789 152.666002 
L 244.138513 145.78261 
L 244.596237 146.653436 
L 245.053961 145.311771 
L 245.511686 154.365996 
L 245.96941 154.69101 
L 246.427134 155.870167 
L 246.884859 160.711867 
L 247.342583 154.724326 
L 247.800307 158.349332 
L 248.258031 153.91184 
L 248.715756 154.124346 
L 249.17348 154.695181 
L 249.631204 161.366067 
L 250.088928 157.449362 
L 250.546653 148.061781 
L 251.004377 133.478342 
L 251.462101 125.961604 
L 251.919825 126.803285 
L 252.37755 128.499159 
L 252.835274 133.719992 
L 253.292998 134.432532 
L 254.208447 127.982493 
L 254.666171 129.632489 
L 255.123895 123.015772 
L 255.58162 123.36576 
L 256.039344 113.236546 
L 256.497068 115.274067 
L 256.954792 113.032382 
L 257.412517 119.128262 
L 257.870241 119.190722 
L 258.327965 131.694983 
L 258.785689 134.470018 
L 259.243414 141.003421 
L 259.701138 136.903355 
L 260.158862 135.899217 
L 260.616586 130.515826 
L 261.074311 141.278386 
L 261.532035 130.857473 
L 262.447483 120.028232 
L 262.905208 120.086572 
L 263.362932 118.286581 
L 263.820656 105.869804 
L 264.27838 104.553113 
L 264.736105 107.848985 
L 265.193829 100.94479 
L 265.651553 101.015591 
L 266.109278 106.769824 
L 266.567002 107.278149 
L 267.024726 101.811445 
L 267.48245 82.165458 
L 267.940175 74.752939 
L 268.397899 70.769552 
L 268.855623 84.357145 
L 269.313347 93.878038 
L 269.771072 95.053075 
L 270.228796 92.648882 
L 270.68652 89.257185 
L 271.144244 90.494682 
L 271.601969 90.698846 
L 272.059693 83.12799 
L 272.517417 80.840477 
L 272.975141 79.536299 
L 273.432866 84.515482 
L 273.89059 86.127991 
L 274.348314 82.169629 
L 274.806039 92.969726 
L 275.721487 99.790607 
L 276.179211 97.248932 
L 276.636936 99.140578 
L 277.09466 97.332246 
L 277.552384 97.578066 
L 278.010108 91.0822 
L 278.467833 82.9488 
L 278.925557 87.286345 
L 279.383281 79.457105 
L 279.841005 83.711338 
L 280.756454 101.682253 
L 282.129627 115.732394 
L 282.587351 116.786529 
L 283.045075 110.565679 
L 283.5028 118.228241 
L 283.960524 113.836526 
L 284.418248 115.569886 
L 284.875972 123.132452 
L 285.791421 117.115715 
L 286.249145 109.907359 
L 286.706869 118.011565 
L 287.164594 114.911516 
L 287.622318 108.940657 
L 288.080042 108.869805 
L 288.537766 103.328129 
L 288.995491 103.444808 
L 289.453215 102.840607 
L 289.910939 103.211449 
L 290.368663 101.590598 
L 290.826388 115.94907 
L 291.284112 119.799094 
L 292.199561 129.240793 
L 292.657285 151.328457 
L 293.115009 151.920147 
L 293.572733 139.503369 
L 294.030458 147.045132 
L 294.488182 134.278366 
L 294.945906 136.565879 
L 295.40363 148.932607 
L 296.319079 143.324249 
L 296.776803 141.849222 
L 297.234527 165.92858 
L 297.692252 146.565951 
L 298.149976 154.832664 
L 298.6077 175.257821 
L 299.065424 169.09943 
L 299.523149 151.986828 
L 299.980873 153.903499 
L 300.896321 166.507757 
L 301.354046 160.741063 
L 301.81177 144.628427 
L 302.269494 150.299296 
L 302.727219 157.636843 
L 303.184943 169.161941 
L 303.642667 169.741118 
L 304.100391 166.986937 
L 304.558116 160.124349 
L 305.01584 161.282703 
L 305.473564 178.30365 
L 305.931288 177.041179 
L 306.389013 171.632764 
L 306.846737 177.187003 
L 307.304461 166.420273 
L 307.762185 167.945247 
L 308.21991 151.482623 
L 308.677634 150.320149 
L 309.135358 144.040909 
L 309.593082 141.245071 
L 310.050807 163.699407 
L 310.508531 157.195199 
L 310.966255 170.320295 
L 311.42398 167.570234 
L 311.881704 164.041054 
L 312.339428 159.007702 
L 312.797152 159.086845 
L 313.712601 179.041163 
L 314.170325 171.641105 
L 314.628049 174.95366 
L 315.085774 179.903672 
L 315.543498 193.374611 
L 316.001222 196.116305 
L 316.458946 169.791116 
L 316.916671 167.686914 
L 317.374395 170.278587 
L 317.832119 170.995298 
L 318.289843 166.94523 
L 318.747568 179.116186 
L 319.205292 157.19937 
L 319.663016 158.095169 
L 320.120741 154.157661 
L 321.036189 156.882697 
L 321.951638 168.266091 
L 322.409362 153.682651 
L 322.867086 152.432642 
L 323.782535 145.020072 
L 324.240259 156.966011 
L 324.697983 154.557648 
L 325.155707 154.728496 
L 325.613432 147.432606 
L 326.071156 156.453515 
L 326.52888 160.536848 
L 327.444329 137.274197 
L 327.902053 140.303394 
L 328.359777 130.803304 
L 328.817502 126.449126 
L 329.275226 138.524206 
L 329.73295 145.599249 
L 330.190674 147.070105 
L 330.648399 147.178444 
L 331.106123 136.570049 
L 331.563847 136.132526 
L 332.021571 135.895046 
L 332.479296 139.882553 
L 332.93702 137.015864 
L 333.394744 139.482566 
L 333.852468 146.307618 
L 334.310193 141.161707 
L 334.767917 140.840914 
L 335.225641 138.890877 
L 335.683365 138.524206 
L 336.14109 136.99918 
L 336.598814 127.844959 
L 337.056538 125.803268 
L 337.514262 119.232429 
L 337.971987 121.003276 
L 338.429711 126.874137 
L 338.887435 127.240809 
L 339.34516 115.036537 
L 339.802884 107.540653 
L 340.260608 106.786457 
L 340.718332 109.507322 
L 341.633781 111.165659 
L 342.091505 105.36982 
L 342.549229 95.382209 
L 343.006954 91.340533 
L 343.464678 103.207278 
L 343.922402 107.486484 
L 344.380126 110.62819 
L 344.837851 115.557374 
L 345.295575 117.949054 
L 345.753299 116.024042 
L 346.211023 106.819823 
L 347.584196 98.290606 
L 348.041921 101.623964 
L 348.499645 102.944774 
L 348.957369 105.273994 
L 349.872818 102.398963 
L 350.330542 96.923917 
L 350.788266 95.340552 
L 351.24599 93.098867 
L 351.703715 89.669684 
L 352.161439 89.115531 
L 352.619163 83.994645 
L 353.076887 76.982112 
L 353.534612 81.373776 
L 353.992336 78.336288 
L 354.45006 74.136225 
L 354.907784 66.311207 
L 355.365509 106.828164 
L 355.823233 117.511581 
L 356.280957 120.349076 
L 356.738682 110.74899 
L 357.196406 109.119848 
L 357.65413 115.203215 
L 358.111854 118.569888 
L 358.569579 119.740754 
L 359.027303 119.878237 
L 359.485027 132.815851 
L 359.942751 137.703379 
L 360.400476 118.561546 
L 360.8582 112.853192 
L 361.315924 119.403227 
L 361.773648 129.453298 
L 362.231373 125.378307 
L 362.689097 124.790789 
L 363.146821 129.169991 
L 363.604545 131.97417 
L 364.06227 131.578304 
L 364.519994 139.753412 
L 364.977718 139.140869 
L 365.435443 145.353428 
L 365.893167 173.586971 
L 366.350891 167.024423 
L 366.808615 171.12861 
L 367.26634 169.828602 
L 367.724064 161.241046 
L 368.181788 155.245163 
L 369.097237 156.770188 
L 369.554961 151.807638 
L 370.012685 153.770136 
L 370.470409 150.607627 
L 370.928134 145.878436 
L 371.385858 146.182597 
L 371.843582 142.561762 
L 372.301306 137.490873 
L 372.759031 141.103418 
L 373.216755 153.236837 
L 373.674479 156.261863 
L 374.132203 157.79935 
L 374.589928 155.22848 
L 375.047652 148.061781 
L 375.963101 138.482549 
L 376.420825 134.449164 
L 376.878549 141.065881 
L 377.336273 137.940858 
L 377.793998 131.01581 
L 378.251722 129.694999 
L 378.709446 129.169991 
L 379.16717 127.015791 
L 379.624895 125.786636 
L 380.082619 128.586644 
L 380.540343 128.378309 
L 380.998067 134.915832 
L 381.913516 128.040782 
L 382.37124 131.507502 
L 382.828964 133.086697 
L 383.286689 87.55302 
L 383.744413 88.961366 
L 384.202137 94.72806 
L 384.659862 98.811443 
L 385.117586 101.48643 
L 385.57531 107.928178 
L 386.033034 125.249115 
L 386.490759 118.444917 
L 386.948483 116.43237 
L 387.406207 103.815651 
L 388.321656 117.019889 
L 388.77938 107.75733 
L 389.237104 121.290753 
L 389.694828 119.17826 
L 390.152553 115.057391 
L 390.610277 106.211501 
L 391.068001 113.257349 
L 391.525725 109.903189 
L 391.98345 109.928162 
L 392.441174 125.736637 
L 392.898898 118.40321 
L 393.356623 118.553256 
L 393.814347 117.332391 
L 394.272071 108.794833 
L 394.729795 110.340661 
L 395.18752 119.082383 
L 395.645244 113.782357 
L 396.102968 101.315632 
L 396.560692 103.761481 
L 397.018417 104.198954 
L 397.476141 104.019815 
L 398.391589 91.823884 
L 398.849314 89.715511 
L 399.307038 93.215547 
L 399.764762 93.944719 
L 400.222486 92.790536 
L 400.680211 90.248861 
L 401.137935 93.961402 
L 401.595659 91.940564 
L 402.053384 98.757274 
L 402.511108 87.25303 
L 402.968832 88.773834 
L 403.426556 95.582253 
L 403.884281 97.586408 
L 404.342005 103.894793 
L 404.799729 115.59486 
L 405.257453 110.798988 
L 405.715178 101.828128 
L 406.172902 102.957287 
L 406.630626 110.507339 
L 407.08835 105.394794 
L 408.003799 99.848947 
L 408.461523 98.990583 
L 408.919247 88.794688 
L 409.376972 88.478015 
L 409.834696 84.394631 
L 410.29242 87.890496 
L 410.750144 87.944665 
L 411.207869 89.22804 
L 411.665593 82.382135 
L 412.123317 81.765472 
L 412.581042 79.60293 
L 413.038766 69.31955 
L 413.49649 81.119613 
L 413.954214 81.102981 
L 414.411939 81.894613 
L 414.869663 76.290426 
L 415.327387 69.057046 
L 415.785111 68.294559 
L 416.242836 68.473698 
L 416.70056 61.836179 
L 417.158284 60.977815 
L 417.616008 65.444501 
L 418.531457 66.319498 
L 418.989181 60.915304 
L 419.446905 50.752724 
L 419.90463 56.461129 
L 420.362354 59.481985 
L 420.820078 63.952842 
L 421.277803 64.669502 
L 421.735527 67.365343 
L 422.193251 62.377819 
L 422.650975 59.311136 
L 423.1087 59.673636 
L 423.566424 63.023677 
L 424.024148 69.369548 
L 424.481872 66.919528 
L 424.939597 56.836142 
L 425.397321 53.494443 
L 425.855045 48.315216 
L 426.312769 46.815216 
L 426.770494 46.856872 
L 427.228218 46.290208 
L 427.685942 44.523532 
L 428.143666 45.198535 
L 428.601391 39.436011 
L 429.059115 41.856836 
L 429.516839 43.098504 
L 429.974564 41.211028 
L 430.432288 43.386032 
L 430.890012 43.631853 
L 431.347736 46.215185 
L 431.805461 38.698498 
L 432.263185 41.961003 
L 432.720909 48.181904 
L 432.720909 48.181904 
" style="fill:none;stroke:#ff0000;stroke-linecap:square;stroke-width:1.5;"/>
   </g>
   <g id="line2d_34">
    <path clip-path="url(#pc3019b2f4e)" d="M 87.139091 269.774673 
L 87.596815 274.356226 
L 88.054539 273.989699 
L 88.512264 275.068458 
L 88.969988 271.20745 
L 89.427712 272.202903 
L 89.885436 269.083286 
L 90.343161 264.343459 
L 90.800885 264.051901 
L 91.258609 264.239333 
L 91.716334 263.506281 
L 92.174058 262.41504 
L 92.631782 262.831545 
L 93.089506 262.914851 
L 93.547231 263.24805 
L 94.004955 263.210553 
L 94.462679 262.160978 
L 94.920403 255.759302 
L 95.835852 250.732086 
L 96.293576 250.752906 
L 97.209025 267.204845 
L 97.666749 265.330574 
L 98.124473 269.079117 
L 98.582197 265.692931 
L 99.039922 266.613416 
L 99.95537 262.610785 
L 100.870819 261.602851 
L 101.328543 259.624453 
L 101.786267 258.762285 
L 102.243992 259.162139 
L 102.701716 259.291254 
L 103.15944 258.120877 
L 103.617164 255.338628 
L 104.074889 255.334459 
L 104.532613 254.051617 
L 105.448061 256.604793 
L 105.905786 255.605197 
L 106.821234 251.873305 
L 107.278958 254.942943 
L 107.736683 255.80928 
L 108.194407 255.642668 
L 108.652131 253.201956 
L 109.109856 252.964545 
L 109.56758 249.211833 
L 110.025304 249.990695 
L 110.483028 248.774508 
L 110.940753 247.029352 
L 111.856201 244.638619 
L 112.313925 246.387944 
L 112.77165 246.146364 
L 113.229374 254.71804 
L 113.687098 258.087549 
L 114.144822 257.833487 
L 114.602547 263.627058 
L 115.060271 258.795613 
L 115.517995 257.521109 
L 115.975719 253.676778 
L 116.433444 255.821762 
L 116.891168 255.02208 
L 117.348892 255.334459 
L 117.806616 252.539702 
L 118.722065 256.583973 
L 119.179789 258.025089 
L 119.637514 257.958434 
L 120.095238 259.307905 
L 120.552962 258.233341 
L 121.010686 258.091718 
L 121.468411 253.443536 
L 121.926135 251.423473 
L 122.383859 250.444696 
L 122.841583 250.07817 
L 123.299308 246.8211 
L 123.757032 241.065 
L 124.214756 237.26231 
L 124.67248 237.841257 
L 125.130205 221.59757 
L 125.587929 223.617608 
L 126.045653 219.819087 
L 126.503377 218.661217 
L 126.961102 212.730192 
L 127.418826 210.05207 
L 127.87655 213.913052 
L 128.334275 208.131963 
L 129.249723 212.313688 
L 129.707447 209.581417 
L 130.165172 210.647668 
L 130.622896 207.207335 
L 131.08062 208.810868 
L 131.538344 215.683197 
L 131.996069 211.676423 
L 132.453793 209.935436 
L 132.911517 204.537525 
L 133.369241 202.330055 
L 133.826966 200.772331 
L 134.28469 195.357768 
L 134.742414 195.149516 
L 135.200138 193.604274 
L 135.657863 195.790924 
L 136.115587 196.778038 
L 136.573311 192.904549 
L 137.031036 190.6471 
L 137.48876 192.404738 
L 137.946484 190.263923 
L 138.404208 189.739123 
L 138.861933 209.21906 
L 139.319657 203.671213 
L 139.777381 202.230097 
L 140.235105 213.675641 
L 141.608278 202.309234 
L 142.066002 204.191844 
L 142.523727 201.659488 
L 142.981451 202.230097 
L 143.439175 196.190778 
L 143.896899 208.019524 
L 144.354624 212.576088 
L 144.812348 212.288698 
L 145.270072 215.354168 
L 146.185521 223.596788 
L 146.643245 223.26359 
L 147.100969 220.76873 
L 148.016418 212.634379 
L 148.931866 204.187675 
L 149.389591 202.854855 
L 149.847315 201.88856 
L 150.305039 203.121424 
L 150.762763 196.186609 
L 151.220488 193.275244 
L 151.678212 196.607283 
L 152.135936 194.483118 
L 152.59366 204.229315 
L 153.051385 203.362978 
L 153.509109 204.862411 
L 153.966833 213.688148 
L 154.424557 208.685922 
L 154.882282 213.763116 
L 155.79773 213.225834 
L 156.255455 215.370819 
L 156.713179 213.883893 
L 157.170903 215.229221 
L 157.628627 217.661595 
L 158.086352 219.098542 
L 158.544076 223.800872 
L 159.0018 217.403364 
L 159.459524 216.587005 
L 159.917249 216.495387 
L 160.374973 215.787323 
L 160.832697 222.438918 
L 161.290421 222.942873 
L 161.748146 222.447231 
L 162.20587 218.265532 
L 162.663594 215.470776 
L 163.121318 217.345047 
L 163.579043 220.398035 
L 164.036767 225.366934 
L 164.494491 218.819491 
L 165.40994 209.739691 
L 165.867664 214.158801 
L 166.325388 215.404146 
L 166.783113 215.245872 
L 167.240837 212.975916 
L 167.698561 214.017178 
L 168.156285 214.133812 
L 168.61401 214.725241 
L 169.071734 214.516989 
L 169.987182 219.094372 
L 170.444907 219.760795 
L 170.902631 217.961492 
L 171.360355 213.629832 
L 171.818079 215.862291 
L 172.733528 218.394647 
L 173.191252 215.874799 
L 173.648977 210.247815 
L 174.564425 202.167612 
L 175.022149 205.537147 
L 175.479874 203.787821 
L 175.937598 203.358835 
L 176.395322 200.355826 
L 176.853046 194.108254 
L 177.310771 193.983308 
L 177.768495 196.590632 
L 178.226219 190.42634 
L 178.683943 188.231377 
L 179.141668 188.014787 
L 179.599392 188.926933 
L 180.057116 187.423357 
L 180.51484 190.047332 
L 180.972565 189.089376 
L 181.430289 189.868238 
L 181.888013 197.648545 
L 182.345738 197.744333 
L 182.803462 192.662995 
L 183.261186 179.11825 
L 183.71891 179.880436 
L 185.092083 175.369707 
L 185.549807 174.22015 
L 186.007532 171.575355 
L 186.92298 171.179645 
L 187.380704 172.0335 
L 187.838429 173.753667 
L 189.211601 177.448062 
L 189.669326 175.886169 
L 190.12705 171.283771 
L 190.584774 177.031557 
L 191.042498 175.348862 
L 191.500223 170.71733 
L 191.957947 169.372028 
L 192.415671 167.631067 
L 192.873396 161.208544 
L 193.788844 175.390553 
L 194.246568 179.359805 
L 194.704293 180.446876 
L 195.162017 187.448346 
L 195.619741 185.145063 
L 196.53519 170.446592 
L 196.992914 170.738176 
L 197.450638 171.20049 
L 197.908362 170.334179 
L 198.366087 168.913883 
L 198.823811 165.461042 
L 199.281535 160.183959 
L 199.739259 157.447494 
L 200.196984 158.322144 
L 201.112432 162.870394 
L 201.570157 163.436835 
L 202.027881 164.286521 
L 202.485605 166.098307 
L 202.943329 168.913883 
L 203.401054 169.942638 
L 204.316502 151.587294 
L 205.231951 145.793698 
L 205.689675 142.694927 
L 206.147399 147.459717 
L 206.605123 145.248052 
L 207.062848 146.168562 
L 207.520572 133.585918 
L 207.978296 135.231142 
L 208.43602 133.985797 
L 208.893745 134.535561 
L 209.351469 132.124033 
L 209.809193 120.961684 
L 210.266918 114.980681 
L 210.724642 116.759165 
L 211.182366 113.918574 
L 211.64009 113.722829 
L 212.097815 118.00451 
L 212.555539 115.467959 
L 213.013263 118.725055 
L 213.470987 138.954671 
L 213.928712 150.121189 
L 214.386436 177.872905 
L 214.84416 156.63533 
L 215.301884 167.08959 
L 215.759609 181.246584 
L 216.217333 168.422385 
L 216.675057 171.20049 
L 217.132781 169.401212 
L 217.590506 157.268425 
L 218.04823 153.13251 
L 218.505954 153.390741 
L 218.963679 146.585067 
L 219.421403 142.390835 
L 219.879127 142.603257 
L 220.794576 132.174011 
L 221.2523 141.212145 
L 221.710024 146.401779 
L 222.167748 167.87679 
L 223.083197 149.500601 
L 223.540921 153.365777 
L 224.914094 123.281593 
L 225.371818 120.457729 
L 225.829542 131.299311 
L 226.287267 129.72913 
L 226.744991 127.32172 
L 227.202715 142.978121 
L 227.660439 151.041648 
L 228.118164 153.469904 
L 228.575888 158.701177 
L 229.033612 170.629881 
L 229.491337 170.950598 
L 229.949061 165.411063 
L 230.406785 191.230217 
L 230.864509 187.356702 
L 231.322234 180.52187 
L 231.779958 185.299167 
L 232.237682 192.762952 
L 232.695406 172.704066 
L 233.153131 182.404479 
L 233.610855 183.678983 
L 234.068579 179.422291 
L 234.526303 178.697577 
L 234.984028 178.918336 
L 235.441752 172.495814 
L 235.899476 173.053916 
L 236.814925 159.117682 
L 237.272649 163.278561 
L 237.730373 156.926863 
L 238.188098 157.46417 
L 239.103546 179.634712 
L 239.56127 178.189453 
L 240.018995 173.058085 
L 240.476719 177.689617 
L 240.934443 185.236707 
L 241.392167 177.864567 
L 241.849892 181.459005 
L 242.307616 183.858077 
L 242.76534 169.58028 
L 243.223064 165.111192 
L 243.680789 165.327783 
L 244.138513 152.457774 
L 245.053961 148.055341 
L 245.511686 151.666405 
L 245.96941 156.585351 
L 246.427134 158.097266 
L 246.884859 164.536414 
L 247.800307 154.623579 
L 248.258031 162.870394 
L 248.715756 155.831453 
L 249.17348 155.97722 
L 249.631204 160.371366 
L 250.088928 161.420966 
L 250.546653 157.872337 
L 251.462101 134.339816 
L 251.919825 127.609084 
L 252.37755 128.396284 
L 252.835274 131.807485 
L 253.292998 137.376152 
L 253.750722 136.655607 
L 254.208447 133.290216 
L 254.666171 128.600368 
L 255.123895 128.629551 
L 255.58162 125.418265 
L 256.039344 128.429637 
L 256.954792 115.680381 
L 257.412517 114.759921 
L 258.785689 131.990723 
L 259.243414 135.381078 
L 259.701138 145.21475 
L 260.158862 136.917956 
L 260.616586 143.981912 
L 261.074311 129.791565 
L 261.532035 140.129243 
L 262.447483 125.384963 
L 262.905208 121.224084 
L 263.362932 127.209256 
L 263.820656 119.195708 
L 264.27838 107.558537 
L 264.736105 107.137863 
L 265.193829 115.913648 
L 265.651553 105.171973 
L 266.109278 105.955004 
L 266.567002 109.041319 
L 267.024726 110.532388 
L 267.48245 79.152931 
L 267.940175 86.808291 
L 268.397899 80.743957 
L 268.855623 71.605866 
L 269.313347 89.96121 
L 269.771072 95.51742 
L 270.228796 92.435275 
L 270.68652 101.019432 
L 271.144244 89.907062 
L 271.601969 91.394013 
L 272.059693 87.062353 
L 272.517417 85.100631 
L 272.975141 82.597433 
L 273.432866 84.075995 
L 273.89059 87.399746 
L 274.348314 86.858269 
L 274.806039 90.281927 
L 275.263763 91.235739 
L 275.721487 99.544989 
L 276.179211 100.119768 
L 276.636936 99.136823 
L 277.09466 102.802085 
L 278.010108 97.895646 
L 278.467833 90.340243 
L 278.925557 85.442143 
L 279.383281 85.817007 
L 279.841005 82.318357 
L 280.29873 86.979072 
L 280.756454 99.345075 
L 281.671902 109.320395 
L 282.129627 120.386905 
L 282.587351 115.305567 
L 283.045075 120.76177 
L 283.5028 116.221857 
L 283.960524 117.179839 
L 284.418248 113.722829 
L 284.875972 117.983665 
L 285.333697 124.277046 
L 285.791421 121.653096 
L 286.706869 110.840597 
L 287.164594 125.630686 
L 287.622318 115.284722 
L 288.080042 111.352941 
L 288.537766 108.724771 
L 288.995491 107.021281 
L 289.453215 103.310209 
L 289.910939 105.946666 
L 290.368663 103.726714 
L 290.826388 106.62974 
L 291.284112 118.720886 
L 291.741836 125.384963 
L 292.199561 129.004365 
L 292.657285 135.214466 
L 293.115009 159.105175 
L 293.572733 142.19509 
L 294.030458 142.878164 
L 294.488182 144.760774 
L 294.945906 133.715059 
L 295.40363 137.880107 
L 295.861355 148.830034 
L 296.319079 145.164771 
L 296.776803 154.002991 
L 297.234527 144.127679 
L 298.149976 171.896072 
L 298.6077 151.816341 
L 299.065424 183.691465 
L 299.523149 163.620123 
L 299.980873 153.957182 
L 300.438597 154.956803 
L 301.354046 169.109628 
L 302.269494 147.334745 
L 302.727219 157.030989 
L 303.184943 161.566732 
L 303.642667 169.197078 
L 304.100391 167.035442 
L 304.558116 170.59241 
L 305.01584 164.85713 
L 305.473564 165.623485 
L 305.931288 188.989419 
L 306.389013 173.153873 
L 306.846737 178.072819 
L 307.304461 173.699519 
L 308.21991 168.093381 
L 308.677634 157.235072 
L 309.135358 152.195374 
L 309.593082 136.980442 
L 310.050807 144.964857 
L 310.508531 173.283014 
L 310.966255 161.941597 
L 311.42398 174.141038 
L 311.881704 164.144923 
L 312.339428 159.921559 
L 312.797152 160.508794 
L 313.712601 172.445836 
L 314.170325 177.864567 
L 314.628049 172.329202 
L 315.085774 181.196605 
L 315.543498 178.6809 
L 316.001222 198.556522 
L 316.458946 192.862909 
L 317.374395 167.243695 
L 317.832119 167.939276 
L 318.289843 180.69682 
L 318.747568 170.921414 
L 319.205292 174.299262 
L 319.663016 158.301349 
L 320.120741 156.206318 
L 320.578465 155.377477 
L 321.036189 160.812885 
L 321.493913 162.912035 
L 321.951638 169.809378 
L 322.409362 167.864283 
L 322.867086 154.540298 
L 323.32481 155.377477 
L 323.782535 146.797489 
L 324.240259 152.04127 
L 324.697983 155.84813 
L 325.155707 157.659915 
L 325.613432 152.778491 
L 326.071156 154.511166 
L 326.52888 158.272165 
L 326.986604 159.804925 
L 327.444329 145.277236 
L 327.902053 141.091342 
L 328.359777 142.45749 
L 328.817502 138.034211 
L 329.275226 129.854051 
L 329.73295 145.452186 
L 330.190674 152.507753 
L 331.106123 145.789529 
L 331.563847 136.613916 
L 332.021571 139.962631 
L 332.479296 134.006592 
L 332.93702 143.444605 
L 333.394744 138.34659 
L 334.310193 146.335174 
L 334.767917 141.241278 
L 335.225641 144.390079 
L 335.683365 144.540014 
L 336.14109 142.461659 
L 336.598814 137.463602 
L 337.056538 127.650725 
L 337.514262 127.050982 
L 337.971987 120.486862 
L 338.429711 125.17671 
L 338.887435 136.255728 
L 339.34516 128.717001 
L 340.260608 106.254875 
L 340.718332 109.132938 
L 341.176057 109.557781 
L 341.633781 113.01896 
L 342.091505 112.173443 
L 342.549229 108.141654 
L 343.006954 100.394675 
L 343.464678 96.708618 
L 343.922402 108.908009 
L 344.380126 106.563136 
L 345.295575 118.929139 
L 345.753299 116.979874 
L 346.211023 113.914405 
L 347.126472 103.435181 
L 347.584196 104.022416 
L 348.041921 100.686208 
L 348.957369 107.937571 
L 349.872818 105.017868 
L 350.330542 102.218968 
L 350.788266 98.691185 
L 351.703715 93.314094 
L 352.161439 89.982055 
L 352.619163 93.451522 
L 353.076887 85.133933 
L 353.534612 79.323712 
L 353.992336 79.444464 
L 354.45006 78.161647 
L 354.907784 75.191966 
L 355.365509 112.627419 
L 355.823233 109.766033 
L 356.280957 120.137013 
L 356.738682 118.1336 
L 357.196406 120.386905 
L 357.65413 114.63495 
L 358.111854 118.183579 
L 358.569579 124.302061 
L 359.027303 121.703075 
L 359.485027 131.532578 
L 359.942751 132.74879 
L 360.400476 140.983047 
L 360.8582 120.45356 
L 361.315924 118.79171 
L 361.773648 128.300496 
L 362.231373 127.684077 
L 362.689097 129.02938 
L 363.146821 131.186897 
L 363.604545 128.717001 
L 364.977718 141.982669 
L 365.435443 148.026157 
L 365.893167 164.149042 
L 366.350891 173.495436 
L 366.808615 169.117966 
L 367.26634 172.77906 
L 367.724064 169.417838 
L 368.639512 151.628934 
L 369.097237 158.726192 
L 370.012685 154.648594 
L 370.470409 154.915163 
L 370.928134 145.585445 
L 371.385858 147.35976 
L 371.843582 141.337117 
L 372.301306 146.268519 
L 372.759031 142.045155 
L 373.216755 144.094377 
L 373.674479 154.123794 
L 374.132203 155.893939 
L 374.589928 159.859073 
L 375.047652 149.942069 
L 375.505376 148.363551 
L 375.963101 142.669912 
L 376.420825 142.307555 
L 376.878549 139.600274 
L 377.336273 146.076943 
L 377.793998 136.913838 
L 378.251722 131.149375 
L 378.709446 132.494677 
L 379.16717 131.490937 
L 379.624895 130.91199 
L 380.082619 129.166808 
L 380.540343 132.882049 
L 380.998067 129.833256 
L 381.455792 135.601838 
L 381.913516 132.278138 
L 382.37124 136.788866 
L 382.828964 134.152409 
L 383.286689 97.062637 
L 383.744413 91.023317 
L 384.202137 97.479142 
L 384.659862 98.366299 
L 385.117586 101.38179 
L 385.57531 107.475257 
L 386.033034 119.982908 
L 386.948483 126.301253 
L 387.406207 114.376719 
L 387.863931 108.72894 
L 388.321656 117.054867 
L 388.77938 119.408129 
L 389.237104 118.691753 
L 389.694828 121.873805 
L 390.610277 112.127634 
L 391.068001 110.661529 
L 391.525725 110.465783 
L 391.98345 111.30708 
L 392.441174 114.901519 
L 392.898898 125.614061 
L 393.356623 115.805353 
L 393.814347 123.356587 
L 394.272071 114.380888 
L 394.729795 108.579005 
L 395.18752 116.284343 
L 395.645244 117.283965 
L 396.560692 104.917911 
L 397.018417 105.775935 
L 397.476141 110.353319 
L 397.933865 107.104561 
L 398.391589 98.949416 
L 398.849314 95.350808 
L 399.307038 96.04639 
L 399.764762 95.550722 
L 400.222486 96.12967 
L 400.680211 95.263358 
L 401.137935 94.713544 
L 401.595659 97.658261 
L 402.053384 92.064579 
L 402.511108 102.056525 
L 402.968832 91.173253 
L 403.426556 90.885889 
L 403.884281 100.144782 
L 404.342005 99.357582 
L 404.799729 110.182538 
L 405.257453 115.663755 
L 406.172902 105.809238 
L 406.630626 109.237064 
L 407.08835 108.170838 
L 407.546075 109.307888 
L 408.003799 98.716149 
L 408.461523 102.939513 
L 408.919247 99.769918 
L 409.376972 91.310681 
L 409.834696 87.316414 
L 410.29242 85.946148 
L 410.750144 88.441008 
L 411.665593 91.97713 
L 412.123317 84.105179 
L 412.581042 87.066522 
L 413.038766 77.486911 
L 413.49649 77.070407 
L 413.954214 85.754521 
L 414.869663 81.318735 
L 415.327387 77.024597 
L 415.785111 70.739554 
L 416.242836 71.201868 
L 416.70056 69.456687 
L 417.158284 66.441196 
L 417.616008 65.408272 
L 418.531457 69.914832 
L 418.989181 69.156816 
L 419.90463 53.604541 
L 420.362354 55.982767 
L 421.277803 67.38667 
L 421.735527 65.824777 
L 422.193251 68.632015 
L 422.650975 62.946715 
L 423.1087 60.651769 
L 423.566424 64.32537 
L 424.024148 66.008015 
L 424.481872 75.96249 
L 425.397321 55.828662 
L 426.312769 50.888921 
L 426.770494 50.439115 
L 427.228218 46.95709 
L 427.685942 49.077136 
L 428.143666 47.123702 
L 429.059115 41.080213 
L 429.974564 45.453514 
L 430.432288 40.792849 
L 430.890012 42.612973 
L 431.347736 46.161602 
L 431.805461 47.685973 
L 432.263185 40.417985 
L 432.720909 43.41263 
L 432.720909 43.41263 
" style="fill:none;stroke:#0000ff;stroke-linecap:square;stroke-width:1.5;"/>
   </g>
   <g id="patch_3">
    <path d="M 69.86 286.886956 
L 69.86 26.88 
" style="fill:none;stroke:#000000;stroke-linecap:square;stroke-linejoin:miter;stroke-width:0.8;"/>
   </g>
   <g id="patch_4">
    <path d="M 450 286.886956 
L 450 26.88 
" style="fill:none;stroke:#000000;stroke-linecap:square;stroke-linejoin:miter;stroke-width:0.8;"/>
   </g>
   <g id="patch_5">
    <path d="M 69.86 286.886956 
L 450 286.886956 
" style="fill:none;stroke:#000000;stroke-linecap:square;stroke-linejoin:miter;stroke-width:0.8;"/>
   </g>
   <g id="patch_6">
    <path d="M 69.86 26.88 
L 450 26.88 
" style="fill:none;stroke:#000000;stroke-linecap:square;stroke-linejoin:miter;stroke-width:0.8;"/>
   </g>
   <g id="text_19">
    <!-- Comparison between Buy-And-Hold and DQN portfolio  -->
    <g transform="translate(95.475625 20.88)scale(0.12 -0.12)">
     <defs>
      <path d="M 64.40625 67.28125 
L 64.40625 56.890625 
Q 59.421875 61.53125 53.78125 63.8125 
Q 48.140625 66.109375 41.796875 66.109375 
Q 29.296875 66.109375 22.65625 58.46875 
Q 16.015625 50.828125 16.015625 36.375 
Q 16.015625 21.96875 22.65625 14.328125 
Q 29.296875 6.6875 41.796875 6.6875 
Q 48.140625 6.6875 53.78125 8.984375 
Q 59.421875 11.28125 64.40625 15.921875 
L 64.40625 5.609375 
Q 59.234375 2.09375 53.4375 0.328125 
Q 47.65625 -1.421875 41.21875 -1.421875 
Q 24.65625 -1.421875 15.125 8.703125 
Q 5.609375 18.84375 5.609375 36.375 
Q 5.609375 53.953125 15.125 64.078125 
Q 24.65625 74.21875 41.21875 74.21875 
Q 47.75 74.21875 53.53125 72.484375 
Q 59.328125 70.75 64.40625 67.28125 
z
" id="DejaVuSans-67"/>
      <path d="M 52 44.1875 
Q 55.375 50.25 60.0625 53.125 
Q 64.75 56 71.09375 56 
Q 79.640625 56 84.28125 50.015625 
Q 88.921875 44.046875 88.921875 33.015625 
L 88.921875 0 
L 79.890625 0 
L 79.890625 32.71875 
Q 79.890625 40.578125 77.09375 44.375 
Q 74.3125 48.1875 68.609375 48.1875 
Q 61.625 48.1875 57.5625 43.546875 
Q 53.515625 38.921875 53.515625 30.90625 
L 53.515625 0 
L 44.484375 0 
L 44.484375 32.71875 
Q 44.484375 40.625 41.703125 44.40625 
Q 38.921875 48.1875 33.109375 48.1875 
Q 26.21875 48.1875 22.15625 43.53125 
Q 18.109375 38.875 18.109375 30.90625 
L 18.109375 0 
L 9.078125 0 
L 9.078125 54.6875 
L 18.109375 54.6875 
L 18.109375 46.1875 
Q 21.1875 51.21875 25.484375 53.609375 
Q 29.78125 56 35.6875 56 
Q 41.65625 56 45.828125 52.96875 
Q 50 49.953125 52 44.1875 
z
" id="DejaVuSans-109"/>
      <path d="M 18.109375 8.203125 
L 18.109375 -20.796875 
L 9.078125 -20.796875 
L 9.078125 54.6875 
L 18.109375 54.6875 
L 18.109375 46.390625 
Q 20.953125 51.265625 25.265625 53.625 
Q 29.59375 56 35.59375 56 
Q 45.5625 56 51.78125 48.09375 
Q 58.015625 40.1875 58.015625 27.296875 
Q 58.015625 14.40625 51.78125 6.484375 
Q 45.5625 -1.421875 35.59375 -1.421875 
Q 29.59375 -1.421875 25.265625 0.953125 
Q 20.953125 3.328125 18.109375 8.203125 
z
M 48.6875 27.296875 
Q 48.6875 37.203125 44.609375 42.84375 
Q 40.53125 48.484375 33.40625 48.484375 
Q 26.265625 48.484375 22.1875 42.84375 
Q 18.109375 37.203125 18.109375 27.296875 
Q 18.109375 17.390625 22.1875 11.75 
Q 26.265625 6.109375 33.40625 6.109375 
Q 40.53125 6.109375 44.609375 11.75 
Q 48.6875 17.390625 48.6875 27.296875 
z
" id="DejaVuSans-112"/>
      <path d="M 44.28125 53.078125 
L 44.28125 44.578125 
Q 40.484375 46.53125 36.375 47.5 
Q 32.28125 48.484375 27.875 48.484375 
Q 21.1875 48.484375 17.84375 46.4375 
Q 14.5 44.390625 14.5 40.28125 
Q 14.5 37.15625 16.890625 35.375 
Q 19.28125 33.59375 26.515625 31.984375 
L 29.59375 31.296875 
Q 39.15625 29.25 43.1875 25.515625 
Q 47.21875 21.78125 47.21875 15.09375 
Q 47.21875 7.46875 41.1875 3.015625 
Q 35.15625 -1.421875 24.609375 -1.421875 
Q 20.21875 -1.421875 15.453125 -0.5625 
Q 10.6875 0.296875 5.421875 2 
L 5.421875 11.28125 
Q 10.40625 8.6875 15.234375 7.390625 
Q 20.0625 6.109375 24.8125 6.109375 
Q 31.15625 6.109375 34.5625 8.28125 
Q 37.984375 10.453125 37.984375 14.40625 
Q 37.984375 18.0625 35.515625 20.015625 
Q 33.0625 21.96875 24.703125 23.78125 
L 21.578125 24.515625 
Q 13.234375 26.265625 9.515625 29.90625 
Q 5.8125 33.546875 5.8125 39.890625 
Q 5.8125 47.609375 11.28125 51.796875 
Q 16.75 56 26.8125 56 
Q 31.78125 56 36.171875 55.265625 
Q 40.578125 54.546875 44.28125 53.078125 
z
" id="DejaVuSans-115"/>
      <path d="M 54.890625 33.015625 
L 54.890625 0 
L 45.90625 0 
L 45.90625 32.71875 
Q 45.90625 40.484375 42.875 44.328125 
Q 39.84375 48.1875 33.796875 48.1875 
Q 26.515625 48.1875 22.3125 43.546875 
Q 18.109375 38.921875 18.109375 30.90625 
L 18.109375 0 
L 9.078125 0 
L 9.078125 54.6875 
L 18.109375 54.6875 
L 18.109375 46.1875 
Q 21.34375 51.125 25.703125 53.5625 
Q 30.078125 56 35.796875 56 
Q 45.21875 56 50.046875 50.171875 
Q 54.890625 44.34375 54.890625 33.015625 
z
" id="DejaVuSans-110"/>
      <path d="M 48.6875 27.296875 
Q 48.6875 37.203125 44.609375 42.84375 
Q 40.53125 48.484375 33.40625 48.484375 
Q 26.265625 48.484375 22.1875 42.84375 
Q 18.109375 37.203125 18.109375 27.296875 
Q 18.109375 17.390625 22.1875 11.75 
Q 26.265625 6.109375 33.40625 6.109375 
Q 40.53125 6.109375 44.609375 11.75 
Q 48.6875 17.390625 48.6875 27.296875 
z
M 18.109375 46.390625 
Q 20.953125 51.265625 25.265625 53.625 
Q 29.59375 56 35.59375 56 
Q 45.5625 56 51.78125 48.09375 
Q 58.015625 40.1875 58.015625 27.296875 
Q 58.015625 14.40625 51.78125 6.484375 
Q 45.5625 -1.421875 35.59375 -1.421875 
Q 29.59375 -1.421875 25.265625 0.953125 
Q 20.953125 3.328125 18.109375 8.203125 
L 18.109375 0 
L 9.078125 0 
L 9.078125 75.984375 
L 18.109375 75.984375 
z
" id="DejaVuSans-98"/>
      <path d="M 4.203125 54.6875 
L 13.1875 54.6875 
L 24.421875 12.015625 
L 35.59375 54.6875 
L 46.1875 54.6875 
L 57.421875 12.015625 
L 68.609375 54.6875 
L 77.59375 54.6875 
L 63.28125 0 
L 52.6875 0 
L 40.921875 44.828125 
L 29.109375 0 
L 18.5 0 
z
" id="DejaVuSans-119"/>
      <path d="M 19.671875 34.8125 
L 19.671875 8.109375 
L 35.5 8.109375 
Q 43.453125 8.109375 47.28125 11.40625 
Q 51.125 14.703125 51.125 21.484375 
Q 51.125 28.328125 47.28125 31.5625 
Q 43.453125 34.8125 35.5 34.8125 
z
M 19.671875 64.796875 
L 19.671875 42.828125 
L 34.28125 42.828125 
Q 41.5 42.828125 45.03125 45.53125 
Q 48.578125 48.25 48.578125 53.8125 
Q 48.578125 59.328125 45.03125 62.0625 
Q 41.5 64.796875 34.28125 64.796875 
z
M 9.8125 72.90625 
L 35.015625 72.90625 
Q 46.296875 72.90625 52.390625 68.21875 
Q 58.5 63.53125 58.5 54.890625 
Q 58.5 48.1875 55.375 44.234375 
Q 52.25 40.28125 46.1875 39.3125 
Q 53.46875 37.75 57.5 32.78125 
Q 61.53125 27.828125 61.53125 20.40625 
Q 61.53125 10.640625 54.890625 5.3125 
Q 48.25 0 35.984375 0 
L 9.8125 0 
z
" id="DejaVuSans-66"/>
      <path d="M 32.171875 -5.078125 
Q 28.375 -14.84375 24.75 -17.8125 
Q 21.140625 -20.796875 15.09375 -20.796875 
L 7.90625 -20.796875 
L 7.90625 -13.28125 
L 13.1875 -13.28125 
Q 16.890625 -13.28125 18.9375 -11.515625 
Q 21 -9.765625 23.484375 -3.21875 
L 25.09375 0.875 
L 2.984375 54.6875 
L 12.5 54.6875 
L 29.59375 11.921875 
L 46.6875 54.6875 
L 56.203125 54.6875 
z
" id="DejaVuSans-121"/>
      <path d="M 4.890625 31.390625 
L 31.203125 31.390625 
L 31.203125 23.390625 
L 4.890625 23.390625 
z
" id="DejaVuSans-45"/>
      <path d="M 34.1875 63.1875 
L 20.796875 26.90625 
L 47.609375 26.90625 
z
M 28.609375 72.90625 
L 39.796875 72.90625 
L 67.578125 0 
L 57.328125 0 
L 50.6875 18.703125 
L 17.828125 18.703125 
L 11.1875 0 
L 0.78125 0 
z
" id="DejaVuSans-65"/>
      <path d="M 45.40625 46.390625 
L 45.40625 75.984375 
L 54.390625 75.984375 
L 54.390625 0 
L 45.40625 0 
L 45.40625 8.203125 
Q 42.578125 3.328125 38.25 0.953125 
Q 33.9375 -1.421875 27.875 -1.421875 
Q 17.96875 -1.421875 11.734375 6.484375 
Q 5.515625 14.40625 5.515625 27.296875 
Q 5.515625 40.1875 11.734375 48.09375 
Q 17.96875 56 27.875 56 
Q 33.9375 56 38.25 53.625 
Q 42.578125 51.265625 45.40625 46.390625 
z
M 14.796875 27.296875 
Q 14.796875 17.390625 18.875 11.75 
Q 22.953125 6.109375 30.078125 6.109375 
Q 37.203125 6.109375 41.296875 11.75 
Q 45.40625 17.390625 45.40625 27.296875 
Q 45.40625 37.203125 41.296875 42.84375 
Q 37.203125 48.484375 30.078125 48.484375 
Q 22.953125 48.484375 18.875 42.84375 
Q 14.796875 37.203125 14.796875 27.296875 
z
" id="DejaVuSans-100"/>
      <path d="M 9.8125 72.90625 
L 19.671875 72.90625 
L 19.671875 43.015625 
L 55.515625 43.015625 
L 55.515625 72.90625 
L 65.375 72.90625 
L 65.375 0 
L 55.515625 0 
L 55.515625 34.71875 
L 19.671875 34.71875 
L 19.671875 0 
L 9.8125 0 
z
" id="DejaVuSans-72"/>
      <path d="M 39.40625 66.21875 
Q 28.65625 66.21875 22.328125 58.203125 
Q 16.015625 50.203125 16.015625 36.375 
Q 16.015625 22.609375 22.328125 14.59375 
Q 28.65625 6.59375 39.40625 6.59375 
Q 50.140625 6.59375 56.421875 14.59375 
Q 62.703125 22.609375 62.703125 36.375 
Q 62.703125 50.203125 56.421875 58.203125 
Q 50.140625 66.21875 39.40625 66.21875 
z
M 53.21875 1.3125 
L 66.21875 -12.890625 
L 54.296875 -12.890625 
L 43.5 -1.21875 
Q 41.890625 -1.3125 41.03125 -1.359375 
Q 40.1875 -1.421875 39.40625 -1.421875 
Q 24.03125 -1.421875 14.8125 8.859375 
Q 5.609375 19.140625 5.609375 36.375 
Q 5.609375 53.65625 14.8125 63.9375 
Q 24.03125 74.21875 39.40625 74.21875 
Q 54.734375 74.21875 63.90625 63.9375 
Q 73.09375 53.65625 73.09375 36.375 
Q 73.09375 23.6875 67.984375 14.640625 
Q 62.890625 5.609375 53.21875 1.3125 
z
" id="DejaVuSans-81"/>
      <path d="M 9.8125 72.90625 
L 23.09375 72.90625 
L 55.421875 11.921875 
L 55.421875 72.90625 
L 64.984375 72.90625 
L 64.984375 0 
L 51.703125 0 
L 19.390625 60.984375 
L 19.390625 0 
L 9.8125 0 
z
" id="DejaVuSans-78"/>
     </defs>
     <use xlink:href="#DejaVuSans-67"/>
     <use x="69.824219" xlink:href="#DejaVuSans-111"/>
     <use x="131.005859" xlink:href="#DejaVuSans-109"/>
     <use x="228.417969" xlink:href="#DejaVuSans-112"/>
     <use x="291.894531" xlink:href="#DejaVuSans-97"/>
     <use x="353.173828" xlink:href="#DejaVuSans-114"/>
     <use x="394.287109" xlink:href="#DejaVuSans-105"/>
     <use x="422.070312" xlink:href="#DejaVuSans-115"/>
     <use x="474.169922" xlink:href="#DejaVuSans-111"/>
     <use x="535.351562" xlink:href="#DejaVuSans-110"/>
     <use x="598.730469" xlink:href="#DejaVuSans-32"/>
     <use x="630.517578" xlink:href="#DejaVuSans-98"/>
     <use x="693.994141" xlink:href="#DejaVuSans-101"/>
     <use x="755.517578" xlink:href="#DejaVuSans-116"/>
     <use x="794.726562" xlink:href="#DejaVuSans-119"/>
     <use x="876.513672" xlink:href="#DejaVuSans-101"/>
     <use x="938.037109" xlink:href="#DejaVuSans-101"/>
     <use x="999.560547" xlink:href="#DejaVuSans-110"/>
     <use x="1062.939453" xlink:href="#DejaVuSans-32"/>
     <use x="1094.726562" xlink:href="#DejaVuSans-66"/>
     <use x="1163.330078" xlink:href="#DejaVuSans-117"/>
     <use x="1226.708984" xlink:href="#DejaVuSans-121"/>
     <use x="1284.138672" xlink:href="#DejaVuSans-45"/>
     <use x="1317.972656" xlink:href="#DejaVuSans-65"/>
     <use x="1386.380859" xlink:href="#DejaVuSans-110"/>
     <use x="1449.759766" xlink:href="#DejaVuSans-100"/>
     <use x="1513.236328" xlink:href="#DejaVuSans-45"/>
     <use x="1549.320312" xlink:href="#DejaVuSans-72"/>
     <use x="1624.515625" xlink:href="#DejaVuSans-111"/>
     <use x="1685.697266" xlink:href="#DejaVuSans-108"/>
     <use x="1713.480469" xlink:href="#DejaVuSans-100"/>
     <use x="1776.957031" xlink:href="#DejaVuSans-32"/>
     <use x="1808.744141" xlink:href="#DejaVuSans-97"/>
     <use x="1870.023438" xlink:href="#DejaVuSans-110"/>
     <use x="1933.402344" xlink:href="#DejaVuSans-100"/>
     <use x="1996.878906" xlink:href="#DejaVuSans-32"/>
     <use x="2028.666016" xlink:href="#DejaVuSans-68"/>
     <use x="2105.667969" xlink:href="#DejaVuSans-81"/>
     <use x="2184.378906" xlink:href="#DejaVuSans-78"/>
     <use x="2259.183594" xlink:href="#DejaVuSans-32"/>
     <use x="2290.970703" xlink:href="#DejaVuSans-112"/>
     <use x="2354.447266" xlink:href="#DejaVuSans-111"/>
     <use x="2415.628906" xlink:href="#DejaVuSans-114"/>
     <use x="2456.742188" xlink:href="#DejaVuSans-116"/>
     <use x="2495.951172" xlink:href="#DejaVuSans-102"/>
     <use x="2531.15625" xlink:href="#DejaVuSans-111"/>
     <use x="2592.337891" xlink:href="#DejaVuSans-108"/>
     <use x="2620.121094" xlink:href="#DejaVuSans-105"/>
     <use x="2647.904297" xlink:href="#DejaVuSans-111"/>
     <use x="2709.085938" xlink:href="#DejaVuSans-32"/>
    </g>
   </g>
   <g id="legend_1">
    <g id="patch_7">
     <path d="M 76.86 64.23625 
L 303.499063 64.23625 
Q 305.499063 64.23625 305.499063 62.23625 
L 305.499063 33.88 
Q 305.499063 31.88 303.499063 31.88 
L 76.86 31.88 
Q 74.86 31.88 74.86 33.88 
L 74.86 62.23625 
Q 74.86 64.23625 76.86 64.23625 
z
" style="fill:#ffffff;opacity:0.8;stroke:#cccccc;stroke-linejoin:miter;"/>
    </g>
    <g id="line2d_35">
     <path d="M 78.86 39.978437 
L 98.86 39.978437 
" style="fill:none;stroke:#ff0000;stroke-linecap:square;stroke-width:1.5;"/>
    </g>
    <g id="line2d_36"/>
    <g id="text_20">
     <!-- Reinforcement Learning Portfolio Value -->
     <g transform="translate(106.86 43.478437)scale(0.1 -0.1)">
      <defs>
       <path d="M 44.390625 34.1875 
Q 47.5625 33.109375 50.5625 29.59375 
Q 53.5625 26.078125 56.59375 19.921875 
L 66.609375 0 
L 56 0 
L 46.6875 18.703125 
Q 43.0625 26.03125 39.671875 28.421875 
Q 36.28125 30.8125 30.421875 30.8125 
L 19.671875 30.8125 
L 19.671875 0 
L 9.8125 0 
L 9.8125 72.90625 
L 32.078125 72.90625 
Q 44.578125 72.90625 50.734375 67.671875 
Q 56.890625 62.453125 56.890625 51.90625 
Q 56.890625 45.015625 53.6875 40.46875 
Q 50.484375 35.9375 44.390625 34.1875 
z
M 19.671875 64.796875 
L 19.671875 38.921875 
L 32.078125 38.921875 
Q 39.203125 38.921875 42.84375 42.21875 
Q 46.484375 45.515625 46.484375 51.90625 
Q 46.484375 58.296875 42.84375 61.546875 
Q 39.203125 64.796875 32.078125 64.796875 
z
" id="DejaVuSans-82"/>
       <path d="M 48.78125 52.59375 
L 48.78125 44.1875 
Q 44.96875 46.296875 41.140625 47.34375 
Q 37.3125 48.390625 33.40625 48.390625 
Q 24.65625 48.390625 19.8125 42.84375 
Q 14.984375 37.3125 14.984375 27.296875 
Q 14.984375 17.28125 19.8125 11.734375 
Q 24.65625 6.203125 33.40625 6.203125 
Q 37.3125 6.203125 41.140625 7.25 
Q 44.96875 8.296875 48.78125 10.40625 
L 48.78125 2.09375 
Q 45.015625 0.34375 40.984375 -0.53125 
Q 36.96875 -1.421875 32.421875 -1.421875 
Q 20.0625 -1.421875 12.78125 6.34375 
Q 5.515625 14.109375 5.515625 27.296875 
Q 5.515625 40.671875 12.859375 48.328125 
Q 20.21875 56 33.015625 56 
Q 37.15625 56 41.109375 55.140625 
Q 45.0625 54.296875 48.78125 52.59375 
z
" id="DejaVuSans-99"/>
       <path d="M 9.8125 72.90625 
L 19.671875 72.90625 
L 19.671875 8.296875 
L 55.171875 8.296875 
L 55.171875 0 
L 9.8125 0 
z
" id="DejaVuSans-76"/>
       <path d="M 45.40625 27.984375 
Q 45.40625 37.75 41.375 43.109375 
Q 37.359375 48.484375 30.078125 48.484375 
Q 22.859375 48.484375 18.828125 43.109375 
Q 14.796875 37.75 14.796875 27.984375 
Q 14.796875 18.265625 18.828125 12.890625 
Q 22.859375 7.515625 30.078125 7.515625 
Q 37.359375 7.515625 41.375 12.890625 
Q 45.40625 18.265625 45.40625 27.984375 
z
M 54.390625 6.78125 
Q 54.390625 -7.171875 48.1875 -13.984375 
Q 42 -20.796875 29.203125 -20.796875 
Q 24.46875 -20.796875 20.265625 -20.09375 
Q 16.0625 -19.390625 12.109375 -17.921875 
L 12.109375 -9.1875 
Q 16.0625 -11.328125 19.921875 -12.34375 
Q 23.78125 -13.375 27.78125 -13.375 
Q 36.625 -13.375 41.015625 -8.765625 
Q 45.40625 -4.15625 45.40625 5.171875 
L 45.40625 9.625 
Q 42.625 4.78125 38.28125 2.390625 
Q 33.9375 0 27.875 0 
Q 17.828125 0 11.671875 7.65625 
Q 5.515625 15.328125 5.515625 27.984375 
Q 5.515625 40.671875 11.671875 48.328125 
Q 17.828125 56 27.875 56 
Q 33.9375 56 38.28125 53.609375 
Q 42.625 51.21875 45.40625 46.390625 
L 45.40625 54.6875 
L 54.390625 54.6875 
z
" id="DejaVuSans-103"/>
      </defs>
      <use xlink:href="#DejaVuSans-82"/>
      <use x="64.982422" xlink:href="#DejaVuSans-101"/>
      <use x="126.505859" xlink:href="#DejaVuSans-105"/>
      <use x="154.289062" xlink:href="#DejaVuSans-110"/>
      <use x="217.667969" xlink:href="#DejaVuSans-102"/>
      <use x="252.873047" xlink:href="#DejaVuSans-111"/>
      <use x="314.054688" xlink:href="#DejaVuSans-114"/>
      <use x="352.917969" xlink:href="#DejaVuSans-99"/>
      <use x="407.898438" xlink:href="#DejaVuSans-101"/>
      <use x="469.421875" xlink:href="#DejaVuSans-109"/>
      <use x="566.833984" xlink:href="#DejaVuSans-101"/>
      <use x="628.357422" xlink:href="#DejaVuSans-110"/>
      <use x="691.736328" xlink:href="#DejaVuSans-116"/>
      <use x="730.945312" xlink:href="#DejaVuSans-32"/>
      <use x="762.732422" xlink:href="#DejaVuSans-76"/>
      <use x="816.695312" xlink:href="#DejaVuSans-101"/>
      <use x="878.21875" xlink:href="#DejaVuSans-97"/>
      <use x="939.498047" xlink:href="#DejaVuSans-114"/>
      <use x="978.861328" xlink:href="#DejaVuSans-110"/>
      <use x="1042.240234" xlink:href="#DejaVuSans-105"/>
      <use x="1070.023438" xlink:href="#DejaVuSans-110"/>
      <use x="1133.402344" xlink:href="#DejaVuSans-103"/>
      <use x="1196.878906" xlink:href="#DejaVuSans-32"/>
      <use x="1228.666016" xlink:href="#DejaVuSans-80"/>
      <use x="1285.34375" xlink:href="#DejaVuSans-111"/>
      <use x="1346.525391" xlink:href="#DejaVuSans-114"/>
      <use x="1387.638672" xlink:href="#DejaVuSans-116"/>
      <use x="1426.847656" xlink:href="#DejaVuSans-102"/>
      <use x="1462.052734" xlink:href="#DejaVuSans-111"/>
      <use x="1523.234375" xlink:href="#DejaVuSans-108"/>
      <use x="1551.017578" xlink:href="#DejaVuSans-105"/>
      <use x="1578.800781" xlink:href="#DejaVuSans-111"/>
      <use x="1639.982422" xlink:href="#DejaVuSans-32"/>
      <use x="1671.769531" xlink:href="#DejaVuSans-86"/>
      <use x="1732.427734" xlink:href="#DejaVuSans-97"/>
      <use x="1793.707031" xlink:href="#DejaVuSans-108"/>
      <use x="1821.490234" xlink:href="#DejaVuSans-117"/>
      <use x="1884.869141" xlink:href="#DejaVuSans-101"/>
     </g>
    </g>
    <g id="line2d_37">
     <path d="M 78.86 54.656563 
L 98.86 54.656563 
" style="fill:none;stroke:#0000ff;stroke-linecap:square;stroke-width:1.5;"/>
    </g>
    <g id="line2d_38"/>
    <g id="text_21">
     <!-- Buy and Hold Strategy Portfolio Value -->
     <g transform="translate(106.86 58.156563)scale(0.1 -0.1)">
      <defs>
       <path d="M 53.515625 70.515625 
L 53.515625 60.890625 
Q 47.90625 63.578125 42.921875 64.890625 
Q 37.9375 66.21875 33.296875 66.21875 
Q 25.25 66.21875 20.875 63.09375 
Q 16.5 59.96875 16.5 54.203125 
Q 16.5 49.359375 19.40625 46.890625 
Q 22.3125 44.4375 30.421875 42.921875 
L 36.375 41.703125 
Q 47.40625 39.59375 52.65625 34.296875 
Q 57.90625 29 57.90625 20.125 
Q 57.90625 9.515625 50.796875 4.046875 
Q 43.703125 -1.421875 29.984375 -1.421875 
Q 24.8125 -1.421875 18.96875 -0.25 
Q 13.140625 0.921875 6.890625 3.21875 
L 6.890625 13.375 
Q 12.890625 10.015625 18.65625 8.296875 
Q 24.421875 6.59375 29.984375 6.59375 
Q 38.421875 6.59375 43.015625 9.90625 
Q 47.609375 13.234375 47.609375 19.390625 
Q 47.609375 24.75 44.3125 27.78125 
Q 41.015625 30.8125 33.5 32.328125 
L 27.484375 33.5 
Q 16.453125 35.6875 11.515625 40.375 
Q 6.59375 45.0625 6.59375 53.421875 
Q 6.59375 63.09375 13.40625 68.65625 
Q 20.21875 74.21875 32.171875 74.21875 
Q 37.3125 74.21875 42.625 73.28125 
Q 47.953125 72.359375 53.515625 70.515625 
z
" id="DejaVuSans-83"/>
      </defs>
      <use xlink:href="#DejaVuSans-66"/>
      <use x="68.603516" xlink:href="#DejaVuSans-117"/>
      <use x="131.982422" xlink:href="#DejaVuSans-121"/>
      <use x="191.162109" xlink:href="#DejaVuSans-32"/>
      <use x="222.949219" xlink:href="#DejaVuSans-97"/>
      <use x="284.228516" xlink:href="#DejaVuSans-110"/>
      <use x="347.607422" xlink:href="#DejaVuSans-100"/>
      <use x="411.083984" xlink:href="#DejaVuSans-32"/>
      <use x="442.871094" xlink:href="#DejaVuSans-72"/>
      <use x="518.066406" xlink:href="#DejaVuSans-111"/>
      <use x="579.248047" xlink:href="#DejaVuSans-108"/>
      <use x="607.03125" xlink:href="#DejaVuSans-100"/>
      <use x="670.507812" xlink:href="#DejaVuSans-32"/>
      <use x="702.294922" xlink:href="#DejaVuSans-83"/>
      <use x="765.771484" xlink:href="#DejaVuSans-116"/>
      <use x="804.980469" xlink:href="#DejaVuSans-114"/>
      <use x="846.09375" xlink:href="#DejaVuSans-97"/>
      <use x="907.373047" xlink:href="#DejaVuSans-116"/>
      <use x="946.582031" xlink:href="#DejaVuSans-101"/>
      <use x="1008.105469" xlink:href="#DejaVuSans-103"/>
      <use x="1071.582031" xlink:href="#DejaVuSans-121"/>
      <use x="1130.761719" xlink:href="#DejaVuSans-32"/>
      <use x="1162.548828" xlink:href="#DejaVuSans-80"/>
      <use x="1219.226562" xlink:href="#DejaVuSans-111"/>
      <use x="1280.408203" xlink:href="#DejaVuSans-114"/>
      <use x="1321.521484" xlink:href="#DejaVuSans-116"/>
      <use x="1360.730469" xlink:href="#DejaVuSans-102"/>
      <use x="1395.935547" xlink:href="#DejaVuSans-111"/>
      <use x="1457.117188" xlink:href="#DejaVuSans-108"/>
      <use x="1484.900391" xlink:href="#DejaVuSans-105"/>
      <use x="1512.683594" xlink:href="#DejaVuSans-111"/>
      <use x="1573.865234" xlink:href="#DejaVuSans-32"/>
      <use x="1605.652344" xlink:href="#DejaVuSans-86"/>
      <use x="1666.310547" xlink:href="#DejaVuSans-97"/>
      <use x="1727.589844" xlink:href="#DejaVuSans-108"/>
      <use x="1755.373047" xlink:href="#DejaVuSans-117"/>
      <use x="1818.751953" xlink:href="#DejaVuSans-101"/>
     </g>
    </g>
   </g>
  </g>
 </g>
 <defs>
  <clipPath id="pc3019b2f4e">
   <rect height="260.006956" width="380.14" x="69.86" y="26.88"/>
  </clipPath>
 </defs>
</svg>
