<?xml version="1.0" encoding="utf-8" standalone="no"?>
<!DOCTYPE svg PUBLIC "-//W3C//DTD SVG 1.1//EN"
  "http://www.w3.org/Graphics/SVG/1.1/DTD/svg11.dtd">
<!-- Created with matplotlib (https://matplotlib.org/) -->
<svg height="345.6pt" version="1.1" viewBox="0 0 460.8 345.6" width="460.8pt" xmlns="http://www.w3.org/2000/svg" xmlns:xlink="http://www.w3.org/1999/xlink">
 <metadata>
  <rdf:RDF xmlns:cc="http://creativecommons.org/ns#" xmlns:dc="http://purl.org/dc/elements/1.1/" xmlns:rdf="http://www.w3.org/1999/02/22-rdf-syntax-ns#">
   <cc:Work>
    <dc:type rdf:resource="http://purl.org/dc/dcmitype/StillImage"/>
    <dc:date>2020-11-17T20:51:13.033670</dc:date>
    <dc:format>image/svg+xml</dc:format>
    <dc:creator>
     <cc:Agent>
      <dc:title>Matplotlib v3.3.2, https://matplotlib.org/</dc:title>
     </cc:Agent>
    </dc:creator>
   </cc:Work>
  </rdf:RDF>
 </metadata>
 <defs>
  <style type="text/css">*{stroke-linecap:butt;stroke-linejoin:round;}</style>
 </defs>
 <g id="figure_1">
  <g id="patch_1">
   <path d="M 0 345.6 
L 460.8 345.6 
L 460.8 0 
L 0 0 
z
" style="fill:#ffffff;"/>
  </g>
  <g id="axes_1">
   <g id="patch_2">
    <path d="M 69.86 286.886956 
L 450 286.886956 
L 450 26.88 
L 69.86 26.88 
z
" style="fill:#ffffff;"/>
   </g>
   <g id="matplotlib.axis_1">
    <g id="xtick_1">
     <g id="line2d_1">
      <path clip-path="url(#p6cb57333d9)" d="M 87.139091 286.886956 
L 87.139091 26.88 
" style="fill:none;stroke:#b0b0b0;stroke-linecap:square;stroke-width:0.8;"/>
     </g>
     <g id="line2d_2">
      <defs>
       <path d="M 0 0 
L 0 3.5 
" id="mced77b4b0f" style="stroke:#000000;stroke-width:0.8;"/>
      </defs>
      <g>
       <use style="stroke:#000000;stroke-width:0.8;" x="87.139091" xlink:href="#mced77b4b0f" y="286.886956"/>
      </g>
     </g>
     <g id="text_1">
      <!-- 20170103 -->
      <g transform="translate(64.167676 318.435977)rotate(-20)scale(0.1 -0.1)">
       <defs>
        <path d="M 19.1875 8.296875 
L 53.609375 8.296875 
L 53.609375 0 
L 7.328125 0 
L 7.328125 8.296875 
Q 12.9375 14.109375 22.625 23.890625 
Q 32.328125 33.6875 34.8125 36.53125 
Q 39.546875 41.84375 41.421875 45.53125 
Q 43.3125 49.21875 43.3125 52.78125 
Q 43.3125 58.59375 39.234375 62.25 
Q 35.15625 65.921875 28.609375 65.921875 
Q 23.96875 65.921875 18.8125 64.3125 
Q 13.671875 62.703125 7.8125 59.421875 
L 7.8125 69.390625 
Q 13.765625 71.78125 18.9375 73 
Q 24.125 74.21875 28.421875 74.21875 
Q 39.75 74.21875 46.484375 68.546875 
Q 53.21875 62.890625 53.21875 53.421875 
Q 53.21875 48.921875 51.53125 44.890625 
Q 49.859375 40.875 45.40625 35.40625 
Q 44.1875 33.984375 37.640625 27.21875 
Q 31.109375 20.453125 19.1875 8.296875 
z
" id="DejaVuSans-50"/>
        <path d="M 31.78125 66.40625 
Q 24.171875 66.40625 20.328125 58.90625 
Q 16.5 51.421875 16.5 36.375 
Q 16.5 21.390625 20.328125 13.890625 
Q 24.171875 6.390625 31.78125 6.390625 
Q 39.453125 6.390625 43.28125 13.890625 
Q 47.125 21.390625 47.125 36.375 
Q 47.125 51.421875 43.28125 58.90625 
Q 39.453125 66.40625 31.78125 66.40625 
z
M 31.78125 74.21875 
Q 44.046875 74.21875 50.515625 64.515625 
Q 56.984375 54.828125 56.984375 36.375 
Q 56.984375 17.96875 50.515625 8.265625 
Q 44.046875 -1.421875 31.78125 -1.421875 
Q 19.53125 -1.421875 13.0625 8.265625 
Q 6.59375 17.96875 6.59375 36.375 
Q 6.59375 54.828125 13.0625 64.515625 
Q 19.53125 74.21875 31.78125 74.21875 
z
" id="DejaVuSans-48"/>
        <path d="M 12.40625 8.296875 
L 28.515625 8.296875 
L 28.515625 63.921875 
L 10.984375 60.40625 
L 10.984375 69.390625 
L 28.421875 72.90625 
L 38.28125 72.90625 
L 38.28125 8.296875 
L 54.390625 8.296875 
L 54.390625 0 
L 12.40625 0 
z
" id="DejaVuSans-49"/>
        <path d="M 8.203125 72.90625 
L 55.078125 72.90625 
L 55.078125 68.703125 
L 28.609375 0 
L 18.3125 0 
L 43.21875 64.59375 
L 8.203125 64.59375 
z
" id="DejaVuSans-55"/>
        <path d="M 40.578125 39.3125 
Q 47.65625 37.796875 51.625 33 
Q 55.609375 28.21875 55.609375 21.1875 
Q 55.609375 10.40625 48.1875 4.484375 
Q 40.765625 -1.421875 27.09375 -1.421875 
Q 22.515625 -1.421875 17.65625 -0.515625 
Q 12.796875 0.390625 7.625 2.203125 
L 7.625 11.71875 
Q 11.71875 9.328125 16.59375 8.109375 
Q 21.484375 6.890625 26.8125 6.890625 
Q 36.078125 6.890625 40.9375 10.546875 
Q 45.796875 14.203125 45.796875 21.1875 
Q 45.796875 27.640625 41.28125 31.265625 
Q 36.765625 34.90625 28.71875 34.90625 
L 20.21875 34.90625 
L 20.21875 43.015625 
L 29.109375 43.015625 
Q 36.375 43.015625 40.234375 45.921875 
Q 44.09375 48.828125 44.09375 54.296875 
Q 44.09375 59.90625 40.109375 62.90625 
Q 36.140625 65.921875 28.71875 65.921875 
Q 24.65625 65.921875 20.015625 65.03125 
Q 15.375 64.15625 9.8125 62.3125 
L 9.8125 71.09375 
Q 15.4375 72.65625 20.34375 73.4375 
Q 25.25 74.21875 29.59375 74.21875 
Q 40.828125 74.21875 47.359375 69.109375 
Q 53.90625 64.015625 53.90625 55.328125 
Q 53.90625 49.265625 50.4375 45.09375 
Q 46.96875 40.921875 40.578125 39.3125 
z
" id="DejaVuSans-51"/>
       </defs>
       <use xlink:href="#DejaVuSans-50"/>
       <use x="63.623047" xlink:href="#DejaVuSans-48"/>
       <use x="127.246094" xlink:href="#DejaVuSans-49"/>
       <use x="190.869141" xlink:href="#DejaVuSans-55"/>
       <use x="254.492188" xlink:href="#DejaVuSans-48"/>
       <use x="318.115234" xlink:href="#DejaVuSans-49"/>
       <use x="381.738281" xlink:href="#DejaVuSans-48"/>
       <use x="445.361328" xlink:href="#DejaVuSans-51"/>
      </g>
     </g>
    </g>
    <g id="xtick_2">
     <g id="line2d_3">
      <path clip-path="url(#p6cb57333d9)" d="M 133.09412 286.886956 
L 133.09412 26.88 
" style="fill:none;stroke:#b0b0b0;stroke-linecap:square;stroke-width:0.8;"/>
     </g>
     <g id="line2d_4">
      <g>
       <use style="stroke:#000000;stroke-width:0.8;" x="133.09412" xlink:href="#mced77b4b0f" y="286.886956"/>
      </g>
     </g>
     <g id="text_2">
      <!-- 20170526 -->
      <g transform="translate(110.122705 318.435977)rotate(-20)scale(0.1 -0.1)">
       <defs>
        <path d="M 10.796875 72.90625 
L 49.515625 72.90625 
L 49.515625 64.59375 
L 19.828125 64.59375 
L 19.828125 46.734375 
Q 21.96875 47.46875 24.109375 47.828125 
Q 26.265625 48.1875 28.421875 48.1875 
Q 40.625 48.1875 47.75 41.5 
Q 54.890625 34.8125 54.890625 23.390625 
Q 54.890625 11.625 47.5625 5.09375 
Q 40.234375 -1.421875 26.90625 -1.421875 
Q 22.3125 -1.421875 17.546875 -0.640625 
Q 12.796875 0.140625 7.71875 1.703125 
L 7.71875 11.625 
Q 12.109375 9.234375 16.796875 8.0625 
Q 21.484375 6.890625 26.703125 6.890625 
Q 35.15625 6.890625 40.078125 11.328125 
Q 45.015625 15.765625 45.015625 23.390625 
Q 45.015625 31 40.078125 35.4375 
Q 35.15625 39.890625 26.703125 39.890625 
Q 22.75 39.890625 18.8125 39.015625 
Q 14.890625 38.140625 10.796875 36.28125 
z
" id="DejaVuSans-53"/>
        <path d="M 33.015625 40.375 
Q 26.375 40.375 22.484375 35.828125 
Q 18.609375 31.296875 18.609375 23.390625 
Q 18.609375 15.53125 22.484375 10.953125 
Q 26.375 6.390625 33.015625 6.390625 
Q 39.65625 6.390625 43.53125 10.953125 
Q 47.40625 15.53125 47.40625 23.390625 
Q 47.40625 31.296875 43.53125 35.828125 
Q 39.65625 40.375 33.015625 40.375 
z
M 52.59375 71.296875 
L 52.59375 62.3125 
Q 48.875 64.0625 45.09375 64.984375 
Q 41.3125 65.921875 37.59375 65.921875 
Q 27.828125 65.921875 22.671875 59.328125 
Q 17.53125 52.734375 16.796875 39.40625 
Q 19.671875 43.65625 24.015625 45.921875 
Q 28.375 48.1875 33.59375 48.1875 
Q 44.578125 48.1875 50.953125 41.515625 
Q 57.328125 34.859375 57.328125 23.390625 
Q 57.328125 12.15625 50.6875 5.359375 
Q 44.046875 -1.421875 33.015625 -1.421875 
Q 20.359375 -1.421875 13.671875 8.265625 
Q 6.984375 17.96875 6.984375 36.375 
Q 6.984375 53.65625 15.1875 63.9375 
Q 23.390625 74.21875 37.203125 74.21875 
Q 40.921875 74.21875 44.703125 73.484375 
Q 48.484375 72.75 52.59375 71.296875 
z
" id="DejaVuSans-54"/>
       </defs>
       <use xlink:href="#DejaVuSans-50"/>
       <use x="63.623047" xlink:href="#DejaVuSans-48"/>
       <use x="127.246094" xlink:href="#DejaVuSans-49"/>
       <use x="190.869141" xlink:href="#DejaVuSans-55"/>
       <use x="254.492188" xlink:href="#DejaVuSans-48"/>
       <use x="318.115234" xlink:href="#DejaVuSans-53"/>
       <use x="381.738281" xlink:href="#DejaVuSans-50"/>
       <use x="445.361328" xlink:href="#DejaVuSans-54"/>
      </g>
     </g>
    </g>
    <g id="xtick_3">
     <g id="line2d_5">
      <path clip-path="url(#p6cb57333d9)" d="M 179.049149 286.886956 
L 179.049149 26.88 
" style="fill:none;stroke:#b0b0b0;stroke-linecap:square;stroke-width:0.8;"/>
     </g>
     <g id="line2d_6">
      <g>
       <use style="stroke:#000000;stroke-width:0.8;" x="179.049149" xlink:href="#mced77b4b0f" y="286.886956"/>
      </g>
     </g>
     <g id="text_3">
      <!-- 20171018 -->
      <g transform="translate(156.077734 318.435977)rotate(-20)scale(0.1 -0.1)">
       <defs>
        <path d="M 31.78125 34.625 
Q 24.75 34.625 20.71875 30.859375 
Q 16.703125 27.09375 16.703125 20.515625 
Q 16.703125 13.921875 20.71875 10.15625 
Q 24.75 6.390625 31.78125 6.390625 
Q 38.8125 6.390625 42.859375 10.171875 
Q 46.921875 13.96875 46.921875 20.515625 
Q 46.921875 27.09375 42.890625 30.859375 
Q 38.875 34.625 31.78125 34.625 
z
M 21.921875 38.8125 
Q 15.578125 40.375 12.03125 44.71875 
Q 8.5 49.078125 8.5 55.328125 
Q 8.5 64.0625 14.71875 69.140625 
Q 20.953125 74.21875 31.78125 74.21875 
Q 42.671875 74.21875 48.875 69.140625 
Q 55.078125 64.0625 55.078125 55.328125 
Q 55.078125 49.078125 51.53125 44.71875 
Q 48 40.375 41.703125 38.8125 
Q 48.828125 37.15625 52.796875 32.3125 
Q 56.78125 27.484375 56.78125 20.515625 
Q 56.78125 9.90625 50.3125 4.234375 
Q 43.84375 -1.421875 31.78125 -1.421875 
Q 19.734375 -1.421875 13.25 4.234375 
Q 6.78125 9.90625 6.78125 20.515625 
Q 6.78125 27.484375 10.78125 32.3125 
Q 14.796875 37.15625 21.921875 38.8125 
z
M 18.3125 54.390625 
Q 18.3125 48.734375 21.84375 45.5625 
Q 25.390625 42.390625 31.78125 42.390625 
Q 38.140625 42.390625 41.71875 45.5625 
Q 45.3125 48.734375 45.3125 54.390625 
Q 45.3125 60.0625 41.71875 63.234375 
Q 38.140625 66.40625 31.78125 66.40625 
Q 25.390625 66.40625 21.84375 63.234375 
Q 18.3125 60.0625 18.3125 54.390625 
z
" id="DejaVuSans-56"/>
       </defs>
       <use xlink:href="#DejaVuSans-50"/>
       <use x="63.623047" xlink:href="#DejaVuSans-48"/>
       <use x="127.246094" xlink:href="#DejaVuSans-49"/>
       <use x="190.869141" xlink:href="#DejaVuSans-55"/>
       <use x="254.492188" xlink:href="#DejaVuSans-49"/>
       <use x="318.115234" xlink:href="#DejaVuSans-48"/>
       <use x="381.738281" xlink:href="#DejaVuSans-49"/>
       <use x="445.361328" xlink:href="#DejaVuSans-56"/>
      </g>
     </g>
    </g>
    <g id="xtick_4">
     <g id="line2d_7">
      <path clip-path="url(#p6cb57333d9)" d="M 225.004178 286.886956 
L 225.004178 26.88 
" style="fill:none;stroke:#b0b0b0;stroke-linecap:square;stroke-width:0.8;"/>
     </g>
     <g id="line2d_8">
      <g>
       <use style="stroke:#000000;stroke-width:0.8;" x="225.004178" xlink:href="#mced77b4b0f" y="286.886956"/>
      </g>
     </g>
     <g id="text_4">
      <!-- 20180314 -->
      <g transform="translate(202.032763 318.435977)rotate(-20)scale(0.1 -0.1)">
       <defs>
        <path d="M 37.796875 64.3125 
L 12.890625 25.390625 
L 37.796875 25.390625 
z
M 35.203125 72.90625 
L 47.609375 72.90625 
L 47.609375 25.390625 
L 58.015625 25.390625 
L 58.015625 17.1875 
L 47.609375 17.1875 
L 47.609375 0 
L 37.796875 0 
L 37.796875 17.1875 
L 4.890625 17.1875 
L 4.890625 26.703125 
z
" id="DejaVuSans-52"/>
       </defs>
       <use xlink:href="#DejaVuSans-50"/>
       <use x="63.623047" xlink:href="#DejaVuSans-48"/>
       <use x="127.246094" xlink:href="#DejaVuSans-49"/>
       <use x="190.869141" xlink:href="#DejaVuSans-56"/>
       <use x="254.492188" xlink:href="#DejaVuSans-48"/>
       <use x="318.115234" xlink:href="#DejaVuSans-51"/>
       <use x="381.738281" xlink:href="#DejaVuSans-49"/>
       <use x="445.361328" xlink:href="#DejaVuSans-52"/>
      </g>
     </g>
    </g>
    <g id="xtick_5">
     <g id="line2d_9">
      <path clip-path="url(#p6cb57333d9)" d="M 270.959207 286.886956 
L 270.959207 26.88 
" style="fill:none;stroke:#b0b0b0;stroke-linecap:square;stroke-width:0.8;"/>
     </g>
     <g id="line2d_10">
      <g>
       <use style="stroke:#000000;stroke-width:0.8;" x="270.959207" xlink:href="#mced77b4b0f" y="286.886956"/>
      </g>
     </g>
     <g id="text_5">
      <!-- 20180806 -->
      <g transform="translate(247.987792 318.435977)rotate(-20)scale(0.1 -0.1)">
       <use xlink:href="#DejaVuSans-50"/>
       <use x="63.623047" xlink:href="#DejaVuSans-48"/>
       <use x="127.246094" xlink:href="#DejaVuSans-49"/>
       <use x="190.869141" xlink:href="#DejaVuSans-56"/>
       <use x="254.492188" xlink:href="#DejaVuSans-48"/>
       <use x="318.115234" xlink:href="#DejaVuSans-56"/>
       <use x="381.738281" xlink:href="#DejaVuSans-48"/>
       <use x="445.361328" xlink:href="#DejaVuSans-54"/>
      </g>
     </g>
    </g>
    <g id="xtick_6">
     <g id="line2d_11">
      <path clip-path="url(#p6cb57333d9)" d="M 316.914236 286.886956 
L 316.914236 26.88 
" style="fill:none;stroke:#b0b0b0;stroke-linecap:square;stroke-width:0.8;"/>
     </g>
     <g id="line2d_12">
      <g>
       <use style="stroke:#000000;stroke-width:0.8;" x="316.914236" xlink:href="#mced77b4b0f" y="286.886956"/>
      </g>
     </g>
     <g id="text_6">
      <!-- 20181228 -->
      <g transform="translate(293.942821 318.435977)rotate(-20)scale(0.1 -0.1)">
       <use xlink:href="#DejaVuSans-50"/>
       <use x="63.623047" xlink:href="#DejaVuSans-48"/>
       <use x="127.246094" xlink:href="#DejaVuSans-49"/>
       <use x="190.869141" xlink:href="#DejaVuSans-56"/>
       <use x="254.492188" xlink:href="#DejaVuSans-49"/>
       <use x="318.115234" xlink:href="#DejaVuSans-50"/>
       <use x="381.738281" xlink:href="#DejaVuSans-50"/>
       <use x="445.361328" xlink:href="#DejaVuSans-56"/>
      </g>
     </g>
    </g>
    <g id="xtick_7">
     <g id="line2d_13">
      <path clip-path="url(#p6cb57333d9)" d="M 362.869265 286.886956 
L 362.869265 26.88 
" style="fill:none;stroke:#b0b0b0;stroke-linecap:square;stroke-width:0.8;"/>
     </g>
     <g id="line2d_14">
      <g>
       <use style="stroke:#000000;stroke-width:0.8;" x="362.869265" xlink:href="#mced77b4b0f" y="286.886956"/>
      </g>
     </g>
     <g id="text_7">
      <!-- 20190523 -->
      <g transform="translate(339.89785 318.435977)rotate(-20)scale(0.1 -0.1)">
       <defs>
        <path d="M 10.984375 1.515625 
L 10.984375 10.5 
Q 14.703125 8.734375 18.5 7.8125 
Q 22.3125 6.890625 25.984375 6.890625 
Q 35.75 6.890625 40.890625 13.453125 
Q 46.046875 20.015625 46.78125 33.40625 
Q 43.953125 29.203125 39.59375 26.953125 
Q 35.25 24.703125 29.984375 24.703125 
Q 19.046875 24.703125 12.671875 31.3125 
Q 6.296875 37.9375 6.296875 49.421875 
Q 6.296875 60.640625 12.9375 67.421875 
Q 19.578125 74.21875 30.609375 74.21875 
Q 43.265625 74.21875 49.921875 64.515625 
Q 56.59375 54.828125 56.59375 36.375 
Q 56.59375 19.140625 48.40625 8.859375 
Q 40.234375 -1.421875 26.421875 -1.421875 
Q 22.703125 -1.421875 18.890625 -0.6875 
Q 15.09375 0.046875 10.984375 1.515625 
z
M 30.609375 32.421875 
Q 37.25 32.421875 41.125 36.953125 
Q 45.015625 41.5 45.015625 49.421875 
Q 45.015625 57.28125 41.125 61.84375 
Q 37.25 66.40625 30.609375 66.40625 
Q 23.96875 66.40625 20.09375 61.84375 
Q 16.21875 57.28125 16.21875 49.421875 
Q 16.21875 41.5 20.09375 36.953125 
Q 23.96875 32.421875 30.609375 32.421875 
z
" id="DejaVuSans-57"/>
       </defs>
       <use xlink:href="#DejaVuSans-50"/>
       <use x="63.623047" xlink:href="#DejaVuSans-48"/>
       <use x="127.246094" xlink:href="#DejaVuSans-49"/>
       <use x="190.869141" xlink:href="#DejaVuSans-57"/>
       <use x="254.492188" xlink:href="#DejaVuSans-48"/>
       <use x="318.115234" xlink:href="#DejaVuSans-53"/>
       <use x="381.738281" xlink:href="#DejaVuSans-50"/>
       <use x="445.361328" xlink:href="#DejaVuSans-51"/>
      </g>
     </g>
    </g>
    <g id="xtick_8">
     <g id="line2d_15">
      <path clip-path="url(#p6cb57333d9)" d="M 408.824294 286.886956 
L 408.824294 26.88 
" style="fill:none;stroke:#b0b0b0;stroke-linecap:square;stroke-width:0.8;"/>
     </g>
     <g id="line2d_16">
      <g>
       <use style="stroke:#000000;stroke-width:0.8;" x="408.824294" xlink:href="#mced77b4b0f" y="286.886956"/>
      </g>
     </g>
     <g id="text_8">
      <!-- 20191015 -->
      <g transform="translate(385.852879 318.435977)rotate(-20)scale(0.1 -0.1)">
       <use xlink:href="#DejaVuSans-50"/>
       <use x="63.623047" xlink:href="#DejaVuSans-48"/>
       <use x="127.246094" xlink:href="#DejaVuSans-49"/>
       <use x="190.869141" xlink:href="#DejaVuSans-57"/>
       <use x="254.492188" xlink:href="#DejaVuSans-49"/>
       <use x="318.115234" xlink:href="#DejaVuSans-48"/>
       <use x="381.738281" xlink:href="#DejaVuSans-49"/>
       <use x="445.361328" xlink:href="#DejaVuSans-53"/>
      </g>
     </g>
    </g>
    <g id="text_9">
     <!-- Date -->
     <g transform="translate(247.979219 331.988681)scale(0.1 -0.1)">
      <defs>
       <path d="M 19.671875 64.796875 
L 19.671875 8.109375 
L 31.59375 8.109375 
Q 46.6875 8.109375 53.6875 14.9375 
Q 60.6875 21.78125 60.6875 36.53125 
Q 60.6875 51.171875 53.6875 57.984375 
Q 46.6875 64.796875 31.59375 64.796875 
z
M 9.8125 72.90625 
L 30.078125 72.90625 
Q 51.265625 72.90625 61.171875 64.09375 
Q 71.09375 55.28125 71.09375 36.53125 
Q 71.09375 17.671875 61.125 8.828125 
Q 51.171875 0 30.078125 0 
L 9.8125 0 
z
" id="DejaVuSans-68"/>
       <path d="M 34.28125 27.484375 
Q 23.390625 27.484375 19.1875 25 
Q 14.984375 22.515625 14.984375 16.5 
Q 14.984375 11.71875 18.140625 8.90625 
Q 21.296875 6.109375 26.703125 6.109375 
Q 34.1875 6.109375 38.703125 11.40625 
Q 43.21875 16.703125 43.21875 25.484375 
L 43.21875 27.484375 
z
M 52.203125 31.203125 
L 52.203125 0 
L 43.21875 0 
L 43.21875 8.296875 
Q 40.140625 3.328125 35.546875 0.953125 
Q 30.953125 -1.421875 24.3125 -1.421875 
Q 15.921875 -1.421875 10.953125 3.296875 
Q 6 8.015625 6 15.921875 
Q 6 25.140625 12.171875 29.828125 
Q 18.359375 34.515625 30.609375 34.515625 
L 43.21875 34.515625 
L 43.21875 35.40625 
Q 43.21875 41.609375 39.140625 45 
Q 35.0625 48.390625 27.6875 48.390625 
Q 23 48.390625 18.546875 47.265625 
Q 14.109375 46.140625 10.015625 43.890625 
L 10.015625 52.203125 
Q 14.9375 54.109375 19.578125 55.046875 
Q 24.21875 56 28.609375 56 
Q 40.484375 56 46.34375 49.84375 
Q 52.203125 43.703125 52.203125 31.203125 
z
" id="DejaVuSans-97"/>
       <path d="M 18.3125 70.21875 
L 18.3125 54.6875 
L 36.8125 54.6875 
L 36.8125 47.703125 
L 18.3125 47.703125 
L 18.3125 18.015625 
Q 18.3125 11.328125 20.140625 9.421875 
Q 21.96875 7.515625 27.59375 7.515625 
L 36.8125 7.515625 
L 36.8125 0 
L 27.59375 0 
Q 17.1875 0 13.234375 3.875 
Q 9.28125 7.765625 9.28125 18.015625 
L 9.28125 47.703125 
L 2.6875 47.703125 
L 2.6875 54.6875 
L 9.28125 54.6875 
L 9.28125 70.21875 
z
" id="DejaVuSans-116"/>
       <path d="M 56.203125 29.59375 
L 56.203125 25.203125 
L 14.890625 25.203125 
Q 15.484375 15.921875 20.484375 11.0625 
Q 25.484375 6.203125 34.421875 6.203125 
Q 39.59375 6.203125 44.453125 7.46875 
Q 49.3125 8.734375 54.109375 11.28125 
L 54.109375 2.78125 
Q 49.265625 0.734375 44.1875 -0.34375 
Q 39.109375 -1.421875 33.890625 -1.421875 
Q 20.796875 -1.421875 13.15625 6.1875 
Q 5.515625 13.8125 5.515625 26.8125 
Q 5.515625 40.234375 12.765625 48.109375 
Q 20.015625 56 32.328125 56 
Q 43.359375 56 49.78125 48.890625 
Q 56.203125 41.796875 56.203125 29.59375 
z
M 47.21875 32.234375 
Q 47.125 39.59375 43.09375 43.984375 
Q 39.0625 48.390625 32.421875 48.390625 
Q 24.90625 48.390625 20.390625 44.140625 
Q 15.875 39.890625 15.1875 32.171875 
z
" id="DejaVuSans-101"/>
      </defs>
      <use xlink:href="#DejaVuSans-68"/>
      <use x="77.001953" xlink:href="#DejaVuSans-97"/>
      <use x="138.28125" xlink:href="#DejaVuSans-116"/>
      <use x="177.490234" xlink:href="#DejaVuSans-101"/>
     </g>
    </g>
   </g>
   <g id="matplotlib.axis_2">
    <g id="ytick_1">
     <g id="line2d_17">
      <path clip-path="url(#p6cb57333d9)" d="M 69.86 275.068458 
L 450 275.068458 
" style="fill:none;stroke:#b0b0b0;stroke-linecap:square;stroke-width:0.8;"/>
     </g>
     <g id="line2d_18">
      <defs>
       <path d="M 0 0 
L -3.5 0 
" id="mc17c78f2d4" style="stroke:#000000;stroke-width:0.8;"/>
      </defs>
      <g>
       <use style="stroke:#000000;stroke-width:0.8;" x="69.86" xlink:href="#mc17c78f2d4" y="275.068458"/>
      </g>
     </g>
     <g id="text_10">
      <!-- 100000 -->
      <g transform="translate(24.685 278.867677)scale(0.1 -0.1)">
       <use xlink:href="#DejaVuSans-49"/>
       <use x="63.623047" xlink:href="#DejaVuSans-48"/>
       <use x="127.246094" xlink:href="#DejaVuSans-48"/>
       <use x="190.869141" xlink:href="#DejaVuSans-48"/>
       <use x="254.492188" xlink:href="#DejaVuSans-48"/>
       <use x="318.115234" xlink:href="#DejaVuSans-48"/>
      </g>
     </g>
    </g>
    <g id="ytick_2">
     <g id="line2d_19">
      <path clip-path="url(#p6cb57333d9)" d="M 69.86 241.477895 
L 450 241.477895 
" style="fill:none;stroke:#b0b0b0;stroke-linecap:square;stroke-width:0.8;"/>
     </g>
     <g id="line2d_20">
      <g>
       <use style="stroke:#000000;stroke-width:0.8;" x="69.86" xlink:href="#mc17c78f2d4" y="241.477895"/>
      </g>
     </g>
     <g id="text_11">
      <!-- 110000 -->
      <g transform="translate(24.685 245.277114)scale(0.1 -0.1)">
       <use xlink:href="#DejaVuSans-49"/>
       <use x="63.623047" xlink:href="#DejaVuSans-49"/>
       <use x="127.246094" xlink:href="#DejaVuSans-48"/>
       <use x="190.869141" xlink:href="#DejaVuSans-48"/>
       <use x="254.492188" xlink:href="#DejaVuSans-48"/>
       <use x="318.115234" xlink:href="#DejaVuSans-48"/>
      </g>
     </g>
    </g>
    <g id="ytick_3">
     <g id="line2d_21">
      <path clip-path="url(#p6cb57333d9)" d="M 69.86 207.887332 
L 450 207.887332 
" style="fill:none;stroke:#b0b0b0;stroke-linecap:square;stroke-width:0.8;"/>
     </g>
     <g id="line2d_22">
      <g>
       <use style="stroke:#000000;stroke-width:0.8;" x="69.86" xlink:href="#mc17c78f2d4" y="207.887332"/>
      </g>
     </g>
     <g id="text_12">
      <!-- 120000 -->
      <g transform="translate(24.685 211.68655)scale(0.1 -0.1)">
       <use xlink:href="#DejaVuSans-49"/>
       <use x="63.623047" xlink:href="#DejaVuSans-50"/>
       <use x="127.246094" xlink:href="#DejaVuSans-48"/>
       <use x="190.869141" xlink:href="#DejaVuSans-48"/>
       <use x="254.492188" xlink:href="#DejaVuSans-48"/>
       <use x="318.115234" xlink:href="#DejaVuSans-48"/>
      </g>
     </g>
    </g>
    <g id="ytick_4">
     <g id="line2d_23">
      <path clip-path="url(#p6cb57333d9)" d="M 69.86 174.296769 
L 450 174.296769 
" style="fill:none;stroke:#b0b0b0;stroke-linecap:square;stroke-width:0.8;"/>
     </g>
     <g id="line2d_24">
      <g>
       <use style="stroke:#000000;stroke-width:0.8;" x="69.86" xlink:href="#mc17c78f2d4" y="174.296769"/>
      </g>
     </g>
     <g id="text_13">
      <!-- 130000 -->
      <g transform="translate(24.685 178.095987)scale(0.1 -0.1)">
       <use xlink:href="#DejaVuSans-49"/>
       <use x="63.623047" xlink:href="#DejaVuSans-51"/>
       <use x="127.246094" xlink:href="#DejaVuSans-48"/>
       <use x="190.869141" xlink:href="#DejaVuSans-48"/>
       <use x="254.492188" xlink:href="#DejaVuSans-48"/>
       <use x="318.115234" xlink:href="#DejaVuSans-48"/>
      </g>
     </g>
    </g>
    <g id="ytick_5">
     <g id="line2d_25">
      <path clip-path="url(#p6cb57333d9)" d="M 69.86 140.706205 
L 450 140.706205 
" style="fill:none;stroke:#b0b0b0;stroke-linecap:square;stroke-width:0.8;"/>
     </g>
     <g id="line2d_26">
      <g>
       <use style="stroke:#000000;stroke-width:0.8;" x="69.86" xlink:href="#mc17c78f2d4" y="140.706205"/>
      </g>
     </g>
     <g id="text_14">
      <!-- 140000 -->
      <g transform="translate(24.685 144.505424)scale(0.1 -0.1)">
       <use xlink:href="#DejaVuSans-49"/>
       <use x="63.623047" xlink:href="#DejaVuSans-52"/>
       <use x="127.246094" xlink:href="#DejaVuSans-48"/>
       <use x="190.869141" xlink:href="#DejaVuSans-48"/>
       <use x="254.492188" xlink:href="#DejaVuSans-48"/>
       <use x="318.115234" xlink:href="#DejaVuSans-48"/>
      </g>
     </g>
    </g>
    <g id="ytick_6">
     <g id="line2d_27">
      <path clip-path="url(#p6cb57333d9)" d="M 69.86 107.115642 
L 450 107.115642 
" style="fill:none;stroke:#b0b0b0;stroke-linecap:square;stroke-width:0.8;"/>
     </g>
     <g id="line2d_28">
      <g>
       <use style="stroke:#000000;stroke-width:0.8;" x="69.86" xlink:href="#mc17c78f2d4" y="107.115642"/>
      </g>
     </g>
     <g id="text_15">
      <!-- 150000 -->
      <g transform="translate(24.685 110.914861)scale(0.1 -0.1)">
       <use xlink:href="#DejaVuSans-49"/>
       <use x="63.623047" xlink:href="#DejaVuSans-53"/>
       <use x="127.246094" xlink:href="#DejaVuSans-48"/>
       <use x="190.869141" xlink:href="#DejaVuSans-48"/>
       <use x="254.492188" xlink:href="#DejaVuSans-48"/>
       <use x="318.115234" xlink:href="#DejaVuSans-48"/>
      </g>
     </g>
    </g>
    <g id="ytick_7">
     <g id="line2d_29">
      <path clip-path="url(#p6cb57333d9)" d="M 69.86 73.525079 
L 450 73.525079 
" style="fill:none;stroke:#b0b0b0;stroke-linecap:square;stroke-width:0.8;"/>
     </g>
     <g id="line2d_30">
      <g>
       <use style="stroke:#000000;stroke-width:0.8;" x="69.86" xlink:href="#mc17c78f2d4" y="73.525079"/>
      </g>
     </g>
     <g id="text_16">
      <!-- 160000 -->
      <g transform="translate(24.685 77.324298)scale(0.1 -0.1)">
       <use xlink:href="#DejaVuSans-49"/>
       <use x="63.623047" xlink:href="#DejaVuSans-54"/>
       <use x="127.246094" xlink:href="#DejaVuSans-48"/>
       <use x="190.869141" xlink:href="#DejaVuSans-48"/>
       <use x="254.492188" xlink:href="#DejaVuSans-48"/>
       <use x="318.115234" xlink:href="#DejaVuSans-48"/>
      </g>
     </g>
    </g>
    <g id="ytick_8">
     <g id="line2d_31">
      <path clip-path="url(#p6cb57333d9)" d="M 69.86 39.934516 
L 450 39.934516 
" style="fill:none;stroke:#b0b0b0;stroke-linecap:square;stroke-width:0.8;"/>
     </g>
     <g id="line2d_32">
      <g>
       <use style="stroke:#000000;stroke-width:0.8;" x="69.86" xlink:href="#mc17c78f2d4" y="39.934516"/>
      </g>
     </g>
     <g id="text_17">
      <!-- 170000 -->
      <g transform="translate(24.685 43.733735)scale(0.1 -0.1)">
       <use xlink:href="#DejaVuSans-49"/>
       <use x="63.623047" xlink:href="#DejaVuSans-55"/>
       <use x="127.246094" xlink:href="#DejaVuSans-48"/>
       <use x="190.869141" xlink:href="#DejaVuSans-48"/>
       <use x="254.492188" xlink:href="#DejaVuSans-48"/>
       <use x="318.115234" xlink:href="#DejaVuSans-48"/>
      </g>
     </g>
    </g>
    <g id="text_18">
     <!-- Portfolio Value -->
     <g transform="translate(18.605313 192.769415)rotate(-90)scale(0.1 -0.1)">
      <defs>
       <path d="M 19.671875 64.796875 
L 19.671875 37.40625 
L 32.078125 37.40625 
Q 38.96875 37.40625 42.71875 40.96875 
Q 46.484375 44.53125 46.484375 51.125 
Q 46.484375 57.671875 42.71875 61.234375 
Q 38.96875 64.796875 32.078125 64.796875 
z
M 9.8125 72.90625 
L 32.078125 72.90625 
Q 44.34375 72.90625 50.609375 67.359375 
Q 56.890625 61.8125 56.890625 51.125 
Q 56.890625 40.328125 50.609375 34.8125 
Q 44.34375 29.296875 32.078125 29.296875 
L 19.671875 29.296875 
L 19.671875 0 
L 9.8125 0 
z
" id="DejaVuSans-80"/>
       <path d="M 30.609375 48.390625 
Q 23.390625 48.390625 19.1875 42.75 
Q 14.984375 37.109375 14.984375 27.296875 
Q 14.984375 17.484375 19.15625 11.84375 
Q 23.34375 6.203125 30.609375 6.203125 
Q 37.796875 6.203125 41.984375 11.859375 
Q 46.1875 17.53125 46.1875 27.296875 
Q 46.1875 37.015625 41.984375 42.703125 
Q 37.796875 48.390625 30.609375 48.390625 
z
M 30.609375 56 
Q 42.328125 56 49.015625 48.375 
Q 55.71875 40.765625 55.71875 27.296875 
Q 55.71875 13.875 49.015625 6.21875 
Q 42.328125 -1.421875 30.609375 -1.421875 
Q 18.84375 -1.421875 12.171875 6.21875 
Q 5.515625 13.875 5.515625 27.296875 
Q 5.515625 40.765625 12.171875 48.375 
Q 18.84375 56 30.609375 56 
z
" id="DejaVuSans-111"/>
       <path d="M 41.109375 46.296875 
Q 39.59375 47.171875 37.8125 47.578125 
Q 36.03125 48 33.890625 48 
Q 26.265625 48 22.1875 43.046875 
Q 18.109375 38.09375 18.109375 28.8125 
L 18.109375 0 
L 9.078125 0 
L 9.078125 54.6875 
L 18.109375 54.6875 
L 18.109375 46.1875 
Q 20.953125 51.171875 25.484375 53.578125 
Q 30.03125 56 36.53125 56 
Q 37.453125 56 38.578125 55.875 
Q 39.703125 55.765625 41.0625 55.515625 
z
" id="DejaVuSans-114"/>
       <path d="M 37.109375 75.984375 
L 37.109375 68.5 
L 28.515625 68.5 
Q 23.6875 68.5 21.796875 66.546875 
Q 19.921875 64.59375 19.921875 59.515625 
L 19.921875 54.6875 
L 34.71875 54.6875 
L 34.71875 47.703125 
L 19.921875 47.703125 
L 19.921875 0 
L 10.890625 0 
L 10.890625 47.703125 
L 2.296875 47.703125 
L 2.296875 54.6875 
L 10.890625 54.6875 
L 10.890625 58.5 
Q 10.890625 67.625 15.140625 71.796875 
Q 19.390625 75.984375 28.609375 75.984375 
z
" id="DejaVuSans-102"/>
       <path d="M 9.421875 75.984375 
L 18.40625 75.984375 
L 18.40625 0 
L 9.421875 0 
z
" id="DejaVuSans-108"/>
       <path d="M 9.421875 54.6875 
L 18.40625 54.6875 
L 18.40625 0 
L 9.421875 0 
z
M 9.421875 75.984375 
L 18.40625 75.984375 
L 18.40625 64.59375 
L 9.421875 64.59375 
z
" id="DejaVuSans-105"/>
       <path id="DejaVuSans-32"/>
       <path d="M 28.609375 0 
L 0.78125 72.90625 
L 11.078125 72.90625 
L 34.1875 11.53125 
L 57.328125 72.90625 
L 67.578125 72.90625 
L 39.796875 0 
z
" id="DejaVuSans-86"/>
       <path d="M 8.5 21.578125 
L 8.5 54.6875 
L 17.484375 54.6875 
L 17.484375 21.921875 
Q 17.484375 14.15625 20.5 10.265625 
Q 23.53125 6.390625 29.59375 6.390625 
Q 36.859375 6.390625 41.078125 11.03125 
Q 45.3125 15.671875 45.3125 23.6875 
L 45.3125 54.6875 
L 54.296875 54.6875 
L 54.296875 0 
L 45.3125 0 
L 45.3125 8.40625 
Q 42.046875 3.421875 37.71875 1 
Q 33.40625 -1.421875 27.6875 -1.421875 
Q 18.265625 -1.421875 13.375 4.4375 
Q 8.5 10.296875 8.5 21.578125 
z
M 31.109375 56 
z
" id="DejaVuSans-117"/>
      </defs>
      <use xlink:href="#DejaVuSans-80"/>
      <use x="56.677734" xlink:href="#DejaVuSans-111"/>
      <use x="117.859375" xlink:href="#DejaVuSans-114"/>
      <use x="158.972656" xlink:href="#DejaVuSans-116"/>
      <use x="198.181641" xlink:href="#DejaVuSans-102"/>
      <use x="233.386719" xlink:href="#DejaVuSans-111"/>
      <use x="294.568359" xlink:href="#DejaVuSans-108"/>
      <use x="322.351562" xlink:href="#DejaVuSans-105"/>
      <use x="350.134766" xlink:href="#DejaVuSans-111"/>
      <use x="411.316406" xlink:href="#DejaVuSans-32"/>
      <use x="443.103516" xlink:href="#DejaVuSans-86"/>
      <use x="503.761719" xlink:href="#DejaVuSans-97"/>
      <use x="565.041016" xlink:href="#DejaVuSans-108"/>
      <use x="592.824219" xlink:href="#DejaVuSans-117"/>
      <use x="656.203125" xlink:href="#DejaVuSans-101"/>
     </g>
    </g>
   </g>
   <g id="line2d_33">
    <path clip-path="url(#p6cb57333d9)" d="M 87.139091 275.068458 
L 432.720909 275.068458 
L 432.720909 275.068458 
" style="fill:none;stroke:#ff0000;stroke-linecap:square;stroke-width:1.5;"/>
   </g>
   <g id="line2d_34">
    <path clip-path="url(#p6cb57333d9)" d="M 87.139091 275.068458 
L 87.598641 271.179157 
L 88.058191 272.181904 
L 88.517742 269.039428 
L 88.977292 264.264868 
L 89.436842 263.971173 
L 89.896393 264.159979 
L 90.355943 263.421555 
L 90.815493 262.322318 
L 91.275044 262.741875 
L 91.734594 262.825791 
L 92.194144 263.161431 
L 92.653694 263.12366 
L 93.113245 262.066394 
L 93.572795 255.617807 
L 94.491896 250.553752 
L 94.951446 250.574725 
L 95.870546 267.147222 
L 96.330097 265.259216 
L 96.789647 269.035228 
L 97.249197 265.624228 
L 97.708748 266.551458 
L 98.627848 262.519497 
L 99.546949 261.504177 
L 100.006499 259.511281 
L 100.466049 258.642796 
L 100.9256 259.045579 
L 101.38515 259.175641 
L 101.8447 257.996687 
L 102.30425 255.19405 
L 102.763801 255.189851 
L 103.223351 253.897608 
L 104.142452 256.469494 
L 104.602002 255.462573 
L 105.521103 251.703334 
L 105.980653 254.795466 
L 106.440203 255.668152 
L 106.899753 255.500319 
L 107.359304 253.041721 
L 107.818854 252.802571 
L 108.278404 249.022359 
L 108.737955 249.806929 
L 109.197505 248.58183 
L 109.657055 246.823885 
L 110.576156 244.415633 
L 111.035706 246.177777 
L 111.495256 245.934427 
L 111.954807 254.568915 
L 112.414357 257.963116 
L 112.873907 257.707192 
L 113.333457 263.543217 
L 113.793008 258.676367 
L 114.252558 257.392524 
L 114.712108 253.520022 
L 115.171659 255.680725 
L 115.631209 254.875183 
L 116.090759 255.189851 
L 116.550309 252.374615 
L 117.46941 256.448521 
L 117.92896 257.900197 
L 118.388511 257.833054 
L 118.848061 259.192414 
L 119.307611 258.109976 
L 119.767162 257.967315 
L 120.226712 253.285072 
L 120.686262 251.250205 
L 121.145812 250.264257 
L 121.605363 249.895045 
L 122.064913 246.614107 
L 122.524463 240.815828 
L 122.984014 236.985271 
L 123.443564 237.568461 
L 123.903114 221.205743 
L 124.362664 223.240584 
L 124.822215 219.414227 
L 125.281765 218.247872 
L 125.741315 212.273386 
L 126.200866 209.575638 
L 126.660416 213.464913 
L 127.119966 207.641462 
L 128.039067 211.853829 
L 128.498617 209.101537 
L 128.958167 210.175602 
L 129.417718 206.710058 
L 129.877268 208.325341 
L 130.336818 215.24803 
L 130.796368 211.211895 
L 131.255919 209.45815 
L 131.715469 204.020684 
L 132.175019 201.797037 
L 132.63457 200.227899 
L 133.09412 194.773659 
L 133.55367 194.563881 
L 134.013221 193.007316 
L 134.472771 195.209989 
L 134.932321 196.204337 
L 135.391871 192.302463 
L 135.851422 190.028472 
L 136.310972 191.79899 
L 136.770522 189.642487 
L 137.230073 189.113841 
L 137.689623 208.736525 
L 138.149173 203.148024 
L 138.608723 201.696348 
L 139.068274 213.225763 
L 140.446925 201.776065 
L 140.906475 203.67247 
L 141.366025 201.121557 
L 141.825575 201.696348 
L 142.285126 195.612773 
L 142.744676 207.528199 
L 143.204226 212.118152 
L 143.663777 211.828657 
L 144.123327 214.916589 
L 145.042427 223.219611 
L 145.501978 222.883971 
L 145.961528 220.370829 
L 146.880629 212.176871 
L 147.799729 203.66827 
L 148.259279 202.325683 
L 148.71883 201.352308 
L 149.17838 202.594206 
L 149.63793 195.608573 
L 150.097481 192.675875 
L 150.557031 196.03233 
L 151.016581 193.8926 
L 151.476132 203.710216 
L 151.935682 202.83753 
L 152.395232 204.34795 
L 152.854782 213.238362 
L 153.314333 208.19948 
L 153.773883 213.313879 
L 154.692984 212.77266 
L 155.152534 214.933362 
L 155.612084 213.435541 
L 156.071634 214.790727 
L 156.531185 217.240925 
L 156.990735 218.688402 
L 157.450285 223.42519 
L 157.909836 216.980802 
L 158.369386 216.158461 
L 158.828936 216.066171 
L 159.288486 215.352919 
L 159.748037 222.053256 
L 160.207587 222.560904 
L 160.667137 222.06163 
L 161.126688 217.849288 
L 161.586238 215.034052 
L 162.045788 216.922058 
L 162.505338 219.997417 
L 162.964889 225.002728 
L 163.424439 218.407306 
L 164.34354 209.260971 
L 164.80309 213.712463 
L 165.26264 214.966934 
L 165.722191 214.8075 
L 166.181741 212.52091 
L 166.641291 213.569803 
L 167.100841 213.687291 
L 167.560392 214.283054 
L 168.019942 214.073276 
L 168.939043 218.684202 
L 169.398593 219.355508 
L 169.858143 217.54302 
L 170.317693 213.179618 
L 170.777244 215.428436 
L 171.696344 217.979349 
L 172.155895 215.441035 
L 172.615445 209.772818 
L 173.534545 201.633404 
L 173.994096 205.027631 
L 174.453646 203.265486 
L 174.913196 202.833356 
L 175.372747 199.808342 
L 175.832297 193.514989 
L 176.291847 193.389127 
L 176.751397 196.015557 
L 177.210948 189.806094 
L 177.670498 187.595047 
L 178.130048 187.376869 
L 178.589599 188.2957 
L 179.049149 186.781106 
L 179.508699 189.424309 
L 179.96825 188.459333 
L 180.4278 189.243903 
L 180.88735 197.081222 
L 181.3469 197.177712 
L 181.806451 192.059138 
L 182.266001 178.41514 
L 182.725551 179.182911 
L 184.104202 174.639128 
L 184.563752 173.481147 
L 185.023303 170.816971 
L 185.942403 170.418362 
L 186.401954 171.278474 
L 186.861504 173.011246 
L 188.240155 176.732713 
L 188.699705 175.159375 
L 189.159255 170.523251 
L 189.618806 176.313156 
L 190.078356 174.61813 
L 190.537906 169.95266 
L 190.997456 168.597499 
L 191.457007 166.84378 
L 191.916557 160.374194 
L 192.835658 174.660127 
L 193.295208 178.658465 
L 193.754758 179.753502 
L 194.214309 186.806278 
L 194.673859 184.486116 
L 195.592959 169.679937 
L 196.05251 169.973658 
L 196.51206 170.43936 
L 196.97161 169.5667 
L 197.431161 168.135997 
L 197.890711 164.657854 
L 198.350261 159.342101 
L 198.809811 156.585583 
L 199.269362 157.466643 
L 200.188462 162.048222 
L 200.648013 162.618813 
L 201.107563 163.474726 
L 201.567113 165.299788 
L 202.026663 168.135997 
L 202.486214 169.17229 
L 203.405314 150.682441 
L 204.324415 144.84639 
L 204.783965 141.724911 
L 205.243515 146.524617 
L 205.703066 144.296746 
L 206.162616 145.224001 
L 206.622166 132.549153 
L 207.081717 134.206433 
L 207.541267 132.951962 
L 208.000817 133.505755 
L 208.460368 131.076555 
L 208.919918 119.83241 
L 209.379468 113.80758 
L 209.839018 115.599096 
L 210.298569 112.737689 
L 210.758119 112.54051 
L 211.217669 116.853567 
L 211.67722 114.298429 
L 212.13677 117.579392 
L 212.59632 137.957247 
L 213.05587 149.205592 
L 213.515421 177.160669 
L 213.974971 155.767468 
L 214.434521 166.298335 
L 214.894072 180.55907 
L 215.353622 167.640897 
L 215.813172 170.43936 
L 216.272722 168.626897 
L 216.732273 156.405203 
L 217.191823 152.23898 
L 217.651373 152.499103 
L 218.110924 145.643558 
L 218.570474 141.418592 
L 219.030024 141.63257 
L 219.949125 131.1269 
L 220.408675 140.231264 
L 220.868225 145.458927 
L 221.327776 167.091304 
L 222.246876 148.580456 
L 222.706426 152.473957 
L 224.085077 122.16932 
L 224.544628 119.324763 
L 225.004178 130.24579 
L 225.463728 128.664103 
L 225.923279 126.239052 
L 226.382829 142.010181 
L 226.842379 150.132796 
L 227.301929 152.578846 
L 227.76148 157.848454 
L 228.22103 169.864569 
L 228.68058 170.187636 
L 229.140131 164.607509 
L 229.599681 190.615862 
L 230.059231 186.713962 
L 230.518781 179.829045 
L 230.978332 184.64135 
L 231.437882 192.159828 
L 231.897432 171.953954 
L 232.356983 181.72545 
L 232.816533 183.009293 
L 233.276083 178.721409 
L 233.735633 177.991384 
L 234.195184 178.213761 
L 234.654734 171.744176 
L 235.114284 172.306368 
L 236.033385 158.268011 
L 236.492935 162.45938 
L 236.952485 156.061137 
L 237.412036 156.602382 
L 238.331136 178.935387 
L 238.790687 177.479537 
L 239.250237 172.310567 
L 239.709787 176.976038 
L 240.169338 184.578432 
L 240.628888 177.15227 
L 241.088438 180.773048 
L 241.547988 183.1897 
L 242.007539 168.807277 
L 242.467089 164.30544 
L 242.926639 164.523618 
L 243.38619 151.5593 
L 244.30529 147.124606 
L 244.76484 150.762132 
L 245.224391 155.717123 
L 245.683941 157.240117 
L 246.143491 163.72645 
L 247.062592 153.740975 
L 247.522142 162.048222 
L 247.981692 154.957701 
L 248.441243 155.104535 
L 248.900793 159.530881 
L 249.360343 160.588172 
L 249.819894 157.01354 
L 250.738994 133.308576 
L 251.198544 126.528522 
L 251.658095 127.321491 
L 252.117645 130.757688 
L 252.577195 136.367162 
L 253.036746 135.641336 
L 253.496296 132.251284 
L 253.955846 127.527069 
L 254.415397 127.556467 
L 254.874947 124.321649 
L 255.334497 127.355088 
L 255.794047 120.046389 
L 256.253598 114.512407 
L 256.713148 113.585202 
L 258.091799 130.942269 
L 258.551349 134.357468 
L 259.010899 144.2632 
L 259.47045 135.905608 
L 259.93 143.021328 
L 260.38955 128.726996 
L 260.849101 139.140427 
L 261.768201 124.288103 
L 262.227751 120.096733 
L 262.687302 126.125764 
L 263.146852 118.053493 
L 263.606402 106.331047 
L 264.065953 105.907291 
L 264.525503 114.747383 
L 264.985053 103.926995 
L 265.444603 104.715764 
L 265.904154 107.824694 
L 266.363704 109.32669 
L 266.823254 77.717288 
L 267.282805 85.428746 
L 267.742355 79.319973 
L 268.201905 70.11492 
L 268.661456 88.604769 
L 269.121006 94.201695 
L 269.580556 91.096964 
L 270.040106 99.744025 
L 270.499657 88.550225 
L 270.959207 90.048071 
L 271.418757 85.684669 
L 271.878308 83.708573 
L 272.337858 81.187032 
L 272.797408 82.676428 
L 273.256958 86.024535 
L 273.716509 85.479091 
L 274.176059 88.927836 
L 274.635609 89.888638 
L 275.09516 98.258777 
L 275.55471 98.837768 
L 276.01426 97.847619 
L 276.47381 101.539741 
L 277.392911 96.597348 
L 277.852461 88.98658 
L 278.312012 84.052587 
L 278.771562 84.430198 
L 279.231112 80.90591 
L 279.690662 85.600779 
L 280.150213 98.057398 
L 281.069313 108.105816 
L 281.528864 119.25342 
L 281.988414 114.134846 
L 282.447964 119.631031 
L 282.907515 115.057851 
L 283.367065 116.022852 
L 283.826615 112.54051 
L 284.286165 116.832568 
L 284.745716 123.172067 
L 285.205266 120.528889 
L 286.124367 109.637158 
L 286.583917 124.535627 
L 287.043467 114.113848 
L 287.503017 110.153256 
L 287.962568 107.505827 
L 288.422118 105.789854 
L 288.881668 102.051588 
L 289.341219 104.707364 
L 289.800769 102.471145 
L 290.260319 105.395444 
L 290.719869 117.575192 
L 291.17942 124.288103 
L 291.63897 127.934027 
L 292.09852 134.189635 
L 292.558071 158.255412 
L 293.017621 141.221412 
L 293.477171 141.909492 
L 293.936721 143.805897 
L 294.396272 132.67924 
L 294.855822 136.874809 
L 295.315372 147.904976 
L 295.774923 144.212855 
L 296.234473 153.11584 
L 296.694023 143.168162 
L 297.613124 171.140038 
L 298.072674 150.913166 
L 298.532224 183.021867 
L 298.991775 162.803445 
L 299.451325 153.069695 
L 299.910875 154.076641 
L 300.829976 168.333176 
L 301.749076 146.39873 
L 302.208627 156.166026 
L 302.668177 160.735007 
L 303.127727 168.421267 
L 303.587278 166.243791 
L 304.046828 169.826823 
L 304.506378 164.049517 
L 304.965928 164.821487 
L 305.425479 188.358644 
L 305.885029 172.407057 
L 306.344579 177.362048 
L 306.80413 172.956701 
L 307.72323 167.309482 
L 308.18278 156.371605 
L 308.642331 151.294977 
L 309.101881 135.968552 
L 309.561431 144.011476 
L 310.020982 172.537144 
L 310.480532 161.112619 
L 310.940082 173.401456 
L 311.399632 163.332091 
L 311.859183 159.077778 
L 312.318733 159.669316 
L 313.237834 171.693831 
L 313.697384 177.15227 
L 314.156934 171.576343 
L 314.616485 180.508725 
L 315.076035 177.974585 
L 315.535585 197.995853 
L 315.995135 192.260518 
L 316.914236 166.453569 
L 317.373786 167.154248 
L 317.833337 180.005277 
L 318.292887 170.158238 
L 318.752437 173.560839 
L 319.211987 157.445695 
L 319.671538 155.335312 
L 320.131088 154.500398 
L 320.590638 159.975636 
L 321.050189 162.090168 
L 321.509739 169.038054 
L 321.969289 167.078705 
L 322.428839 153.657084 
L 322.88839 154.500398 
L 323.34794 145.857536 
L 323.80749 151.139743 
L 324.267041 154.974499 
L 324.726591 156.799561 
L 325.186141 151.882367 
L 325.645691 153.627738 
L 326.105242 157.416298 
L 326.564792 158.96029 
L 327.024342 144.326143 
L 327.483893 140.109576 
L 327.943443 141.485735 
L 328.402993 137.030043 
L 328.862544 128.78994 
L 329.322094 144.502376 
L 329.781644 151.609645 
L 330.700745 144.84219 
L 331.160295 135.59934 
L 331.619845 138.972594 
L 332.079396 132.97291 
L 332.538946 142.480083 
L 332.998496 137.344711 
L 333.917597 145.391834 
L 334.377147 140.260611 
L 334.836697 143.432485 
L 335.296248 143.58352 
L 335.755798 141.489935 
L 336.215348 136.455252 
L 336.674898 126.570467 
L 337.134449 125.96633 
L 337.593999 119.354109 
L 338.053549 124.078324 
L 338.5131 135.238527 
L 338.97265 127.644558 
L 339.89175 105.017832 
L 340.351301 107.916985 
L 340.810851 108.344941 
L 341.270401 111.831483 
L 341.729952 110.97977 
L 342.189502 106.918437 
L 342.649052 99.114689 
L 343.108603 95.401621 
L 343.568153 107.690408 
L 344.027703 105.328351 
L 344.946804 117.784971 
L 345.406354 115.821422 
L 345.865904 112.73349 
L 346.785005 102.177475 
L 347.244555 102.769014 
L 347.704105 99.408359 
L 348.623206 106.712858 
L 349.542307 103.771761 
L 350.001857 100.952351 
L 350.461407 97.398716 
L 351.380508 91.982222 
L 351.840058 88.625767 
L 352.299608 92.120658 
L 352.759159 83.742119 
L 353.218709 77.889321 
L 353.678259 78.010958 
L 354.137809 76.718741 
L 354.59736 73.727298 
L 355.05691 111.437073 
L 355.51646 108.554719 
L 355.976011 119.001696 
L 356.435561 116.983603 
L 356.895111 119.25342 
L 357.354662 113.459315 
L 357.814212 117.033948 
L 358.273762 123.197265 
L 358.733312 120.579234 
L 359.192863 130.480766 
L 359.652413 131.705891 
L 360.111963 140.000487 
L 360.571514 119.320563 
L 361.031064 117.646535 
L 361.490614 127.225001 
L 361.950164 126.604065 
L 362.409715 127.959225 
L 362.869265 130.132552 
L 363.328815 127.644558 
L 364.707466 141.007434 
L 365.167016 147.095209 
L 365.626567 163.336239 
L 366.086117 172.751122 
L 366.545667 168.341575 
L 367.005218 172.029497 
L 367.464768 168.643644 
L 368.383868 150.724386 
L 368.843419 157.873652 
L 369.762519 153.766173 
L 370.22207 154.034696 
L 370.68162 144.636611 
L 371.14117 146.423928 
L 371.600721 140.357152 
L 372.060271 145.324691 
L 372.519821 141.070378 
L 372.979371 143.134616 
L 373.438922 153.237528 
L 373.898472 155.020644 
L 374.358022 159.014834 
L 374.817573 149.02516 
L 375.277123 147.435074 
L 375.736673 141.699713 
L 376.196223 141.334701 
L 376.655774 138.607581 
L 377.115324 145.131711 
L 377.574874 135.90146 
L 378.034425 130.094755 
L 378.493975 131.449916 
L 378.953525 130.438821 
L 379.413075 129.855631 
L 379.872626 128.097661 
L 380.332176 131.840126 
L 380.791726 128.768993 
L 381.251277 134.579845 
L 381.710827 131.231789 
L 382.170377 135.775572 
L 382.629927 133.119795 
L 383.089478 95.758234 
L 383.549028 89.67466 
L 384.008578 96.177791 
L 384.468129 97.071449 
L 384.927679 100.109037 
L 385.387229 106.247156 
L 385.846779 118.846462 
L 386.76588 125.211107 
L 387.22543 113.199192 
L 387.684981 107.510027 
L 388.144531 115.896965 
L 388.604081 118.267471 
L 389.063632 117.545846 
L 389.523182 120.751215 
L 390.442282 110.933625 
L 390.901833 109.456777 
L 391.361383 109.259597 
L 391.820933 110.107059 
L 392.280484 113.727837 
L 392.740034 124.518879 
L 393.199584 114.638294 
L 393.659134 122.244863 
L 394.118685 113.203391 
L 394.578235 107.358992 
L 395.037785 115.120795 
L 395.497336 116.127742 
L 396.416436 103.671071 
L 396.875986 104.535383 
L 397.335537 109.146309 
L 397.795087 105.873745 
L 398.254637 97.658839 
L 398.714188 94.033862 
L 399.173738 94.73454 
L 399.633288 94.235241 
L 400.092838 94.818431 
L 400.552389 93.945771 
L 401.011939 93.391927 
L 401.471489 96.358223 
L 401.93104 90.723552 
L 402.39059 100.788717 
L 402.85014 89.825694 
L 403.309691 89.536224 
L 403.769241 98.862966 
L 404.228791 98.069997 
L 404.688341 108.974276 
L 405.147892 114.495659 
L 406.066992 104.568929 
L 406.526543 108.021874 
L 406.986093 106.947835 
L 407.445643 108.093217 
L 407.905193 97.423863 
L 408.364744 101.678176 
L 408.824294 98.485354 
L 409.283844 89.964129 
L 409.743395 85.940593 
L 410.202945 84.560286 
L 410.662495 87.073427 
L 411.581596 90.635461 
L 412.041146 82.705826 
L 412.500696 85.688869 
L 412.960247 76.039061 
L 413.419797 75.619504 
L 413.879347 84.367255 
L 414.798448 79.898964 
L 415.257998 75.573359 
L 415.717548 69.24226 
L 416.177099 69.707962 
L 416.636649 67.949992 
L 417.096199 64.912404 
L 417.55575 63.871911 
L 418.47485 68.411494 
L 418.9344 67.647923 
L 419.853501 51.981683 
L 420.313051 54.377337 
L 421.232152 65.864806 
L 421.691702 64.291468 
L 422.151252 67.119277 
L 422.610803 61.392316 
L 423.070353 59.080553 
L 423.529903 62.781073 
L 423.989454 64.476048 
L 424.449004 74.503468 
L 425.368104 54.222103 
L 426.287205 49.246164 
L 426.746755 48.793061 
L 427.206306 45.285521 
L 427.665856 47.421102 
L 428.125406 45.453354 
L 429.044507 39.365579 
L 429.963607 43.770926 
L 430.423158 39.076109 
L 430.882708 40.909571 
L 431.342258 44.484204 
L 431.801809 46.019745 
L 432.261359 38.698498 
L 432.720909 41.715087 
L 432.720909 41.715087 
" style="fill:none;stroke:#0000ff;stroke-linecap:square;stroke-width:1.5;"/>
   </g>
   <g id="patch_3">
    <path d="M 69.86 286.886956 
L 69.86 26.88 
" style="fill:none;stroke:#000000;stroke-linecap:square;stroke-linejoin:miter;stroke-width:0.8;"/>
   </g>
   <g id="patch_4">
    <path d="M 450 286.886956 
L 450 26.88 
" style="fill:none;stroke:#000000;stroke-linecap:square;stroke-linejoin:miter;stroke-width:0.8;"/>
   </g>
   <g id="patch_5">
    <path d="M 69.86 286.886956 
L 450 286.886956 
" style="fill:none;stroke:#000000;stroke-linecap:square;stroke-linejoin:miter;stroke-width:0.8;"/>
   </g>
   <g id="patch_6">
    <path d="M 69.86 26.88 
L 450 26.88 
" style="fill:none;stroke:#000000;stroke-linecap:square;stroke-linejoin:miter;stroke-width:0.8;"/>
   </g>
   <g id="text_19">
    <!-- Comparison between Buy-And-Hold and DQN portfolio  -->
    <g transform="translate(95.475625 20.88)scale(0.12 -0.12)">
     <defs>
      <path d="M 64.40625 67.28125 
L 64.40625 56.890625 
Q 59.421875 61.53125 53.78125 63.8125 
Q 48.140625 66.109375 41.796875 66.109375 
Q 29.296875 66.109375 22.65625 58.46875 
Q 16.015625 50.828125 16.015625 36.375 
Q 16.015625 21.96875 22.65625 14.328125 
Q 29.296875 6.6875 41.796875 6.6875 
Q 48.140625 6.6875 53.78125 8.984375 
Q 59.421875 11.28125 64.40625 15.921875 
L 64.40625 5.609375 
Q 59.234375 2.09375 53.4375 0.328125 
Q 47.65625 -1.421875 41.21875 -1.421875 
Q 24.65625 -1.421875 15.125 8.703125 
Q 5.609375 18.84375 5.609375 36.375 
Q 5.609375 53.953125 15.125 64.078125 
Q 24.65625 74.21875 41.21875 74.21875 
Q 47.75 74.21875 53.53125 72.484375 
Q 59.328125 70.75 64.40625 67.28125 
z
" id="DejaVuSans-67"/>
      <path d="M 52 44.1875 
Q 55.375 50.25 60.0625 53.125 
Q 64.75 56 71.09375 56 
Q 79.640625 56 84.28125 50.015625 
Q 88.921875 44.046875 88.921875 33.015625 
L 88.921875 0 
L 79.890625 0 
L 79.890625 32.71875 
Q 79.890625 40.578125 77.09375 44.375 
Q 74.3125 48.1875 68.609375 48.1875 
Q 61.625 48.1875 57.5625 43.546875 
Q 53.515625 38.921875 53.515625 30.90625 
L 53.515625 0 
L 44.484375 0 
L 44.484375 32.71875 
Q 44.484375 40.625 41.703125 44.40625 
Q 38.921875 48.1875 33.109375 48.1875 
Q 26.21875 48.1875 22.15625 43.53125 
Q 18.109375 38.875 18.109375 30.90625 
L 18.109375 0 
L 9.078125 0 
L 9.078125 54.6875 
L 18.109375 54.6875 
L 18.109375 46.1875 
Q 21.1875 51.21875 25.484375 53.609375 
Q 29.78125 56 35.6875 56 
Q 41.65625 56 45.828125 52.96875 
Q 50 49.953125 52 44.1875 
z
" id="DejaVuSans-109"/>
      <path d="M 18.109375 8.203125 
L 18.109375 -20.796875 
L 9.078125 -20.796875 
L 9.078125 54.6875 
L 18.109375 54.6875 
L 18.109375 46.390625 
Q 20.953125 51.265625 25.265625 53.625 
Q 29.59375 56 35.59375 56 
Q 45.5625 56 51.78125 48.09375 
Q 58.015625 40.1875 58.015625 27.296875 
Q 58.015625 14.40625 51.78125 6.484375 
Q 45.5625 -1.421875 35.59375 -1.421875 
Q 29.59375 -1.421875 25.265625 0.953125 
Q 20.953125 3.328125 18.109375 8.203125 
z
M 48.6875 27.296875 
Q 48.6875 37.203125 44.609375 42.84375 
Q 40.53125 48.484375 33.40625 48.484375 
Q 26.265625 48.484375 22.1875 42.84375 
Q 18.109375 37.203125 18.109375 27.296875 
Q 18.109375 17.390625 22.1875 11.75 
Q 26.265625 6.109375 33.40625 6.109375 
Q 40.53125 6.109375 44.609375 11.75 
Q 48.6875 17.390625 48.6875 27.296875 
z
" id="DejaVuSans-112"/>
      <path d="M 44.28125 53.078125 
L 44.28125 44.578125 
Q 40.484375 46.53125 36.375 47.5 
Q 32.28125 48.484375 27.875 48.484375 
Q 21.1875 48.484375 17.84375 46.4375 
Q 14.5 44.390625 14.5 40.28125 
Q 14.5 37.15625 16.890625 35.375 
Q 19.28125 33.59375 26.515625 31.984375 
L 29.59375 31.296875 
Q 39.15625 29.25 43.1875 25.515625 
Q 47.21875 21.78125 47.21875 15.09375 
Q 47.21875 7.46875 41.1875 3.015625 
Q 35.15625 -1.421875 24.609375 -1.421875 
Q 20.21875 -1.421875 15.453125 -0.5625 
Q 10.6875 0.296875 5.421875 2 
L 5.421875 11.28125 
Q 10.40625 8.6875 15.234375 7.390625 
Q 20.0625 6.109375 24.8125 6.109375 
Q 31.15625 6.109375 34.5625 8.28125 
Q 37.984375 10.453125 37.984375 14.40625 
Q 37.984375 18.0625 35.515625 20.015625 
Q 33.0625 21.96875 24.703125 23.78125 
L 21.578125 24.515625 
Q 13.234375 26.265625 9.515625 29.90625 
Q 5.8125 33.546875 5.8125 39.890625 
Q 5.8125 47.609375 11.28125 51.796875 
Q 16.75 56 26.8125 56 
Q 31.78125 56 36.171875 55.265625 
Q 40.578125 54.546875 44.28125 53.078125 
z
" id="DejaVuSans-115"/>
      <path d="M 54.890625 33.015625 
L 54.890625 0 
L 45.90625 0 
L 45.90625 32.71875 
Q 45.90625 40.484375 42.875 44.328125 
Q 39.84375 48.1875 33.796875 48.1875 
Q 26.515625 48.1875 22.3125 43.546875 
Q 18.109375 38.921875 18.109375 30.90625 
L 18.109375 0 
L 9.078125 0 
L 9.078125 54.6875 
L 18.109375 54.6875 
L 18.109375 46.1875 
Q 21.34375 51.125 25.703125 53.5625 
Q 30.078125 56 35.796875 56 
Q 45.21875 56 50.046875 50.171875 
Q 54.890625 44.34375 54.890625 33.015625 
z
" id="DejaVuSans-110"/>
      <path d="M 48.6875 27.296875 
Q 48.6875 37.203125 44.609375 42.84375 
Q 40.53125 48.484375 33.40625 48.484375 
Q 26.265625 48.484375 22.1875 42.84375 
Q 18.109375 37.203125 18.109375 27.296875 
Q 18.109375 17.390625 22.1875 11.75 
Q 26.265625 6.109375 33.40625 6.109375 
Q 40.53125 6.109375 44.609375 11.75 
Q 48.6875 17.390625 48.6875 27.296875 
z
M 18.109375 46.390625 
Q 20.953125 51.265625 25.265625 53.625 
Q 29.59375 56 35.59375 56 
Q 45.5625 56 51.78125 48.09375 
Q 58.015625 40.1875 58.015625 27.296875 
Q 58.015625 14.40625 51.78125 6.484375 
Q 45.5625 -1.421875 35.59375 -1.421875 
Q 29.59375 -1.421875 25.265625 0.953125 
Q 20.953125 3.328125 18.109375 8.203125 
L 18.109375 0 
L 9.078125 0 
L 9.078125 75.984375 
L 18.109375 75.984375 
z
" id="DejaVuSans-98"/>
      <path d="M 4.203125 54.6875 
L 13.1875 54.6875 
L 24.421875 12.015625 
L 35.59375 54.6875 
L 46.1875 54.6875 
L 57.421875 12.015625 
L 68.609375 54.6875 
L 77.59375 54.6875 
L 63.28125 0 
L 52.6875 0 
L 40.921875 44.828125 
L 29.109375 0 
L 18.5 0 
z
" id="DejaVuSans-119"/>
      <path d="M 19.671875 34.8125 
L 19.671875 8.109375 
L 35.5 8.109375 
Q 43.453125 8.109375 47.28125 11.40625 
Q 51.125 14.703125 51.125 21.484375 
Q 51.125 28.328125 47.28125 31.5625 
Q 43.453125 34.8125 35.5 34.8125 
z
M 19.671875 64.796875 
L 19.671875 42.828125 
L 34.28125 42.828125 
Q 41.5 42.828125 45.03125 45.53125 
Q 48.578125 48.25 48.578125 53.8125 
Q 48.578125 59.328125 45.03125 62.0625 
Q 41.5 64.796875 34.28125 64.796875 
z
M 9.8125 72.90625 
L 35.015625 72.90625 
Q 46.296875 72.90625 52.390625 68.21875 
Q 58.5 63.53125 58.5 54.890625 
Q 58.5 48.1875 55.375 44.234375 
Q 52.25 40.28125 46.1875 39.3125 
Q 53.46875 37.75 57.5 32.78125 
Q 61.53125 27.828125 61.53125 20.40625 
Q 61.53125 10.640625 54.890625 5.3125 
Q 48.25 0 35.984375 0 
L 9.8125 0 
z
" id="DejaVuSans-66"/>
      <path d="M 32.171875 -5.078125 
Q 28.375 -14.84375 24.75 -17.8125 
Q 21.140625 -20.796875 15.09375 -20.796875 
L 7.90625 -20.796875 
L 7.90625 -13.28125 
L 13.1875 -13.28125 
Q 16.890625 -13.28125 18.9375 -11.515625 
Q 21 -9.765625 23.484375 -3.21875 
L 25.09375 0.875 
L 2.984375 54.6875 
L 12.5 54.6875 
L 29.59375 11.921875 
L 46.6875 54.6875 
L 56.203125 54.6875 
z
" id="DejaVuSans-121"/>
      <path d="M 4.890625 31.390625 
L 31.203125 31.390625 
L 31.203125 23.390625 
L 4.890625 23.390625 
z
" id="DejaVuSans-45"/>
      <path d="M 34.1875 63.1875 
L 20.796875 26.90625 
L 47.609375 26.90625 
z
M 28.609375 72.90625 
L 39.796875 72.90625 
L 67.578125 0 
L 57.328125 0 
L 50.6875 18.703125 
L 17.828125 18.703125 
L 11.1875 0 
L 0.78125 0 
z
" id="DejaVuSans-65"/>
      <path d="M 45.40625 46.390625 
L 45.40625 75.984375 
L 54.390625 75.984375 
L 54.390625 0 
L 45.40625 0 
L 45.40625 8.203125 
Q 42.578125 3.328125 38.25 0.953125 
Q 33.9375 -1.421875 27.875 -1.421875 
Q 17.96875 -1.421875 11.734375 6.484375 
Q 5.515625 14.40625 5.515625 27.296875 
Q 5.515625 40.1875 11.734375 48.09375 
Q 17.96875 56 27.875 56 
Q 33.9375 56 38.25 53.625 
Q 42.578125 51.265625 45.40625 46.390625 
z
M 14.796875 27.296875 
Q 14.796875 17.390625 18.875 11.75 
Q 22.953125 6.109375 30.078125 6.109375 
Q 37.203125 6.109375 41.296875 11.75 
Q 45.40625 17.390625 45.40625 27.296875 
Q 45.40625 37.203125 41.296875 42.84375 
Q 37.203125 48.484375 30.078125 48.484375 
Q 22.953125 48.484375 18.875 42.84375 
Q 14.796875 37.203125 14.796875 27.296875 
z
" id="DejaVuSans-100"/>
      <path d="M 9.8125 72.90625 
L 19.671875 72.90625 
L 19.671875 43.015625 
L 55.515625 43.015625 
L 55.515625 72.90625 
L 65.375 72.90625 
L 65.375 0 
L 55.515625 0 
L 55.515625 34.71875 
L 19.671875 34.71875 
L 19.671875 0 
L 9.8125 0 
z
" id="DejaVuSans-72"/>
      <path d="M 39.40625 66.21875 
Q 28.65625 66.21875 22.328125 58.203125 
Q 16.015625 50.203125 16.015625 36.375 
Q 16.015625 22.609375 22.328125 14.59375 
Q 28.65625 6.59375 39.40625 6.59375 
Q 50.140625 6.59375 56.421875 14.59375 
Q 62.703125 22.609375 62.703125 36.375 
Q 62.703125 50.203125 56.421875 58.203125 
Q 50.140625 66.21875 39.40625 66.21875 
z
M 53.21875 1.3125 
L 66.21875 -12.890625 
L 54.296875 -12.890625 
L 43.5 -1.21875 
Q 41.890625 -1.3125 41.03125 -1.359375 
Q 40.1875 -1.421875 39.40625 -1.421875 
Q 24.03125 -1.421875 14.8125 8.859375 
Q 5.609375 19.140625 5.609375 36.375 
Q 5.609375 53.65625 14.8125 63.9375 
Q 24.03125 74.21875 39.40625 74.21875 
Q 54.734375 74.21875 63.90625 63.9375 
Q 73.09375 53.65625 73.09375 36.375 
Q 73.09375 23.6875 67.984375 14.640625 
Q 62.890625 5.609375 53.21875 1.3125 
z
" id="DejaVuSans-81"/>
      <path d="M 9.8125 72.90625 
L 23.09375 72.90625 
L 55.421875 11.921875 
L 55.421875 72.90625 
L 64.984375 72.90625 
L 64.984375 0 
L 51.703125 0 
L 19.390625 60.984375 
L 19.390625 0 
L 9.8125 0 
z
" id="DejaVuSans-78"/>
     </defs>
     <use xlink:href="#DejaVuSans-67"/>
     <use x="69.824219" xlink:href="#DejaVuSans-111"/>
     <use x="131.005859" xlink:href="#DejaVuSans-109"/>
     <use x="228.417969" xlink:href="#DejaVuSans-112"/>
     <use x="291.894531" xlink:href="#DejaVuSans-97"/>
     <use x="353.173828" xlink:href="#DejaVuSans-114"/>
     <use x="394.287109" xlink:href="#DejaVuSans-105"/>
     <use x="422.070312" xlink:href="#DejaVuSans-115"/>
     <use x="474.169922" xlink:href="#DejaVuSans-111"/>
     <use x="535.351562" xlink:href="#DejaVuSans-110"/>
     <use x="598.730469" xlink:href="#DejaVuSans-32"/>
     <use x="630.517578" xlink:href="#DejaVuSans-98"/>
     <use x="693.994141" xlink:href="#DejaVuSans-101"/>
     <use x="755.517578" xlink:href="#DejaVuSans-116"/>
     <use x="794.726562" xlink:href="#DejaVuSans-119"/>
     <use x="876.513672" xlink:href="#DejaVuSans-101"/>
     <use x="938.037109" xlink:href="#DejaVuSans-101"/>
     <use x="999.560547" xlink:href="#DejaVuSans-110"/>
     <use x="1062.939453" xlink:href="#DejaVuSans-32"/>
     <use x="1094.726562" xlink:href="#DejaVuSans-66"/>
     <use x="1163.330078" xlink:href="#DejaVuSans-117"/>
     <use x="1226.708984" xlink:href="#DejaVuSans-121"/>
     <use x="1284.138672" xlink:href="#DejaVuSans-45"/>
     <use x="1317.972656" xlink:href="#DejaVuSans-65"/>
     <use x="1386.380859" xlink:href="#DejaVuSans-110"/>
     <use x="1449.759766" xlink:href="#DejaVuSans-100"/>
     <use x="1513.236328" xlink:href="#DejaVuSans-45"/>
     <use x="1549.320312" xlink:href="#DejaVuSans-72"/>
     <use x="1624.515625" xlink:href="#DejaVuSans-111"/>
     <use x="1685.697266" xlink:href="#DejaVuSans-108"/>
     <use x="1713.480469" xlink:href="#DejaVuSans-100"/>
     <use x="1776.957031" xlink:href="#DejaVuSans-32"/>
     <use x="1808.744141" xlink:href="#DejaVuSans-97"/>
     <use x="1870.023438" xlink:href="#DejaVuSans-110"/>
     <use x="1933.402344" xlink:href="#DejaVuSans-100"/>
     <use x="1996.878906" xlink:href="#DejaVuSans-32"/>
     <use x="2028.666016" xlink:href="#DejaVuSans-68"/>
     <use x="2105.667969" xlink:href="#DejaVuSans-81"/>
     <use x="2184.378906" xlink:href="#DejaVuSans-78"/>
     <use x="2259.183594" xlink:href="#DejaVuSans-32"/>
     <use x="2290.970703" xlink:href="#DejaVuSans-112"/>
     <use x="2354.447266" xlink:href="#DejaVuSans-111"/>
     <use x="2415.628906" xlink:href="#DejaVuSans-114"/>
     <use x="2456.742188" xlink:href="#DejaVuSans-116"/>
     <use x="2495.951172" xlink:href="#DejaVuSans-102"/>
     <use x="2531.15625" xlink:href="#DejaVuSans-111"/>
     <use x="2592.337891" xlink:href="#DejaVuSans-108"/>
     <use x="2620.121094" xlink:href="#DejaVuSans-105"/>
     <use x="2647.904297" xlink:href="#DejaVuSans-111"/>
     <use x="2709.085938" xlink:href="#DejaVuSans-32"/>
    </g>
   </g>
   <g id="legend_1">
    <g id="patch_7">
     <path d="M 76.86 64.23625 
L 303.499063 64.23625 
Q 305.499063 64.23625 305.499063 62.23625 
L 305.499063 33.88 
Q 305.499063 31.88 303.499063 31.88 
L 76.86 31.88 
Q 74.86 31.88 74.86 33.88 
L 74.86 62.23625 
Q 74.86 64.23625 76.86 64.23625 
z
" style="fill:#ffffff;opacity:0.8;stroke:#cccccc;stroke-linejoin:miter;"/>
    </g>
    <g id="line2d_35">
     <path d="M 78.86 39.978437 
L 98.86 39.978437 
" style="fill:none;stroke:#ff0000;stroke-linecap:square;stroke-width:1.5;"/>
    </g>
    <g id="line2d_36"/>
    <g id="text_20">
     <!-- Reinforcement Learning Portfolio Value -->
     <g transform="translate(106.86 43.478437)scale(0.1 -0.1)">
      <defs>
       <path d="M 44.390625 34.1875 
Q 47.5625 33.109375 50.5625 29.59375 
Q 53.5625 26.078125 56.59375 19.921875 
L 66.609375 0 
L 56 0 
L 46.6875 18.703125 
Q 43.0625 26.03125 39.671875 28.421875 
Q 36.28125 30.8125 30.421875 30.8125 
L 19.671875 30.8125 
L 19.671875 0 
L 9.8125 0 
L 9.8125 72.90625 
L 32.078125 72.90625 
Q 44.578125 72.90625 50.734375 67.671875 
Q 56.890625 62.453125 56.890625 51.90625 
Q 56.890625 45.015625 53.6875 40.46875 
Q 50.484375 35.9375 44.390625 34.1875 
z
M 19.671875 64.796875 
L 19.671875 38.921875 
L 32.078125 38.921875 
Q 39.203125 38.921875 42.84375 42.21875 
Q 46.484375 45.515625 46.484375 51.90625 
Q 46.484375 58.296875 42.84375 61.546875 
Q 39.203125 64.796875 32.078125 64.796875 
z
" id="DejaVuSans-82"/>
       <path d="M 48.78125 52.59375 
L 48.78125 44.1875 
Q 44.96875 46.296875 41.140625 47.34375 
Q 37.3125 48.390625 33.40625 48.390625 
Q 24.65625 48.390625 19.8125 42.84375 
Q 14.984375 37.3125 14.984375 27.296875 
Q 14.984375 17.28125 19.8125 11.734375 
Q 24.65625 6.203125 33.40625 6.203125 
Q 37.3125 6.203125 41.140625 7.25 
Q 44.96875 8.296875 48.78125 10.40625 
L 48.78125 2.09375 
Q 45.015625 0.34375 40.984375 -0.53125 
Q 36.96875 -1.421875 32.421875 -1.421875 
Q 20.0625 -1.421875 12.78125 6.34375 
Q 5.515625 14.109375 5.515625 27.296875 
Q 5.515625 40.671875 12.859375 48.328125 
Q 20.21875 56 33.015625 56 
Q 37.15625 56 41.109375 55.140625 
Q 45.0625 54.296875 48.78125 52.59375 
z
" id="DejaVuSans-99"/>
       <path d="M 9.8125 72.90625 
L 19.671875 72.90625 
L 19.671875 8.296875 
L 55.171875 8.296875 
L 55.171875 0 
L 9.8125 0 
z
" id="DejaVuSans-76"/>
       <path d="M 45.40625 27.984375 
Q 45.40625 37.75 41.375 43.109375 
Q 37.359375 48.484375 30.078125 48.484375 
Q 22.859375 48.484375 18.828125 43.109375 
Q 14.796875 37.75 14.796875 27.984375 
Q 14.796875 18.265625 18.828125 12.890625 
Q 22.859375 7.515625 30.078125 7.515625 
Q 37.359375 7.515625 41.375 12.890625 
Q 45.40625 18.265625 45.40625 27.984375 
z
M 54.390625 6.78125 
Q 54.390625 -7.171875 48.1875 -13.984375 
Q 42 -20.796875 29.203125 -20.796875 
Q 24.46875 -20.796875 20.265625 -20.09375 
Q 16.0625 -19.390625 12.109375 -17.921875 
L 12.109375 -9.1875 
Q 16.0625 -11.328125 19.921875 -12.34375 
Q 23.78125 -13.375 27.78125 -13.375 
Q 36.625 -13.375 41.015625 -8.765625 
Q 45.40625 -4.15625 45.40625 5.171875 
L 45.40625 9.625 
Q 42.625 4.78125 38.28125 2.390625 
Q 33.9375 0 27.875 0 
Q 17.828125 0 11.671875 7.65625 
Q 5.515625 15.328125 5.515625 27.984375 
Q 5.515625 40.671875 11.671875 48.328125 
Q 17.828125 56 27.875 56 
Q 33.9375 56 38.28125 53.609375 
Q 42.625 51.21875 45.40625 46.390625 
L 45.40625 54.6875 
L 54.390625 54.6875 
z
" id="DejaVuSans-103"/>
      </defs>
      <use xlink:href="#DejaVuSans-82"/>
      <use x="64.982422" xlink:href="#DejaVuSans-101"/>
      <use x="126.505859" xlink:href="#DejaVuSans-105"/>
      <use x="154.289062" xlink:href="#DejaVuSans-110"/>
      <use x="217.667969" xlink:href="#DejaVuSans-102"/>
      <use x="252.873047" xlink:href="#DejaVuSans-111"/>
      <use x="314.054688" xlink:href="#DejaVuSans-114"/>
      <use x="352.917969" xlink:href="#DejaVuSans-99"/>
      <use x="407.898438" xlink:href="#DejaVuSans-101"/>
      <use x="469.421875" xlink:href="#DejaVuSans-109"/>
      <use x="566.833984" xlink:href="#DejaVuSans-101"/>
      <use x="628.357422" xlink:href="#DejaVuSans-110"/>
      <use x="691.736328" xlink:href="#DejaVuSans-116"/>
      <use x="730.945312" xlink:href="#DejaVuSans-32"/>
      <use x="762.732422" xlink:href="#DejaVuSans-76"/>
      <use x="816.695312" xlink:href="#DejaVuSans-101"/>
      <use x="878.21875" xlink:href="#DejaVuSans-97"/>
      <use x="939.498047" xlink:href="#DejaVuSans-114"/>
      <use x="978.861328" xlink:href="#DejaVuSans-110"/>
      <use x="1042.240234" xlink:href="#DejaVuSans-105"/>
      <use x="1070.023438" xlink:href="#DejaVuSans-110"/>
      <use x="1133.402344" xlink:href="#DejaVuSans-103"/>
      <use x="1196.878906" xlink:href="#DejaVuSans-32"/>
      <use x="1228.666016" xlink:href="#DejaVuSans-80"/>
      <use x="1285.34375" xlink:href="#DejaVuSans-111"/>
      <use x="1346.525391" xlink:href="#DejaVuSans-114"/>
      <use x="1387.638672" xlink:href="#DejaVuSans-116"/>
      <use x="1426.847656" xlink:href="#DejaVuSans-102"/>
      <use x="1462.052734" xlink:href="#DejaVuSans-111"/>
      <use x="1523.234375" xlink:href="#DejaVuSans-108"/>
      <use x="1551.017578" xlink:href="#DejaVuSans-105"/>
      <use x="1578.800781" xlink:href="#DejaVuSans-111"/>
      <use x="1639.982422" xlink:href="#DejaVuSans-32"/>
      <use x="1671.769531" xlink:href="#DejaVuSans-86"/>
      <use x="1732.427734" xlink:href="#DejaVuSans-97"/>
      <use x="1793.707031" xlink:href="#DejaVuSans-108"/>
      <use x="1821.490234" xlink:href="#DejaVuSans-117"/>
      <use x="1884.869141" xlink:href="#DejaVuSans-101"/>
     </g>
    </g>
    <g id="line2d_37">
     <path d="M 78.86 54.656563 
L 98.86 54.656563 
" style="fill:none;stroke:#0000ff;stroke-linecap:square;stroke-width:1.5;"/>
    </g>
    <g id="line2d_38"/>
    <g id="text_21">
     <!-- Buy and Hold Strategy Portfolio Value -->
     <g transform="translate(106.86 58.156563)scale(0.1 -0.1)">
      <defs>
       <path d="M 53.515625 70.515625 
L 53.515625 60.890625 
Q 47.90625 63.578125 42.921875 64.890625 
Q 37.9375 66.21875 33.296875 66.21875 
Q 25.25 66.21875 20.875 63.09375 
Q 16.5 59.96875 16.5 54.203125 
Q 16.5 49.359375 19.40625 46.890625 
Q 22.3125 44.4375 30.421875 42.921875 
L 36.375 41.703125 
Q 47.40625 39.59375 52.65625 34.296875 
Q 57.90625 29 57.90625 20.125 
Q 57.90625 9.515625 50.796875 4.046875 
Q 43.703125 -1.421875 29.984375 -1.421875 
Q 24.8125 -1.421875 18.96875 -0.25 
Q 13.140625 0.921875 6.890625 3.21875 
L 6.890625 13.375 
Q 12.890625 10.015625 18.65625 8.296875 
Q 24.421875 6.59375 29.984375 6.59375 
Q 38.421875 6.59375 43.015625 9.90625 
Q 47.609375 13.234375 47.609375 19.390625 
Q 47.609375 24.75 44.3125 27.78125 
Q 41.015625 30.8125 33.5 32.328125 
L 27.484375 33.5 
Q 16.453125 35.6875 11.515625 40.375 
Q 6.59375 45.0625 6.59375 53.421875 
Q 6.59375 63.09375 13.40625 68.65625 
Q 20.21875 74.21875 32.171875 74.21875 
Q 37.3125 74.21875 42.625 73.28125 
Q 47.953125 72.359375 53.515625 70.515625 
z
" id="DejaVuSans-83"/>
      </defs>
      <use xlink:href="#DejaVuSans-66"/>
      <use x="68.603516" xlink:href="#DejaVuSans-117"/>
      <use x="131.982422" xlink:href="#DejaVuSans-121"/>
      <use x="191.162109" xlink:href="#DejaVuSans-32"/>
      <use x="222.949219" xlink:href="#DejaVuSans-97"/>
      <use x="284.228516" xlink:href="#DejaVuSans-110"/>
      <use x="347.607422" xlink:href="#DejaVuSans-100"/>
      <use x="411.083984" xlink:href="#DejaVuSans-32"/>
      <use x="442.871094" xlink:href="#DejaVuSans-72"/>
      <use x="518.066406" xlink:href="#DejaVuSans-111"/>
      <use x="579.248047" xlink:href="#DejaVuSans-108"/>
      <use x="607.03125" xlink:href="#DejaVuSans-100"/>
      <use x="670.507812" xlink:href="#DejaVuSans-32"/>
      <use x="702.294922" xlink:href="#DejaVuSans-83"/>
      <use x="765.771484" xlink:href="#DejaVuSans-116"/>
      <use x="804.980469" xlink:href="#DejaVuSans-114"/>
      <use x="846.09375" xlink:href="#DejaVuSans-97"/>
      <use x="907.373047" xlink:href="#DejaVuSans-116"/>
      <use x="946.582031" xlink:href="#DejaVuSans-101"/>
      <use x="1008.105469" xlink:href="#DejaVuSans-103"/>
      <use x="1071.582031" xlink:href="#DejaVuSans-121"/>
      <use x="1130.761719" xlink:href="#DejaVuSans-32"/>
      <use x="1162.548828" xlink:href="#DejaVuSans-80"/>
      <use x="1219.226562" xlink:href="#DejaVuSans-111"/>
      <use x="1280.408203" xlink:href="#DejaVuSans-114"/>
      <use x="1321.521484" xlink:href="#DejaVuSans-116"/>
      <use x="1360.730469" xlink:href="#DejaVuSans-102"/>
      <use x="1395.935547" xlink:href="#DejaVuSans-111"/>
      <use x="1457.117188" xlink:href="#DejaVuSans-108"/>
      <use x="1484.900391" xlink:href="#DejaVuSans-105"/>
      <use x="1512.683594" xlink:href="#DejaVuSans-111"/>
      <use x="1573.865234" xlink:href="#DejaVuSans-32"/>
      <use x="1605.652344" xlink:href="#DejaVuSans-86"/>
      <use x="1666.310547" xlink:href="#DejaVuSans-97"/>
      <use x="1727.589844" xlink:href="#DejaVuSans-108"/>
      <use x="1755.373047" xlink:href="#DejaVuSans-117"/>
      <use x="1818.751953" xlink:href="#DejaVuSans-101"/>
     </g>
    </g>
   </g>
  </g>
 </g>
 <defs>
  <clipPath id="p6cb57333d9">
   <rect height="260.006956" width="380.14" x="69.86" y="26.88"/>
  </clipPath>
 </defs>
</svg>
